<?xml version="1.0" encoding="UTF-8"?><svg xmlns="http://www.w3.org/2000/svg" xmlns:xlink="http://www.w3.org/1999/xlink" fill-opacity="1" color-rendering="auto" color-interpolation="auto" text-rendering="auto" stroke="black" stroke-linecap="square" width="1361" stroke-miterlimit="10" shape-rendering="auto" stroke-opacity="1" fill="black" stroke-dasharray="none" font-weight="normal" stroke-width="1" height="1067" font-family="'Dialog'" font-style="normal" stroke-linejoin="miter" font-size="12px" stroke-dashoffset="0" image-rendering="auto">
  <!--Generated by ySVG 2.5-->
  <defs id="genericDefs"/>
  <g>
    <defs id="defs1">
      <clipPath clipPathUnits="userSpaceOnUse" id="clipPath1">
        <path d="M0 0 L1361 0 L1361 1067 L0 1067 L0 0 Z"/>
      </clipPath>
      <clipPath clipPathUnits="userSpaceOnUse" id="clipPath2">
        <path d="M-963 -157 L398 -157 L398 910 L-963 910 L-963 -157 Z"/>
      </clipPath>
    </defs>
    <g fill="white" text-rendering="geometricPrecision" shape-rendering="geometricPrecision" transform="translate(963,157)" stroke="white">
      <rect x="-963" width="1361" height="1067" y="-157" clip-path="url(#clipPath2)" stroke="none"/>
    </g>
    <g text-rendering="geometricPrecision" stroke-miterlimit="1.45" shape-rendering="geometricPrecision" transform="matrix(1,0,0,1,963,157)" stroke-linecap="butt">
      <rect fill="none" x="-4.8573" width="103.1211" height="30" y="-141.4212" clip-path="url(#clipPath2)"/>
      <text x="2.1427" xml:space="preserve" y="-122.2669" clip-path="url(#clipPath2)" font-family="sans-serif" stroke="none">Program starts</text>
    </g>
    <g fill="rgb(255,204,0)" text-rendering="geometricPrecision" shape-rendering="geometricPrecision" transform="matrix(1,0,0,1,963,157)" stroke="rgb(255,204,0)">
      <rect x="-37.7519" width="168.9102" height="30" y="-68.1656" clip-path="url(#clipPath2)" stroke="none"/>
    </g>
    <g text-rendering="geometricPrecision" stroke-miterlimit="1.45" shape-rendering="geometricPrecision" transform="matrix(1,0,0,1,963,157)" stroke-linecap="butt">
      <rect fill="none" x="-37.7519" width="168.9102" height="30" y="-68.1656" clip-path="url(#clipPath2)"/>
      <text x="-7.8505" xml:space="preserve" y="-55.9957" clip-path="url(#clipPath2)" font-family="sans-serif" stroke="none">Explain the game </text>
      <text x="-30.7519" xml:space="preserve" y="-42.0269" clip-path="url(#clipPath2)" font-family="sans-serif" stroke="none">and its rules to the player</text>
    </g>
    <g fill="rgb(255,204,0)" text-rendering="geometricPrecision" shape-rendering="geometricPrecision" transform="matrix(1,0,0,1,963,157)" stroke="rgb(255,204,0)">
      <rect x="-158.1589" width="186.0312" height="55.209" y="114.8569" clip-path="url(#clipPath2)" stroke="none"/>
    </g>
    <g text-rendering="geometricPrecision" stroke-miterlimit="1.45" shape-rendering="geometricPrecision" transform="matrix(1,0,0,1,963,157)" stroke-linecap="butt">
      <rect fill="none" x="-158.1589" width="186.0312" height="55.209" y="114.8569" clip-path="url(#clipPath2)"/>
      <text x="-151.1589" xml:space="preserve" y="132.647" clip-path="url(#clipPath2)" font-family="sans-serif" stroke="none">Generate a random number </text>
      <text x="-142.0798" xml:space="preserve" y="146.6157" clip-path="url(#clipPath2)" font-family="sans-serif" stroke="none">between lower and upper</text>
      <text x="-93.7311" xml:space="preserve" y="160.5845" clip-path="url(#clipPath2)" font-family="sans-serif" stroke="none">boundary</text>
    </g>
    <g fill="rgb(255,204,0)" text-rendering="geometricPrecision" shape-rendering="geometricPrecision" transform="matrix(1,0,0,1,963,157)" stroke="rgb(255,204,0)">
      <rect x="-39.1113" width="164.2871" height="30" y="575.2568" clip-path="url(#clipPath2)" stroke="none"/>
    </g>
    <g text-rendering="geometricPrecision" stroke-miterlimit="1.45" shape-rendering="geometricPrecision" transform="matrix(1,0,0,1,963,157)" stroke-linecap="butt">
      <rect fill="none" x="-39.1113" width="164.2871" height="30" y="575.2568" clip-path="url(#clipPath2)"/>
      <text x="-32.1113" xml:space="preserve" y="594.4111" clip-path="url(#clipPath2)" font-family="sans-serif" stroke="none">Tell player that they won</text>
      <rect fill="none" x="93.1531" width="97.7773" height="30" y="639.9034" clip-path="url(#clipPath2)"/>
      <text x="100.1531" xml:space="preserve" y="659.0577" clip-path="url(#clipPath2)" font-family="sans-serif" stroke="none">Program ends</text>
    </g>
    <g fill="rgb(255,204,0)" text-rendering="geometricPrecision" shape-rendering="geometricPrecision" transform="matrix(1,0,0,1,963,157)" stroke="rgb(255,204,0)">
      <rect x="182.8093" width="161.1582" height="30" y="575.2568" clip-path="url(#clipPath2)" stroke="none"/>
    </g>
    <g text-rendering="geometricPrecision" stroke-miterlimit="1.45" shape-rendering="geometricPrecision" transform="matrix(1,0,0,1,963,157)" stroke-linecap="butt">
      <rect fill="none" x="182.8093" width="161.1582" height="30" y="575.2568" clip-path="url(#clipPath2)"/>
      <text x="189.8093" xml:space="preserve" y="594.4111" clip-path="url(#clipPath2)" font-family="sans-serif" stroke="none">Tell player that they lost</text>
    </g>
    <g fill="rgb(255,204,0)" text-rendering="geometricPrecision" shape-rendering="geometricPrecision" transform="matrix(1,0,0,1,963,157)" stroke="rgb(255,204,0)">
      <rect x="-164.2351" width="198.1836" height="30" y="54.8569" clip-path="url(#clipPath2)" stroke="none"/>
    </g>
    <g text-rendering="geometricPrecision" stroke-miterlimit="1.45" shape-rendering="geometricPrecision" transform="matrix(1,0,0,1,963,157)" stroke-linecap="butt">
      <rect fill="none" x="-164.2351" width="198.1836" height="30" y="54.8569" clip-path="url(#clipPath2)"/>
      <text x="-157.2351" xml:space="preserve" y="74.0112" clip-path="url(#clipPath2)" font-family="sans-serif" stroke="none">Define the number boundaries</text>
    </g>
    <g fill="rgb(255,204,0)" text-rendering="geometricPrecision" shape-rendering="geometricPrecision" transform="matrix(1,0,0,1,963,157)" stroke="rgb(255,204,0)">
      <rect x="63.9485" width="227.0527" height="30" y="54.8569" clip-path="url(#clipPath2)" stroke="none"/>
    </g>
    <g text-rendering="geometricPrecision" stroke-miterlimit="1.45" shape-rendering="geometricPrecision" transform="matrix(1,0,0,1,963,157)" stroke-linecap="butt">
      <rect fill="none" x="63.9485" width="227.0527" height="30" y="54.8569" clip-path="url(#clipPath2)"/>
      <text x="70.9485" xml:space="preserve" y="74.0112" clip-path="url(#clipPath2)" font-family="sans-serif" stroke="none">Define the total guesses player has</text>
    </g>
    <g fill="rgb(204,255,255)" text-rendering="geometricPrecision" shape-rendering="geometricPrecision" transform="matrix(1,0,0,1,963,157)" stroke="rgb(204,255,255)">
      <rect x="-483.8493" width="414.4824" height="98.1505" y="-88.4539" clip-path="url(#clipPath2)" stroke="none"/>
    </g>
    <g text-rendering="geometricPrecision" stroke-miterlimit="1.45" shape-rendering="geometricPrecision" transform="matrix(1,0,0,1,963,157)" stroke-linecap="butt">
      <rect fill="none" x="-483.8493" width="414.4824" height="98.1505" y="-88.4539" clip-path="url(#clipPath2)"/>
      <text x="-476.8493" xml:space="preserve" y="-70.1463" clip-path="url(#clipPath2)" font-family="sans-serif" stroke="none">Who defines these?</text>
      <text x="-476.8493" xml:space="preserve" y="-56.1775" clip-path="url(#clipPath2)" font-family="sans-serif" stroke="none">- Developer in source code: unchangeable value</text>
      <text x="-476.8493" xml:space="preserve" y="-42.2088" clip-path="url(#clipPath2)" font-family="sans-serif" stroke="none">- Player before playing: inconvenient for multiple consecutive runs</text>
      <text x="-476.8493" xml:space="preserve" y="-28.24" clip-path="url(#clipPath2)" font-family="sans-serif" stroke="none">- Both-ish in config file: easily changeable when desired </text>
      <text x="-476.8493" xml:space="preserve" y="-14.2713" clip-path="url(#clipPath2)" font-family="sans-serif" stroke="none">      but subject to file system problems </text>
      <text x="-476.8493" xml:space="preserve" y="-0.3025" clip-path="url(#clipPath2)" font-family="sans-serif" stroke="none">      (e.g. deletion, hard drive failure, etc.)</text>
      <path fill="none" d="M46.7032 -111.4212 L46.7032 -76.1656" clip-path="url(#clipPath2)"/>
      <path d="M46.7032 -68.1656 L51.7032 -80.1656 L46.7032 -77.1656 L41.7032 -80.1656 Z" clip-path="url(#clipPath2)" stroke="none"/>
      <path fill="none" d="M66.0055 605.2568 L112.3699 635.5297" clip-path="url(#clipPath2)"/>
      <path d="M119.0685 639.9034 L111.7542 629.1562 L111.5326 634.983 L106.2871 637.5294 Z" clip-path="url(#clipPath2)" stroke="none"/>
      <path fill="none" d="M235.2323 605.2568 L177.2584 636.1419" clip-path="url(#clipPath2)"/>
      <path d="M170.1979 639.9034 L183.1396 638.674 L178.141 635.6718 L178.4378 629.8483 Z" clip-path="url(#clipPath2)" stroke="none"/>
      <path fill="none" d="M33.0659 -38.1656 L-46.1244 48.9376" clip-path="url(#clipPath2)"/>
      <path d="M-51.5059 54.8569 L-39.734 49.3414 L-45.4517 48.1977 L-47.1331 42.6144 Z" clip-path="url(#clipPath2)" stroke="none"/>
      <path fill="none" d="M-65.1433 84.8569 L-65.1433 106.8569" clip-path="url(#clipPath2)"/>
      <path d="M-65.1433 114.8569 L-60.1433 102.8569 L-65.1433 105.8569 L-70.1433 102.8569 Z" clip-path="url(#clipPath2)" stroke="none"/>
      <path fill="none" d="M62.6481 -38.1656 L155.7032 49.3753" clip-path="url(#clipPath2)"/>
      <path d="M161.5301 54.8569 L156.2157 42.9928 L154.9748 48.6901 L149.3638 50.2763 Z" clip-path="url(#clipPath2)" stroke="none"/>
    </g>
    <g stroke-linecap="round" transform="matrix(1,0,0,1,963,157)" stroke-dashoffset="2" text-rendering="geometricPrecision" shape-rendering="geometricPrecision" stroke-dasharray="0,12" stroke-width="3" stroke-miterlimit="1.45">
      <path fill="none" d="M-181.6053 9.6966 L-103.0658 50.2674" clip-path="url(#clipPath2)"/>
      <path d="M-94.1812 54.8569 L-104.6397 42.4198 L-104.1764 49.6937 L-110.3765 53.5256 Z" clip-path="url(#clipPath2)" stroke="none"/>
      <path fill="none" d="M-72.6065 9.6966 L105.3986 52.518" clip-path="url(#clipPath2)"/>
      <path d="M115.1212 54.8569 L101.9991 45.2719 L104.1832 52.2256 L99.0754 57.4252 Z" clip-path="url(#clipPath2)" stroke="none"/>
    </g>
    <g fill="rgb(245,245,245)" text-rendering="geometricPrecision" shape-rendering="geometricPrecision" transform="matrix(1,0,0,1,963,157)" stroke="rgb(245,245,245)">
      <rect x="-57.5605" y="190.2047" clip-path="url(#clipPath2)" width="439.6491" rx="4" ry="4" height="367.2487" stroke="none"/>
      <rect x="-57.5605" y="190.2047" clip-path="url(#clipPath2)" fill="rgb(235,235,235)" width="439.6491" height="21.4609" stroke="none"/>
    </g>
    <g font-size="15px" stroke-linecap="butt" transform="matrix(1,0,0,1,963,157)" text-rendering="geometricPrecision" font-family="sans-serif" shape-rendering="geometricPrecision" stroke-miterlimit="1.45">
      <text x="119.4357" xml:space="preserve" y="206.128" clip-path="url(#clipPath2)" stroke="none">Game Loop</text>
      <rect x="-57.5605" y="190.2047" clip-path="url(#clipPath2)" fill="none" width="439.6491" stroke-dasharray="6,2" rx="4" ry="4" height="367.2487"/>
    </g>
    <g fill="rgb(255,204,0)" text-rendering="geometricPrecision" shape-rendering="geometricPrecision" transform="matrix(1,0,0,1,963,157)" stroke="rgb(255,204,0)">
      <rect x="-40.9482" width="167.9609" height="30" y="229.2701" clip-path="url(#clipPath2)" stroke="none"/>
    </g>
    <g text-rendering="geometricPrecision" stroke-miterlimit="1.45" shape-rendering="geometricPrecision" transform="matrix(1,0,0,1,963,157)" stroke-linecap="butt">
      <rect fill="none" x="-40.9482" width="167.9609" height="30" y="229.2701" clip-path="url(#clipPath2)"/>
      <text x="-33.9482" xml:space="preserve" y="248.4244" clip-path="url(#clipPath2)" font-family="sans-serif" stroke="none">Ask player for their guess</text>
    </g>
    <g fill="rgb(204,255,204)" text-rendering="geometricPrecision" shape-rendering="geometricPrecision" transform="matrix(1,0,0,1,963,157)" stroke="rgb(204,255,204)">
      <path d="M-42.5605 476.8645 L43.0323 441.8645 L128.6251 476.8645 L43.0323 511.8645 Z" fill-rule="evenodd" clip-path="url(#clipPath2)" stroke="none"/>
    </g>
    <g text-rendering="geometricPrecision" stroke-miterlimit="1.45" shape-rendering="geometricPrecision" transform="matrix(1,0,0,1,963,157)" stroke-linecap="butt">
      <path fill="none" d="M-42.5605 476.8645 L43.0323 441.8645 L128.6251 476.8645 L43.0323 511.8645 Z" fill-rule="evenodd" clip-path="url(#clipPath2)"/>
      <text x="-7.5605" xml:space="preserve" y="481.0188" clip-path="url(#clipPath2)" font-family="sans-serif" stroke="none">is guess correct?</text>
    </g>
    <g fill="rgb(204,255,204)" text-rendering="geometricPrecision" shape-rendering="geometricPrecision" transform="matrix(1,0,0,1,963,157)" stroke="rgb(204,255,204)">
      <path d="M185.9753 476.8645 L263.3884 425.8645 L340.8015 476.8645 L263.3884 527.8645 Z" fill-rule="evenodd" clip-path="url(#clipPath2)" stroke="none"/>
    </g>
    <g text-rendering="geometricPrecision" stroke-miterlimit="1.45" shape-rendering="geometricPrecision" transform="matrix(1,0,0,1,963,157)" stroke-linecap="butt">
      <path fill="none" d="M185.9753 476.8645 L263.3884 425.8645 L340.8015 476.8645 L263.3884 527.8645 Z" fill-rule="evenodd" clip-path="url(#clipPath2)"/>
      <text x="208.9753" xml:space="preserve" y="474.0344" clip-path="url(#clipPath2)" font-family="sans-serif" stroke="none">Does player have </text>
      <text x="218.2507" xml:space="preserve" y="488.0031" clip-path="url(#clipPath2)" font-family="sans-serif" stroke="none">more guesses?</text>
    </g>
    <g fill="rgb(204,255,204)" text-rendering="geometricPrecision" shape-rendering="geometricPrecision" transform="matrix(1,0,0,1,963,157)" stroke="rgb(204,255,204)">
      <rect x="-42.3456" width="170.7559" height="36.3023" y="289.2701" clip-path="url(#clipPath2)" stroke="none"/>
    </g>
    <g text-rendering="geometricPrecision" stroke-miterlimit="1.45" shape-rendering="geometricPrecision" transform="matrix(1,0,0,1,963,157)" stroke-linecap="butt">
      <rect fill="none" x="-42.3456" width="170.7559" height="36.3023" y="289.2701" clip-path="url(#clipPath2)"/>
      <text x="1.047" xml:space="preserve" y="304.5912" clip-path="url(#clipPath2)" font-family="sans-serif" stroke="none">Validate input</text>
      <text x="-35.3456" xml:space="preserve" y="318.5599" clip-path="url(#clipPath2)" font-family="sans-serif" stroke="none">(specific to Infrastructure)</text>
    </g>
    <g fill="rgb(204,255,204)" text-rendering="geometricPrecision" shape-rendering="geometricPrecision" transform="matrix(1,0,0,1,963,157)" stroke="rgb(204,255,204)">
      <path d="M-34.4872 383.7184 L43.0323 351.8695 L120.5518 383.7184 L43.0323 415.5673 Z" fill-rule="evenodd" clip-path="url(#clipPath2)" stroke="none"/>
    </g>
    <g text-rendering="geometricPrecision" stroke-miterlimit="1.45" shape-rendering="geometricPrecision" transform="matrix(1,0,0,1,963,157)" stroke-linecap="butt">
      <path fill="none" d="M-34.4872 383.7184 L43.0323 351.8695 L120.5518 383.7184 L43.0323 415.5673 Z" fill-rule="evenodd" clip-path="url(#clipPath2)"/>
      <text x="16.8702" xml:space="preserve" y="380.8883" clip-path="url(#clipPath2)" font-family="sans-serif" stroke="none">is guess </text>
      <text x="-2.2782" xml:space="preserve" y="394.8571" clip-path="url(#clipPath2)" font-family="sans-serif" stroke="none">within bounds?</text>
    </g>
    <g fill="rgb(255,204,0)" text-rendering="geometricPrecision" shape-rendering="geometricPrecision" transform="matrix(1,0,0,1,963,157)" stroke="rgb(255,204,0)">
      <rect x="208.6638" width="109.4492" height="30" y="229.2701" clip-path="url(#clipPath2)" stroke="none"/>
    </g>
    <g text-rendering="geometricPrecision" stroke-miterlimit="1.45" shape-rendering="geometricPrecision" transform="matrix(1,0,0,1,963,157)" stroke-linecap="butt">
      <rect fill="none" x="208.6638" width="109.4492" height="30" y="229.2701" clip-path="url(#clipPath2)"/>
      <text x="215.6638" xml:space="preserve" y="241.44" clip-path="url(#clipPath2)" font-family="sans-serif" stroke="none">Decrease guess</text>
      <text x="246.4607" xml:space="preserve" y="255.4088" clip-path="url(#clipPath2)" font-family="sans-serif" stroke="none">count</text>
    </g>
    <g fill="rgb(204,255,255)" text-rendering="geometricPrecision" shape-rendering="geometricPrecision" transform="matrix(1,0,0,1,963,157)" stroke="rgb(204,255,255)">
      <rect x="-402.5944" width="308.293" height="30" y="341.8645" clip-path="url(#clipPath2)" stroke="none"/>
    </g>
    <g text-rendering="geometricPrecision" stroke-miterlimit="1.45" shape-rendering="geometricPrecision" transform="matrix(1,0,0,1,963,157)" stroke-linecap="butt">
      <rect fill="none" x="-402.5944" width="308.293" height="30" y="341.8645" clip-path="url(#clipPath2)"/>
      <text x="-395.5944" xml:space="preserve" y="361.0188" clip-path="url(#clipPath2)" font-family="sans-serif" stroke="none">What needs to be validated here, why, and how?</text>
      <path fill="none" d="M-35.8124 170.0659 L21.2685 223.7873" clip-path="url(#clipPath2)"/>
      <path d="M27.0942 229.2701 L21.7825 217.4048 L20.5403 223.1019 L14.9289 224.687 Z" clip-path="url(#clipPath2)" stroke="none"/>
      <path fill="none" d="M165.9125 84.8569 L59.4788 222.934" clip-path="url(#clipPath2)"/>
      <path d="M54.5947 229.2701 L65.8809 222.8185 L60.0893 222.142 L57.9607 216.7134 Z" clip-path="url(#clipPath2)" stroke="none"/>
      <path fill="none" d="M43.0323 511.8843 L43.0323 567.2568" clip-path="url(#clipPath2)"/>
      <path d="M43.0323 575.2568 L48.0323 563.2568 L43.0323 566.2568 L38.0323 563.2568 Z" clip-path="url(#clipPath2)" stroke="none"/>
      <text x="2.5499" xml:space="preserve" y="530.0032" clip-path="url(#clipPath2)" font-family="sans-serif" stroke="none">Yes</text>
      <path fill="none" d="M128.6516 476.8645 L177.9871 476.8645" clip-path="url(#clipPath2)" stroke="red"/>
      <path fill="red" d="M185.9871 476.8645 L173.9871 471.8645 L176.9871 476.8645 L173.9871 481.8645 Z" clip-path="url(#clipPath2)" stroke="none"/>
      <text x="135.6251" xml:space="preserve" y="454.9161" clip-path="url(#clipPath2)" font-family="sans-serif" stroke="none">No</text>
      <path fill="none" d="M263.3884 527.8854 L263.3884 567.2568" clip-path="url(#clipPath2)"/>
      <path d="M263.3884 575.2568 L268.3884 563.2568 L263.3884 566.2568 L258.3884 563.2568 Z" clip-path="url(#clipPath2)" stroke="none"/>
      <text x="285.2292" xml:space="preserve" y="546.0032" clip-path="url(#clipPath2)" font-family="sans-serif" stroke="none">No</text>
      <path fill="none" d="M43.0323 259.2701 L43.0323 281.2701" clip-path="url(#clipPath2)" stroke="red"/>
      <path fill="red" d="M43.0323 289.2701 L48.0323 277.2701 L43.0323 280.2701 L38.0323 277.2701 Z" clip-path="url(#clipPath2)" stroke="none"/>
      <path fill="none" d="M43.0323 325.5724 L43.0323 343.8914" clip-path="url(#clipPath2)" stroke="red"/>
      <path fill="red" d="M43.0323 351.8914 L48.0323 339.8914 L43.0323 342.8914 L38.0323 339.8914 Z" clip-path="url(#clipPath2)" stroke="none"/>
      <path fill="none" d="M43.0323 415.6009 L43.0323 433.8354" clip-path="url(#clipPath2)" stroke="red"/>
      <path fill="red" d="M43.0323 441.8354 L48.0323 429.8354 L43.0323 432.8354 L38.0323 429.8354 Z" clip-path="url(#clipPath2)" stroke="none"/>
      <text x="2.5499" xml:space="preserve" y="433.3702" clip-path="url(#clipPath2)" font-family="sans-serif" stroke="none">Yes</text>
      <path fill="none" d="M120.5504 383.7184 L162.2641 383.7184 L162.2641 244.2701 L135.0128 244.2701" clip-path="url(#clipPath2)" stroke="red"/>
      <path fill="red" d="M127.0128 244.2701 L139.0128 249.2701 L136.0128 244.2701 L139.0128 239.2701 Z" clip-path="url(#clipPath2)" stroke="none"/>
      <text x="124.1049" xml:space="preserve" y="378.8883" clip-path="url(#clipPath2)" font-family="sans-serif" stroke="none">No</text>
      <path fill="none" d="M263.3884 425.8425 L263.3884 267.2701" clip-path="url(#clipPath2)" stroke="red"/>
      <path fill="red" d="M263.3884 259.2701 L258.3884 271.2701 L263.3884 268.2701 L268.3884 271.2701 Z" clip-path="url(#clipPath2)" stroke="none"/>
      <text x="282.906" xml:space="preserve" y="416.0344" clip-path="url(#clipPath2)" font-family="sans-serif" stroke="none">Yes</text>
      <path fill="none" d="M208.6638 244.2701 L135.0128 244.2701" clip-path="url(#clipPath2)" stroke="red"/>
      <path fill="red" d="M127.0128 244.2701 L139.0128 249.2701 L136.0128 244.2701 L139.0128 239.2701 Z" clip-path="url(#clipPath2)" stroke="none"/>
    </g>
    <g stroke-linecap="round" transform="matrix(1,0,0,1,963,157)" stroke-dashoffset="2" text-rendering="geometricPrecision" shape-rendering="geometricPrecision" stroke-dasharray="0,12" stroke-width="3" stroke-miterlimit="1.45">
      <path fill="none" d="M-248.4479 341.8645 L-248.4479 307.4212 L-52.3456 307.4212" clip-path="url(#clipPath2)"/>
      <path d="M-42.3456 307.4212 L-57.3456 301.1712 L-53.5956 307.4212 L-57.3456 313.6712 Z" clip-path="url(#clipPath2)" stroke="none"/>
    </g>
    <g fill="rgb(245,245,245)" text-rendering="geometricPrecision" shape-rendering="geometricPrecision" transform="matrix(1,0,0,1,963,157)" stroke="rgb(245,245,245)">
      <rect x="-765.7794" y="24.6716" clip-path="url(#clipPath2)" width="448.6284" rx="4" ry="4" height="287.1928" stroke="none"/>
      <rect x="-765.7794" y="272.9426" clip-path="url(#clipPath2)" fill="rgb(235,235,235)" width="448.6284" height="38.9219" stroke="none"/>
    </g>
    <g font-size="15px" stroke-linecap="butt" transform="matrix(1,0,0,1,963,157)" text-rendering="geometricPrecision" font-family="sans-serif" shape-rendering="geometricPrecision" stroke-miterlimit="1.45">
      <text x="-609.9979" xml:space="preserve" y="288.8659" clip-path="url(#clipPath2)" stroke="none">Terminal-based UI</text>
      <text x="-615.4362" xml:space="preserve" y="306.3269" clip-path="url(#clipPath2)" stroke="none">(Validation needed)</text>
      <rect x="-765.7794" y="24.6716" clip-path="url(#clipPath2)" fill="none" width="448.6284" stroke-dasharray="6,2" rx="4" ry="4" height="287.1928"/>
    </g>
    <g fill="rgb(255,204,0)" text-rendering="geometricPrecision" shape-rendering="geometricPrecision" transform="matrix(1,0,0,1,963,157)" stroke="rgb(255,204,0)">
      <rect x="-750.7794" width="268.9355" height="30" y="99.6716" clip-path="url(#clipPath2)" stroke="none"/>
    </g>
    <g text-rendering="geometricPrecision" stroke-miterlimit="1.45" shape-rendering="geometricPrecision" transform="matrix(1,0,0,1,963,157)" stroke-linecap="butt">
      <rect fill="none" x="-750.7794" width="268.9355" height="30" y="99.6716" clip-path="url(#clipPath2)"/>
      <text x="-743.7794" xml:space="preserve" y="118.8259" clip-path="url(#clipPath2)" font-family="sans-serif" stroke="none">User inputs a String value via the terminal</text>
    </g>
    <g fill="rgb(255,204,0)" text-rendering="geometricPrecision" shape-rendering="geometricPrecision" transform="matrix(1,0,0,1,963,157)" stroke="rgb(255,204,0)">
      <path d="M-684.8973 175.0648 L-616.3116 152.187 L-547.726 175.0648 L-616.3116 197.9426 Z" fill-rule="evenodd" clip-path="url(#clipPath2)" stroke="none"/>
    </g>
    <g text-rendering="geometricPrecision" stroke-miterlimit="1.45" shape-rendering="geometricPrecision" transform="matrix(1,0,0,1,963,157)" stroke-linecap="butt">
      <path fill="none" d="M-684.8973 175.0648 L-616.3116 152.187 L-547.726 175.0648 L-616.3116 197.9426 Z" fill-rule="evenodd" clip-path="url(#clipPath2)"/>
      <text x="-649.5372" xml:space="preserve" y="179.2191" clip-path="url(#clipPath2)" font-family="sans-serif" stroke="none">Is it an Int?</text>
    </g>
    <g fill="rgb(255,204,0)" text-rendering="geometricPrecision" shape-rendering="geometricPrecision" transform="matrix(1,0,0,1,963,157)" stroke="rgb(255,204,0)">
      <rect x="-402.5944" width="70.4434" height="30" y="99.8003" clip-path="url(#clipPath2)" stroke="none"/>
    </g>
    <g text-rendering="geometricPrecision" stroke-miterlimit="1.45" shape-rendering="geometricPrecision" transform="matrix(1,0,0,1,963,157)" stroke-linecap="butt">
      <rect fill="none" x="-402.5944" width="70.4434" height="30" y="99.8003" clip-path="url(#clipPath2)"/>
      <text x="-395.5944" xml:space="preserve" y="118.9546" clip-path="url(#clipPath2)" font-family="sans-serif" stroke="none">Try again</text>
    </g>
    <g fill="rgb(255,204,0)" text-rendering="geometricPrecision" shape-rendering="geometricPrecision" transform="matrix(1,0,0,1,963,157)" stroke="rgb(255,204,0)">
      <rect x="-684.5509" width="136.4785" height="30" y="227.9426" clip-path="url(#clipPath2)" stroke="none"/>
    </g>
    <g text-rendering="geometricPrecision" stroke-miterlimit="1.45" shape-rendering="geometricPrecision" transform="matrix(1,0,0,1,963,157)" stroke-linecap="butt">
      <rect fill="none" x="-684.5509" width="136.4785" height="30" y="227.9426" clip-path="url(#clipPath2)"/>
      <text x="-677.5508" xml:space="preserve" y="247.0969" clip-path="url(#clipPath2)" font-family="sans-serif" stroke="none">output correct value</text>
    </g>
    <g fill="rgb(255,204,0)" text-rendering="geometricPrecision" shape-rendering="geometricPrecision" transform="matrix(1,0,0,1,963,157)" stroke="rgb(255,204,0)">
      <rect x="-728.6573" width="224.6914" height="30" y="39.6716" clip-path="url(#clipPath2)" stroke="none"/>
    </g>
    <g text-rendering="geometricPrecision" stroke-miterlimit="1.45" shape-rendering="geometricPrecision" transform="matrix(1,0,0,1,963,157)" stroke-linecap="butt">
      <rect fill="none" x="-728.6573" width="224.6914" height="30" y="39.6716" clip-path="url(#clipPath2)"/>
      <text x="-721.6573" xml:space="preserve" y="58.8259" clip-path="url(#clipPath2)" font-family="sans-serif" stroke="none">Terminal prompts user for an input</text>
      <path fill="none" d="M-402.5944 356.8645 L-538.2452 356.8645 L-538.8767 319.8783" clip-path="url(#clipPath2)"/>
      <path d="M-539.0132 311.8794 L-543.8077 323.963 L-538.8596 320.8781 L-533.8091 323.7923 Z" clip-path="url(#clipPath2)" stroke="none"/>
      <path fill="none" d="M-616.3116 129.6716 L-616.3116 144.1466" clip-path="url(#clipPath2)"/>
      <path d="M-616.3116 152.1466 L-611.3116 140.1466 L-616.3116 143.1466 L-621.3116 140.1466 Z" clip-path="url(#clipPath2)" stroke="none"/>
      <path fill="none" d="M-547.7258 175.0648 L-367.3727 175.0648 L-367.3727 137.8003" clip-path="url(#clipPath2)"/>
      <path d="M-367.3727 129.8003 L-372.3727 141.8003 L-367.3727 138.8003 L-362.3727 141.8003 Z" clip-path="url(#clipPath2)" stroke="none"/>
      <text x="-540.7259" xml:space="preserve" y="149.2191" clip-path="url(#clipPath2)" font-family="sans-serif" stroke="none">No</text>
      <path fill="none" d="M-616.3116 197.9669 L-616.3116 219.9426" clip-path="url(#clipPath2)"/>
      <path d="M-616.3116 227.9426 L-611.3116 215.9426 L-616.3116 218.9426 L-621.3116 215.9426 Z" clip-path="url(#clipPath2)" stroke="none"/>
      <text x="-596.794" xml:space="preserve" y="218.1125" clip-path="url(#clipPath2)" font-family="sans-serif" stroke="none">Yes</text>
      <path fill="none" d="M-367.3727 99.8003 L-367.3727 54.6716 L-495.9659 54.6716" clip-path="url(#clipPath2)"/>
      <path d="M-503.9659 54.6716 L-491.9659 59.6716 L-494.9659 54.6716 L-491.9659 49.6716 Z" clip-path="url(#clipPath2)" stroke="none"/>
      <path fill="none" d="M-616.3116 69.6716 L-616.3116 91.6716" clip-path="url(#clipPath2)"/>
      <path d="M-616.3116 99.6716 L-611.3116 87.6716 L-616.3116 90.6716 L-621.3116 87.6716 Z" clip-path="url(#clipPath2)" stroke="none"/>
    </g>
    <g fill="rgb(245,245,245)" text-rendering="geometricPrecision" shape-rendering="geometricPrecision" transform="matrix(1,0,0,1,963,157)" stroke="rgb(245,245,245)">
      <rect x="-947.3195" y="401.8645" clip-path="url(#clipPath2)" width="818.1486" rx="4" ry="4" height="492.2375" stroke="none"/>
      <rect x="-947.3195" y="401.8645" clip-path="url(#clipPath2)" fill="rgb(235,235,235)" width="818.1486" height="38.9219" stroke="none"/>
    </g>
    <g font-size="15px" stroke-linecap="butt" transform="matrix(1,0,0,1,963,157)" text-rendering="geometricPrecision" font-family="sans-serif" shape-rendering="geometricPrecision" stroke-miterlimit="1.45">
      <text x="-586.607" xml:space="preserve" y="417.7878" clip-path="url(#clipPath2)" stroke="none">Graphical UI </text>
      <text x="-626.8829" xml:space="preserve" y="435.2487" clip-path="url(#clipPath2)" stroke="none">(Validation not needed)</text>
      <rect x="-947.3195" y="401.8645" clip-path="url(#clipPath2)" fill="none" width="818.1486" stroke-dasharray="6,2" rx="4" ry="4" height="492.2375"/>
    </g>
    <g fill="rgb(255,204,0)" text-rendering="geometricPrecision" shape-rendering="geometricPrecision" transform="matrix(1,0,0,1,963,157)" stroke="rgb(255,204,0)">
      <rect x="-326.4548" width="100.8066" height="30" y="674.2145" clip-path="url(#clipPath2)" stroke="none"/>
    </g>
    <g text-rendering="geometricPrecision" stroke-miterlimit="1.45" shape-rendering="geometricPrecision" transform="matrix(1,0,0,1,963,157)" stroke-linecap="butt">
      <rect fill="none" x="-326.4548" width="100.8066" height="30" y="674.2145" clip-path="url(#clipPath2)"/>
      <text x="-319.4547" xml:space="preserve" y="686.3844" clip-path="url(#clipPath2)" font-family="sans-serif" stroke="none">User clicks on </text>
      <text x="-315.0602" xml:space="preserve" y="700.3531" clip-path="url(#clipPath2)" font-family="sans-serif" stroke="none">an Int button</text>
    </g>
    <g fill="rgb(255,204,0)" text-rendering="geometricPrecision" shape-rendering="geometricPrecision" transform="matrix(1,0,0,1,963,157)" stroke="rgb(255,204,0)">
      <rect x="-370.7956" width="189.4883" height="39.4534" y="757.1873" clip-path="url(#clipPath2)" stroke="none"/>
    </g>
    <g text-rendering="geometricPrecision" stroke-miterlimit="1.45" shape-rendering="geometricPrecision" transform="matrix(1,0,0,1,963,157)" stroke-linecap="butt">
      <rect fill="none" x="-370.7956" width="189.4883" height="39.4534" y="757.1873" clip-path="url(#clipPath2)"/>
      <text x="-338.5358" xml:space="preserve" y="767.0995" clip-path="url(#clipPath2)" font-family="sans-serif" stroke="none">append value to the </text>
      <text x="-336.3122" xml:space="preserve" y="781.0682" clip-path="url(#clipPath2)" font-family="sans-serif" stroke="none">current input in the </text>
      <text x="-363.7956" xml:space="preserve" y="795.037" clip-path="url(#clipPath2)" font-family="sans-serif" stroke="none">text field (e.g. "12" -&gt; "123")</text>
    </g>
    <g fill="rgb(255,204,0)" text-rendering="geometricPrecision" shape-rendering="geometricPrecision" transform="matrix(1,0,0,1,963,157)" stroke="rgb(255,204,0)">
      <rect x="-688.6918" width="294.4531" height="100.3252" y="455.7863" clip-path="url(#clipPath2)" stroke="none"/>
    </g>
    <g text-rendering="geometricPrecision" stroke-miterlimit="1.45" shape-rendering="geometricPrecision" transform="matrix(1,0,0,1,963,157)" stroke-linecap="butt">
      <rect fill="none" x="-688.6918" width="294.4531" height="100.3252" y="455.7863" clip-path="url(#clipPath2)"/>
      <text x="-681.6918" xml:space="preserve" y="475.1814" clip-path="url(#clipPath2)" font-family="sans-serif" stroke="none">Website shows user a calculator-like interface:</text>
      <text x="-681.6918" xml:space="preserve" y="489.1501" clip-path="url(#clipPath2)" font-family="sans-serif" stroke="none">- a text field that shows the current input</text>
      <text x="-681.6918" xml:space="preserve" y="503.1189" clip-path="url(#clipPath2)" font-family="sans-serif" stroke="none">- a button for each individual number</text>
      <text x="-681.6918" xml:space="preserve" y="517.0876" clip-path="url(#clipPath2)" font-family="sans-serif" stroke="none">- a button to move the 'caret' to the left/right</text>
      <text x="-681.6918" xml:space="preserve" y="531.0564" clip-path="url(#clipPath2)" font-family="sans-serif" stroke="none">- a "backspace" button</text>
      <text x="-681.6918" xml:space="preserve" y="545.0251" clip-path="url(#clipPath2)" font-family="sans-serif" stroke="none">- a "enter" button</text>
    </g>
    <g fill="rgb(255,204,0)" text-rendering="geometricPrecision" shape-rendering="geometricPrecision" transform="matrix(1,0,0,1,963,157)" stroke="rgb(255,204,0)">
      <rect x="-603.5609" width="124.1914" height="30" y="603.3142" clip-path="url(#clipPath2)" stroke="none"/>
    </g>
    <g text-rendering="geometricPrecision" stroke-miterlimit="1.45" shape-rendering="geometricPrecision" transform="matrix(1,0,0,1,963,157)" stroke-linecap="butt">
      <rect fill="none" x="-603.5609" width="124.1914" height="30" y="603.3142" clip-path="url(#clipPath2)"/>
      <text x="-596.5609" xml:space="preserve" y="622.4684" clip-path="url(#clipPath2)" font-family="sans-serif" stroke="none">wait for user input</text>
    </g>
    <g fill="rgb(255,204,0)" text-rendering="geometricPrecision" shape-rendering="geometricPrecision" transform="matrix(1,0,0,1,963,157)" stroke="rgb(255,204,0)">
      <rect x="-530.975" width="136.7363" height="30" y="674.2145" clip-path="url(#clipPath2)" stroke="none"/>
    </g>
    <g text-rendering="geometricPrecision" stroke-miterlimit="1.45" shape-rendering="geometricPrecision" transform="matrix(1,0,0,1,963,157)" stroke-linecap="butt">
      <rect fill="none" x="-530.975" width="136.7363" height="30" y="674.2145" clip-path="url(#clipPath2)"/>
      <text x="-511.0052" xml:space="preserve" y="686.3844" clip-path="url(#clipPath2)" font-family="sans-serif" stroke="none">user clicks on a </text>
      <text x="-523.975" xml:space="preserve" y="700.3531" clip-path="url(#clipPath2)" font-family="sans-serif" stroke="none">"move caret" button</text>
    </g>
    <g fill="rgb(255,204,0)" text-rendering="geometricPrecision" shape-rendering="geometricPrecision" transform="matrix(1,0,0,1,963,157)" stroke="rgb(255,204,0)">
      <rect x="-535.7621" width="146.3105" height="30" y="756.1437" clip-path="url(#clipPath2)" stroke="none"/>
    </g>
    <g text-rendering="geometricPrecision" stroke-miterlimit="1.45" shape-rendering="geometricPrecision" transform="matrix(1,0,0,1,963,157)" stroke-linecap="butt">
      <rect fill="none" x="-535.7621" width="146.3105" height="30" y="756.1437" clip-path="url(#clipPath2)"/>
      <text x="-528.7621" xml:space="preserve" y="768.3137" clip-path="url(#clipPath2)" font-family="sans-serif" stroke="none">update caret location </text>
      <text x="-508.5384" xml:space="preserve" y="782.2824" clip-path="url(#clipPath2)" font-family="sans-serif" stroke="none">in the text field</text>
    </g>
    <g fill="rgb(255,204,0)" text-rendering="geometricPrecision" shape-rendering="geometricPrecision" transform="matrix(1,0,0,1,963,157)" stroke="rgb(255,204,0)">
      <rect x="-693.1293" width="132.1543" height="30" y="674.2145" clip-path="url(#clipPath2)" stroke="none"/>
    </g>
    <g text-rendering="geometricPrecision" stroke-miterlimit="1.45" shape-rendering="geometricPrecision" transform="matrix(1,0,0,1,963,157)" stroke-linecap="butt">
      <rect fill="none" x="-693.1293" width="132.1543" height="30" y="674.2145" clip-path="url(#clipPath2)"/>
      <text x="-672.2396" xml:space="preserve" y="686.3844" clip-path="url(#clipPath2)" font-family="sans-serif" stroke="none">user clicks the </text>
      <text x="-686.1293" xml:space="preserve" y="700.3531" clip-path="url(#clipPath2)" font-family="sans-serif" stroke="none">"backspace" button</text>
    </g>
    <g fill="rgb(255,204,0)" text-rendering="geometricPrecision" shape-rendering="geometricPrecision" transform="matrix(1,0,0,1,963,157)" stroke="rgb(255,204,0)">
      <rect x="-702.4867" width="150.8691" height="30" y="756.1437" clip-path="url(#clipPath2)" stroke="none"/>
    </g>
    <g text-rendering="geometricPrecision" stroke-miterlimit="1.45" shape-rendering="geometricPrecision" transform="matrix(1,0,0,1,963,157)" stroke-linecap="butt">
      <rect fill="none" x="-702.4867" width="150.8691" height="30" y="756.1437" clip-path="url(#clipPath2)"/>
      <text x="-695.4867" xml:space="preserve" y="768.3137" clip-path="url(#clipPath2)" font-family="sans-serif" stroke="none">removes the character</text>
      <text x="-693.3978" xml:space="preserve" y="782.2824" clip-path="url(#clipPath2)" font-family="sans-serif" stroke="none">to the left of the caret</text>
    </g>
    <g fill="rgb(255,204,0)" text-rendering="geometricPrecision" shape-rendering="geometricPrecision" transform="matrix(1,0,0,1,963,157)" stroke="rgb(255,204,0)">
      <rect x="-857.4283" width="104.375" height="30" y="674.2145" clip-path="url(#clipPath2)" stroke="none"/>
    </g>
    <g text-rendering="geometricPrecision" stroke-miterlimit="1.45" shape-rendering="geometricPrecision" transform="matrix(1,0,0,1,963,157)" stroke-linecap="butt">
      <rect fill="none" x="-857.4283" width="104.375" height="30" y="674.2145" clip-path="url(#clipPath2)"/>
      <text x="-850.4283" xml:space="preserve" y="686.3844" clip-path="url(#clipPath2)" font-family="sans-serif" stroke="none">user clicks the </text>
      <text x="-848.4625" xml:space="preserve" y="700.3531" clip-path="url(#clipPath2)" font-family="sans-serif" stroke="none">"enter" button</text>
    </g>
    <g fill="rgb(255,204,0)" text-rendering="geometricPrecision" shape-rendering="geometricPrecision" transform="matrix(1,0,0,1,963,157)" stroke="rgb(255,204,0)">
      <path d="M-892.1395 782.1727 L-805.2408 746.6904 L-718.3422 782.1727 L-805.2408 817.655 Z" fill-rule="evenodd" clip-path="url(#clipPath2)" stroke="none"/>
    </g>
    <g text-rendering="geometricPrecision" stroke-miterlimit="1.45" shape-rendering="geometricPrecision" transform="matrix(1,0,0,1,963,157)" stroke-linecap="butt">
      <path fill="none" d="M-892.1395 782.1727 L-805.2408 746.6904 L-718.3422 782.1727 L-805.2408 817.655 Z" fill-rule="evenodd" clip-path="url(#clipPath2)"/>
      <text x="-863.0817" xml:space="preserve" y="786.327" clip-path="url(#clipPath2)" font-family="sans-serif" stroke="none">is text field empty?</text>
    </g>
    <g fill="rgb(255,204,0)" text-rendering="geometricPrecision" shape-rendering="geometricPrecision" transform="matrix(1,0,0,1,963,157)" stroke="rgb(255,204,0)">
      <rect x="-873.4801" width="136.4785" height="30" y="849.1019" clip-path="url(#clipPath2)" stroke="none"/>
    </g>
    <g text-rendering="geometricPrecision" stroke-miterlimit="1.45" shape-rendering="geometricPrecision" transform="matrix(1,0,0,1,963,157)" stroke-linecap="butt">
      <rect fill="none" x="-873.4801" width="136.4785" height="30" y="849.1019" clip-path="url(#clipPath2)"/>
      <text x="-866.4801" xml:space="preserve" y="868.2562" clip-path="url(#clipPath2)" font-family="sans-serif" stroke="none">output correct value</text>
      <path fill="none" d="M-402.5944 356.8645 L-538.2452 356.8645 L-538.2452 393.8898" clip-path="url(#clipPath2)"/>
      <path d="M-538.2452 401.8898 L-533.2452 389.8898 L-538.2452 392.8898 L-543.2452 389.8898 Z" clip-path="url(#clipPath2)" stroke="none"/>
      <path fill="none" d="M-276.0514 704.2145 L-276.0514 749.1873" clip-path="url(#clipPath2)"/>
      <path d="M-276.0514 757.1873 L-271.0514 745.1873 L-276.0514 748.1873 L-281.0514 745.1873 Z" clip-path="url(#clipPath2)" stroke="none"/>
      <path fill="none" d="M-181.3073 776.9139 L-150.9763 776.9139 L-150.9763 618.3141 L-471.3695 618.3141" clip-path="url(#clipPath2)"/>
      <path d="M-479.3695 618.3141 L-467.3695 623.3141 L-470.3695 618.3141 L-467.3695 613.3141 Z" clip-path="url(#clipPath2)" stroke="none"/>
      <path fill="none" d="M-541.4652 556.1116 L-541.4652 595.3141" clip-path="url(#clipPath2)"/>
      <path d="M-541.4652 603.3141 L-536.4652 591.3141 L-541.4652 594.3141 L-546.4652 591.3141 Z" clip-path="url(#clipPath2)" stroke="none"/>
      <path fill="none" d="M-485.313 633.3141 L-334.1837 673.6855" clip-path="url(#clipPath2)"/>
      <path d="M-326.4547 675.7502 L-336.7578 667.8226 L-335.1499 673.4275 L-339.3386 677.4838 Z" clip-path="url(#clipPath2)" stroke="none"/>
      <path fill="none" d="M-524.7816 633.3141 L-485.2395 668.8658" clip-path="url(#clipPath2)"/>
      <path d="M-479.2904 674.2145 L-484.8711 662.4733 L-485.9832 668.1972 L-491.557 669.9096 Z" clip-path="url(#clipPath2)" stroke="none"/>
      <path fill="none" d="M-462.6068 704.2145 L-462.6068 748.1437" clip-path="url(#clipPath2)"/>
      <path d="M-462.6068 756.1437 L-457.6068 744.1437 L-462.6068 747.1437 L-467.6068 744.1437 Z" clip-path="url(#clipPath2)" stroke="none"/>
      <path fill="none" d="M-559.5723 633.3141 L-602.7842 669.111" clip-path="url(#clipPath2)"/>
      <path d="M-608.9449 674.2145 L-596.5142 670.4097 L-602.0142 668.473 L-602.8936 662.7088 Z" clip-path="url(#clipPath2)" stroke="none"/>
      <path fill="none" d="M-627.0521 704.2145 L-627.0521 748.1437" clip-path="url(#clipPath2)"/>
      <path d="M-627.0521 756.1437 L-622.0521 744.1437 L-627.0521 747.1437 L-632.0521 744.1437 Z" clip-path="url(#clipPath2)" stroke="none"/>
      <path fill="none" d="M-597.2708 633.3141 L-745.3276 673.1104" clip-path="url(#clipPath2)"/>
      <path d="M-753.0533 675.187 L-740.1668 676.9006 L-744.3619 672.8508 L-742.7626 667.2434 Z" clip-path="url(#clipPath2)" stroke="none"/>
      <path fill="none" d="M-805.2408 704.2145 L-805.2408 738.6575" clip-path="url(#clipPath2)"/>
      <path d="M-805.2408 746.6575 L-800.2408 734.6575 L-805.2408 737.6575 L-810.2408 734.6575 Z" clip-path="url(#clipPath2)" stroke="none"/>
      <path fill="none" d="M-892.1671 782.1727 L-931.904 782.1727 L-931.904 618.3141 L-611.5609 618.3141" clip-path="url(#clipPath2)"/>
      <path d="M-603.5609 618.3141 L-615.5609 613.3141 L-612.5609 618.3141 L-615.5609 623.3141 Z" clip-path="url(#clipPath2)" stroke="none"/>
      <text x="-912.3864" xml:space="preserve" y="777.3426" clip-path="url(#clipPath2)" font-family="sans-serif" stroke="none">Yes</text>
      <path fill="none" d="M-805.2408 817.6567 L-805.2408 841.1019" clip-path="url(#clipPath2)"/>
      <path d="M-805.2408 849.1019 L-800.2408 837.1019 L-805.2408 840.1019 L-810.2408 837.1019 Z" clip-path="url(#clipPath2)" stroke="none"/>
      <text x="-843.4" xml:space="preserve" y="837.5328" clip-path="url(#clipPath2)" font-family="sans-serif" stroke="none">No</text>
    </g>
    <g fill="rgb(245,245,245)" text-rendering="geometricPrecision" shape-rendering="geometricPrecision" transform="matrix(1,0,0,1,963,157)" stroke="rgb(245,245,245)">
      <rect x="-36.0415" y="694.4588" clip-path="url(#clipPath2)" width="329.4299" rx="4" ry="4" height="184.3281" stroke="none"/>
      <rect x="-36.0415" y="694.4588" clip-path="url(#clipPath2)" fill="rgb(235,235,235)" width="329.4299" height="21.4609" stroke="none"/>
    </g>
    <g font-size="15px" stroke-linecap="butt" transform="matrix(1,0,0,1,963,157)" text-rendering="geometricPrecision" font-family="sans-serif" shape-rendering="geometricPrecision" stroke-miterlimit="1.45">
      <text x="236.0246" xml:space="preserve" y="710.3822" clip-path="url(#clipPath2)" stroke="none">Legend</text>
      <rect x="-36.0415" y="694.4588" clip-path="url(#clipPath2)" fill="none" width="329.4299" stroke-dasharray="6,2" rx="4" ry="4" height="184.3281"/>
    </g>
    <g fill="rgb(255,204,0)" text-rendering="geometricPrecision" shape-rendering="geometricPrecision" transform="matrix(1,0,0,1,963,157)" stroke="rgb(255,204,0)">
      <rect x="-21.0415" width="109.6016" height="30" y="730.9198" clip-path="url(#clipPath2)" stroke="none"/>
    </g>
    <g text-rendering="geometricPrecision" stroke-miterlimit="1.45" shape-rendering="geometricPrecision" transform="matrix(1,0,0,1,963,157)" stroke-linecap="butt">
      <rect fill="none" x="-21.0415" width="109.6016" height="30" y="730.9198" clip-path="url(#clipPath2)"/>
      <text x="-14.0415" xml:space="preserve" y="750.0741" clip-path="url(#clipPath2)" font-family="sans-serif" stroke="none">Impure function</text>
    </g>
    <g fill="rgb(204,255,204)" text-rendering="geometricPrecision" shape-rendering="geometricPrecision" transform="matrix(1,0,0,1,963,157)" stroke="rgb(204,255,204)">
      <rect x="-13.4273" width="94.373" height="30" y="782.3534" clip-path="url(#clipPath2)" stroke="none"/>
    </g>
    <g text-rendering="geometricPrecision" stroke-miterlimit="1.45" shape-rendering="geometricPrecision" transform="matrix(1,0,0,1,963,157)" stroke-linecap="butt">
      <rect fill="none" x="-13.4273" width="94.373" height="30" y="782.3534" clip-path="url(#clipPath2)"/>
      <text x="-6.4273" xml:space="preserve" y="801.5077" clip-path="url(#clipPath2)" font-family="sans-serif" stroke="none">pure function</text>
    </g>
    <g fill="rgb(255,204,0)" text-rendering="geometricPrecision" shape-rendering="geometricPrecision" transform="matrix(1,0,0,1,963,157)" stroke="rgb(255,204,0)">
      <rect x="118.56" width="30" height="30" y="796.7991" clip-path="url(#clipPath2)" stroke="none"/>
    </g>
    <g text-rendering="geometricPrecision" stroke-miterlimit="1.45" shape-rendering="geometricPrecision" transform="matrix(1,0,0,1,963,157)" stroke-linecap="butt">
      <rect fill="none" x="118.56" width="30" height="30" y="796.7991" clip-path="url(#clipPath2)"/>
    </g>
    <g fill="rgb(255,204,0)" text-rendering="geometricPrecision" shape-rendering="geometricPrecision" transform="matrix(1,0,0,1,963,157)" stroke="rgb(255,204,0)">
      <rect x="248.3884" width="30" height="30" y="796.7991" clip-path="url(#clipPath2)" stroke="none"/>
    </g>
    <g text-rendering="geometricPrecision" stroke-miterlimit="1.45" shape-rendering="geometricPrecision" transform="matrix(1,0,0,1,963,157)" stroke-linecap="butt">
      <rect fill="none" x="248.3884" width="30" height="30" y="796.7991" clip-path="url(#clipPath2)"/>
    </g>
    <g fill="rgb(204,255,255)" text-rendering="geometricPrecision" shape-rendering="geometricPrecision" transform="matrix(1,0,0,1,963,157)" stroke="rgb(204,255,255)">
      <rect x="-20.6402" width="108.7988" height="30" y="833.787" clip-path="url(#clipPath2)" stroke="none"/>
    </g>
    <g text-rendering="geometricPrecision" stroke-miterlimit="1.45" shape-rendering="geometricPrecision" transform="matrix(1,0,0,1,963,157)" stroke-linecap="butt">
      <rect fill="none" x="-20.6402" width="108.7988" height="30" y="833.787" clip-path="url(#clipPath2)"/>
      <text x="-13.6402" xml:space="preserve" y="852.9413" clip-path="url(#clipPath2)" font-family="sans-serif" stroke="none">Thought bubble</text>
    </g>
    <g fill="rgb(255,204,0)" text-rendering="geometricPrecision" shape-rendering="geometricPrecision" transform="matrix(1,0,0,1,963,157)" stroke="rgb(255,204,0)">
      <rect x="118.56" width="30" height="30" y="752.3534" clip-path="url(#clipPath2)" stroke="none"/>
    </g>
    <g text-rendering="geometricPrecision" stroke-miterlimit="1.45" shape-rendering="geometricPrecision" transform="matrix(1,0,0,1,963,157)" stroke-linecap="butt">
      <rect fill="none" x="118.56" width="30" height="30" y="752.3534" clip-path="url(#clipPath2)"/>
    </g>
    <g fill="rgb(255,204,0)" text-rendering="geometricPrecision" shape-rendering="geometricPrecision" transform="matrix(1,0,0,1,963,157)" stroke="rgb(255,204,0)">
      <rect x="248.3884" width="30" height="30" y="752.3534" clip-path="url(#clipPath2)" stroke="none"/>
    </g>
    <g text-rendering="geometricPrecision" stroke-miterlimit="1.45" shape-rendering="geometricPrecision" transform="matrix(1,0,0,1,963,157)" stroke-linecap="butt">
      <rect fill="none" x="248.3884" width="30" height="30" y="752.3534" clip-path="url(#clipPath2)"/>
      <path fill="none" d="M148.56 811.7991 L240.3884 811.7991" clip-path="url(#clipPath2)" stroke="red"/>
      <path fill="red" d="M248.3884 811.7991 L236.3884 806.7991 L239.3884 811.7991 L236.3884 816.7991 Z" clip-path="url(#clipPath2)" stroke="none"/>
      <text x="155.1594" xml:space="preserve" y="806.0162" clip-path="url(#clipPath2)" font-family="sans-serif" stroke="none">Game Loop</text>
      <path fill="none" d="M148.56 767.3534 L240.3884 767.3534" clip-path="url(#clipPath2)"/>
      <path d="M248.3884 767.3534 L236.3884 762.3534 L239.3884 767.3534 L236.3884 772.3534 Z" clip-path="url(#clipPath2)" stroke="none"/>
      <text x="155.2251" xml:space="preserve" y="764.0684" clip-path="url(#clipPath2)" font-family="sans-serif" stroke="none">Control Flow</text>
    </g>
  </g>
</svg>
