<?xml version="1.0" encoding="UTF-8"?><svg xmlns="http://www.w3.org/2000/svg" xmlns:xlink="http://www.w3.org/1999/xlink" fill-opacity="1" color-rendering="auto" color-interpolation="auto" text-rendering="auto" stroke="black" stroke-linecap="square" width="814" stroke-miterlimit="10" shape-rendering="auto" stroke-opacity="1" fill="black" stroke-dasharray="none" font-weight="normal" stroke-width="1" height="591" font-family="'Dialog'" font-style="normal" stroke-linejoin="miter" font-size="12px" stroke-dashoffset="0" image-rendering="auto">
  <!--Generated by ySVG 2.5-->
  <defs id="genericDefs"/>
  <g>
    <defs id="defs1">
      <linearGradient x1="114.5125" gradientUnits="userSpaceOnUse" x2="414.9539" y1="119.1578" y2="119.1578" id="linearGradient1" spreadMethod="reflect">
        <stop stop-opacity="1" stop-color="rgb(204,255,204)" offset="0%"/>
        <stop stop-opacity="1" stop-color="rgb(204,255,255)" offset="100%"/>
      </linearGradient>
      <clipPath clipPathUnits="userSpaceOnUse" id="clipPath1">
        <path d="M0 0 L814 0 L814 591 L0 591 L0 0 Z"/>
      </clipPath>
      <clipPath clipPathUnits="userSpaceOnUse" id="clipPath2">
        <path d="M-51 -75 L763 -75 L763 516 L-51 516 L-51 -75 Z"/>
      </clipPath>
    </defs>
    <g fill="white" text-rendering="geometricPrecision" shape-rendering="geometricPrecision" transform="translate(51,75)" stroke="white">
      <rect x="-51" width="814" height="591" y="-75" clip-path="url(#clipPath2)" stroke="none"/>
    </g>
    <g fill="rgb(255,204,0)" text-rendering="geometricPrecision" shape-rendering="geometricPrecision" transform="matrix(1,0,0,1,51,75)" stroke="rgb(255,204,0)">
      <rect x="345.3049" width="143.1523" height="49.2" y="451.8" clip-path="url(#clipPath2)" stroke="none"/>
    </g>
    <g text-rendering="geometricPrecision" stroke-miterlimit="1.45" shape-rendering="geometricPrecision" transform="matrix(1,0,0,1,51,75)" stroke-linecap="butt">
      <rect fill="none" x="345.3049" width="143.1523" height="49.2" y="451.8" clip-path="url(#clipPath2)"/>
      <text x="403.6769" xml:space="preserve" y="466.5855" clip-path="url(#clipPath2)" font-family="sans-serif" stroke="none">purs</text>
      <text x="414.9738" xml:space="preserve" y="480.5543" clip-path="url(#clipPath2)" font-family="sans-serif" stroke="none"> </text>
      <text x="352.3049" xml:space="preserve" y="494.523" clip-path="url(#clipPath2)" font-family="sans-serif" stroke="none">(PureScript Compiler)</text>
    </g>
    <g fill="rgb(204,255,255)" text-rendering="geometricPrecision" shape-rendering="geometricPrecision" transform="matrix(1,0,0,1,51,75)" stroke="rgb(204,255,255)">
      <rect x="469.6811" width="191.8379" height="49.2" y="353.8" clip-path="url(#clipPath2)" stroke="none"/>
    </g>
    <g text-rendering="geometricPrecision" stroke-miterlimit="1.45" shape-rendering="geometricPrecision" transform="matrix(1,0,0,1,51,75)" stroke-linecap="butt">
      <rect fill="none" x="469.6811" width="191.8379" height="49.2" y="353.8" clip-path="url(#clipPath2)"/>
      <text x="547.0551" xml:space="preserve" y="368.5855" clip-path="url(#clipPath2)" font-family="sans-serif" stroke="none">bower</text>
      <text x="563.6927" xml:space="preserve" y="382.5543" clip-path="url(#clipPath2)" font-family="sans-serif" stroke="none"> </text>
      <text x="476.6811" xml:space="preserve" y="396.523" clip-path="url(#clipPath2)" font-family="sans-serif" stroke="none">(initial dependency manager)</text>
    </g>
    <g fill="rgb(204,255,204)" text-rendering="geometricPrecision" shape-rendering="geometricPrecision" transform="matrix(1,0,0,1,51,75)" stroke="rgb(204,255,204)">
      <rect x="636.3953" width="111.541" height="84.2" y="108.8" clip-path="url(#clipPath2)" stroke="none"/>
    </g>
    <g text-rendering="geometricPrecision" stroke-miterlimit="1.45" shape-rendering="geometricPrecision" transform="matrix(1,0,0,1,51,75)" stroke-linecap="butt">
      <rect fill="none" x="636.3953" width="111.541" height="84.2" y="108.8" clip-path="url(#clipPath2)"/>
      <text x="679.0789" xml:space="preserve" y="127.1168" clip-path="url(#clipPath2)" font-family="sans-serif" stroke="none">pulp</text>
      <text x="690.2586" xml:space="preserve" y="141.0855" clip-path="url(#clipPath2)" font-family="sans-serif" stroke="none"> </text>
      <text x="661.952" xml:space="preserve" y="155.0543" clip-path="url(#clipPath2)" font-family="sans-serif" stroke="none">(front-end</text>
      <text x="690.1443" xml:space="preserve" y="169.023" clip-path="url(#clipPath2)" font-family="sans-serif" stroke="none">/</text>
      <text x="643.3953" xml:space="preserve" y="182.9918" clip-path="url(#clipPath2)" font-family="sans-serif" stroke="none">initial build tool)</text>
      <path fill="none" d="M692.1658 193 L692.1658 476.4 L496.4572 476.4" clip-path="url(#clipPath2)"/>
      <path d="M488.4572 476.4 L500.4572 481.4 L497.4572 476.4 L500.4572 471.4 Z" clip-path="url(#clipPath2)" stroke="none"/>
      <path fill="none" d="M636.3953 186.0144 L565.6 230.5889 L565.6 345.8" clip-path="url(#clipPath2)"/>
      <path d="M565.6 353.8 L570.6 341.8 L565.6 344.8 L560.6 341.8 Z" clip-path="url(#clipPath2)" stroke="none"/>
    </g>
    <g fill="rgb(245,245,245)" text-rendering="geometricPrecision" shape-rendering="geometricPrecision" transform="matrix(1,0,0,1,51,75)" stroke="rgb(245,245,245)">
      <rect x="130.2166" y="-59.4609" clip-path="url(#clipPath2)" width="391.4805" rx="4" ry="4" height="134.4609" stroke="none"/>
      <rect x="130.2166" y="-59.4609" clip-path="url(#clipPath2)" fill="rgb(235,235,235)" width="391.4805" height="21.4609" stroke="none"/>
    </g>
    <g font-size="15px" stroke-linecap="butt" transform="matrix(1,0,0,1,51,75)" text-rendering="geometricPrecision" font-family="sans-serif" shape-rendering="geometricPrecision" stroke-miterlimit="1.45">
      <text x="298.275" xml:space="preserve" y="-43.5376" clip-path="url(#clipPath2)" stroke="none">Legend</text>
      <rect x="130.2166" y="-59.4609" clip-path="url(#clipPath2)" fill="none" width="391.4805" stroke-dasharray="6,2" rx="4" ry="4" height="134.4609"/>
    </g>
    <g fill="rgb(204,255,255)" text-rendering="geometricPrecision" shape-rendering="geometricPrecision" transform="matrix(1,0,0,1,51,75)" stroke="rgb(204,255,255)">
      <rect x="145.2166" width="152.1992" height="30" y="30" clip-path="url(#clipPath2)" stroke="none"/>
    </g>
    <g text-rendering="geometricPrecision" stroke-miterlimit="1.45" shape-rendering="geometricPrecision" transform="matrix(1,0,0,1,51,75)" stroke-linecap="butt">
      <rect fill="none" x="145.2166" width="152.1992" height="30" y="30" clip-path="url(#clipPath2)"/>
      <text x="152.2166" xml:space="preserve" y="49.1543" clip-path="url(#clipPath2)" font-family="sans-serif" stroke="none">Dependency Managers</text>
    </g>
    <g fill="rgb(204,255,204)" text-rendering="geometricPrecision" shape-rendering="geometricPrecision" transform="matrix(1,0,0,1,51,75)" stroke="rgb(204,255,204)">
      <rect x="145.2166" width="219.2832" height="30" y="-23" clip-path="url(#clipPath2)" stroke="none"/>
    </g>
    <g text-rendering="geometricPrecision" stroke-miterlimit="1.45" shape-rendering="geometricPrecision" transform="matrix(1,0,0,1,51,75)" stroke-linecap="butt">
      <rect fill="none" x="145.2166" width="219.2832" height="30" y="-23" clip-path="url(#clipPath2)"/>
      <text x="152.2166" xml:space="preserve" y="-3.8457" clip-path="url(#clipPath2)" font-family="sans-serif" stroke="none">Front-Ends Developers should use</text>
    </g>
    <g fill="silver" text-rendering="geometricPrecision" shape-rendering="geometricPrecision" transform="matrix(1,0,0,1,51,75)" stroke="silver">
      <rect x="327.4158" width="179.2812" height="30" y="30" clip-path="url(#clipPath2)" stroke="none"/>
    </g>
    <g text-rendering="geometricPrecision" stroke-miterlimit="1.45" shape-rendering="geometricPrecision" transform="matrix(1,0,0,1,51,75)" stroke-linecap="butt">
      <rect fill="none" x="327.4158" width="179.2812" height="30" y="30" clip-path="url(#clipPath2)"/>
      <text x="334.4158" xml:space="preserve" y="49.1543" clip-path="url(#clipPath2)" font-family="sans-serif" stroke="none">Absorbed into other project</text>
    </g>
    <g fill="url(#linearGradient1)" text-rendering="geometricPrecision" shape-rendering="geometricPrecision" transform="matrix(1,0,0,1,51,75)" stroke="url(#linearGradient1)">
      <rect x="-35.7082" y="119.1578" clip-path="url(#clipPath2)" width="450.6621" rx="4" ry="4" height="200.8422" stroke="none"/>
    </g>
    <g font-size="15px" stroke-linecap="butt" transform="matrix(1,0,0,1,51,75)" text-rendering="geometricPrecision" font-family="sans-serif" shape-rendering="geometricPrecision" stroke-miterlimit="1.45">
      <text x="166.1561" xml:space="preserve" y="135.0811" clip-path="url(#clipPath2)" stroke="none">Spago</text>
      <text x="187.2388" xml:space="preserve" y="152.5421" clip-path="url(#clipPath2)" stroke="none"> </text>
      <text x="151.8555" xml:space="preserve" y="170.003" clip-path="url(#clipPath2)" stroke="none">(front-end</text>
      <text x="187.096" xml:space="preserve" y="187.464" clip-path="url(#clipPath2)" stroke="none">/</text>
      <text x="56.8091" xml:space="preserve" y="204.9249" clip-path="url(#clipPath2)" stroke="none">build tool for psc-package projects)</text>
      <rect x="-35.7082" y="119.1578" clip-path="url(#clipPath2)" fill="none" width="450.6621" stroke-dasharray="6,2" rx="4" ry="4" height="200.8422"/>
    </g>
    <g fill="silver" text-rendering="geometricPrecision" shape-rendering="geometricPrecision" transform="matrix(1,0,0,1,51,75)" stroke="silver">
      <rect x="-20.7082" width="233.9785" height="65.2" y="230.8" clip-path="url(#clipPath2)" stroke="none"/>
    </g>
    <g text-rendering="geometricPrecision" stroke-miterlimit="1.45" shape-rendering="geometricPrecision" transform="matrix(1,0,0,1,51,75)" stroke-linecap="butt">
      <rect fill="none" x="-20.7082" width="233.9785" height="65.2" y="230.8" clip-path="url(#clipPath2)"/>
      <text x="58.4471" xml:space="preserve" y="246.6012" clip-path="url(#clipPath2)" font-family="sans-serif" stroke="none">psc-package</text>
      <text x="94.3738" xml:space="preserve" y="260.5699" clip-path="url(#clipPath2)" font-family="sans-serif" stroke="none"> </text>
      <text x="-13.7082" xml:space="preserve" y="274.5387" clip-path="url(#clipPath2)" font-family="sans-serif" stroke="none">(experimental dependency manager</text>
      <text x="-4.5236" xml:space="preserve" y="288.5074" clip-path="url(#clipPath2)" font-family="sans-serif" stroke="none">that was 'absorbed' into `spago`)</text>
    </g>
    <g fill="silver" text-rendering="geometricPrecision" shape-rendering="geometricPrecision" transform="matrix(1,0,0,1,51,75)" stroke="silver">
      <rect x="220.6082" width="179.3457" height="74.2" y="230.8" clip-path="url(#clipPath2)" stroke="none"/>
    </g>
    <g text-rendering="geometricPrecision" stroke-miterlimit="1.45" shape-rendering="geometricPrecision" transform="matrix(1,0,0,1,51,75)" stroke-linecap="butt">
      <rect fill="none" x="220.6082" width="179.3457" height="74.2" y="230.8" clip-path="url(#clipPath2)"/>
      <text x="279.2059" xml:space="preserve" y="251.1012" clip-path="url(#clipPath2)" font-family="sans-serif" stroke="none">spacchetti</text>
      <text x="308.3738" xml:space="preserve" y="265.0699" clip-path="url(#clipPath2)" font-family="sans-serif" stroke="none"> </text>
      <text x="251.0984" xml:space="preserve" y="279.0387" clip-path="url(#clipPath2)" font-family="sans-serif" stroke="none">(create and modify </text>
      <text x="227.6082" xml:space="preserve" y="293.0074" clip-path="url(#clipPath2)" font-family="sans-serif" stroke="none">"local package sets" easily)</text>
      <path fill="none" d="M278.4788 319.9937 L389.8113 445.8088" clip-path="url(#clipPath2)"/>
      <path d="M395.1128 451.8 L390.905 439.4998 L389.1486 445.0599 L383.416 446.1267 Z" clip-path="url(#clipPath2)" stroke="none"/>
    </g>
  </g>
</svg>
