<svg xmlns="http://www.w3.org/2000/svg" width="960" height="500"><defs><style type="text/css">
.background {
  fill: white;
}

text {
  font-size: 14px;
  font-family: sans-serif;
}

.axis-path,
.axis-line {
  fill: none;
  stroke: #000;
  stroke-width: 1px;
  shape-rendering: crispEdges;
}

.line {
  fill: none;
  stroke-width: 1.5px;
}

.data-series-0 {
  stroke: steelblue;
  fill: steelblue;
}

.data-series-1 {
  stroke: crimson;
  fill: crimson;
}

.data-series-2 {
  stroke: mediumseagreen;
  fill: mediumseagreen;
}

.data-series-3 {
  stroke: mediumslateblue;
  fill: mediumslateblue;
}

.data-series-4 {
  stroke: goldenrod;
  fill: goldenrod;
}

.error-bar {
  fill: none;
}
</style></defs><rect width="960" height="500" class="background"/><g transform="translate(80,40)"><g transform="translate(420, 0)"><text style="text-anchor: middle; font-size: 28px;">Random Number Game (Win) - Various FP Approaches</text></g><g class="x axis" transform="translate(0,400)"><g class="tick" style="opacity: 1;" transform="translate(56,0)"><line y2="6" x2="0" class="axis-line"/><text dy=".71em" style="text-anchor: middle;" y="9" x="0">600</text></g><g class="tick" style="opacity: 1;" transform="translate(168,0)"><line y2="6" x2="0" class="axis-line"/><text dy=".71em" style="text-anchor: middle;" y="9" x="0">800</text></g><g class="tick" style="opacity: 1;" transform="translate(280,0)"><line y2="6" x2="0" class="axis-line"/><text dy=".71em" style="text-anchor: middle;" y="9" x="0">1,000</text></g><g class="tick" style="opacity: 1;" transform="translate(392,0)"><line y2="6" x2="0" class="axis-line"/><text dy=".71em" style="text-anchor: middle;" y="9" x="0">1,200</text></g><g class="tick" style="opacity: 1;" transform="translate(504,0)"><line y2="6" x2="0" class="axis-line"/><text dy=".71em" style="text-anchor: middle;" y="9" x="0">1,400</text></g><g class="tick" style="opacity: 1;" transform="translate(616,0)"><line y2="6" x2="0" class="axis-line"/><text dy=".71em" style="text-anchor: middle;" y="9" x="0">1,600</text></g><g class="tick" style="opacity: 1;" transform="translate(728,0)"><line y2="6" x2="0" class="axis-line"/><text dy=".71em" style="text-anchor: middle;" y="9" x="0">1,800</text></g><g class="tick" style="opacity: 1;" transform="translate(840,0)"><line y2="6" x2="0" class="axis-line"/><text dy=".71em" style="text-anchor: middle;" y="9" x="0">2,000</text></g><path class="axis-path" d="M0,6V0H840V6"/><text x="420" y="40" style="text-anchor: middle;">The number of guesses to make before winning</text></g><g class="y axis"><g class="tick" style="opacity: 1;" transform="translate(0,371.5719033461194)"><line x2="-6" y2="0" class="axis-line"/><text dy=".32em" style="text-anchor: end;" x="-9" y="0">0.02</text></g><g class="tick" style="opacity: 1;" transform="translate(0,317.0105226796171)"><line x2="-6" y2="0" class="axis-line"/><text dy=".32em" style="text-anchor: end;" x="-9" y="0">0.04</text></g><g class="tick" style="opacity: 1;" transform="translate(0,262.4491420131148)"><line x2="-6" y2="0" class="axis-line"/><text dy=".32em" style="text-anchor: end;" x="-9" y="0">0.06</text></g><g class="tick" style="opacity: 1;" transform="translate(0,207.88776134661245)"><line x2="-6" y2="0" class="axis-line"/><text dy=".32em" style="text-anchor: end;" x="-9" y="0">0.08</text></g><g class="tick" style="opacity: 1;" transform="translate(0,153.32638068011013)"><line x2="-6" y2="0" class="axis-line"/><text dy=".32em" style="text-anchor: end;" x="-9" y="0">0.10</text></g><g class="tick" style="opacity: 1;" transform="translate(0,98.76500001360782)"><line x2="-6" y2="0" class="axis-line"/><text dy=".32em" style="text-anchor: end;" x="-9" y="0">0.12</text></g><g class="tick" style="opacity: 1;" transform="translate(0,44.20361934710546)"><line x2="-6" y2="0" class="axis-line"/><text dy=".32em" style="text-anchor: end;" x="-9" y="0">0.14</text></g><path class="axis-path" d="M-6,0H0V400H-6"/><text transform="rotate(-90)" y="6" dy=".71em" style="text-anchor: end;">Mean running time (seconds)</text></g><g class="data-series-0"><circle cx="0" cy="400" r="3"/><circle cx="140" cy="390.44113196969124" r="3"/><circle cx="280" cy="321.14771427446505" r="3"/><circle cx="420" cy="278.333089867256" r="3"/><circle cx="560" cy="230.97911702145916" r="3"/><circle cx="700" cy="188.5784689502368" r="3"/><circle cx="840" cy="116.13995868184203" r="3"/><path class="error-bar" x="0" y="400" d="M 0 400 V 398.6493035097825 h -3 h 6 h -3 V 401.35069649021744 h -3 h 6"/><path class="error-bar" x="140" y="390.44113196969124" d="M 140 390.44113196969124 V 388.767185488957 h -3 h 6 h -3 V 392.1150784504254 h -3 h 6"/><path class="error-bar" x="280" y="321.14771427446505" d="M 280 321.14771427446505 V 306.3223419443707 h -3 h 6 h -3 V 335.9730866045594 h -3 h 6"/><path class="error-bar" x="420" y="278.333089867256" d="M 420 278.333089867256 V 265.64079343947526 h -3 h 6 h -3 V 291.02538629503675 h -3 h 6"/><path class="error-bar" x="560" y="230.97911702145916" d="M 560 230.97911702145916 V 206.48391869118265 h -3 h 6 h -3 V 255.47431535173564 h -3 h 6"/><path class="error-bar" x="700" y="188.5784689502368" d="M 700 188.5784689502368 V 164.1889833895092 h -3 h 6 h -3 V 212.96795451096443 h -3 h 6"/><path class="error-bar" x="840" y="116.13995868184203" d="M 840 116.13995868184203 V 93.04117364815312 h -3 h 6 h -3 V 139.23874371553092 h -3 h 6"/><path class="line" d="M0,400L140,390.44113196969124L280,321.14771427446505L420,278.333089867256L560,230.97911702145916L700,188.5784689502368L840,116.13995868184203"/></g><g class="data-series-1"><circle cx="0" cy="389.24601348176697" r="3"/><circle cx="140" cy="324.8454116794904" r="3"/><circle cx="280" cy="261.6962568254825" r="3"/><circle cx="420" cy="194.06213157710565" r="3"/><circle cx="560" cy="147.61520489034487" r="3"/><circle cx="700" cy="69.6389009035999" r="3"/><circle cx="840" cy="0" r="3"/><path class="error-bar" x="0" y="389.24601348176697" d="M 0 389.24601348176697 V 385.88376142535793 h -3 h 6 h -3 V 392.608265538176 h -3 h 6"/><path class="error-bar" x="140" y="324.8454116794904" d="M 140 324.8454116794904 V 312.28442089346134 h -3 h 6 h -3 V 337.4064024655194 h -3 h 6"/><path class="error-bar" x="280" y="261.6962568254825" d="M 280 261.6962568254825 V 250.89078876092225 h -3 h 6 h -3 V 272.50172489004285 h -3 h 6"/><path class="error-bar" x="420" y="194.06213157710565" d="M 420 194.06213157710565 V 174.45855209387014 h -3 h 6 h -3 V 213.6657110603412 h -3 h 6"/><path class="error-bar" x="560" y="147.61520489034487" d="M 560 147.61520489034487 V 128.7392418487161 h -3 h 6 h -3 V 166.49116793197365 h -3 h 6"/><path class="error-bar" x="700" y="69.6389009035999" d="M 700 69.6389009035999 V 47.41480369858877 h -3 h 6 h -3 V 91.86299810861107 h -3 h 6"/><path class="error-bar" x="840" y="0" d="M 840 0 V -11.336208682996851 h -3 h 6 h -3 V 11.336208682996807 h -3 h 6"/><path class="line" d="M0,389.24601348176697L140,324.8454116794904L280,261.6962568254825L420,194.06213157710565L560,147.61520489034487L700,69.6389009035999L840,0"/></g><g class="data-series-2"><circle cx="0" cy="377.51559145921146" r="3"/><circle cx="140" cy="350.02054902074616" r="3"/><circle cx="280" cy="319.8878272896711" r="3"/><circle cx="420" cy="293.018086018437" r="3"/><circle cx="560" cy="254.10669529905232" r="3"/><circle cx="700" cy="236.28929458106506" r="3"/><circle cx="840" cy="203.07221839548464" r="3"/><path class="error-bar" x="0" y="377.51559145921146" d="M 0 377.51559145921146 V 372.2781354261569 h -3 h 6 h -3 V 382.7530474922661 h -3 h 6"/><path class="error-bar" x="140" y="350.02054902074616" d="M 140 350.02054902074616 V 340.9754063858853 h -3 h 6 h -3 V 359.065691655607 h -3 h 6"/><path class="error-bar" x="280" y="319.8878272896711" d="M 280 319.8878272896711 V 307.83726935591875 h -3 h 6 h -3 V 331.9383852234234 h -3 h 6"/><path class="error-bar" x="420" y="293.018086018437" d="M 420 293.018086018437 V 282.13463552365585 h -3 h 6 h -3 V 303.90153651321805 h -3 h 6"/><path class="error-bar" x="560" y="254.10669529905232" d="M 560 254.10669529905232 V 240.5824110421422 h -3 h 6 h -3 V 267.6309795559624 h -3 h 6"/><path class="error-bar" x="700" y="236.28929458106506" d="M 700 236.28929458106506 V 221.4664873859987 h -3 h 6 h -3 V 251.1121017761314 h -3 h 6"/><path class="error-bar" x="840" y="203.07221839548464" d="M 840 203.07221839548464 V 189.70376322074958 h -3 h 6 h -3 V 216.4406735702197 h -3 h 6"/><path class="line" d="M0,377.51559145921146L140,350.02054902074616L280,319.8878272896711L420,293.018086018437L560,254.10669529905232L700,236.28929458106506L840,203.07221839548464"/></g><g class="data-series-3"><circle cx="0" cy="370.0818383767432" r="3"/><circle cx="140" cy="340.72457803863114" r="3"/><circle cx="280" cy="311.1029696977098" r="3"/><circle cx="420" cy="275.1765697958538" r="3"/><circle cx="560" cy="246.18300812268333" r="3"/><circle cx="700" cy="214.51052168533064" r="3"/><circle cx="840" cy="179.74567631066412" r="3"/><path class="error-bar" x="0" y="370.0818383767432" d="M 0 370.0818383767432 V 365.2862460162542 h -3 h 6 h -3 V 374.8774307372322 h -3 h 6"/><path class="error-bar" x="140" y="340.72457803863114" d="M 140 340.72457803863114 V 333.4965218419896 h -3 h 6 h -3 V 347.9526342352726 h -3 h 6"/><path class="error-bar" x="280" y="311.1029696977098" d="M 280 311.1029696977098 V 296.75717478671004 h -3 h 6 h -3 V 325.4487646087096 h -3 h 6"/><path class="error-bar" x="420" y="275.1765697958538" d="M 420 275.1765697958538 V 258.25588821701444 h -3 h 6 h -3 V 292.09725137469326 h -3 h 6"/><path class="error-bar" x="560" y="246.18300812268333" d="M 560 246.18300812268333 V 227.14491521255607 h -3 h 6 h -3 V 265.22110103281057 h -3 h 6"/><path class="error-bar" x="700" y="214.51052168533064" d="M 700 214.51052168533064 V 203.57202418849346 h -3 h 6 h -3 V 225.44901918216783 h -3 h 6"/><path class="error-bar" x="840" y="179.74567631066412" d="M 840 179.74567631066412 V 149.12542584026286 h -3 h 6 h -3 V 210.3659267810654 h -3 h 6"/><path class="line" d="M0,370.0818383767432L140,340.72457803863114L280,311.1029696977098L420,275.1765697958538L560,246.18300812268333L700,214.51052168533064L840,179.74567631066412"/></g><g class="legend" transform="translate(50, 50)"><rect x="0" y="0" width="15" height="15" class="data-series-0"/><rect x="0" y="20" width="15" height="15" class="data-series-1"/><rect x="0" y="40" width="15" height="15" class="data-series-2"/><rect x="0" y="60" width="15" height="15" class="data-series-3"/><text x="24" y="13">Standard ReaderT (Different Monad)</text><text x="24" y="33">Standard ReaderT (Same Monad)</text><text x="24" y="53">Standard Run</text><text x="24" y="73">Layered Run</text></g></g></svg>