<svg xmlns="http://www.w3.org/2000/svg" width="960" height="500"><defs><style type="text/css">
.background {
  fill: white;
}

text {
  font-size: 14px;
  font-family: sans-serif;
}

.axis-path,
.axis-line {
  fill: none;
  stroke: #000;
  stroke-width: 1px;
  shape-rendering: crispEdges;
}

.line {
  fill: none;
  stroke-width: 1.5px;
}

.data-series-0 {
  stroke: steelblue;
  fill: steelblue;
}

.data-series-1 {
  stroke: crimson;
  fill: crimson;
}

.data-series-2 {
  stroke: mediumseagreen;
  fill: mediumseagreen;
}

.data-series-3 {
  stroke: mediumslateblue;
  fill: mediumslateblue;
}

.data-series-4 {
  stroke: goldenrod;
  fill: goldenrod;
}

.error-bar {
  fill: none;
}
</style></defs><rect width="960" height="500" class="background"/><g transform="translate(80,40)"><g transform="translate(420, 0)"><text style="text-anchor: middle; font-size: 28px;">Random Number Game - Various FP Approaches</text></g><g class="x axis" transform="translate(0,400)"><g class="tick" style="opacity: 1;" transform="translate(56,0)"><line y2="6" x2="0" class="axis-line"/><text dy=".71em" style="text-anchor: middle;" y="9" x="0">600</text></g><g class="tick" style="opacity: 1;" transform="translate(168,0)"><line y2="6" x2="0" class="axis-line"/><text dy=".71em" style="text-anchor: middle;" y="9" x="0">800</text></g><g class="tick" style="opacity: 1;" transform="translate(280,0)"><line y2="6" x2="0" class="axis-line"/><text dy=".71em" style="text-anchor: middle;" y="9" x="0">1,000</text></g><g class="tick" style="opacity: 1;" transform="translate(392,0)"><line y2="6" x2="0" class="axis-line"/><text dy=".71em" style="text-anchor: middle;" y="9" x="0">1,200</text></g><g class="tick" style="opacity: 1;" transform="translate(504,0)"><line y2="6" x2="0" class="axis-line"/><text dy=".71em" style="text-anchor: middle;" y="9" x="0">1,400</text></g><g class="tick" style="opacity: 1;" transform="translate(616,0)"><line y2="6" x2="0" class="axis-line"/><text dy=".71em" style="text-anchor: middle;" y="9" x="0">1,600</text></g><g class="tick" style="opacity: 1;" transform="translate(728,0)"><line y2="6" x2="0" class="axis-line"/><text dy=".71em" style="text-anchor: middle;" y="9" x="0">1,800</text></g><g class="tick" style="opacity: 1;" transform="translate(840,0)"><line y2="6" x2="0" class="axis-line"/><text dy=".71em" style="text-anchor: middle;" y="9" x="0">2,000</text></g><path class="axis-path" d="M0,6V0H840V6"/><text x="420" y="40" style="text-anchor: middle;">The number of guesses to make before winning/losing</text></g><g class="y axis"><g class="tick" style="opacity: 1;" transform="translate(0,394.3651420325547)"><line x2="-6" y2="0" class="axis-line"/><text dy=".32em" style="text-anchor: end;" x="-9" y="0">1.00e-2</text></g><g class="tick" style="opacity: 1;" transform="translate(0,343.7618759165978)"><line x2="-6" y2="0" class="axis-line"/><text dy=".32em" style="text-anchor: end;" x="-9" y="0">0.02</text></g><g class="tick" style="opacity: 1;" transform="translate(0,293.1586098006409)"><line x2="-6" y2="0" class="axis-line"/><text dy=".32em" style="text-anchor: end;" x="-9" y="0">0.03</text></g><g class="tick" style="opacity: 1;" transform="translate(0,242.55534368468395)"><line x2="-6" y2="0" class="axis-line"/><text dy=".32em" style="text-anchor: end;" x="-9" y="0">0.04</text></g><g class="tick" style="opacity: 1;" transform="translate(0,191.95207756872708)"><line x2="-6" y2="0" class="axis-line"/><text dy=".32em" style="text-anchor: end;" x="-9" y="0">0.05</text></g><g class="tick" style="opacity: 1;" transform="translate(0,141.3488114527702)"><line x2="-6" y2="0" class="axis-line"/><text dy=".32em" style="text-anchor: end;" x="-9" y="0">0.06</text></g><g class="tick" style="opacity: 1;" transform="translate(0,90.74554533681325)"><line x2="-6" y2="0" class="axis-line"/><text dy=".32em" style="text-anchor: end;" x="-9" y="0">0.07</text></g><g class="tick" style="opacity: 1;" transform="translate(0,40.14227922085634)"><line x2="-6" y2="0" class="axis-line"/><text dy=".32em" style="text-anchor: end;" x="-9" y="0">0.08</text></g><path class="axis-path" d="M-6,0H0V400H-6"/><text transform="rotate(-90)" y="6" dy=".71em" style="text-anchor: end;">Mean running time (seconds)</text></g><g class="data-series-0"><circle cx="0" cy="390.7107314649419" r="3"/><circle cx="140" cy="400" r="3"/><circle cx="280" cy="391.3240693655876" r="3"/><circle cx="420" cy="235.4882703754722" r="3"/><circle cx="560" cy="172.6890617284366" r="3"/><circle cx="700" cy="322.469299829731" r="3"/><circle cx="840" cy="279.12739140595073" r="3"/><path class="error-bar" x="0" y="390.7107314649419" d="M 0 390.7107314649419 V 388.1629510682568 h -3 h 6 h -3 V 393.25851186162697 h -3 h 6"/><path class="error-bar" x="140" y="400" d="M 140 400 V 398.0012550418545 h -3 h 6 h -3 V 401.9987449581455 h -3 h 6"/><path class="error-bar" x="280" y="391.3240693655876" d="M 280 391.3240693655876 V 388.6546148707823 h -3 h 6 h -3 V 393.9935238603929 h -3 h 6"/><path class="error-bar" x="420" y="235.4882703754722" d="M 420 235.4882703754722 V 210.38598230434195 h -3 h 6 h -3 V 260.5905584466024 h -3 h 6"/><path class="error-bar" x="560" y="172.6890617284366" d="M 560 172.6890617284366 V 151.5685016164552 h -3 h 6 h -3 V 193.80962184041795 h -3 h 6"/><path class="error-bar" x="700" y="322.469299829731" d="M 700 322.469299829731 V 307.6531734644948 h -3 h 6 h -3 V 337.2854261949673 h -3 h 6"/><path class="error-bar" x="840" y="279.12739140595073" d="M 840 279.12739140595073 V 256.5882236678636 h -3 h 6 h -3 V 301.6665591440378 h -3 h 6"/><path class="line" d="M0,390.7107314649419L140,400L280,391.3240693655876L420,235.4882703754722L560,172.6890617284366L700,322.469299829731L840,279.12739140595073"/></g><g class="data-series-1"><circle cx="0" cy="368.8173722510456" r="3"/><circle cx="140" cy="339.78261264317325" r="3"/><circle cx="280" cy="364.9328834349084" r="3"/><circle cx="420" cy="137.70068110451996" r="3"/><circle cx="560" cy="0" r="3"/><circle cx="700" cy="257.14840396783006" r="3"/><circle cx="840" cy="151.1538737604176" r="3"/><path class="error-bar" x="0" y="368.8173722510456" d="M 0 368.8173722510456 V 365.47128630445417 h -3 h 6 h -3 V 372.16345819763706 h -3 h 6"/><path class="error-bar" x="140" y="339.78261264317325" d="M 140 339.78261264317325 V 328.6999331875472 h -3 h 6 h -3 V 350.86529209879933 h -3 h 6"/><path class="error-bar" x="280" y="364.9328834349084" d="M 280 364.9328834349084 V 361.79157150721164 h -3 h 6 h -3 V 368.0741953626051 h -3 h 6"/><path class="error-bar" x="420" y="137.70068110451996" d="M 420 137.70068110451996 V 110.2111605085359 h -3 h 6 h -3 V 165.19020170050402 h -3 h 6"/><path class="error-bar" x="560" y="0" d="M 560 0 V -32.02735479396077 h -3 h 6 h -3 V 32.027354793960725 h -3 h 6"/><path class="error-bar" x="700" y="257.14840396783006" d="M 700 257.14840396783006 V 234.6980928140167 h -3 h 6 h -3 V 279.5987151216434 h -3 h 6"/><path class="error-bar" x="840" y="151.1538737604176" d="M 840 151.1538737604176 V 117.22497103063469 h -3 h 6 h -3 V 185.08277649020056 h -3 h 6"/><path class="line" d="M0,368.8173722510456L140,339.78261264317325L280,364.9328834349084L420,137.70068110451996L560,0L700,257.14840396783006L840,151.1538737604176"/></g><g class="data-series-2"><circle cx="0" cy="360.40867317452125" r="3"/><circle cx="140" cy="349.18550547736055" r="3"/><circle cx="280" cy="366.0565571143048" r="3"/><circle cx="420" cy="235.6161026787267" r="3"/><circle cx="560" cy="186.64609548705334" r="3"/><circle cx="700" cy="306.7409014927528" r="3"/><circle cx="840" cy="265.2142394266212" r="3"/><path class="error-bar" x="0" y="360.40867317452125" d="M 0 360.40867317452125 V 350.50955948528923 h -3 h 6 h -3 V 370.3077868637533 h -3 h 6"/><path class="error-bar" x="140" y="349.18550547736055" d="M 140 349.18550547736055 V 342.95129402279827 h -3 h 6 h -3 V 355.41971693192284 h -3 h 6"/><path class="error-bar" x="280" y="366.0565571143048" d="M 280 366.0565571143048 V 357.536818217172 h -3 h 6 h -3 V 374.57629601143753 h -3 h 6"/><path class="error-bar" x="420" y="235.6161026787267" d="M 420 235.6161026787267 V 205.13346995966887 h -3 h 6 h -3 V 266.09873539778454 h -3 h 6"/><path class="error-bar" x="560" y="186.64609548705334" d="M 560 186.64609548705334 V 151.72825668063842 h -3 h 6 h -3 V 221.56393429346826 h -3 h 6"/><path class="error-bar" x="700" y="306.7409014927528" d="M 700 306.7409014927528 V 290.49765757284433 h -3 h 6 h -3 V 322.9841454126613 h -3 h 6"/><path class="error-bar" x="840" y="265.2142394266212" d="M 840 265.2142394266212 V 249.62246242975286 h -3 h 6 h -3 V 280.8060164234895 h -3 h 6"/><path class="line" d="M0,360.40867317452125L140,349.18550547736055L280,366.0565571143048L420,235.6161026787267L560,186.64609548705334L700,306.7409014927528L840,265.2142394266212"/></g><g class="data-series-3"><circle cx="0" cy="350.0443915380398" r="3"/><circle cx="140" cy="335.7338982732913" r="3"/><circle cx="280" cy="355.4315493969725" r="3"/><circle cx="420" cy="215.51703094968175" r="3"/><circle cx="560" cy="162.21502543375576" r="3"/><circle cx="700" cy="288.3456233241559" r="3"/><circle cx="840" cy="251.6429578775827" r="3"/><path class="error-bar" x="0" y="350.0443915380398" d="M 0 350.0443915380398 V 348.1958593292906 h -3 h 6 h -3 V 351.89292374678894 h -3 h 6"/><path class="error-bar" x="140" y="335.7338982732913" d="M 140 335.7338982732913 V 321.37341213905995 h -3 h 6 h -3 V 350.0943844075226 h -3 h 6"/><path class="error-bar" x="280" y="355.4315493969725" d="M 280 355.4315493969725 V 347.7164496934954 h -3 h 6 h -3 V 363.14664910044957 h -3 h 6"/><path class="error-bar" x="420" y="215.51703094968175" d="M 420 215.51703094968175 V 207.56638701438445 h -3 h 6 h -3 V 223.4676748849791 h -3 h 6"/><path class="error-bar" x="560" y="162.21502543375576" d="M 560 162.21502543375576 V 131.73497176522392 h -3 h 6 h -3 V 192.69507910228762 h -3 h 6"/><path class="error-bar" x="700" y="288.3456233241559" d="M 700 288.3456233241559 V 278.6505750108035 h -3 h 6 h -3 V 298.04067163750824 h -3 h 6"/><path class="error-bar" x="840" y="251.6429578775827" d="M 840 251.6429578775827 V 234.81313805343183 h -3 h 6 h -3 V 268.4727777017336 h -3 h 6"/><path class="line" d="M0,350.0443915380398L140,335.7338982732913L280,355.4315493969725L420,215.51703094968175L560,162.21502543375576L700,288.3456233241559L840,251.6429578775827"/></g><g class="legend" transform="translate(50, 50)"><rect x="0" y="0" width="15" height="15" class="data-series-0"/><rect x="0" y="20" width="15" height="15" class="data-series-1"/><rect x="0" y="40" width="15" height="15" class="data-series-2"/><rect x="0" y="60" width="15" height="15" class="data-series-3"/><text x="24" y="13">Standard ReaderT (Different Monad)</text><text x="24" y="33">Standard ReaderT (Same Monad)</text><text x="24" y="53">Standard Run</text><text x="24" y="73">Layered Run</text></g></g></svg>