<?xml version="1.0" encoding="UTF-8"?><svg xmlns="http://www.w3.org/2000/svg" xmlns:xlink="http://www.w3.org/1999/xlink" fill-opacity="1" color-rendering="auto" color-interpolation="auto" text-rendering="auto" stroke="black" stroke-linecap="square" width="600" stroke-miterlimit="10" shape-rendering="auto" stroke-opacity="1" fill="black" stroke-dasharray="none" font-weight="normal" stroke-width="1" height="533" font-family="'Dialog'" font-style="normal" stroke-linejoin="miter" font-size="12px" stroke-dashoffset="0" image-rendering="auto">
  <!--Generated by ySVG 2.5-->
  <defs id="genericDefs"/>
  <g>
    <defs id="defs1">
      <linearGradient x1="617.8916" gradientUnits="userSpaceOnUse" x2="637.6546" y1="514.5" y2="514.5" id="linearGradient1" spreadMethod="reflect">
        <stop stop-opacity="1" stop-color="rgb(255,204,0)" offset="0%"/>
        <stop stop-opacity="1" stop-color="rgb(153,204,255)" offset="100%"/>
      </linearGradient>
      <linearGradient x1="520.3893" gradientUnits="userSpaceOnUse" x2="534.8125" y1="514.5" y2="514.5" id="linearGradient2" spreadMethod="reflect">
        <stop stop-opacity="1" stop-color="rgb(255,204,0)" offset="0%"/>
        <stop stop-opacity="1" stop-color="rgb(153,204,255)" offset="100%"/>
      </linearGradient>
      <linearGradient x1="785.6136" gradientUnits="userSpaceOnUse" x2="881.1462" y1="638.7305" y2="638.7305" id="linearGradient3" spreadMethod="reflect">
        <stop stop-opacity="1" stop-color="rgb(255,204,0)" offset="0%"/>
        <stop stop-opacity="1" stop-color="rgb(153,204,255)" offset="100%"/>
      </linearGradient>
      <clipPath clipPathUnits="userSpaceOnUse" id="clipPath1">
        <path d="M0 0 L600 0 L600 533 L0 533 L0 0 Z"/>
      </clipPath>
      <clipPath clipPathUnits="userSpaceOnUse" id="clipPath2">
        <path d="M312 167 L912 167 L912 700 L312 700 L312 167 Z"/>
      </clipPath>
    </defs>
    <g fill="white" text-rendering="geometricPrecision" shape-rendering="geometricPrecision" transform="translate(-312,-167)" stroke="white">
      <rect x="312" width="600" height="533" y="167" clip-path="url(#clipPath2)" stroke="none"/>
    </g>
    <g fill="rgb(255,204,0)" text-rendering="geometricPrecision" shape-rendering="geometricPrecision" transform="matrix(1,0,0,1,-312,-167)" stroke="rgb(255,204,0)">
      <rect x="451.6911" width="83.2988" height="30" y="318" clip-path="url(#clipPath2)" stroke="none"/>
    </g>
    <g text-rendering="geometricPrecision" stroke-miterlimit="1.45" shape-rendering="geometricPrecision" transform="matrix(1,0,0,1,-312,-167)" stroke-linecap="butt">
      <rect fill="none" x="451.6911" width="83.2988" height="30" y="318" clip-path="url(#clipPath2)"/>
      <text x="485.5182" xml:space="preserve" y="330.1699" clip-path="url(#clipPath2)" font-family="sans-serif" stroke="none">Nil</text>
      <text x="458.6911" xml:space="preserve" y="344.1387" clip-path="url(#clipPath2)" font-family="sans-serif" stroke="none">(empty list)</text>
    </g>
    <g fill="url(#linearGradient1)" text-rendering="geometricPrecision" shape-rendering="geometricPrecision" transform="matrix(1,0,0,1,-312,-167)" stroke="url(#linearGradient1)">
      <rect x="608.0101" width="29.6445" height="30" y="514.5" clip-path="url(#clipPath2)" stroke="none"/>
    </g>
    <g text-rendering="geometricPrecision" stroke-miterlimit="1.45" shape-rendering="geometricPrecision" transform="matrix(1,0,0,1,-312,-167)" stroke-linecap="butt">
      <rect fill="none" x="608.0101" width="29.6445" height="30" y="514.5" clip-path="url(#clipPath2)"/>
      <text x="615.0101" xml:space="preserve" y="533.6543" clip-path="url(#clipPath2)" font-family="sans-serif" stroke="none">Nil</text>
    </g>
    <g fill="url(#linearGradient2)" text-rendering="geometricPrecision" shape-rendering="geometricPrecision" transform="matrix(1,0,0,1,-312,-167)" stroke="url(#linearGradient2)">
      <rect x="513.1777" width="21.6348" height="30" y="514.5" clip-path="url(#clipPath2)" stroke="none"/>
    </g>
    <g text-rendering="geometricPrecision" stroke-miterlimit="1.45" shape-rendering="geometricPrecision" transform="matrix(1,0,0,1,-312,-167)" stroke-linecap="butt">
      <rect fill="none" x="513.1777" width="21.6348" height="30" y="514.5" clip-path="url(#clipPath2)"/>
      <text x="520.1777" xml:space="preserve" y="533.6543" clip-path="url(#clipPath2)" font-family="sans-serif" stroke="none">1</text>
    </g>
    <g fill="rgb(255,204,0)" text-rendering="geometricPrecision" shape-rendering="geometricPrecision" transform="matrix(1,0,0,1,-312,-167)" stroke="rgb(255,204,0)">
      <rect x="420.5192" width="21.6348" height="30" y="514.5" clip-path="url(#clipPath2)" stroke="none"/>
    </g>
    <g text-rendering="geometricPrecision" stroke-miterlimit="1.45" shape-rendering="geometricPrecision" transform="matrix(1,0,0,1,-312,-167)" stroke-linecap="butt">
      <rect fill="none" x="420.5192" width="21.6348" height="30" y="514.5" clip-path="url(#clipPath2)"/>
      <text x="427.5192" xml:space="preserve" y="533.6543" clip-path="url(#clipPath2)" font-family="sans-serif" stroke="none">2</text>
    </g>
    <g fill="rgb(255,204,0)" text-rendering="geometricPrecision" shape-rendering="geometricPrecision" transform="matrix(1,0,0,1,-312,-167)" stroke="rgb(255,204,0)">
      <rect x="327.8607" width="21.6348" height="30" y="514.5" clip-path="url(#clipPath2)" stroke="none"/>
    </g>
    <g stroke-linecap="butt" transform="matrix(1,0,0,1,-312,-167)" text-rendering="geometricPrecision" shape-rendering="geometricPrecision" stroke-dasharray="18,6" stroke-width="3" stroke-miterlimit="1.45">
      <rect fill="none" x="327.8607" width="21.6348" height="30" y="514.5" clip-path="url(#clipPath2)"/>
      <text x="334.8607" y="533.6543" clip-path="url(#clipPath2)" font-family="sans-serif" stroke-dasharray="none" stroke="none" stroke-width="1" xml:space="preserve">3</text>
      <path fill="none" stroke-dasharray="none" d="M534.8125 529.5 L600.0101 529.5" stroke-width="1" clip-path="url(#clipPath2)"/>
      <path stroke-dasharray="none" d="M608.0101 529.5 L596.0101 524.5 L599.0101 529.5 L596.0101 534.5 Z" stroke-width="1" clip-path="url(#clipPath2)" stroke="none"/>
      <path fill="none" stroke-dasharray="none" d="M442.154 529.5 L505.1777 529.5" stroke-width="1" clip-path="url(#clipPath2)"/>
      <path stroke-dasharray="none" d="M513.1777 529.5 L501.1777 524.5 L504.1777 529.5 L501.1777 534.5 Z" stroke-width="1" clip-path="url(#clipPath2)" stroke="none"/>
      <path fill="none" stroke-dasharray="none" d="M349.4955 529.5 L412.5192 529.5" stroke-width="1" clip-path="url(#clipPath2)"/>
      <path stroke-dasharray="none" d="M420.5192 529.5 L408.5192 524.5 L411.5192 529.5 L408.5192 534.5 Z" stroke-width="1" clip-path="url(#clipPath2)" stroke="none"/>
    </g>
    <g fill="rgb(245,245,245)" text-rendering="geometricPrecision" shape-rendering="geometricPrecision" transform="matrix(1,0,0,1,-312,-167)" stroke="rgb(245,245,245)">
      <rect x="722.8473" y="504.3008" clip-path="url(#clipPath2)" width="173.2988" rx="4" ry="4" height="180.3984" stroke="none"/>
      <rect x="722.8473" y="504.3008" clip-path="url(#clipPath2)" fill="rgb(235,235,235)" width="173.2988" height="21.4609" stroke="none"/>
    </g>
    <g font-size="15px" stroke-linecap="butt" transform="matrix(1,0,0,1,-312,-167)" text-rendering="geometricPrecision" font-family="sans-serif" shape-rendering="geometricPrecision" stroke-miterlimit="1.45">
      <text x="754.0378" xml:space="preserve" y="520.2241" clip-path="url(#clipPath2)" stroke="none">Variable Name</text>
      <rect x="722.8473" y="504.3008" clip-path="url(#clipPath2)" fill="none" width="173.2988" stroke-dasharray="6,2" rx="4" ry="4" height="180.3984"/>
    </g>
    <g fill="rgb(255,204,0)" text-rendering="geometricPrecision" shape-rendering="geometricPrecision" transform="matrix(1,0,0,1,-312,-167)" stroke="rgb(255,204,0)">
      <rect x="745.5143" width="127.9648" height="30" y="541.7305" clip-path="url(#clipPath2)" stroke="none"/>
    </g>
    <g text-rendering="geometricPrecision" stroke-miterlimit="1.45" shape-rendering="geometricPrecision" transform="matrix(1,0,0,1,-312,-167)" stroke-linecap="butt">
      <rect fill="none" x="745.5143" width="127.9648" height="30" y="541.7305" clip-path="url(#clipPath2)"/>
      <text x="805.946" xml:space="preserve" y="553.9004" clip-path="url(#clipPath2)" font-family="sans-serif" stroke="none">x</text>
      <text x="752.5143" xml:space="preserve" y="567.8691" clip-path="url(#clipPath2)" font-family="sans-serif" stroke="none">(background color)</text>
    </g>
    <g fill="rgb(153,204,255)" text-rendering="geometricPrecision" shape-rendering="geometricPrecision" transform="matrix(1,0,0,1,-312,-167)" stroke="rgb(153,204,255)">
      <rect x="745.5143" width="127.9648" height="30" y="588.7305" clip-path="url(#clipPath2)" stroke="none"/>
    </g>
    <g text-rendering="geometricPrecision" stroke-miterlimit="1.45" shape-rendering="geometricPrecision" transform="matrix(1,0,0,1,-312,-167)" stroke-linecap="butt">
      <rect fill="none" x="745.5143" width="127.9648" height="30" y="588.7305" clip-path="url(#clipPath2)"/>
      <text x="805.946" xml:space="preserve" y="600.9004" clip-path="url(#clipPath2)" font-family="sans-serif" stroke="none">y</text>
      <text x="752.5143" xml:space="preserve" y="614.8691" clip-path="url(#clipPath2)" font-family="sans-serif" stroke="none">(background color)</text>
    </g>
    <g fill="url(#linearGradient3)" text-rendering="geometricPrecision" shape-rendering="geometricPrecision" transform="matrix(1,0,0,1,-312,-167)" stroke="url(#linearGradient3)">
      <rect x="737.8473" width="143.2988" height="30" y="638.7305" clip-path="url(#clipPath2)" stroke="none"/>
    </g>
    <g text-rendering="geometricPrecision" stroke-miterlimit="1.45" shape-rendering="geometricPrecision" transform="matrix(1,0,0,1,-312,-167)" stroke-linecap="butt">
      <rect fill="none" x="737.8473" width="143.2988" height="30" y="638.7305" clip-path="url(#clipPath2)"/>
      <text x="744.8474" xml:space="preserve" y="650.9004" clip-path="url(#clipPath2)" font-family="sans-serif" stroke="none">Shared between both</text>
      <text x="774.7302" xml:space="preserve" y="664.8691" clip-path="url(#clipPath2)" font-family="sans-serif" stroke="none">(persistent)</text>
    </g>
    <g fill="rgb(153,204,255)" text-rendering="geometricPrecision" shape-rendering="geometricPrecision" transform="matrix(1,0,0,1,-312,-167)" stroke="rgb(153,204,255)">
      <rect x="513.1777" width="21.6348" height="30" y="609" clip-path="url(#clipPath2)" stroke="none"/>
    </g>
    <g text-rendering="geometricPrecision" stroke-miterlimit="1.45" shape-rendering="geometricPrecision" transform="matrix(1,0,0,1,-312,-167)" stroke-linecap="butt">
      <rect fill="none" x="513.1777" width="21.6348" height="30" y="609" clip-path="url(#clipPath2)"/>
      <text x="520.1777" xml:space="preserve" y="628.1543" clip-path="url(#clipPath2)" font-family="sans-serif" stroke="none">4</text>
    </g>
    <g fill="rgb(153,204,255)" text-rendering="geometricPrecision" shape-rendering="geometricPrecision" transform="matrix(1,0,0,1,-312,-167)" stroke="rgb(153,204,255)">
      <rect x="420.5192" width="21.6348" height="30" y="609" clip-path="url(#clipPath2)" stroke="none"/>
    </g>
    <g stroke-linecap="butt" transform="matrix(1,0,0,1,-312,-167)" text-rendering="geometricPrecision" shape-rendering="geometricPrecision" stroke-dasharray="18,6" stroke-width="3" stroke-miterlimit="1.45">
      <rect fill="none" x="420.5192" width="21.6348" height="30" y="609" clip-path="url(#clipPath2)"/>
      <text x="427.5192" y="628.1543" clip-path="url(#clipPath2)" font-family="sans-serif" stroke-dasharray="none" stroke="none" stroke-width="1" xml:space="preserve">3</text>
    </g>
    <g fill="rgb(255,204,0)" text-rendering="geometricPrecision" shape-rendering="geometricPrecision" transform="matrix(1,0,0,1,-312,-167)" stroke="rgb(255,204,0)">
      <rect x="605.8363" width="29.6445" height="30" y="396.5" clip-path="url(#clipPath2)" stroke="none"/>
    </g>
    <g text-rendering="geometricPrecision" stroke-miterlimit="1.45" shape-rendering="geometricPrecision" transform="matrix(1,0,0,1,-312,-167)" stroke-linecap="butt">
      <rect fill="none" x="605.8363" width="29.6445" height="30" y="396.5" clip-path="url(#clipPath2)"/>
      <text x="612.8362" xml:space="preserve" y="415.6543" clip-path="url(#clipPath2)" font-family="sans-serif" stroke="none">Nil</text>
    </g>
    <g fill="rgb(255,204,0)" text-rendering="geometricPrecision" shape-rendering="geometricPrecision" transform="matrix(1,0,0,1,-312,-167)" stroke="rgb(255,204,0)">
      <rect x="513.1777" width="21.6348" height="30" y="396.5" clip-path="url(#clipPath2)" stroke="none"/>
    </g>
    <g text-rendering="geometricPrecision" stroke-miterlimit="1.45" shape-rendering="geometricPrecision" transform="matrix(1,0,0,1,-312,-167)" stroke-linecap="butt">
      <rect fill="none" x="513.1777" width="21.6348" height="30" y="396.5" clip-path="url(#clipPath2)"/>
      <text x="520.1777" xml:space="preserve" y="415.6543" clip-path="url(#clipPath2)" font-family="sans-serif" stroke="none">1</text>
    </g>
    <g fill="rgb(255,204,0)" text-rendering="geometricPrecision" shape-rendering="geometricPrecision" transform="matrix(1,0,0,1,-312,-167)" stroke="rgb(255,204,0)">
      <rect x="420.5192" width="21.6348" height="30" y="396.5" clip-path="url(#clipPath2)" stroke="none"/>
    </g>
    <g text-rendering="geometricPrecision" stroke-miterlimit="1.45" shape-rendering="geometricPrecision" transform="matrix(1,0,0,1,-312,-167)" stroke-linecap="butt">
      <rect fill="none" x="420.5192" width="21.6348" height="30" y="396.5" clip-path="url(#clipPath2)"/>
      <text x="427.5192" xml:space="preserve" y="415.6543" clip-path="url(#clipPath2)" font-family="sans-serif" stroke="none">2</text>
    </g>
    <g fill="rgb(255,204,0)" text-rendering="geometricPrecision" shape-rendering="geometricPrecision" transform="matrix(1,0,0,1,-312,-167)" stroke="rgb(255,204,0)">
      <rect x="327.8607" width="21.6348" height="30" y="396.5" clip-path="url(#clipPath2)" stroke="none"/>
    </g>
    <g stroke-linecap="butt" transform="matrix(1,0,0,1,-312,-167)" text-rendering="geometricPrecision" shape-rendering="geometricPrecision" stroke-dasharray="18,6" stroke-width="3" stroke-miterlimit="1.45">
      <rect fill="none" x="327.8607" width="21.6348" height="30" y="396.5" clip-path="url(#clipPath2)"/>
      <text x="334.8607" y="415.6543" clip-path="url(#clipPath2)" font-family="sans-serif" stroke-dasharray="none" stroke="none" stroke-width="1" xml:space="preserve">3</text>
      <path fill="none" stroke-dasharray="none" d="M523.9951 609 L523.9951 552.5" stroke-width="1" clip-path="url(#clipPath2)"/>
      <path stroke-dasharray="none" d="M523.9951 544.5 L518.9951 556.5 L523.9951 553.5 L528.9951 556.5 Z" stroke-width="1" clip-path="url(#clipPath2)" stroke="none"/>
      <path fill="none" stroke-dasharray="none" d="M442.154 624 L505.1777 624" stroke-width="1" clip-path="url(#clipPath2)"/>
      <path stroke-dasharray="none" d="M513.1777 624 L501.1777 619 L504.1777 624 L501.1777 629 Z" stroke-width="1" clip-path="url(#clipPath2)" stroke="none"/>
      <path fill="none" stroke-dasharray="none" d="M534.8125 411.5 L597.8362 411.5" stroke-width="1" clip-path="url(#clipPath2)"/>
      <path stroke-dasharray="none" d="M605.8362 411.5 L593.8362 406.5 L596.8362 411.5 L593.8362 416.5 Z" stroke-width="1" clip-path="url(#clipPath2)" stroke="none"/>
      <path fill="none" stroke-dasharray="none" d="M442.154 411.5 L505.1777 411.5" stroke-width="1" clip-path="url(#clipPath2)"/>
      <path stroke-dasharray="none" d="M513.1777 411.5 L501.1777 406.5 L504.1777 411.5 L501.1777 416.5 Z" stroke-width="1" clip-path="url(#clipPath2)" stroke="none"/>
      <path fill="none" stroke-dasharray="none" d="M349.4955 411.5 L412.5192 411.5" stroke-width="1" clip-path="url(#clipPath2)"/>
      <path stroke-dasharray="none" d="M420.5192 411.5 L408.5192 406.5 L411.5192 411.5 L408.5192 416.5 Z" stroke-width="1" clip-path="url(#clipPath2)" stroke="none"/>
    </g>
    <g fill="rgb(245,245,245)" text-rendering="geometricPrecision" shape-rendering="geometricPrecision" transform="matrix(1,0,0,1,-312,-167)" stroke="rgb(245,245,245)">
      <rect x="722.8473" y="369.8008" clip-path="url(#clipPath2)" width="173.2988" rx="4" ry="4" height="83.3984" stroke="none"/>
      <rect x="722.8473" y="369.8008" clip-path="url(#clipPath2)" fill="rgb(235,235,235)" width="173.2988" height="21.4609" stroke="none"/>
    </g>
    <g font-size="15px" stroke-linecap="butt" transform="matrix(1,0,0,1,-312,-167)" text-rendering="geometricPrecision" font-family="sans-serif" shape-rendering="geometricPrecision" stroke-miterlimit="1.45">
      <text x="754.0378" xml:space="preserve" y="385.7241" clip-path="url(#clipPath2)" stroke="none">Variable Name</text>
      <rect x="722.8473" y="369.8008" clip-path="url(#clipPath2)" fill="none" width="173.2988" stroke-dasharray="6,2" rx="4" ry="4" height="83.3984"/>
    </g>
    <g fill="rgb(255,204,0)" text-rendering="geometricPrecision" shape-rendering="geometricPrecision" transform="matrix(1,0,0,1,-312,-167)" stroke="rgb(255,204,0)">
      <rect x="745.5143" width="127.9648" height="30" y="407.2305" clip-path="url(#clipPath2)" stroke="none"/>
    </g>
    <g text-rendering="geometricPrecision" stroke-miterlimit="1.45" shape-rendering="geometricPrecision" transform="matrix(1,0,0,1,-312,-167)" stroke-linecap="butt">
      <rect fill="none" x="745.5143" width="127.9648" height="30" y="407.2305" clip-path="url(#clipPath2)"/>
      <text x="805.946" xml:space="preserve" y="419.4004" clip-path="url(#clipPath2)" font-family="sans-serif" stroke="none">x</text>
      <text x="752.5143" xml:space="preserve" y="433.3691" clip-path="url(#clipPath2)" font-family="sans-serif" stroke="none">(background color)</text>
    </g>
    <g fill="rgb(245,245,245)" text-rendering="geometricPrecision" shape-rendering="geometricPrecision" transform="matrix(1,0,0,1,-312,-167)" stroke="rgb(245,245,245)">
      <rect x="420.5192" y="182.5703" clip-path="url(#clipPath2)" width="145.6426" rx="4" ry="4" height="93.4297" stroke="none"/>
      <rect x="420.5192" y="182.5703" clip-path="url(#clipPath2)" fill="rgb(235,235,235)" width="145.6426" height="21.4609" stroke="none"/>
    </g>
    <g font-size="15px" stroke-linecap="butt" transform="matrix(1,0,0,1,-312,-167)" text-rendering="geometricPrecision" font-family="sans-serif" shape-rendering="geometricPrecision" stroke-miterlimit="1.45">
      <text x="465.6586" xml:space="preserve" y="198.4937" clip-path="url(#clipPath2)" stroke="none">Legend</text>
      <rect x="420.5192" y="182.5703" clip-path="url(#clipPath2)" fill="none" width="145.6426" stroke-dasharray="6,2" rx="4" ry="4" height="93.4297"/>
    </g>
    <g fill="rgb(255,204,0)" text-rendering="geometricPrecision" shape-rendering="geometricPrecision" transform="matrix(1,0,0,1,-312,-167)" stroke="rgb(255,204,0)">
      <rect x="435.5192" width="115.6426" height="41" y="220" clip-path="url(#clipPath2)" stroke="none"/>
    </g>
    <g stroke-linecap="butt" transform="matrix(1,0,0,1,-312,-167)" text-rendering="geometricPrecision" shape-rendering="geometricPrecision" stroke-dasharray="18,6" stroke-width="3" stroke-miterlimit="1.45">
      <rect fill="none" x="435.5192" width="115.6426" height="41" y="220" clip-path="url(#clipPath2)"/>
      <text x="448.5192" y="237.6699" clip-path="url(#clipPath2)" font-family="sans-serif" stroke-dasharray="none" stroke="none" stroke-width="1" xml:space="preserve">Start of the list</text>
      <text x="452.0641" y="251.6387" clip-path="url(#clipPath2)" font-family="sans-serif" stroke-dasharray="none" stroke="none" stroke-width="1" xml:space="preserve">(border color)</text>
    </g>
  </g>
</svg>
