<?xml version="1.0" encoding="UTF-8"?><svg xmlns="http://www.w3.org/2000/svg" xmlns:xlink="http://www.w3.org/1999/xlink" fill-opacity="1" color-rendering="auto" color-interpolation="auto" text-rendering="auto" stroke="black" stroke-linecap="square" width="1006" stroke-miterlimit="10" shape-rendering="auto" stroke-opacity="1" fill="black" stroke-dasharray="none" font-weight="normal" stroke-width="1" height="504" font-family="'Dialog'" font-style="normal" stroke-linejoin="miter" font-size="12px" stroke-dashoffset="0" image-rendering="auto">
  <!--Generated by ySVG 2.5-->
  <defs id="genericDefs"/>
  <g>
    <defs id="defs1">
      <clipPath clipPathUnits="userSpaceOnUse" id="clipPath1">
        <path d="M0 0 L1006 0 L1006 504 L0 504 L0 0 Z"/>
      </clipPath>
      <clipPath clipPathUnits="userSpaceOnUse" id="clipPath2">
        <path d="M562 455 L1568 455 L1568 959 L562 959 L562 455 Z"/>
      </clipPath>
    </defs>
    <g fill="white" text-rendering="geometricPrecision" shape-rendering="geometricPrecision" transform="translate(-562,-455)" stroke="white">
      <rect x="562" width="1006" height="504" y="455" clip-path="url(#clipPath2)" stroke="none"/>
    </g>
    <g fill="rgb(51,204,204)" text-rendering="geometricPrecision" shape-rendering="geometricPrecision" transform="matrix(1,0,0,1,-562,-455)" stroke="rgb(51,204,204)">
      <rect x="901.2788" width="92.4424" height="30" y="470" clip-path="url(#clipPath2)" stroke="none"/>
    </g>
    <g stroke-linecap="butt" transform="matrix(1,0,0,1,-562,-455)" text-rendering="geometricPrecision" shape-rendering="geometricPrecision" stroke-dasharray="12,4" stroke-width="2" stroke-miterlimit="1.45">
      <rect fill="none" x="901.2788" width="92.4424" height="30" y="470" clip-path="url(#clipPath2)"/>
    </g>
    <g font-size="18px" stroke-linecap="butt" transform="matrix(1,0,0,1,-562,-455)" text-rendering="geometricPrecision" font-family="sans-serif" shape-rendering="geometricPrecision" font-weight="bold" stroke-miterlimit="1.45">
      <text x="908.2788" xml:space="preserve" y="491.2314" clip-path="url(#clipPath2)" stroke="none">Functor</text>
      <line y2="495.4766" fill="none" x1="908.2788" clip-path="url(#clipPath2)" x2="986.7212" y1="495.4766"/>
    </g>
    <g fill="rgb(204,255,204)" text-rendering="geometricPrecision" shape-rendering="geometricPrecision" transform="matrix(1,0,0,1,-562,-455)" stroke="rgb(204,255,204)">
      <rect x="911.6982" width="71.6035" height="30" y="557.5025" clip-path="url(#clipPath2)" stroke="none"/>
    </g>
    <g text-rendering="geometricPrecision" stroke-miterlimit="1.45" shape-rendering="geometricPrecision" transform="matrix(1,0,0,1,-562,-455)" stroke-linecap="butt">
      <rect fill="none" x="911.6982" width="71.6035" height="30" y="557.5025" clip-path="url(#clipPath2)"/>
      <text x="918.6982" font-size="18px" y="578.7339" clip-path="url(#clipPath2)" font-family="sans-serif" stroke="none" font-weight="bold" xml:space="preserve">Apply</text>
      <line y2="582.9791" fill="none" x1="918.6982" clip-path="url(#clipPath2)" x2="976.3018" y1="582.9791"/>
    </g>
    <g fill="rgb(204,255,204)" text-rendering="geometricPrecision" shape-rendering="geometricPrecision" transform="matrix(1,0,0,1,-562,-455)" stroke="rgb(204,255,204)">
      <rect x="883.7139" width="127.5723" height="30" y="646.626" clip-path="url(#clipPath2)" stroke="none"/>
    </g>
    <g text-rendering="geometricPrecision" stroke-miterlimit="1.45" shape-rendering="geometricPrecision" transform="matrix(1,0,0,1,-562,-455)" stroke-linecap="butt">
      <rect fill="none" x="883.7139" width="127.5723" height="30" y="646.626" clip-path="url(#clipPath2)"/>
      <text x="890.7139" font-size="18px" y="667.8574" clip-path="url(#clipPath2)" font-family="sans-serif" stroke="none" font-weight="bold" xml:space="preserve">Applicative</text>
      <line y2="672.1026" fill="none" x1="890.7139" clip-path="url(#clipPath2)" x2="1004.2861" y1="672.1026"/>
    </g>
    <g fill="rgb(204,255,204)" text-rendering="geometricPrecision" shape-rendering="geometricPrecision" transform="matrix(1,0,0,1,-562,-455)" stroke="rgb(204,255,204)">
      <rect x="906.438" width="82.124" height="30" y="731.686" clip-path="url(#clipPath2)" stroke="none"/>
    </g>
    <g text-rendering="geometricPrecision" stroke-miterlimit="1.45" shape-rendering="geometricPrecision" transform="matrix(1,0,0,1,-562,-455)" stroke-linecap="butt">
      <rect fill="none" x="906.438" width="82.124" height="30" y="731.686" clip-path="url(#clipPath2)"/>
      <text x="913.438" font-size="18px" y="752.9174" clip-path="url(#clipPath2)" font-family="sans-serif" stroke="none" font-weight="bold" xml:space="preserve">Monad</text>
      <line y2="757.1626" fill="none" x1="913.438" clip-path="url(#clipPath2)" x2="981.562" y1="757.1626"/>
    </g>
    <g fill="rgb(255,204,153)" text-rendering="geometricPrecision" shape-rendering="geometricPrecision" transform="matrix(1,0,0,1,-562,-455)" stroke="rgb(255,204,153)">
      <rect x="675.9035" width="88.5137" height="30" y="617.5025" clip-path="url(#clipPath2)" stroke="none"/>
    </g>
    <g stroke-linecap="round" transform="matrix(1,0,0,1,-562,-455)" stroke-dashoffset="2" text-rendering="geometricPrecision" shape-rendering="geometricPrecision" stroke-dasharray="0,8" stroke-width="2" stroke-miterlimit="1.45">
      <rect fill="none" x="675.9035" width="88.5137" height="30" y="617.5025" clip-path="url(#clipPath2)"/>
    </g>
    <g font-size="18px" stroke-linecap="butt" transform="matrix(1,0,0,1,-562,-455)" text-rendering="geometricPrecision" font-family="sans-serif" shape-rendering="geometricPrecision" font-weight="bold" stroke-miterlimit="1.45">
      <text x="682.9034" xml:space="preserve" y="638.7339" clip-path="url(#clipPath2)" stroke="none">Monoid</text>
      <line y2="642.9791" fill="none" x1="682.9035" clip-path="url(#clipPath2)" x2="757.4171" y1="642.9791"/>
    </g>
    <g fill="rgb(255,204,153)" text-rendering="geometricPrecision" shape-rendering="geometricPrecision" transform="matrix(1,0,0,1,-562,-455)" stroke="rgb(255,204,153)">
      <rect x="658.1979" width="123.9248" height="30" y="557.5025" clip-path="url(#clipPath2)" stroke="none"/>
    </g>
    <g stroke-linecap="round" transform="matrix(1,0,0,1,-562,-455)" stroke-dashoffset="2" text-rendering="geometricPrecision" shape-rendering="geometricPrecision" stroke-dasharray="0,8" stroke-width="2" stroke-miterlimit="1.45">
      <rect fill="none" x="658.1979" width="123.9248" height="30" y="557.5025" clip-path="url(#clipPath2)"/>
    </g>
    <g font-size="18px" stroke-linecap="butt" transform="matrix(1,0,0,1,-562,-455)" text-rendering="geometricPrecision" font-family="sans-serif" shape-rendering="geometricPrecision" font-weight="bold" stroke-miterlimit="1.45">
      <text x="665.1979" xml:space="preserve" y="578.7339" clip-path="url(#clipPath2)" stroke="none">Semigroup</text>
      <line y2="582.9791" fill="none" x1="665.1979" clip-path="url(#clipPath2)" x2="775.1227" y1="582.9791"/>
    </g>
    <g fill="rgb(204,255,255)" text-rendering="geometricPrecision" shape-rendering="geometricPrecision" transform="matrix(1,0,0,1,-562,-455)" stroke="rgb(204,255,255)">
      <rect x="913.0928" width="68.8145" height="30" y="867.686" clip-path="url(#clipPath2)" stroke="none"/>
    </g>
    <g text-rendering="geometricPrecision" stroke-miterlimit="1.45" shape-rendering="geometricPrecision" transform="matrix(1,0,0,1,-562,-455)" stroke-linecap="butt">
      <rect fill="none" x="913.0928" width="68.8145" height="30" y="867.686" clip-path="url(#clipPath2)"/>
      <text x="920.0928" xml:space="preserve" y="886.8403" clip-path="url(#clipPath2)" font-family="sans-serif" stroke="none">Category</text>
    </g>
    <g fill="rgb(204,255,204)" text-rendering="geometricPrecision" shape-rendering="geometricPrecision" transform="matrix(1,0,0,1,-562,-455)" stroke="rgb(204,255,204)">
      <rect x="809.1227" width="59.5889" height="30" y="646.626" clip-path="url(#clipPath2)" stroke="none"/>
    </g>
    <g text-rendering="geometricPrecision" stroke-miterlimit="1.45" shape-rendering="geometricPrecision" transform="matrix(1,0,0,1,-562,-455)" stroke-linecap="butt">
      <rect fill="none" x="809.1227" width="59.5889" height="30" y="646.626" clip-path="url(#clipPath2)"/>
      <text x="816.1227" font-size="18px" y="667.8574" clip-path="url(#clipPath2)" font-family="sans-serif" stroke="none" font-weight="bold" xml:space="preserve">Bind</text>
      <line y2="672.1026" fill="none" x1="816.1227" clip-path="url(#clipPath2)" x2="861.7116" y1="672.1026"/>
    </g>
    <g fill="rgb(204,255,255)" text-rendering="geometricPrecision" shape-rendering="geometricPrecision" transform="matrix(1,0,0,1,-562,-455)" stroke="rgb(204,255,255)">
      <rect x="898.7842" width="97.4316" height="30" y="807.686" clip-path="url(#clipPath2)" stroke="none"/>
    </g>
    <g text-rendering="geometricPrecision" stroke-miterlimit="1.45" shape-rendering="geometricPrecision" transform="matrix(1,0,0,1,-562,-455)" stroke-linecap="butt">
      <rect fill="none" x="898.7842" width="97.4316" height="30" y="807.686" clip-path="url(#clipPath2)"/>
      <text x="905.7842" xml:space="preserve" y="826.8403" clip-path="url(#clipPath2)" font-family="sans-serif" stroke="none">Semigroupoid</text>
    </g>
    <g fill="rgb(255,153,204)" text-rendering="geometricPrecision" shape-rendering="geometricPrecision" transform="matrix(1,0,0,1,-562,-455)" stroke="rgb(255,153,204)">
      <rect x="1035.311" width="39.1807" height="30" y="470" clip-path="url(#clipPath2)" stroke="none"/>
    </g>
    <g stroke-linecap="round" transform="matrix(1,0,0,1,-562,-455)" text-rendering="geometricPrecision" shape-rendering="geometricPrecision" stroke-dasharray="8,6,0,6" stroke-width="2" stroke-miterlimit="1.45">
      <rect fill="none" x="1035.311" width="39.1807" height="30" y="470" clip-path="url(#clipPath2)"/>
    </g>
    <g font-size="18px" stroke-linecap="butt" transform="matrix(1,0,0,1,-562,-455)" text-rendering="geometricPrecision" font-family="sans-serif" shape-rendering="geometricPrecision" font-weight="bold" stroke-miterlimit="1.45">
      <text x="1042.3109" xml:space="preserve" y="491.2314" clip-path="url(#clipPath2)" stroke="none">Eq</text>
      <line y2="495.4766" fill="none" x1="1042.311" clip-path="url(#clipPath2)" x2="1067.4916" y1="495.4766"/>
    </g>
    <g fill="rgb(255,153,204)" text-rendering="geometricPrecision" shape-rendering="geometricPrecision" transform="matrix(1,0,0,1,-562,-455)" stroke="rgb(255,153,204)">
      <rect x="1036.9032" width="35.9961" height="30" y="530" clip-path="url(#clipPath2)" stroke="none"/>
    </g>
    <g stroke-linecap="round" transform="matrix(1,0,0,1,-562,-455)" text-rendering="geometricPrecision" shape-rendering="geometricPrecision" stroke-dasharray="8,6,0,6" stroke-width="2" stroke-miterlimit="1.45">
      <rect fill="none" x="1036.9032" width="35.9961" height="30" y="530" clip-path="url(#clipPath2)"/>
    </g>
    <g stroke-linecap="butt" transform="matrix(1,0,0,1,-562,-455)" text-rendering="geometricPrecision" font-family="sans-serif" shape-rendering="geometricPrecision" font-weight="bold" stroke-miterlimit="1.45">
      <text x="1042.5468" xml:space="preserve" y="549.1543" clip-path="url(#clipPath2)" stroke="none">Ord</text>
    </g>
    <g fill="rgb(255,153,204)" text-rendering="geometricPrecision" shape-rendering="geometricPrecision" transform="matrix(1,0,0,1,-562,-455)" stroke="rgb(255,153,204)">
      <rect x="1021.2001" width="67.4023" height="30" y="600" clip-path="url(#clipPath2)" stroke="none"/>
    </g>
    <g stroke-linecap="round" transform="matrix(1,0,0,1,-562,-455)" stroke-dashoffset="2" text-rendering="geometricPrecision" shape-rendering="geometricPrecision" stroke-dasharray="0,8" stroke-width="2" stroke-miterlimit="1.45">
      <rect fill="none" x="1021.2001" width="67.4023" height="30" y="600" clip-path="url(#clipPath2)"/>
    </g>
    <g text-rendering="geometricPrecision" stroke-miterlimit="1.45" shape-rendering="geometricPrecision" font-family="sans-serif" transform="matrix(1,0,0,1,-562,-455)" stroke-linecap="butt">
      <text x="1028.2001" xml:space="preserve" y="619.1543" clip-path="url(#clipPath2)" stroke="none">Bounded</text>
      <line y2="621.9844" fill="none" x1="1028.2001" clip-path="url(#clipPath2)" x2="1081.6025" y1="621.9844"/>
    </g>
    <g fill="rgb(255,153,204)" text-rendering="geometricPrecision" shape-rendering="geometricPrecision" transform="matrix(1,0,0,1,-562,-455)" stroke="rgb(255,153,204)">
      <rect x="1091.7021" width="68.7734" height="30" y="470" clip-path="url(#clipPath2)" stroke="none"/>
    </g>
    <g stroke-linecap="round" transform="matrix(1,0,0,1,-562,-455)" stroke-dashoffset="2" text-rendering="geometricPrecision" shape-rendering="geometricPrecision" stroke-dasharray="0,8" stroke-width="2" stroke-miterlimit="1.45">
      <rect fill="none" x="1091.7021" width="68.7734" height="30" y="470" clip-path="url(#clipPath2)"/>
    </g>
    <g font-size="18px" stroke-linecap="butt" transform="matrix(1,0,0,1,-562,-455)" text-rendering="geometricPrecision" font-family="sans-serif" shape-rendering="geometricPrecision" font-weight="bold" stroke-miterlimit="1.45">
      <text x="1098.702" xml:space="preserve" y="491.2314" clip-path="url(#clipPath2)" stroke="none">Show</text>
    </g>
    <g fill="rgb(255,204,153)" text-rendering="geometricPrecision" shape-rendering="geometricPrecision" transform="matrix(1,0,0,1,-562,-455)" stroke="rgb(255,204,153)">
      <rect x="686.4035" width="67.5137" height="30" y="674.49" clip-path="url(#clipPath2)" stroke="none"/>
    </g>
    <g text-rendering="geometricPrecision" stroke-miterlimit="1.45" shape-rendering="geometricPrecision" transform="matrix(1,0,0,1,-562,-455)" stroke-linecap="butt">
      <rect fill="none" x="686.4035" width="67.5137" height="30" y="674.49" clip-path="url(#clipPath2)"/>
      <text x="693.4034" xml:space="preserve" y="693.6443" clip-path="url(#clipPath2)" font-family="sans-serif" stroke="none">Semiring</text>
    </g>
    <g fill="rgb(255,204,153)" text-rendering="geometricPrecision" shape-rendering="geometricPrecision" transform="matrix(1,0,0,1,-562,-455)" stroke="rgb(255,204,153)">
      <rect x="699.713" width="40.8945" height="30" y="733.5025" clip-path="url(#clipPath2)" stroke="none"/>
    </g>
    <g text-rendering="geometricPrecision" stroke-miterlimit="1.45" shape-rendering="geometricPrecision" transform="matrix(1,0,0,1,-562,-455)" stroke-linecap="butt">
      <rect fill="none" x="699.713" width="40.8945" height="30" y="733.5025" clip-path="url(#clipPath2)"/>
      <text x="706.713" xml:space="preserve" y="752.6568" clip-path="url(#clipPath2)" font-family="sans-serif" stroke="none">Ring</text>
    </g>
    <g fill="rgb(255,204,153)" text-rendering="geometricPrecision" shape-rendering="geometricPrecision" transform="matrix(1,0,0,1,-562,-455)" stroke="rgb(255,204,153)">
      <rect x="577.5314" width="122.1816" height="30" y="793.5025" clip-path="url(#clipPath2)" stroke="none"/>
    </g>
    <g text-rendering="geometricPrecision" stroke-miterlimit="1.45" shape-rendering="geometricPrecision" transform="matrix(1,0,0,1,-562,-455)" stroke-linecap="butt">
      <rect fill="none" x="577.5314" width="122.1816" height="30" y="793.5025" clip-path="url(#clipPath2)"/>
      <text x="584.5314" xml:space="preserve" y="812.6568" clip-path="url(#clipPath2)" font-family="sans-serif" stroke="none">CommutativeRing</text>
    </g>
    <g fill="rgb(255,204,153)" text-rendering="geometricPrecision" shape-rendering="geometricPrecision" transform="matrix(1,0,0,1,-562,-455)" stroke="rgb(255,204,153)">
      <rect x="740.6076" width="88.4375" height="30" y="793.5025" clip-path="url(#clipPath2)" stroke="none"/>
    </g>
    <g text-rendering="geometricPrecision" stroke-miterlimit="1.45" shape-rendering="geometricPrecision" transform="matrix(1,0,0,1,-562,-455)" stroke-linecap="butt">
      <rect fill="none" x="740.6076" width="88.4375" height="30" y="793.5025" clip-path="url(#clipPath2)"/>
      <text x="747.6075" xml:space="preserve" y="812.6568" clip-path="url(#clipPath2)" font-family="sans-serif" stroke="none">DivisionRing</text>
    </g>
    <g fill="rgb(255,204,153)" text-rendering="geometricPrecision" shape-rendering="geometricPrecision" transform="matrix(1,0,0,1,-562,-455)" stroke="rgb(255,204,153)">
      <rect x="588.9689" width="99.3066" height="30" y="853.5025" clip-path="url(#clipPath2)" stroke="none"/>
    </g>
    <g text-rendering="geometricPrecision" stroke-miterlimit="1.45" shape-rendering="geometricPrecision" transform="matrix(1,0,0,1,-562,-455)" stroke-linecap="butt">
      <rect fill="none" x="588.9689" width="99.3066" height="30" y="853.5025" clip-path="url(#clipPath2)"/>
      <text x="595.9689" xml:space="preserve" y="872.6568" clip-path="url(#clipPath2)" font-family="sans-serif" stroke="none">EuclideanRing</text>
    </g>
    <g fill="rgb(255,204,153)" text-rendering="geometricPrecision" shape-rendering="geometricPrecision" transform="matrix(1,0,0,1,-562,-455)" stroke="rgb(255,204,153)">
      <rect x="698.8751" width="42.5703" height="30" y="913.5025" clip-path="url(#clipPath2)" stroke="none"/>
    </g>
    <g text-rendering="geometricPrecision" stroke-miterlimit="1.45" shape-rendering="geometricPrecision" transform="matrix(1,0,0,1,-562,-455)" stroke-linecap="butt">
      <rect fill="none" x="698.8751" width="42.5703" height="30" y="913.5025" clip-path="url(#clipPath2)"/>
      <text x="705.8751" xml:space="preserve" y="932.6568" clip-path="url(#clipPath2)" font-family="sans-serif" stroke="none">Field</text>
    </g>
    <g fill="rgb(255,204,0)" text-rendering="geometricPrecision" shape-rendering="geometricPrecision" transform="matrix(1,0,0,1,-562,-455)" stroke="rgb(255,204,0)">
      <rect x="1419.91" width="132.1689" height="30" y="708.5976" clip-path="url(#clipPath2)" stroke="none"/>
    </g>
    <g text-rendering="geometricPrecision" stroke-miterlimit="1.45" shape-rendering="geometricPrecision" transform="matrix(1,0,0,1,-562,-455)" stroke-linecap="butt">
      <rect fill="none" x="1419.91" width="132.1689" height="30" y="708.5976" clip-path="url(#clipPath2)"/>
      <text x="1426.91" font-size="18px" y="729.829" clip-path="url(#clipPath2)" font-family="sans-serif" stroke="none" font-weight="bold" xml:space="preserve">All the time</text>
      <line y2="734.0741" fill="none" x1="1426.91" clip-path="url(#clipPath2)" x2="1545.079" y1="734.0741"/>
    </g>
    <g fill="rgb(255,204,0)" text-rendering="geometricPrecision" shape-rendering="geometricPrecision" transform="matrix(1,0,0,1,-562,-455)" stroke="rgb(255,204,0)">
      <rect x="1453.768" width="64.4531" height="30" y="752.3049" clip-path="url(#clipPath2)" stroke="none"/>
    </g>
    <g text-rendering="geometricPrecision" stroke-miterlimit="1.45" shape-rendering="geometricPrecision" transform="matrix(1,0,0,1,-562,-455)" stroke-linecap="butt">
      <rect fill="none" x="1453.768" width="64.4531" height="30" y="752.3049" clip-path="url(#clipPath2)"/>
      <text x="1460.7679" font-size="16px" y="772.844" clip-path="url(#clipPath2)" font-family="sans-serif" stroke="none" font-weight="bold" xml:space="preserve">Often</text>
    </g>
    <g fill="rgb(255,204,0)" text-rendering="geometricPrecision" shape-rendering="geometricPrecision" transform="matrix(1,0,0,1,-562,-455)" stroke="rgb(255,204,0)">
      <rect x="1447.2396" width="77.5098" height="30" y="796.0123" clip-path="url(#clipPath2)" stroke="none"/>
    </g>
    <g text-rendering="geometricPrecision" stroke-miterlimit="1.45" shape-rendering="geometricPrecision" transform="matrix(1,0,0,1,-562,-455)" stroke-linecap="butt">
      <rect fill="none" x="1447.2396" width="77.5098" height="30" y="796.0123" clip-path="url(#clipPath2)"/>
      <text x="1454.2396" xml:space="preserve" y="815.1666" clip-path="url(#clipPath2)" font-family="sans-serif" stroke="none">Somewhat</text>
      <line y2="817.9967" fill="none" x1="1454.2396" clip-path="url(#clipPath2)" x2="1517.7494" y1="817.9967"/>
    </g>
    <g fill="rgb(255,204,0)" text-rendering="geometricPrecision" shape-rendering="geometricPrecision" transform="matrix(1,0,0,1,-562,-455)" stroke="rgb(255,204,0)">
      <rect x="1459.7728" width="52.4434" height="30" y="839.7197" clip-path="url(#clipPath2)" stroke="none"/>
    </g>
    <g text-rendering="geometricPrecision" stroke-miterlimit="1.45" shape-rendering="geometricPrecision" transform="matrix(1,0,0,1,-562,-455)" stroke-linecap="butt">
      <rect fill="none" x="1459.7728" width="52.4434" height="30" y="839.7197" clip-path="url(#clipPath2)"/>
      <text x="1466.7728" xml:space="preserve" y="858.874" clip-path="url(#clipPath2)" font-family="sans-serif" stroke="none">Rarely</text>
    </g>
    <g fill="rgb(255,204,0)" text-rendering="geometricPrecision" shape-rendering="geometricPrecision" transform="matrix(1,0,0,1,-562,-455)" stroke="rgb(255,204,0)">
      <rect x="1294.4559" width="51.752" height="30" y="752.3049" clip-path="url(#clipPath2)" stroke="none"/>
    </g>
    <g stroke-linecap="butt" transform="matrix(1,0,0,1,-562,-455)" text-rendering="geometricPrecision" shape-rendering="geometricPrecision" stroke-dasharray="12,4" stroke-width="2" stroke-miterlimit="1.45">
      <rect fill="none" x="1294.4559" width="51.752" height="30" y="752.3049" clip-path="url(#clipPath2)"/>
      <text x="1301.4559" y="771.4592" clip-path="url(#clipPath2)" font-family="sans-serif" stroke-dasharray="none" stroke="none" stroke-width="1" xml:space="preserve">derive</text>
    </g>
    <g fill="rgb(255,204,0)" text-rendering="geometricPrecision" shape-rendering="geometricPrecision" transform="matrix(1,0,0,1,-562,-455)" stroke="rgb(255,204,0)">
      <rect x="1275.6473" width="89.3691" height="30" y="796.0123" clip-path="url(#clipPath2)" stroke="none"/>
    </g>
    <g stroke-linecap="round" transform="matrix(1,0,0,1,-562,-455)" stroke-dashoffset="2" text-rendering="geometricPrecision" shape-rendering="geometricPrecision" stroke-dasharray="0,8" stroke-width="2" stroke-miterlimit="1.45">
      <rect fill="none" x="1275.6473" width="89.3691" height="30" y="796.0123" clip-path="url(#clipPath2)"/>
    </g>
    <g text-rendering="geometricPrecision" stroke-miterlimit="1.45" shape-rendering="geometricPrecision" font-family="sans-serif" transform="matrix(1,0,0,1,-562,-455)" stroke-linecap="butt">
      <text x="1282.6473" xml:space="preserve" y="815.1666" clip-path="url(#clipPath2)" stroke="none">generics-rep</text>
    </g>
    <g fill="rgb(255,204,0)" text-rendering="geometricPrecision" shape-rendering="geometricPrecision" transform="matrix(1,0,0,1,-562,-455)" stroke="rgb(255,204,0)">
      <rect x="1233.5097" width="173.6445" height="30" y="839.7197" clip-path="url(#clipPath2)" stroke="none"/>
    </g>
    <g stroke-linecap="round" transform="matrix(1,0,0,1,-562,-455)" text-rendering="geometricPrecision" shape-rendering="geometricPrecision" stroke-dasharray="8,6,0,6" stroke-width="2" stroke-miterlimit="1.45">
      <rect fill="none" x="1233.5097" width="173.6445" height="30" y="839.7197" clip-path="url(#clipPath2)"/>
    </g>
    <g text-rendering="geometricPrecision" stroke-miterlimit="1.45" shape-rendering="geometricPrecision" font-family="sans-serif" transform="matrix(1,0,0,1,-562,-455)" stroke-linecap="butt">
      <text x="1240.5096" xml:space="preserve" y="858.874" clip-path="url(#clipPath2)" stroke="none">derive and/or generics-rep</text>
    </g>
    <g fill="rgb(255,204,0)" text-rendering="geometricPrecision" shape-rendering="geometricPrecision" transform="matrix(1,0,0,1,-562,-455)" stroke="rgb(255,204,0)">
      <rect x="1270.0399" width="100.584" height="30" y="708.5976" clip-path="url(#clipPath2)" stroke="none"/>
    </g>
    <g text-rendering="geometricPrecision" stroke-miterlimit="1.45" shape-rendering="geometricPrecision" transform="matrix(1,0,0,1,-562,-455)" stroke-linecap="butt">
      <rect fill="none" x="1270.0399" width="100.584" height="30" y="708.5976" clip-path="url(#clipPath2)"/>
      <text x="1277.0399" xml:space="preserve" y="727.7518" clip-path="url(#clipPath2)" font-family="sans-serif" stroke="none">None / Manual</text>
      <rect fill="none" x="1426.8285" width="118.332" height="30" y="664.8902" clip-path="url(#clipPath2)"/>
      <text x="1433.8285" xml:space="preserve" y="684.0445" clip-path="url(#clipPath2)" font-family="sans-serif" stroke="none">Usage Frequency</text>
      <rect fill="none" x="1250.7538" width="139.1562" height="30" y="664.8902" clip-path="url(#clipPath2)"/>
      <text x="1257.7538" xml:space="preserve" y="684.0445" clip-path="url(#clipPath2)" font-family="sans-serif" stroke="none">Derivable Instances?</text>
    </g>
    <g fill="rgb(255,204,0)" text-rendering="geometricPrecision" shape-rendering="geometricPrecision" transform="matrix(1,0,0,1,-562,-455)" stroke="rgb(255,204,0)">
      <rect x="1176.5303" width="78.8164" height="30" y="530" clip-path="url(#clipPath2)" stroke="none"/>
    </g>
    <g text-rendering="geometricPrecision" stroke-miterlimit="1.45" shape-rendering="geometricPrecision" transform="matrix(1,0,0,1,-562,-455)" stroke-linecap="butt">
      <rect fill="none" x="1176.5303" width="78.8164" height="30" y="530" clip-path="url(#clipPath2)"/>
      <text x="1183.5303" xml:space="preserve" y="549.1543" clip-path="url(#clipPath2)" font-family="sans-serif" stroke="none">Type Class</text>
    </g>
    <g fill="rgb(255,204,0)" text-rendering="geometricPrecision" shape-rendering="geometricPrecision" transform="matrix(1,0,0,1,-562,-455)" stroke="rgb(255,204,0)">
      <rect x="1302.9052" width="136.8418" height="30" y="530" clip-path="url(#clipPath2)" stroke="none"/>
    </g>
    <g text-rendering="geometricPrecision" stroke-miterlimit="1.45" shape-rendering="geometricPrecision" transform="matrix(1,0,0,1,-562,-455)" stroke-linecap="butt">
      <rect fill="none" x="1302.9052" width="136.8418" height="30" y="530" clip-path="url(#clipPath2)"/>
      <text x="1309.9053" xml:space="preserve" y="549.1543" clip-path="url(#clipPath2)" font-family="sans-serif" stroke="none">Required Type Class</text>
      <rect fill="none" x="1216.2226" width="103.5898" height="30" y="470" clip-path="url(#clipPath2)"/>
      <text x="1223.2225" xml:space="preserve" y="489.1543" clip-path="url(#clipPath2)" font-family="sans-serif" stroke="none">Arrows Legend</text>
    </g>
    <g fill="rgb(255,204,0)" text-rendering="geometricPrecision" shape-rendering="geometricPrecision" transform="matrix(1,0,0,1,-562,-455)" stroke="rgb(255,204,0)">
      <rect x="1150.1895" width="107.0645" height="30" y="604.8902" clip-path="url(#clipPath2)" stroke="none"/>
    </g>
    <g text-rendering="geometricPrecision" stroke-miterlimit="1.45" shape-rendering="geometricPrecision" transform="matrix(1,0,0,1,-562,-455)" stroke-linecap="butt">
      <rect fill="none" x="1150.1895" width="107.0645" height="30" y="604.8902" clip-path="url(#clipPath2)"/>
      <text x="1157.1895" xml:space="preserve" y="624.0445" clip-path="url(#clipPath2)" font-family="sans-serif" stroke="none">One Type Class</text>
    </g>
    <g fill="rgb(255,204,0)" text-rendering="geometricPrecision" shape-rendering="geometricPrecision" transform="matrix(1,0,0,1,-562,-455)" stroke="rgb(255,204,0)">
      <rect x="1348.7702" width="130.4141" height="30" y="604.8902" clip-path="url(#clipPath2)" stroke="none"/>
    </g>
    <g text-rendering="geometricPrecision" stroke-miterlimit="1.45" shape-rendering="geometricPrecision" transform="matrix(1,0,0,1,-562,-455)" stroke-linecap="butt">
      <rect fill="none" x="1348.7702" width="130.4141" height="30" y="604.8902" clip-path="url(#clipPath2)"/>
      <text x="1355.7703" xml:space="preserve" y="624.0445" clip-path="url(#clipPath2)" font-family="sans-serif" stroke="none">Another Type Class</text>
    </g>
    <g fill="rgb(255,204,153)" text-rendering="geometricPrecision" shape-rendering="geometricPrecision" transform="matrix(1,0,0,1,-562,-455)" stroke="rgb(255,204,153)">
      <rect x="1070.3623" width="97.168" height="30" y="752.3049" clip-path="url(#clipPath2)" stroke="none"/>
    </g>
    <g text-rendering="geometricPrecision" stroke-miterlimit="1.45" shape-rendering="geometricPrecision" transform="matrix(1,0,0,1,-562,-455)" stroke-linecap="butt">
      <rect fill="none" x="1070.3623" width="97.168" height="30" y="752.3049" clip-path="url(#clipPath2)"/>
      <text x="1077.3623" xml:space="preserve" y="771.4592" clip-path="url(#clipPath2)" font-family="sans-serif" stroke="none">Appendable-y</text>
    </g>
    <g fill="rgb(204,255,255)" text-rendering="geometricPrecision" shape-rendering="geometricPrecision" transform="matrix(1,0,0,1,-562,-455)" stroke="rgb(204,255,255)">
      <rect x="1061.7842" width="114.3242" height="30" y="796.0123" clip-path="url(#clipPath2)" stroke="none"/>
    </g>
    <g text-rendering="geometricPrecision" stroke-miterlimit="1.45" shape-rendering="geometricPrecision" transform="matrix(1,0,0,1,-562,-455)" stroke-linecap="butt">
      <rect fill="none" x="1061.7842" width="114.3242" height="30" y="796.0123" clip-path="url(#clipPath2)"/>
      <text x="1068.7842" xml:space="preserve" y="815.1666" clip-path="url(#clipPath2)" font-family="sans-serif" stroke="none">Category Theory</text>
    </g>
    <g fill="rgb(204,255,204)" text-rendering="geometricPrecision" shape-rendering="geometricPrecision" transform="matrix(1,0,0,1,-562,-455)" stroke="rgb(204,255,204)">
      <rect x="1039.0176" width="159.8574" height="30" y="839.7197" clip-path="url(#clipPath2)" stroke="none"/>
    </g>
    <g text-rendering="geometricPrecision" stroke-miterlimit="1.45" shape-rendering="geometricPrecision" transform="matrix(1,0,0,1,-562,-455)" stroke-linecap="butt">
      <rect fill="none" x="1039.0176" width="159.8574" height="30" y="839.7197" clip-path="url(#clipPath2)"/>
      <text x="1046.0176" xml:space="preserve" y="858.874" clip-path="url(#clipPath2)" font-family="sans-serif" stroke="none">Control or Program Flow</text>
    </g>
    <g fill="rgb(255,153,204)" text-rendering="geometricPrecision" shape-rendering="geometricPrecision" transform="matrix(1,0,0,1,-562,-455)" stroke="rgb(255,153,204)">
      <rect x="1086.6895" width="64.5137" height="30" y="708.5976" clip-path="url(#clipPath2)" stroke="none"/>
    </g>
    <g text-rendering="geometricPrecision" stroke-miterlimit="1.45" shape-rendering="geometricPrecision" transform="matrix(1,0,0,1,-562,-455)" stroke-linecap="butt">
      <rect fill="none" x="1086.6895" width="64.5137" height="30" y="708.5976" clip-path="url(#clipPath2)"/>
      <text x="1093.6895" xml:space="preserve" y="727.7518" clip-path="url(#clipPath2)" font-family="sans-serif" stroke="none">Object-y</text>
      <rect fill="none" x="1068.1035" width="101.6855" height="30" y="664.8902" clip-path="url(#clipPath2)"/>
      <text x="1075.1035" xml:space="preserve" y="684.0445" clip-path="url(#clipPath2)" font-family="sans-serif" stroke="none">Categorization</text>
    </g>
    <g fill="rgb(51,204,204)" text-rendering="geometricPrecision" shape-rendering="geometricPrecision" transform="matrix(1,0,0,1,-562,-455)" stroke="rgb(51,204,204)">
      <rect x="1097.5117" width="42.6523" height="30" y="883.4271" clip-path="url(#clipPath2)" stroke="none"/>
    </g>
    <g text-rendering="geometricPrecision" stroke-miterlimit="1.45" shape-rendering="geometricPrecision" transform="matrix(1,0,0,1,-562,-455)" stroke-linecap="butt">
      <rect fill="none" x="1097.5117" width="42.6523" height="30" y="883.4271" clip-path="url(#clipPath2)"/>
      <text x="1104.5117" xml:space="preserve" y="902.5814" clip-path="url(#clipPath2)" font-family="sans-serif" stroke="none">Data</text>
      <path fill="none" d="M947.5 557.5025 L947.5 508" clip-path="url(#clipPath2)"/>
      <path d="M947.5 500 L942.5 512 L947.5 509 L952.5 512 Z" clip-path="url(#clipPath2)" stroke="none"/>
      <path fill="none" d="M947.5 646.626 L947.5 595.5025" clip-path="url(#clipPath2)"/>
      <path d="M947.5 587.5025 L942.5 599.5025 L947.5 596.5025 L952.5 599.5025 Z" clip-path="url(#clipPath2)" stroke="none"/>
      <path fill="none" d="M947.5 731.686 L947.5 684.626" clip-path="url(#clipPath2)"/>
      <path d="M947.5 676.626 L942.5 688.626 L947.5 685.626 L952.5 688.626 Z" clip-path="url(#clipPath2)" stroke="none"/>
    </g>
    <g stroke-linecap="round" transform="matrix(1,0,0,1,-562,-455)" stroke-dashoffset="2" text-rendering="geometricPrecision" shape-rendering="geometricPrecision" stroke-dasharray="0,8" stroke-width="2" stroke-miterlimit="1.45">
      <path fill="none" d="M764.4171 632.5025 L789.1227 632.5025 L789.1227 746.686 L906.438 746.686" clip-path="url(#clipPath2)"/>
    </g>
    <g text-rendering="geometricPrecision" stroke-miterlimit="1.45" shape-rendering="geometricPrecision" transform="matrix(1,0,0,1,-562,-455)" stroke-linecap="butt">
      <path fill="none" d="M720.1603 617.5025 L720.1603 595.5025" clip-path="url(#clipPath2)"/>
      <path d="M720.1603 587.5025 L715.1603 599.5025 L720.1603 596.5025 L725.1603 599.5025 Z" clip-path="url(#clipPath2)" stroke="none"/>
      <path fill="none" d="M928.3518 731.686 L864.363 681.5594" clip-path="url(#clipPath2)"/>
      <path d="M858.0653 676.626 L864.4285 687.9622 L865.1503 682.1761 L870.5953 680.09 Z" clip-path="url(#clipPath2)" stroke="none"/>
      <path fill="none" d="M857.1923 646.626 L923.0411 592.5781" clip-path="url(#clipPath2)"/>
      <path d="M929.2249 587.5025 L916.777 591.251 L922.2681 593.2125 L923.1215 598.9807 Z" clip-path="url(#clipPath2)" stroke="none"/>
      <path fill="none" d="M947.5 867.686 L947.5 845.686" clip-path="url(#clipPath2)"/>
      <path d="M947.5 837.686 L942.5 849.686 L947.5 846.686 L952.5 849.686 Z" clip-path="url(#clipPath2)" stroke="none"/>
      <path fill="none" d="M1054.9012 530 L1054.9012 508" clip-path="url(#clipPath2)"/>
      <path d="M1054.9012 500 L1049.9012 512 L1054.9012 509 L1059.9012 512 Z" clip-path="url(#clipPath2)" stroke="none"/>
      <path fill="none" d="M1054.9012 600 L1054.9012 568" clip-path="url(#clipPath2)"/>
      <path d="M1054.9012 560 L1049.9012 572 L1054.9012 569 L1059.9012 572 Z" clip-path="url(#clipPath2)" stroke="none"/>
      <path fill="none" d="M720.1603 674.49 L720.1603 655.5025" clip-path="url(#clipPath2)"/>
      <path d="M720.1603 647.5025 L715.1603 659.5025 L720.1603 656.5025 L725.1603 659.5025 Z" clip-path="url(#clipPath2)" stroke="none"/>
      <path fill="none" d="M720.1603 733.5025 L720.1603 712.49" clip-path="url(#clipPath2)"/>
      <path d="M720.1603 704.49 L715.1603 716.49 L720.1603 713.49 L725.1603 716.49 Z" clip-path="url(#clipPath2)" stroke="none"/>
      <path fill="none" d="M659.0067 793.5025 L693.3323 768.244" clip-path="url(#clipPath2)"/>
      <path d="M699.7758 763.5025 L687.1471 766.5875 L692.5269 768.8367 L693.0739 774.6418 Z" clip-path="url(#clipPath2)" stroke="none"/>
      <path fill="none" d="M768.6598 793.5025 L742.1913 768.9438" clip-path="url(#clipPath2)"/>
      <path d="M736.3268 763.5025 L741.7227 775.3298 L742.9243 769.624 L748.5243 767.9992 Z" clip-path="url(#clipPath2)" stroke="none"/>
      <path fill="none" d="M638.6222 853.5025 L638.6222 831.5025" clip-path="url(#clipPath2)"/>
      <path d="M638.6222 823.5025 L633.6222 835.5025 L638.6222 832.5025 L643.6222 835.5025 Z" clip-path="url(#clipPath2)" stroke="none"/>
      <path fill="none" d="M699.7758 913.5025 L665.4503 888.244" clip-path="url(#clipPath2)"/>
      <path d="M659.0068 883.5025 L665.7086 894.6418 L666.2557 888.8366 L671.6354 886.5875 Z" clip-path="url(#clipPath2)" stroke="none"/>
      <path fill="none" d="M728.2435 913.5025 L772.9479 830.545" clip-path="url(#clipPath2)"/>
      <path d="M776.743 823.5025 L766.6488 831.6943 L772.4736 831.4254 L775.452 836.4382 Z" clip-path="url(#clipPath2)" stroke="none"/>
      <path fill="none" d="M1294.9053 545 L1255.3467 545" clip-path="url(#clipPath2)"/>
      <path d="M1302.9053 545 L1290.9053 540 L1293.9053 545 L1290.9053 550 Z" clip-path="url(#clipPath2)" stroke="none"/>
      <text x="1254.4053" xml:space="preserve" y="519.1543" clip-path="url(#clipPath2)" font-family="sans-serif" stroke="none">requires</text>
    </g>
    <g stroke-linecap="round" transform="matrix(1,0,0,1,-562,-455)" stroke-dashoffset="2" text-rendering="geometricPrecision" shape-rendering="geometricPrecision" stroke-dasharray="0,8" stroke-width="2" stroke-miterlimit="1.45">
      <path fill="none" d="M1348.7703 619.8902 L1257.2539 619.8902" clip-path="url(#clipPath2)"/>
    </g>
    <g text-rendering="geometricPrecision" stroke-miterlimit="1.45" shape-rendering="geometricPrecision" font-family="sans-serif" transform="matrix(1,0,0,1,-562,-455)" stroke-linecap="butt">
      <text x="1234.3929" xml:space="preserve" y="594.0445" clip-path="url(#clipPath2)" stroke="none">is frequently used with</text>
    </g>
  </g>
</svg>
