<?xml version="1.0" encoding="UTF-8"?><svg xmlns="http://www.w3.org/2000/svg" xmlns:xlink="http://www.w3.org/1999/xlink" fill-opacity="1" color-rendering="auto" color-interpolation="auto" text-rendering="auto" stroke="black" stroke-linecap="square" width="774" stroke-miterlimit="10" shape-rendering="auto" stroke-opacity="1" fill="black" stroke-dasharray="none" font-weight="normal" stroke-width="1" height="591" font-family="'Dialog'" font-style="normal" stroke-linejoin="miter" font-size="12px" stroke-dashoffset="0" image-rendering="auto">
  <!--Generated by ySVG 2.5-->
  <defs id="genericDefs"/>
  <g>
    <defs id="defs1">
      <linearGradient x1="1011.1824" gradientUnits="userSpaceOnUse" x2="1075.6667" y1="139.3219" y2="139.3219" id="linearGradient1" spreadMethod="reflect">
        <stop stop-opacity="1" stop-color="rgb(204,255,204)" offset="0%"/>
        <stop stop-opacity="1" stop-color="rgb(204,255,255)" offset="100%"/>
      </linearGradient>
      <clipPath clipPathUnits="userSpaceOnUse" id="clipPath1">
        <path d="M0 0 L774 0 L774 591 L0 591 L0 0 Z"/>
      </clipPath>
      <clipPath clipPathUnits="userSpaceOnUse" id="clipPath2">
        <path d="M963 -59 L1737 -59 L1737 532 L963 532 L963 -59 Z"/>
      </clipPath>
      <clipPath clipPathUnits="userSpaceOnUse" id="clipPath3">
        <path d="M-346.6183 -526.4474 L308.3024 -113.949 L-6.6674 386.1261 L-661.588 -26.3723 L-346.6183 -526.4474 Z"/>
      </clipPath>
      <clipPath clipPathUnits="userSpaceOnUse" id="clipPath4">
        <path d="M-313.6997 -104.3109 L297.2125 -579.5606 L660.0969 -113.0889 L49.1848 362.1608 L-313.6997 -104.3109 Z"/>
      </clipPath>
    </defs>
    <g fill="white" text-rendering="geometricPrecision" shape-rendering="geometricPrecision" transform="translate(-963,59)" stroke="white">
      <rect x="963" width="774" height="591" y="-59" clip-path="url(#clipPath2)" stroke="none"/>
    </g>
    <g fill="rgb(255,204,0)" text-rendering="geometricPrecision" shape-rendering="geometricPrecision" transform="matrix(1,0,0,1,-963,59)" stroke="rgb(255,204,0)">
      <rect x="1318.8049" width="143.1523" height="49.2" y="467.5695" clip-path="url(#clipPath2)" stroke="none"/>
    </g>
    <g text-rendering="geometricPrecision" stroke-miterlimit="1.45" shape-rendering="geometricPrecision" transform="matrix(1,0,0,1,-963,59)" stroke-linecap="butt">
      <rect fill="none" x="1318.8049" width="143.1523" height="49.2" y="467.5695" clip-path="url(#clipPath2)"/>
      <text x="1377.177" xml:space="preserve" y="482.3551" clip-path="url(#clipPath2)" font-family="sans-serif" stroke="none">purs</text>
      <text x="1388.4739" xml:space="preserve" y="496.3238" clip-path="url(#clipPath2)" font-family="sans-serif" stroke="none"> </text>
      <text x="1325.8049" xml:space="preserve" y="510.2926" clip-path="url(#clipPath2)" font-family="sans-serif" stroke="none">(PureScript Compiler)</text>
    </g>
    <g fill="silver" text-rendering="geometricPrecision" shape-rendering="geometricPrecision" transform="matrix(1,0,0,1,-963,59)" stroke="silver">
      <rect x="1253.1082" width="179.3457" height="74.2" y="144.3219" clip-path="url(#clipPath2)" stroke="none"/>
    </g>
    <g text-rendering="geometricPrecision" stroke-miterlimit="1.45" shape-rendering="geometricPrecision" transform="matrix(1,0,0,1,-963,59)" stroke-linecap="butt">
      <rect fill="none" x="1253.1082" width="179.3457" height="74.2" y="144.3219" clip-path="url(#clipPath2)"/>
      <text x="1311.7058" xml:space="preserve" y="164.623" clip-path="url(#clipPath2)" font-family="sans-serif" stroke="none">spacchetti</text>
      <text x="1340.8738" xml:space="preserve" y="178.5918" clip-path="url(#clipPath2)" font-family="sans-serif" stroke="none"> </text>
      <text x="1283.5984" xml:space="preserve" y="192.5605" clip-path="url(#clipPath2)" font-family="sans-serif" stroke="none">(create and modify </text>
      <text x="1260.1082" xml:space="preserve" y="206.5293" clip-path="url(#clipPath2)" font-family="sans-serif" stroke="none">"local package sets" easily)</text>
    </g>
    <g fill="rgb(204,255,255)" text-rendering="geometricPrecision" shape-rendering="geometricPrecision" transform="matrix(1,0,0,1,-963,59)" stroke="rgb(204,255,255)">
      <rect x="1443.1811" width="191.8379" height="49.2" y="369.5695" clip-path="url(#clipPath2)" stroke="none"/>
    </g>
    <g text-rendering="geometricPrecision" stroke-miterlimit="1.45" shape-rendering="geometricPrecision" transform="matrix(1,0,0,1,-963,59)" stroke-linecap="butt">
      <rect fill="none" x="1443.1811" width="191.8379" height="49.2" y="369.5695" clip-path="url(#clipPath2)"/>
      <text x="1520.5551" xml:space="preserve" y="384.3551" clip-path="url(#clipPath2)" font-family="sans-serif" stroke="none">bower</text>
      <text x="1537.1927" xml:space="preserve" y="398.3238" clip-path="url(#clipPath2)" font-family="sans-serif" stroke="none"> </text>
      <text x="1450.181" xml:space="preserve" y="412.2926" clip-path="url(#clipPath2)" font-family="sans-serif" stroke="none">(initial dependency manager)</text>
    </g>
    <g fill="rgb(204,255,255)" text-rendering="geometricPrecision" shape-rendering="geometricPrecision" transform="matrix(1,0,0,1,-963,59)" stroke="rgb(204,255,255)">
      <rect x="1181.451" width="238.6602" height="49.2" y="369.5695" clip-path="url(#clipPath2)" stroke="none"/>
    </g>
    <g text-rendering="geometricPrecision" stroke-miterlimit="1.45" shape-rendering="geometricPrecision" transform="matrix(1,0,0,1,-963,59)" stroke-linecap="butt">
      <rect fill="none" x="1181.451" width="238.6602" height="49.2" y="369.5695" clip-path="url(#clipPath2)"/>
      <text x="1262.947" xml:space="preserve" y="384.3551" clip-path="url(#clipPath2)" font-family="sans-serif" stroke="none">psc-package</text>
      <text x="1298.8738" xml:space="preserve" y="398.3238" clip-path="url(#clipPath2)" font-family="sans-serif" stroke="none"> </text>
      <text x="1188.4509" xml:space="preserve" y="412.2926" clip-path="url(#clipPath2)" font-family="sans-serif" stroke="none">(experimental dependency manager)</text>
    </g>
    <g fill="rgb(204,255,204)" text-rendering="geometricPrecision" shape-rendering="geometricPrecision" transform="matrix(1,0,0,1,-963,59)" stroke="rgb(204,255,204)">
      <rect x="1609.8953" width="111.541" height="84.2" y="124.5695" clip-path="url(#clipPath2)" stroke="none"/>
    </g>
    <g text-rendering="geometricPrecision" stroke-miterlimit="1.45" shape-rendering="geometricPrecision" transform="matrix(1,0,0,1,-963,59)" stroke-linecap="butt">
      <rect fill="none" x="1609.8953" width="111.541" height="84.2" y="124.5695" clip-path="url(#clipPath2)"/>
      <text x="1652.579" xml:space="preserve" y="142.8863" clip-path="url(#clipPath2)" font-family="sans-serif" stroke="none">pulp</text>
      <text x="1663.7587" xml:space="preserve" y="156.8551" clip-path="url(#clipPath2)" font-family="sans-serif" stroke="none"> </text>
      <text x="1635.452" xml:space="preserve" y="170.8238" clip-path="url(#clipPath2)" font-family="sans-serif" stroke="none">(front-end</text>
      <text x="1663.6444" xml:space="preserve" y="184.7926" clip-path="url(#clipPath2)" font-family="sans-serif" stroke="none">/</text>
      <text x="1616.8954" xml:space="preserve" y="198.7613" clip-path="url(#clipPath2)" font-family="sans-serif" stroke="none">initial build tool)</text>
      <path fill="none" d="M1665.6659 208.7695 L1665.6659 492.1695 L1469.9573 492.1695" clip-path="url(#clipPath2)"/>
      <path d="M1461.9573 492.1695 L1473.9573 497.1695 L1470.9573 492.1695 L1473.9573 487.1695 Z" clip-path="url(#clipPath2)" stroke="none"/>
      <path fill="none" d="M1609.8954 201.784 L1539.1 246.3584 L1539.1 361.5695" clip-path="url(#clipPath2)"/>
      <path d="M1539.1 369.5695 L1544.1 357.5695 L1539.1 360.5695 L1534.1 357.5695 Z" clip-path="url(#clipPath2)" stroke="none"/>
      <path fill="none" d="M1609.8954 201.7963 L1539.1444 246.3584 L1347.2505 365.3535" clip-path="url(#clipPath2)"/>
      <path d="M1340.4515 369.5695 L1353.2849 367.4948 L1348.1003 364.8265 L1348.0149 358.9962 Z" clip-path="url(#clipPath2)" stroke="none"/>
    </g>
    <g text-rendering="geometricPrecision" stroke-miterlimit="1.45" shape-rendering="geometricPrecision" font-family="sans-serif" transform="matrix(0.8462,-0.5329,0.5329,0.8462,573.8581,260.7258)" stroke-linecap="butt">
      <text x="2" xml:space="preserve" y="13.1387" clip-path="url(#clipPath3)" stroke="none">uses</text>
    </g>
    <g fill="rgb(245,245,245)" text-rendering="geometricPrecision" shape-rendering="geometricPrecision" transform="matrix(1,0,0,1,-963,59)" stroke="rgb(245,245,245)">
      <rect x="1103.7166" y="-43.6914" clip-path="url(#clipPath2)" width="302.1669" rx="4" ry="4" height="134.4609" stroke="none"/>
      <rect x="1103.7166" y="-43.6914" clip-path="url(#clipPath2)" fill="rgb(235,235,235)" width="302.1669" height="21.4609" stroke="none"/>
    </g>
    <g font-size="15px" stroke-linecap="butt" transform="matrix(1,0,0,1,-963,59)" text-rendering="geometricPrecision" font-family="sans-serif" shape-rendering="geometricPrecision" stroke-miterlimit="1.45">
      <text x="1227.1182" xml:space="preserve" y="-27.7681" clip-path="url(#clipPath2)" stroke="none">Legend</text>
      <rect x="1103.7166" y="-43.6914" clip-path="url(#clipPath2)" fill="none" width="302.1669" stroke-dasharray="6,2" rx="4" ry="4" height="134.4609"/>
    </g>
    <g fill="rgb(204,255,255)" text-rendering="geometricPrecision" shape-rendering="geometricPrecision" transform="matrix(1,0,0,1,-963,59)" stroke="rgb(204,255,255)">
      <rect x="1118.7166" width="152.1992" height="30" y="45.7695" clip-path="url(#clipPath2)" stroke="none"/>
    </g>
    <g text-rendering="geometricPrecision" stroke-miterlimit="1.45" shape-rendering="geometricPrecision" transform="matrix(1,0,0,1,-963,59)" stroke-linecap="butt">
      <rect fill="none" x="1118.7166" width="152.1992" height="30" y="45.7695" clip-path="url(#clipPath2)"/>
      <text x="1125.7166" xml:space="preserve" y="64.9238" clip-path="url(#clipPath2)" font-family="sans-serif" stroke="none">Dependency Managers</text>
    </g>
    <g fill="rgb(204,255,204)" text-rendering="geometricPrecision" shape-rendering="geometricPrecision" transform="matrix(1,0,0,1,-963,59)" stroke="rgb(204,255,204)">
      <rect x="1118.7166" width="219.2832" height="30" y="-7.2305" clip-path="url(#clipPath2)" stroke="none"/>
    </g>
    <g text-rendering="geometricPrecision" stroke-miterlimit="1.45" shape-rendering="geometricPrecision" transform="matrix(1,0,0,1,-963,59)" stroke-linecap="butt">
      <rect fill="none" x="1118.7166" width="219.2832" height="30" y="-7.2305" clip-path="url(#clipPath2)"/>
      <text x="1125.7166" xml:space="preserve" y="11.9238" clip-path="url(#clipPath2)" font-family="sans-serif" stroke="none">Front-Ends Developers should use</text>
    </g>
    <g fill="silver" text-rendering="geometricPrecision" shape-rendering="geometricPrecision" transform="matrix(1,0,0,1,-963,59)" stroke="silver">
      <rect x="1306.6706" width="84.2129" height="30" y="45.7695" clip-path="url(#clipPath2)" stroke="none"/>
    </g>
    <g text-rendering="geometricPrecision" stroke-miterlimit="1.45" shape-rendering="geometricPrecision" transform="matrix(1,0,0,1,-963,59)" stroke-linecap="butt">
      <rect fill="none" x="1306.6706" width="84.2129" height="30" y="45.7695" clip-path="url(#clipPath2)"/>
      <text x="1313.6707" xml:space="preserve" y="64.9238" clip-path="url(#clipPath2)" font-family="sans-serif" stroke="none">Deprecated</text>
    </g>
    <g fill="url(#linearGradient1)" text-rendering="geometricPrecision" shape-rendering="geometricPrecision" transform="matrix(1,0,0,1,-963,59)" stroke="url(#linearGradient1)">
      <rect x="978.9402" width="96.7266" height="84.2" y="139.3219" clip-path="url(#clipPath2)" stroke="none"/>
    </g>
    <g text-rendering="geometricPrecision" stroke-miterlimit="1.45" shape-rendering="geometricPrecision" transform="matrix(1,0,0,1,-963,59)" stroke-linecap="butt">
      <rect fill="none" x="978.9402" width="96.7266" height="84.2" y="139.3219" clip-path="url(#clipPath2)"/>
      <text x="1008.53" xml:space="preserve" y="157.6387" clip-path="url(#clipPath2)" font-family="sans-serif" stroke="none">Spago</text>
      <text x="1025.3962" xml:space="preserve" y="171.6074" clip-path="url(#clipPath2)" font-family="sans-serif" stroke="none"> </text>
      <text x="997.0896" xml:space="preserve" y="185.5762" clip-path="url(#clipPath2)" font-family="sans-serif" stroke="none">(front-end</text>
      <text x="1025.282" xml:space="preserve" y="199.5449" clip-path="url(#clipPath2)" font-family="sans-serif" stroke="none">/</text>
      <text x="996.9402" xml:space="preserve" y="213.5137" clip-path="url(#clipPath2)" font-family="sans-serif" stroke="none">build tool)</text>
      <path fill="none" d="M1253.1082 181.4219 L1083.6667 181.4219" clip-path="url(#clipPath2)"/>
      <path d="M1075.6667 181.4219 L1087.6667 186.4219 L1084.6667 181.4219 L1087.6667 176.4219 Z" clip-path="url(#clipPath2)" stroke="none"/>
      <text x="1127.3562" xml:space="preserve" y="155.5762" clip-path="url(#clipPath2)" font-family="sans-serif" stroke="none">evolved into</text>
      <path fill="none" d="M1075.6667 219.0453 L1262.8445 364.6574" clip-path="url(#clipPath2)"/>
      <path d="M1269.1588 369.5695 L1262.7574 358.2549 L1262.0552 364.0434 L1256.6172 366.1478 Z" clip-path="url(#clipPath2)" stroke="none"/>
    </g>
    <g text-rendering="geometricPrecision" stroke-miterlimit="1.45" shape-rendering="geometricPrecision" font-family="sans-serif" transform="matrix(0.7893,0.614,-0.614,0.7893,183.552,274.949)" stroke-linecap="butt">
      <text x="33.8281" xml:space="preserve" y="13.1387" clip-path="url(#clipPath4)" stroke="none">can also use</text>
      <text x="2" xml:space="preserve" y="27.1074" clip-path="url(#clipPath4)" stroke="none">(compatibility reasons)</text>
    </g>
    <g text-rendering="geometricPrecision" stroke-miterlimit="1.45" shape-rendering="geometricPrecision" transform="matrix(1,0,0,1,-963,59)" stroke-linecap="butt">
      <path fill="none" d="M1027.3035 223.5219 L1027.3035 492.1695 L1310.8049 492.1695" clip-path="url(#clipPath2)"/>
      <path d="M1318.8049 492.1695 L1306.8049 487.1695 L1309.8049 492.1695 L1306.8049 497.1695 Z" clip-path="url(#clipPath2)" stroke="none"/>
    </g>
  </g>
</svg>
