<svg xmlns="http://www.w3.org/2000/svg" width="960" height="500"><defs><style type="text/css">
.background {
  fill: white;
}

text {
  font-size: 14px;
  font-family: sans-serif;
}

.axis-path,
.axis-line {
  fill: none;
  stroke: #000;
  stroke-width: 1px;
  shape-rendering: crispEdges;
}

.line {
  fill: none;
  stroke-width: 1.5px;
}

.data-series-0 {
  stroke: steelblue;
  fill: steelblue;
}

.data-series-1 {
  stroke: crimson;
  fill: crimson;
}

.data-series-2 {
  stroke: mediumseagreen;
  fill: mediumseagreen;
}

.data-series-3 {
  stroke: mediumslateblue;
  fill: mediumslateblue;
}

.data-series-4 {
  stroke: goldenrod;
  fill: goldenrod;
}

.error-bar {
  fill: none;
}
</style></defs><rect width="960" height="500" class="background"/><g transform="translate(80,40)"><g transform="translate(420, 0)"><text style="text-anchor: middle; font-size: 28px;">Random Number Game (Win) - Various FP Approaches</text></g><g class="x axis" transform="translate(0,400)"><g class="tick" style="opacity: 1;" transform="translate(56,0)"><line y2="6" x2="0" class="axis-line"/><text dy=".71em" style="text-anchor: middle;" y="9" x="0">600</text></g><g class="tick" style="opacity: 1;" transform="translate(168,0)"><line y2="6" x2="0" class="axis-line"/><text dy=".71em" style="text-anchor: middle;" y="9" x="0">800</text></g><g class="tick" style="opacity: 1;" transform="translate(280,0)"><line y2="6" x2="0" class="axis-line"/><text dy=".71em" style="text-anchor: middle;" y="9" x="0">1,000</text></g><g class="tick" style="opacity: 1;" transform="translate(392,0)"><line y2="6" x2="0" class="axis-line"/><text dy=".71em" style="text-anchor: middle;" y="9" x="0">1,200</text></g><g class="tick" style="opacity: 1;" transform="translate(504,0)"><line y2="6" x2="0" class="axis-line"/><text dy=".71em" style="text-anchor: middle;" y="9" x="0">1,400</text></g><g class="tick" style="opacity: 1;" transform="translate(616,0)"><line y2="6" x2="0" class="axis-line"/><text dy=".71em" style="text-anchor: middle;" y="9" x="0">1,600</text></g><g class="tick" style="opacity: 1;" transform="translate(728,0)"><line y2="6" x2="0" class="axis-line"/><text dy=".71em" style="text-anchor: middle;" y="9" x="0">1,800</text></g><g class="tick" style="opacity: 1;" transform="translate(840,0)"><line y2="6" x2="0" class="axis-line"/><text dy=".71em" style="text-anchor: middle;" y="9" x="0">2,000</text></g><path class="axis-path" d="M0,6V0H840V6"/><text x="420" y="40" style="text-anchor: middle;">The number of guesses to make before winning</text></g><g class="y axis"><g class="tick" style="opacity: 1;" transform="translate(0,375.3534834960735)"><line x2="-6" y2="0" class="axis-line"/><text dy=".32em" style="text-anchor: end;" x="-9" y="0">0.02</text></g><g class="tick" style="opacity: 1;" transform="translate(0,320.7230506152834)"><line x2="-6" y2="0" class="axis-line"/><text dy=".32em" style="text-anchor: end;" x="-9" y="0">0.04</text></g><g class="tick" style="opacity: 1;" transform="translate(0,266.0926177344933)"><line x2="-6" y2="0" class="axis-line"/><text dy=".32em" style="text-anchor: end;" x="-9" y="0">0.06</text></g><g class="tick" style="opacity: 1;" transform="translate(0,211.46218485370315)"><line x2="-6" y2="0" class="axis-line"/><text dy=".32em" style="text-anchor: end;" x="-9" y="0">0.08</text></g><g class="tick" style="opacity: 1;" transform="translate(0,156.831751972913)"><line x2="-6" y2="0" class="axis-line"/><text dy=".32em" style="text-anchor: end;" x="-9" y="0">0.10</text></g><g class="tick" style="opacity: 1;" transform="translate(0,102.20131909212289)"><line x2="-6" y2="0" class="axis-line"/><text dy=".32em" style="text-anchor: end;" x="-9" y="0">0.12</text></g><g class="tick" style="opacity: 1;" transform="translate(0,47.57088621133274)"><line x2="-6" y2="0" class="axis-line"/><text dy=".32em" style="text-anchor: end;" x="-9" y="0">0.14</text></g><path class="axis-path" d="M-6,0H0V400H-6"/><text transform="rotate(-90)" y="6" dy=".71em" style="text-anchor: end;">Mean running time (seconds)</text></g><g class="data-series-0"><circle cx="0" cy="400" r="3"/><circle cx="140" cy="394.1731558155242" r="3"/><circle cx="280" cy="322.7797580614183" r="3"/><circle cx="420" cy="283.71577969685757" r="3"/><circle cx="560" cy="235.90512034751745" r="3"/><circle cx="700" cy="183.09838181210813" r="3"/><circle cx="840" cy="111.17782790036452" r="3"/><path class="error-bar" x="0" y="400" d="M 0 400 V 395.79037363630846 h -3 h 6 h -3 V 404.2096263636916 h -3 h 6"/><path class="error-bar" x="140" y="394.1731558155242" d="M 140 394.1731558155242 V 392.2207277318492 h -3 h 6 h -3 V 396.1255838991991 h -3 h 6"/><path class="error-bar" x="280" y="322.7797580614183" d="M 280 322.7797580614183 V 307.1949668141724 h -3 h 6 h -3 V 338.36454930866427 h -3 h 6"/><path class="error-bar" x="420" y="283.71577969685757" d="M 420 283.71577969685757 V 274.2216279986166 h -3 h 6 h -3 V 293.2099313950986 h -3 h 6"/><path class="error-bar" x="560" y="235.90512034751745" d="M 560 235.90512034751745 V 219.56125193075584 h -3 h 6 h -3 V 252.24898876427906 h -3 h 6"/><path class="error-bar" x="700" y="183.09838181210813" d="M 700 183.09838181210813 V 160.0238147565163 h -3 h 6 h -3 V 206.1729488677 h -3 h 6"/><path class="error-bar" x="840" y="111.17782790036452" d="M 840 111.17782790036452 V 86.35288062022451 h -3 h 6 h -3 V 136.00277518050459 h -3 h 6"/><path class="line" d="M0,400L140,394.1731558155242L280,322.7797580614183L420,283.71577969685757L560,235.90512034751745L700,183.09838181210813L840,111.17782790036452"/></g><g class="data-series-1"><circle cx="0" cy="383.6302018884391" r="3"/><circle cx="140" cy="324.26637779010025" r="3"/><circle cx="280" cy="265.4249088982682" r="3"/><circle cx="420" cy="195.18324658105843" r="3"/><circle cx="560" cy="132.64242830264322" r="3"/><circle cx="700" cy="58.00516742223927" r="3"/><circle cx="840" cy="0" r="3"/><path class="error-bar" x="0" y="383.6302018884391" d="M 0 383.6302018884391 V 374.1631485441555 h -3 h 6 h -3 V 393.0972552327227 h -3 h 6"/><path class="error-bar" x="140" y="324.26637779010025" d="M 140 324.26637779010025 V 311.7003431947853 h -3 h 6 h -3 V 336.83241238541524 h -3 h 6"/><path class="error-bar" x="280" y="265.4249088982682" d="M 280 265.4249088982682 V 248.25653827107325 h -3 h 6 h -3 V 282.5932795254631 h -3 h 6"/><path class="error-bar" x="420" y="195.18324658105843" d="M 420 195.18324658105843 V 171.247796252849 h -3 h 6 h -3 V 219.1186969092678 h -3 h 6"/><path class="error-bar" x="560" y="132.64242830264322" d="M 560 132.64242830264322 V 114.69663893811068 h -3 h 6 h -3 V 150.58821766717583 h -3 h 6"/><path class="error-bar" x="700" y="58.00516742223927" d="M 700 58.00516742223927 V 42.43347585512165 h -3 h 6 h -3 V 73.57685898935694 h -3 h 6"/><path class="error-bar" x="840" y="0" d="M 840 0 V -16.09802420073647 h -3 h 6 h -3 V 16.09802420073647 h -3 h 6"/><path class="line" d="M0,383.6302018884391L140,324.26637779010025L280,265.4249088982682L420,195.18324658105843L560,132.64242830264322L700,58.00516742223927L840,0"/></g><g class="data-series-2"><circle cx="0" cy="389.796883945162" r="3"/><circle cx="140" cy="370.0907829345708" r="3"/><circle cx="280" cy="348.1834372349482" r="3"/><circle cx="420" cy="325.79680670839224" r="3"/><circle cx="560" cy="276.2984926001547" r="3"/><circle cx="700" cy="272.8652618177081" r="3"/><circle cx="840" cy="253.2737220644459" r="3"/><path class="error-bar" x="0" y="389.796883945162" d="M 0 389.796883945162 V 375.48416011025313 h -3 h 6 h -3 V 404.10960778007086 h -3 h 6"/><path class="error-bar" x="140" y="370.0907829345708" d="M 140 370.0907829345708 V 369.10072440733404 h -3 h 6 h -3 V 371.08084146180755 h -3 h 6"/><path class="error-bar" x="280" y="348.1834372349482" d="M 280 348.1834372349482 V 347.17942769604304 h -3 h 6 h -3 V 349.18744677385337 h -3 h 6"/><path class="error-bar" x="420" y="325.79680670839224" d="M 420 325.79680670839224 V 317.34376884569843 h -3 h 6 h -3 V 334.24984457108604 h -3 h 6"/><path class="error-bar" x="560" y="276.2984926001547" d="M 560 276.2984926001547 V 268.6919865638944 h -3 h 6 h -3 V 283.90499863641503 h -3 h 6"/><path class="error-bar" x="700" y="272.8652618177081" d="M 700 272.8652618177081 V 269.2373966675384 h -3 h 6 h -3 V 276.49312696787774 h -3 h 6"/><path class="error-bar" x="840" y="253.2737220644459" d="M 840 253.2737220644459 V 250.68317217881687 h -3 h 6 h -3 V 255.86427195007496 h -3 h 6"/><path class="line" d="M0,389.796883945162L140,370.0907829345708L280,348.1834372349482L420,325.79680670839224L560,276.2984926001547L700,272.8652618177081L840,253.2737220644459"/></g><g class="data-series-3"><circle cx="0" cy="385.89546952364367" r="3"/><circle cx="140" cy="359.0511440486603" r="3"/><circle cx="280" cy="336.5546613633103" r="3"/><circle cx="420" cy="311.4540622284486" r="3"/><circle cx="560" cy="239.29617265516336" r="3"/><circle cx="700" cy="250.35365135070214" r="3"/><circle cx="840" cy="231.7827183439503" r="3"/><path class="error-bar" x="0" y="385.89546952364367" d="M 0 385.89546952364367 V 385.0910591252243 h -3 h 6 h -3 V 386.69987992206296 h -3 h 6"/><path class="error-bar" x="140" y="359.0511440486603" d="M 140 359.0511440486603 V 358.12276409257413 h -3 h 6 h -3 V 359.97952400474645 h -3 h 6"/><path class="error-bar" x="280" y="336.5546613633103" d="M 280 336.5546613633103 V 333.98511120322 h -3 h 6 h -3 V 339.1242115234006 h -3 h 6"/><path class="error-bar" x="420" y="311.4540622284486" d="M 420 311.4540622284486 V 307.6819595502151 h -3 h 6 h -3 V 315.22616490668213 h -3 h 6"/><path class="error-bar" x="560" y="239.29617265516336" d="M 560 239.29617265516336 V 232.51331630225488 h -3 h 6 h -3 V 246.07902900807184 h -3 h 6"/><path class="error-bar" x="700" y="250.35365135070214" d="M 700 250.35365135070214 V 235.26770862426093 h -3 h 6 h -3 V 265.43959407714334 h -3 h 6"/><path class="error-bar" x="840" y="231.7827183439503" d="M 840 231.7827183439503 V 229.25012086636602 h -3 h 6 h -3 V 234.31531582153454 h -3 h 6"/><path class="line" d="M0,385.89546952364367L140,359.0511440486603L280,336.5546613633103L420,311.4540622284486L560,239.29617265516336L700,250.35365135070214L840,231.7827183439503"/></g><g class="legend" transform="translate(50, 50)"><rect x="0" y="0" width="15" height="15" class="data-series-0"/><rect x="0" y="20" width="15" height="15" class="data-series-1"/><rect x="0" y="40" width="15" height="15" class="data-series-2"/><rect x="0" y="60" width="15" height="15" class="data-series-3"/><text x="24" y="13">Standard ReaderT (Different Monad)</text><text x="24" y="33">Standard ReaderT (Same Monad)</text><text x="24" y="53">Standard Run</text><text x="24" y="73">Layered Run</text></g></g></svg>