<svg xmlns="http://www.w3.org/2000/svg" width="960" height="500"><defs><style type="text/css">
.background {
  fill: white;
}

text {
  font-size: 14px;
  font-family: sans-serif;
}

.axis-path,
.axis-line {
  fill: none;
  stroke: #000;
  stroke-width: 1px;
  shape-rendering: crispEdges;
}

.line {
  fill: none;
  stroke-width: 1.5px;
}

.data-series-0 {
  stroke: steelblue;
  fill: steelblue;
}

.data-series-1 {
  stroke: crimson;
  fill: crimson;
}

.data-series-2 {
  stroke: mediumseagreen;
  fill: mediumseagreen;
}

.data-series-3 {
  stroke: mediumslateblue;
  fill: mediumslateblue;
}

.data-series-4 {
  stroke: goldenrod;
  fill: goldenrod;
}

.error-bar {
  fill: none;
}
</style></defs><rect width="960" height="500" class="background"/><g transform="translate(80,40)"><g transform="translate(420, 0)"><text style="text-anchor: middle; font-size: 28px;">Random Number Game (Lose) - Various FP Approaches</text></g><g class="x axis" transform="translate(0,400)"><g class="tick" style="opacity: 1;" transform="translate(56,0)"><line y2="6" x2="0" class="axis-line"/><text dy=".71em" style="text-anchor: middle;" y="9" x="0">600</text></g><g class="tick" style="opacity: 1;" transform="translate(168,0)"><line y2="6" x2="0" class="axis-line"/><text dy=".71em" style="text-anchor: middle;" y="9" x="0">800</text></g><g class="tick" style="opacity: 1;" transform="translate(280,0)"><line y2="6" x2="0" class="axis-line"/><text dy=".71em" style="text-anchor: middle;" y="9" x="0">1,000</text></g><g class="tick" style="opacity: 1;" transform="translate(392,0)"><line y2="6" x2="0" class="axis-line"/><text dy=".71em" style="text-anchor: middle;" y="9" x="0">1,200</text></g><g class="tick" style="opacity: 1;" transform="translate(504,0)"><line y2="6" x2="0" class="axis-line"/><text dy=".71em" style="text-anchor: middle;" y="9" x="0">1,400</text></g><g class="tick" style="opacity: 1;" transform="translate(616,0)"><line y2="6" x2="0" class="axis-line"/><text dy=".71em" style="text-anchor: middle;" y="9" x="0">1,600</text></g><g class="tick" style="opacity: 1;" transform="translate(728,0)"><line y2="6" x2="0" class="axis-line"/><text dy=".71em" style="text-anchor: middle;" y="9" x="0">1,800</text></g><g class="tick" style="opacity: 1;" transform="translate(840,0)"><line y2="6" x2="0" class="axis-line"/><text dy=".71em" style="text-anchor: middle;" y="9" x="0">2,000</text></g><path class="axis-path" d="M0,6V0H840V6"/><text x="420" y="40" style="text-anchor: middle;">The number of guesses to make before losing</text></g><g class="y axis"><g class="tick" style="opacity: 1;" transform="translate(0,375.04347475789405)"><line x2="-6" y2="0" class="axis-line"/><text dy=".32em" style="text-anchor: end;" x="-9" y="0">0.02</text></g><g class="tick" style="opacity: 1;" transform="translate(0,321.4695769355884)"><line x2="-6" y2="0" class="axis-line"/><text dy=".32em" style="text-anchor: end;" x="-9" y="0">0.04</text></g><g class="tick" style="opacity: 1;" transform="translate(0,267.8956791132828)"><line x2="-6" y2="0" class="axis-line"/><text dy=".32em" style="text-anchor: end;" x="-9" y="0">0.06</text></g><g class="tick" style="opacity: 1;" transform="translate(0,214.32178129097719)"><line x2="-6" y2="0" class="axis-line"/><text dy=".32em" style="text-anchor: end;" x="-9" y="0">0.08</text></g><g class="tick" style="opacity: 1;" transform="translate(0,160.74788346867157)"><line x2="-6" y2="0" class="axis-line"/><text dy=".32em" style="text-anchor: end;" x="-9" y="0">0.10</text></g><g class="tick" style="opacity: 1;" transform="translate(0,107.17398564636595)"><line x2="-6" y2="0" class="axis-line"/><text dy=".32em" style="text-anchor: end;" x="-9" y="0">0.12</text></g><g class="tick" style="opacity: 1;" transform="translate(0,53.60008782406034)"><line x2="-6" y2="0" class="axis-line"/><text dy=".32em" style="text-anchor: end;" x="-9" y="0">0.14</text></g><g class="tick" style="opacity: 1;" transform="translate(0,0.026190001754766712)"><line x2="-6" y2="0" class="axis-line"/><text dy=".32em" style="text-anchor: end;" x="-9" y="0">0.16</text></g><path class="axis-path" d="M-6,0H0V400H-6"/><text transform="rotate(-90)" y="6" dy=".71em" style="text-anchor: end;">Mean running time (seconds)</text></g><g class="data-series-0"><circle cx="0" cy="400" r="3"/><circle cx="140" cy="392.5646888993885" r="3"/><circle cx="280" cy="322.3984496680643" r="3"/><circle cx="420" cy="284.71760111598303" r="3"/><circle cx="560" cy="239.55671320004944" r="3"/><circle cx="700" cy="176.91708214348992" r="3"/><circle cx="840" cy="117.9157674855968" r="3"/><path class="error-bar" x="0" y="400" d="M 0 400 V 399.3535186139492 h -3 h 6 h -3 V 400.6464813860508 h -3 h 6"/><path class="error-bar" x="140" y="392.5646888993885" d="M 140 392.5646888993885 V 389.3457853024995 h -3 h 6 h -3 V 395.7835924962776 h -3 h 6"/><path class="error-bar" x="280" y="322.3984496680643" d="M 280 322.3984496680643 V 306.3142517615928 h -3 h 6 h -3 V 338.4826475745359 h -3 h 6"/><path class="error-bar" x="420" y="284.71760111598303" d="M 420 284.71760111598303 V 275.41345279698385 h -3 h 6 h -3 V 294.02174943498227 h -3 h 6"/><path class="error-bar" x="560" y="239.55671320004944" d="M 560 239.55671320004944 V 215.7847549829894 h -3 h 6 h -3 V 263.3286714171095 h -3 h 6"/><path class="error-bar" x="700" y="176.91708214348992" d="M 700 176.91708214348992 V 159.2247540235685 h -3 h 6 h -3 V 194.60941026341126 h -3 h 6"/><path class="error-bar" x="840" y="117.9157674855968" d="M 840 117.9157674855968 V 95.02750661716033 h -3 h 6 h -3 V 140.80402835403322 h -3 h 6"/><path class="line" d="M0,400L140,392.5646888993885L280,322.3984496680643L420,284.71760111598303L560,239.55671320004944L700,176.91708214348992L840,117.9157674855968"/></g><g class="data-series-1"><circle cx="0" cy="393.9126657619477" r="3"/><circle cx="140" cy="319.316806378058" r="3"/><circle cx="280" cy="270.40495551872215" r="3"/><circle cx="420" cy="226.07867870866087" r="3"/><circle cx="560" cy="147.8731001073575" r="3"/><circle cx="700" cy="74.31365032652178" r="3"/><circle cx="840" cy="0" r="3"/><path class="error-bar" x="0" y="393.9126657619477" d="M 0 393.9126657619477 V 392.94266629953245 h -3 h 6 h -3 V 394.88266522436305 h -3 h 6"/><path class="error-bar" x="140" y="319.316806378058" d="M 140 319.316806378058 V 303.787480432454 h -3 h 6 h -3 V 334.846132323662 h -3 h 6"/><path class="error-bar" x="280" y="270.40495551872215" d="M 280 270.40495551872215 V 254.68394144621715 h -3 h 6 h -3 V 286.12596959122715 h -3 h 6"/><path class="error-bar" x="420" y="226.07867870866087" d="M 420 226.07867870866087 V 203.46854228663736 h -3 h 6 h -3 V 248.6888151306844 h -3 h 6"/><path class="error-bar" x="560" y="147.8731001073575" d="M 560 147.8731001073575 V 126.60469286279667 h -3 h 6 h -3 V 169.14150735191825 h -3 h 6"/><path class="error-bar" x="700" y="74.31365032652178" d="M 700 74.31365032652178 V 53.6831535208071 h -3 h 6 h -3 V 94.94414713223645 h -3 h 6"/><path class="error-bar" x="840" y="0" d="M 840 0 V -26.032111512459544 h -3 h 6 h -3 V 26.032111512459586 h -3 h 6"/><path class="line" d="M0,393.9126657619477L140,319.316806378058L280,270.40495551872215L420,226.07867870866087L560,147.8731001073575L700,74.31365032652178L840,0"/></g><g class="data-series-2"><circle cx="0" cy="389.84936626090297" r="3"/><circle cx="140" cy="367.76381746718175" r="3"/><circle cx="280" cy="349.27962502979915" r="3"/><circle cx="420" cy="327.4696052849579" r="3"/><circle cx="560" cy="306.1314130825663" r="3"/><circle cx="700" cy="279.4025039447135" r="3"/><circle cx="840" cy="257.6473409393925" r="3"/><path class="error-bar" x="0" y="389.84936626090297" d="M 0 389.84936626090297 V 389.14858265870225 h -3 h 6 h -3 V 390.55014986310374 h -3 h 6"/><path class="error-bar" x="140" y="367.76381746718175" d="M 140 367.76381746718175 V 366.9881915486005 h -3 h 6 h -3 V 368.53944338576287 h -3 h 6"/><path class="error-bar" x="280" y="349.27962502979915" d="M 280 349.27962502979915 V 347.25892158203743 h -3 h 6 h -3 V 351.3003284775608 h -3 h 6"/><path class="error-bar" x="420" y="327.4696052849579" d="M 420 327.4696052849579 V 325.44103852808297 h -3 h 6 h -3 V 329.49817204183285 h -3 h 6"/><path class="error-bar" x="560" y="306.1314130825663" d="M 560 306.1314130825663 V 303.8083083147962 h -3 h 6 h -3 V 308.4545178503366 h -3 h 6"/><path class="error-bar" x="700" y="279.4025039447135" d="M 700 279.4025039447135 V 276.6464357551014 h -3 h 6 h -3 V 282.1585721343256 h -3 h 6"/><path class="error-bar" x="840" y="257.6473409393925" d="M 840 257.6473409393925 V 254.75088923759577 h -3 h 6 h -3 V 260.5437926411892 h -3 h 6"/><path class="line" d="M0,389.84936626090297L140,367.76381746718175L280,349.27962502979915L420,327.4696052849579L560,306.1314130825663L700,279.4025039447135L840,257.6473409393925"/></g><g class="data-series-3"><circle cx="0" cy="382.46085090737904" r="3"/><circle cx="140" cy="359.41525422469954" r="3"/><circle cx="280" cy="336.94888372339716" r="3"/><circle cx="420" cy="310.7278599369639" r="3"/><circle cx="560" cy="288.66491495039287" r="3"/><circle cx="700" cy="254.80904628745344" r="3"/><circle cx="840" cy="235.14142739325376" r="3"/><path class="error-bar" x="0" y="382.46085090737904" d="M 0 382.46085090737904 V 381.8332146765903 h -3 h 6 h -3 V 383.08848713816775 h -3 h 6"/><path class="error-bar" x="140" y="359.41525422469954" d="M 140 359.41525422469954 V 353.20180566311245 h -3 h 6 h -3 V 365.6287027862865 h -3 h 6"/><path class="error-bar" x="280" y="336.94888372339716" d="M 280 336.94888372339716 V 335.2402195763522 h -3 h 6 h -3 V 338.65754787044204 h -3 h 6"/><path class="error-bar" x="420" y="310.7278599369639" d="M 420 310.7278599369639 V 307.1804212405828 h -3 h 6 h -3 V 314.27529863334496 h -3 h 6"/><path class="error-bar" x="560" y="288.66491495039287" d="M 560 288.66491495039287 V 286.733939808468 h -3 h 6 h -3 V 290.5958900923177 h -3 h 6"/><path class="error-bar" x="700" y="254.80904628745344" d="M 700 254.80904628745344 V 251.6758495645072 h -3 h 6 h -3 V 257.94224301039975 h -3 h 6"/><path class="error-bar" x="840" y="235.14142739325376" d="M 840 235.14142739325376 V 232.05416078149347 h -3 h 6 h -3 V 238.228694005014 h -3 h 6"/><path class="line" d="M0,382.46085090737904L140,359.41525422469954L280,336.94888372339716L420,310.7278599369639L560,288.66491495039287L700,254.80904628745344L840,235.14142739325376"/></g><g class="legend" transform="translate(50, 50)"><rect x="0" y="0" width="15" height="15" class="data-series-0"/><rect x="0" y="20" width="15" height="15" class="data-series-1"/><rect x="0" y="40" width="15" height="15" class="data-series-2"/><rect x="0" y="60" width="15" height="15" class="data-series-3"/><text x="24" y="13">Standard ReaderT (Different Monad)</text><text x="24" y="33">Standard ReaderT (Same Monad)</text><text x="24" y="53">Standard Run</text><text x="24" y="73">Layered Run</text></g></g></svg>