<svg xmlns="http://www.w3.org/2000/svg" width="960" height="500"><defs><style type="text/css">
.background {
  fill: white;
}

text {
  font-size: 14px;
  font-family: sans-serif;
}

.axis-path,
.axis-line {
  fill: none;
  stroke: #000;
  stroke-width: 1px;
  shape-rendering: crispEdges;
}

.line {
  fill: none;
  stroke-width: 1.5px;
}

.data-series-0 {
  stroke: steelblue;
  fill: steelblue;
}

.data-series-1 {
  stroke: crimson;
  fill: crimson;
}

.data-series-2 {
  stroke: mediumseagreen;
  fill: mediumseagreen;
}

.data-series-3 {
  stroke: mediumslateblue;
  fill: mediumslateblue;
}

.data-series-4 {
  stroke: goldenrod;
  fill: goldenrod;
}

.error-bar {
  fill: none;
}
</style></defs><rect width="960" height="500" class="background"/><g transform="translate(80,40)"><g transform="translate(420, 0)"><text style="text-anchor: middle; font-size: 28px;">Random Number Game (Lose) - Various FP Approaches</text></g><g class="x axis" transform="translate(0,400)"><g class="tick" style="opacity: 1;" transform="translate(56,0)"><line y2="6" x2="0" class="axis-line"/><text dy=".71em" style="text-anchor: middle;" y="9" x="0">600</text></g><g class="tick" style="opacity: 1;" transform="translate(168,0)"><line y2="6" x2="0" class="axis-line"/><text dy=".71em" style="text-anchor: middle;" y="9" x="0">800</text></g><g class="tick" style="opacity: 1;" transform="translate(280,0)"><line y2="6" x2="0" class="axis-line"/><text dy=".71em" style="text-anchor: middle;" y="9" x="0">1,000</text></g><g class="tick" style="opacity: 1;" transform="translate(392,0)"><line y2="6" x2="0" class="axis-line"/><text dy=".71em" style="text-anchor: middle;" y="9" x="0">1,200</text></g><g class="tick" style="opacity: 1;" transform="translate(504,0)"><line y2="6" x2="0" class="axis-line"/><text dy=".71em" style="text-anchor: middle;" y="9" x="0">1,400</text></g><g class="tick" style="opacity: 1;" transform="translate(616,0)"><line y2="6" x2="0" class="axis-line"/><text dy=".71em" style="text-anchor: middle;" y="9" x="0">1,600</text></g><g class="tick" style="opacity: 1;" transform="translate(728,0)"><line y2="6" x2="0" class="axis-line"/><text dy=".71em" style="text-anchor: middle;" y="9" x="0">1,800</text></g><g class="tick" style="opacity: 1;" transform="translate(840,0)"><line y2="6" x2="0" class="axis-line"/><text dy=".71em" style="text-anchor: middle;" y="9" x="0">2,000</text></g><path class="axis-path" d="M0,6V0H840V6"/><text x="420" y="40" style="text-anchor: middle;">The number of guesses to make before losing</text></g><g class="y axis"><g class="tick" style="opacity: 1;" transform="translate(0,374.7998789532081)"><line x2="-6" y2="0" class="axis-line"/><text dy=".32em" style="text-anchor: end;" x="-9" y="0">0.02</text></g><g class="tick" style="opacity: 1;" transform="translate(0,318.8746107325086)"><line x2="-6" y2="0" class="axis-line"/><text dy=".32em" style="text-anchor: end;" x="-9" y="0">0.04</text></g><g class="tick" style="opacity: 1;" transform="translate(0,262.9493425118091)"><line x2="-6" y2="0" class="axis-line"/><text dy=".32em" style="text-anchor: end;" x="-9" y="0">0.06</text></g><g class="tick" style="opacity: 1;" transform="translate(0,207.02407429110957)"><line x2="-6" y2="0" class="axis-line"/><text dy=".32em" style="text-anchor: end;" x="-9" y="0">0.08</text></g><g class="tick" style="opacity: 1;" transform="translate(0,151.09880607041006)"><line x2="-6" y2="0" class="axis-line"/><text dy=".32em" style="text-anchor: end;" x="-9" y="0">0.10</text></g><g class="tick" style="opacity: 1;" transform="translate(0,95.17353784971058)"><line x2="-6" y2="0" class="axis-line"/><text dy=".32em" style="text-anchor: end;" x="-9" y="0">0.12</text></g><g class="tick" style="opacity: 1;" transform="translate(0,39.24826962901098)"><line x2="-6" y2="0" class="axis-line"/><text dy=".32em" style="text-anchor: end;" x="-9" y="0">0.14</text></g><path class="axis-path" d="M-6,0H0V400H-6"/><text transform="rotate(-90)" y="6" dy=".71em" style="text-anchor: end;">Mean running time (seconds)</text></g><g class="data-series-0"><circle cx="0" cy="400" r="3"/><circle cx="140" cy="394.17613828676133" r="3"/><circle cx="280" cy="323.19477228164493" r="3"/><circle cx="420" cy="276.4198070380649" r="3"/><circle cx="560" cy="231.1102796130786" r="3"/><circle cx="700" cy="186.300615483021" r="3"/><circle cx="840" cy="102.38476929181259" r="3"/><path class="error-bar" x="0" y="400" d="M 0 400 V 398.84117812393885 h -3 h 6 h -3 V 401.1588218760612 h -3 h 6"/><path class="error-bar" x="140" y="394.17613828676133" d="M 140 394.17613828676133 V 393.3708264268559 h -3 h 6 h -3 V 394.9814501466667 h -3 h 6"/><path class="error-bar" x="280" y="323.19477228164493" d="M 280 323.19477228164493 V 308.55260400944553 h -3 h 6 h -3 V 337.83694055384433 h -3 h 6"/><path class="error-bar" x="420" y="276.4198070380649" d="M 420 276.4198070380649 V 261.93851699424624 h -3 h 6 h -3 V 290.9010970818836 h -3 h 6"/><path class="error-bar" x="560" y="231.1102796130786" d="M 560 231.1102796130786 V 208.4754239721322 h -3 h 6 h -3 V 253.74513525402503 h -3 h 6"/><path class="error-bar" x="700" y="186.300615483021" d="M 700 186.300615483021 V 163.2458935906206 h -3 h 6 h -3 V 209.3553373754214 h -3 h 6"/><path class="error-bar" x="840" y="102.38476929181259" d="M 840 102.38476929181259 V 77.8325565189117 h -3 h 6 h -3 V 126.93698206471349 h -3 h 6"/><path class="line" d="M0,400L140,394.17613828676133L280,323.19477228164493L420,276.4198070380649L560,231.1102796130786L700,186.300615483021L840,102.38476929181259"/></g><g class="data-series-1"><circle cx="0" cy="393.05422542621164" r="3"/><circle cx="140" cy="325.2087220488893" r="3"/><circle cx="280" cy="260.4171386885694" r="3"/><circle cx="420" cy="216.25218399895886" r="3"/><circle cx="560" cy="149.42576262032298" r="3"/><circle cx="700" cy="68.72901411117228" r="3"/><circle cx="840" cy="0" r="3"/><path class="error-bar" x="0" y="393.05422542621164" d="M 0 393.05422542621164 V 391.99878671453916 h -3 h 6 h -3 V 394.10966413788407 h -3 h 6"/><path class="error-bar" x="140" y="325.2087220488893" d="M 140 325.2087220488893 V 309.1166317002673 h -3 h 6 h -3 V 341.3008123975112 h -3 h 6"/><path class="error-bar" x="280" y="260.4171386885694" d="M 280 260.4171386885694 V 246.3259776343933 h -3 h 6 h -3 V 274.50829974274546 h -3 h 6"/><path class="error-bar" x="420" y="216.25218399895886" d="M 420 216.25218399895886 V 189.07096631016614 h -3 h 6 h -3 V 243.4334016877515 h -3 h 6"/><path class="error-bar" x="560" y="149.42576262032298" d="M 560 149.42576262032298 V 125.71464970689811 h -3 h 6 h -3 V 173.1368755337479 h -3 h 6"/><path class="error-bar" x="700" y="68.72901411117228" d="M 700 68.72901411117228 V 48.94925724981607 h -3 h 6 h -3 V 88.50877097252838 h -3 h 6"/><path class="error-bar" x="840" y="0" d="M 840 0 V -10.235717331905914 h -3 h 6 h -3 V 10.23571733190587 h -3 h 6"/><path class="line" d="M0,393.05422542621164L140,325.2087220488893L280,260.4171386885694L420,216.25218399895886L560,149.42576262032298L700,68.72901411117228L840,0"/></g><g class="data-series-2"><circle cx="0" cy="379.6493977326387" r="3"/><circle cx="140" cy="353.6510050671011" r="3"/><circle cx="280" cy="322.44582803216775" r="3"/><circle cx="420" cy="294.84624120366016" r="3"/><circle cx="560" cy="266.6769791880121" r="3"/><circle cx="700" cy="237.52625602648988" r="3"/><circle cx="840" cy="208.37511971704865" r="3"/><path class="error-bar" x="0" y="379.6493977326387" d="M 0 379.6493977326387 V 371.47269552140546 h -3 h 6 h -3 V 387.82609994387195 h -3 h 6"/><path class="error-bar" x="140" y="353.6510050671011" d="M 140 353.6510050671011 V 348.3220902011012 h -3 h 6 h -3 V 358.979919933101 h -3 h 6"/><path class="error-bar" x="280" y="322.44582803216775" d="M 280 322.44582803216775 V 312.3442453073797 h -3 h 6 h -3 V 332.5474107569558 h -3 h 6"/><path class="error-bar" x="420" y="294.84624120366016" d="M 420 294.84624120366016 V 288.54273202059125 h -3 h 6 h -3 V 301.149750386729 h -3 h 6"/><path class="error-bar" x="560" y="266.6769791880121" d="M 560 266.6769791880121 V 258.4430117524113 h -3 h 6 h -3 V 274.910946623613 h -3 h 6"/><path class="error-bar" x="700" y="237.52625602648988" d="M 700 237.52625602648988 V 220.08079335442977 h -3 h 6 h -3 V 254.97171869854992 h -3 h 6"/><path class="error-bar" x="840" y="208.37511971704865" d="M 840 208.37511971704865 V 197.02261776003192 h -3 h 6 h -3 V 219.72762167406543 h -3 h 6"/><path class="line" d="M0,379.6493977326387L140,353.6510050671011L280,322.44582803216775L420,294.84624120366016L560,266.6769791880121L700,237.52625602648988L840,208.37511971704865"/></g><g class="data-series-3"><circle cx="0" cy="372.72175745882095" r="3"/><circle cx="140" cy="343.41556474215855" r="3"/><circle cx="280" cy="309.56906893555856" r="3"/><circle cx="420" cy="277.8521088818929" r="3"/><circle cx="560" cy="252.73037823730849" r="3"/><circle cx="700" cy="214.9986603944046" r="3"/><circle cx="840" cy="179.00022744057858" r="3"/><path class="error-bar" x="0" y="372.72175745882095" d="M 0 372.72175745882095 V 365.9610107140474 h -3 h 6 h -3 V 379.48250420359443 h -3 h 6"/><path class="error-bar" x="140" y="343.41556474215855" d="M 140 343.41556474215855 V 331.46060548968205 h -3 h 6 h -3 V 355.37052399463505 h -3 h 6"/><path class="error-bar" x="280" y="309.56906893555856" d="M 280 309.56906893555856 V 294.35828962458584 h -3 h 6 h -3 V 324.7798482465313 h -3 h 6"/><path class="error-bar" x="420" y="277.8521088818929" d="M 420 277.8521088818929 V 254.37200381211954 h -3 h 6 h -3 V 301.3322139516663 h -3 h 6"/><path class="error-bar" x="560" y="252.73037823730849" d="M 560 252.73037823730849 V 247.9727277635209 h -3 h 6 h -3 V 257.48802871109604 h -3 h 6"/><path class="error-bar" x="700" y="214.9986603944046" d="M 700 214.9986603944046 V 195.81449412607745 h -3 h 6 h -3 V 234.1828266627318 h -3 h 6"/><path class="error-bar" x="840" y="179.00022744057858" d="M 840 179.00022744057858 V 155.91848690746644 h -3 h 6 h -3 V 202.0819679736908 h -3 h 6"/><path class="line" d="M0,372.72175745882095L140,343.41556474215855L280,309.56906893555856L420,277.8521088818929L560,252.73037823730849L700,214.9986603944046L840,179.00022744057858"/></g><g class="legend" transform="translate(50, 50)"><rect x="0" y="0" width="15" height="15" class="data-series-0"/><rect x="0" y="20" width="15" height="15" class="data-series-1"/><rect x="0" y="40" width="15" height="15" class="data-series-2"/><rect x="0" y="60" width="15" height="15" class="data-series-3"/><text x="24" y="13">Standard ReaderT (Different Monad)</text><text x="24" y="33">Standard ReaderT (Same Monad)</text><text x="24" y="53">Standard Run</text><text x="24" y="73">Layered Run</text></g></g></svg>