<?xml version="1.0" encoding="UTF-8"?><svg xmlns="http://www.w3.org/2000/svg" xmlns:xlink="http://www.w3.org/1999/xlink" fill-opacity="1" color-rendering="auto" color-interpolation="auto" text-rendering="auto" stroke="black" stroke-linecap="square" width="1177" stroke-miterlimit="10" shape-rendering="auto" stroke-opacity="1" fill="black" stroke-dasharray="none" font-weight="normal" stroke-width="1" height="1719" font-family="'Dialog'" font-style="normal" stroke-linejoin="miter" font-size="12px" stroke-dashoffset="0" image-rendering="auto">
  <!--Generated by ySVG 2.5-->
  <defs id="genericDefs"/>
  <g>
    <defs id="defs1">
      <clipPath clipPathUnits="userSpaceOnUse" id="clipPath1">
        <path d="M0 0 L1177 0 L1177 1719 L0 1719 L0 0 Z"/>
      </clipPath>
      <clipPath clipPathUnits="userSpaceOnUse" id="clipPath2">
        <path d="M376 123 L1553 123 L1553 1842 L376 1842 L376 123 Z"/>
      </clipPath>
    </defs>
    <g fill="white" text-rendering="geometricPrecision" shape-rendering="geometricPrecision" transform="translate(-376,-123)" stroke="white">
      <rect x="376" width="1177" height="1719" y="123" clip-path="url(#clipPath2)" stroke="none"/>
    </g>
    <g fill="rgb(255,204,0)" text-rendering="geometricPrecision" shape-rendering="geometricPrecision" transform="matrix(1,0,0,1,-376,-123)" stroke="rgb(255,204,0)">
      <rect x="786.8828" width="98.2344" height="30" y="165" clip-path="url(#clipPath2)" stroke="none"/>
    </g>
    <g text-rendering="geometricPrecision" stroke-miterlimit="1.45" shape-rendering="geometricPrecision" transform="matrix(1,0,0,1,-376,-123)" stroke-linecap="butt">
      <rect fill="none" x="786.8828" width="98.2344" height="30" y="165" clip-path="url(#clipPath2)"/>
      <text x="793.8828" xml:space="preserve" y="184.1543" clip-path="url(#clipPath2)" font-family="sans-serif" stroke="none">Program Start</text>
    </g>
    <g fill="rgb(255,204,0)" text-rendering="geometricPrecision" shape-rendering="geometricPrecision" transform="matrix(1,0,0,1,-376,-123)" stroke="rgb(255,204,0)">
      <rect x="733.3516" width="205.2969" height="30" y="288.664" clip-path="url(#clipPath2)" stroke="none"/>
    </g>
    <g text-rendering="geometricPrecision" stroke-miterlimit="1.45" shape-rendering="geometricPrecision" transform="matrix(1,0,0,1,-376,-123)" stroke-linecap="butt">
      <rect fill="none" x="733.3516" width="205.2969" height="30" y="288.664" clip-path="url(#clipPath2)"/>
      <text x="740.3516" xml:space="preserve" y="307.8183" clip-path="url(#clipPath2)" font-family="sans-serif" stroke="none">Parse command line arguments</text>
    </g>
    <g fill="rgb(255,204,0)" text-rendering="geometricPrecision" shape-rendering="geometricPrecision" transform="matrix(1,0,0,1,-376,-123)" stroke="rgb(255,204,0)">
      <rect x="775.8347" width="163.5957" height="30" y="1714.1799" clip-path="url(#clipPath2)" stroke="none"/>
    </g>
    <g text-rendering="geometricPrecision" stroke-miterlimit="1.45" shape-rendering="geometricPrecision" transform="matrix(1,0,0,1,-376,-123)" stroke-linecap="butt">
      <rect fill="none" x="775.8347" width="163.5957" height="30" y="1714.1799" clip-path="url(#clipPath2)"/>
      <text x="782.8347" xml:space="preserve" y="1733.3342" clip-path="url(#clipPath2)" font-family="sans-serif" stroke="none">Write content to final file</text>
    </g>
    <g fill="rgb(255,204,0)" text-rendering="geometricPrecision" shape-rendering="geometricPrecision" transform="matrix(1,0,0,1,-376,-123)" stroke="rgb(255,204,0)">
      <rect x="881.8182" width="320.9727" height="46.6" y="1494.9519" clip-path="url(#clipPath2)" stroke="none"/>
    </g>
    <g text-rendering="geometricPrecision" stroke-miterlimit="1.45" shape-rendering="geometricPrecision" transform="matrix(1,0,0,1,-376,-123)" stroke-linecap="butt">
      <rect fill="none" x="881.8182" width="320.9727" height="46.6" y="1494.9519" clip-path="url(#clipPath2)"/>
      <text x="888.8182" xml:space="preserve" y="1508.4375" clip-path="url(#clipPath2)" font-family="sans-serif" stroke="none">Iterate through list of top-level directories again</text>
      <text x="888.8182" xml:space="preserve" y="1522.4062" clip-path="url(#clipPath2)" font-family="sans-serif" stroke="none">and render each directory, file, and header in a file</text>
      <text x="888.8182" xml:space="preserve" y="1536.375" clip-path="url(#clipPath2)" font-family="sans-serif" stroke="none">as a markdown-formatted bullet list</text>
    </g>
    <g fill="rgb(255,204,0)" text-rendering="geometricPrecision" shape-rendering="geometricPrecision" transform="matrix(1,0,0,1,-376,-123)" stroke="rgb(255,204,0)">
      <rect x="588.0657" width="241.9355" height="56.2" y="1490.1519" clip-path="url(#clipPath2)" stroke="none"/>
    </g>
    <g text-rendering="geometricPrecision" stroke-miterlimit="1.45" shape-rendering="geometricPrecision" transform="matrix(1,0,0,1,-376,-123)" stroke-linecap="butt">
      <rect fill="none" x="588.0657" width="241.9355" height="56.2" y="1490.1519" clip-path="url(#clipPath2)"/>
      <text x="595.0657" xml:space="preserve" y="1508.4375" clip-path="url(#clipPath2)" font-family="sans-serif" stroke="none">Generate "Table of Contents" section </text>
      <text x="646.4348" xml:space="preserve" y="1522.4062" clip-path="url(#clipPath2)" font-family="sans-serif" stroke="none">for the outputted file</text>
      <text x="621.1838" xml:space="preserve" y="1536.375" clip-path="url(#clipPath2)" font-family="sans-serif" stroke="none">by using the top-level folders</text>
    </g>
    <g fill="rgb(255,204,0)" text-rendering="geometricPrecision" shape-rendering="geometricPrecision" transform="matrix(1,0,0,1,-376,-123)" stroke="rgb(255,204,0)">
      <rect x="750.4519" width="214.3613" height="30" y="1635.2519" clip-path="url(#clipPath2)" stroke="none"/>
    </g>
    <g text-rendering="geometricPrecision" stroke-miterlimit="1.45" shape-rendering="geometricPrecision" transform="matrix(1,0,0,1,-376,-123)" stroke-linecap="butt">
      <rect fill="none" x="750.4519" width="214.3613" height="30" y="1635.2519" clip-path="url(#clipPath2)"/>
      <text x="757.4518" xml:space="preserve" y="1654.4062" clip-path="url(#clipPath2)" font-family="sans-serif" stroke="none">Combine file's ToC with bullet list</text>
    </g>
    <g fill="rgb(255,204,0)" text-rendering="geometricPrecision" shape-rendering="geometricPrecision" transform="matrix(1,0,0,1,-376,-123)" stroke="rgb(255,204,0)">
      <rect x="811.9109" width="91.4434" height="30" y="1796.4839" clip-path="url(#clipPath2)" stroke="none"/>
    </g>
    <g text-rendering="geometricPrecision" stroke-miterlimit="1.45" shape-rendering="geometricPrecision" transform="matrix(1,0,0,1,-376,-123)" stroke-linecap="butt">
      <rect fill="none" x="811.9109" width="91.4434" height="30" y="1796.4839" clip-path="url(#clipPath2)"/>
      <text x="818.9108" xml:space="preserve" y="1815.6382" clip-path="url(#clipPath2)" font-family="sans-serif" stroke="none">Program exit</text>
      <path fill="none" d="M836 195 L836 280.664" clip-path="url(#clipPath2)"/>
      <path d="M836 288.664 L841 276.664 L836 279.664 L831 276.664 Z" clip-path="url(#clipPath2)" stroke="none"/>
      <path fill="none" d="M740.6671 1546.3519 L834.7653 1629.939" clip-path="url(#clipPath2)"/>
      <path d="M840.7463 1635.252 L835.0954 1623.5444 L834.0176 1629.2749 L828.4542 1631.0206 Z" clip-path="url(#clipPath2)" stroke="none"/>
      <path fill="none" d="M1009.7072 1541.552 L885.1263 1630.5999" clip-path="url(#clipPath2)"/>
      <path d="M878.618 1635.252 L891.2881 1632.3416 L885.9399 1630.0184 L885.473 1624.2062 Z" clip-path="url(#clipPath2)" stroke="none"/>
      <path fill="none" d="M857.6325 1665.252 L857.6325 1706.1799" clip-path="url(#clipPath2)"/>
      <path d="M857.6325 1714.1799 L862.6325 1702.1799 L857.6325 1705.1799 L852.6325 1702.1799 Z" clip-path="url(#clipPath2)" stroke="none"/>
      <path fill="none" d="M857.6325 1744.1799 L857.6325 1788.4839" clip-path="url(#clipPath2)"/>
      <path d="M857.6325 1796.4839 L862.6325 1784.4839 L857.6325 1787.4839 L852.6325 1784.4839 Z" clip-path="url(#clipPath2)" stroke="none"/>
    </g>
    <g fill="rgb(245,245,245)" text-rendering="geometricPrecision" shape-rendering="geometricPrecision" transform="matrix(1,0,0,1,-376,-123)" stroke="rgb(245,245,245)">
      <rect x="1049.5606" y="138.4555" clip-path="url(#clipPath2)" width="487.5033" rx="4" ry="4" height="330.4171" stroke="none"/>
      <rect x="1049.5606" y="138.4555" clip-path="url(#clipPath2)" fill="rgb(235,235,235)" width="487.5033" height="38.9219" stroke="none"/>
    </g>
    <g font-size="15px" stroke-linecap="butt" transform="matrix(1,0,0,1,-376,-123)" text-rendering="geometricPrecision" font-family="sans-serif" shape-rendering="geometricPrecision" stroke-miterlimit="1.45">
      <text x="1193.1169" xml:space="preserve" y="154.3788" clip-path="url(#clipPath2)" stroke="none">Command Line Arguments</text>
      <text x="1124.8845" xml:space="preserve" y="171.8398" clip-path="url(#clipPath2)" stroke="none">that will be stored in the "Environment" type</text>
      <rect x="1049.5606" y="138.4555" clip-path="url(#clipPath2)" fill="none" width="487.5033" stroke-dasharray="6,2" rx="4" ry="4" height="330.4171"/>
    </g>
    <g fill="rgb(255,204,0)" text-rendering="geometricPrecision" shape-rendering="geometricPrecision" transform="matrix(1,0,0,1,-376,-123)" stroke="rgb(255,204,0)">
      <rect x="1343.2637" width="160.4258" height="37" y="211.7557" clip-path="url(#clipPath2)" stroke="none"/>
    </g>
    <g text-rendering="geometricPrecision" stroke-miterlimit="1.45" shape-rendering="geometricPrecision" transform="matrix(1,0,0,1,-376,-123)" stroke-linecap="butt">
      <rect fill="none" x="1343.2637" width="160.4258" height="37" y="211.7557" clip-path="url(#clipPath2)"/>
      <text x="1350.2638" xml:space="preserve" y="227.4256" clip-path="url(#clipPath2)" font-family="sans-serif" stroke="none">To which file should the </text>
      <text x="1353.1144" xml:space="preserve" y="241.3944" clip-path="url(#clipPath2)" font-family="sans-serif" stroke="none">final output be written?</text>
    </g>
    <g fill="rgb(255,204,0)" text-rendering="geometricPrecision" shape-rendering="geometricPrecision" transform="matrix(1,0,0,1,-376,-123)" stroke="rgb(255,204,0)">
      <rect x="1073.8301" width="230.1641" height="37" y="243.8939" clip-path="url(#clipPath2)" stroke="none"/>
    </g>
    <g text-rendering="geometricPrecision" stroke-miterlimit="1.45" shape-rendering="geometricPrecision" transform="matrix(1,0,0,1,-376,-123)" stroke-linecap="butt">
      <rect fill="none" x="1073.8301" width="230.1641" height="37" y="243.8939" clip-path="url(#clipPath2)"/>
      <text x="1080.8302" xml:space="preserve" y="259.5638" clip-path="url(#clipPath2)" font-family="sans-serif" stroke="none">Which GitHub project and reference</text>
      <text x="1086.8771" xml:space="preserve" y="273.5325" clip-path="url(#clipPath2)" font-family="sans-serif" stroke="none">should be used to create the links</text>
    </g>
    <g fill="rgb(255,204,0)" text-rendering="geometricPrecision" shape-rendering="geometricPrecision" transform="matrix(1,0,0,1,-376,-123)" stroke="rgb(255,204,0)">
      <rect x="1074.9272" width="447.1367" height="37" y="296.0018" clip-path="url(#clipPath2)" stroke="none"/>
    </g>
    <g text-rendering="geometricPrecision" stroke-miterlimit="1.45" shape-rendering="geometricPrecision" transform="matrix(1,0,0,1,-376,-123)" stroke-linecap="butt">
      <rect fill="none" x="1074.9272" width="447.1367" height="37" y="296.0018" clip-path="url(#clipPath2)"/>
      <text x="1081.9272" xml:space="preserve" y="318.6561" clip-path="url(#clipPath2)" font-family="sans-serif" stroke="none">How should the program determine whether to include/exclude folders?</text>
    </g>
    <g fill="rgb(255,204,0)" text-rendering="geometricPrecision" shape-rendering="geometricPrecision" transform="matrix(1,0,0,1,-376,-123)" stroke="rgb(255,204,0)">
      <rect x="1064.5606" width="248.7031" height="37" y="192.3773" clip-path="url(#clipPath2)" stroke="none"/>
    </g>
    <g text-rendering="geometricPrecision" stroke-miterlimit="1.45" shape-rendering="geometricPrecision" transform="matrix(1,0,0,1,-376,-123)" stroke-linecap="butt">
      <rect fill="none" x="1064.5606" width="248.7031" height="37" y="192.3773" clip-path="url(#clipPath2)"/>
      <text x="1071.5607" xml:space="preserve" y="215.0316" clip-path="url(#clipPath2)" font-family="sans-serif" stroke="none">Which folder should be the root folder?</text>
    </g>
    <g fill="rgb(255,204,0)" text-rendering="geometricPrecision" shape-rendering="geometricPrecision" transform="matrix(1,0,0,1,-376,-123)" stroke="rgb(255,204,0)">
      <rect x="1075.2759" width="446.4395" height="37" y="356.4372" clip-path="url(#clipPath2)" stroke="none"/>
    </g>
    <g text-rendering="geometricPrecision" stroke-miterlimit="1.45" shape-rendering="geometricPrecision" transform="matrix(1,0,0,1,-376,-123)" stroke-linecap="butt">
      <rect fill="none" x="1075.2759" width="446.4395" height="37" y="356.4372" clip-path="url(#clipPath2)"/>
      <text x="1082.2759" xml:space="preserve" y="379.0915" clip-path="url(#clipPath2)" font-family="sans-serif" stroke="none">How should the program to determine whether to include/exclude files?</text>
    </g>
    <g fill="rgb(255,204,0)" text-rendering="geometricPrecision" shape-rendering="geometricPrecision" transform="matrix(1,0,0,1,-376,-123)" stroke="rgb(255,204,0)">
      <rect x="1089.104" width="418.7832" height="37" y="416.8725" clip-path="url(#clipPath2)" stroke="none"/>
    </g>
    <g text-rendering="geometricPrecision" stroke-miterlimit="1.45" shape-rendering="geometricPrecision" transform="matrix(1,0,0,1,-376,-123)" stroke-linecap="butt">
      <rect fill="none" x="1089.104" width="418.7832" height="37" y="416.8725" clip-path="url(#clipPath2)"/>
      <text x="1096.104" xml:space="preserve" y="439.5268" clip-path="url(#clipPath2)" font-family="sans-serif" stroke="none">How should the program to parse one file differently from another?</text>
    </g>
    <g stroke-linecap="round" transform="matrix(1,0,0,1,-376,-123)" stroke-dashoffset="2" text-rendering="geometricPrecision" shape-rendering="geometricPrecision" stroke-dasharray="0,12" stroke-width="3" stroke-miterlimit="1.45">
      <path fill="none" d="M1049.5557 303.664 L938.6484 303.664" clip-path="url(#clipPath2)"/>
    </g>
    <g fill="rgb(245,245,245)" text-rendering="geometricPrecision" shape-rendering="geometricPrecision" transform="matrix(1,0,0,1,-376,-123)" stroke="rgb(245,245,245)">
      <rect x="391.0292" y="476.8948" clip-path="url(#clipPath2)" width="889.9416" rx="4" ry="4" height="924.3571" stroke="none"/>
      <rect x="391.0292" y="476.8948" clip-path="url(#clipPath2)" fill="rgb(235,235,235)" width="889.9416" height="38.9219" stroke="none"/>
    </g>
    <g font-size="15px" stroke-linecap="butt" transform="matrix(1,0,0,1,-376,-123)" text-rendering="geometricPrecision" font-family="sans-serif" shape-rendering="geometricPrecision" stroke-miterlimit="1.45">
      <text x="557.7273" xml:space="preserve" y="492.8181" clip-path="url(#clipPath2)" stroke="none">Recursively iterate through all folders and their files in the root directory, </text>
      <text x="570.7571" xml:space="preserve" y="510.2791" clip-path="url(#clipPath2)" stroke="none">parse its contents, and return a new list of parsed top-level directories</text>
      <rect x="391.0292" y="476.8948" clip-path="url(#clipPath2)" fill="none" width="889.9416" stroke-dasharray="6,2" rx="4" ry="4" height="924.3571"/>
    </g>
    <g fill="rgb(255,204,0)" text-rendering="geometricPrecision" shape-rendering="geometricPrecision" transform="matrix(1,0,0,1,-376,-123)" stroke="rgb(255,204,0)">
      <rect x="700.7143" width="179.873" height="37" y="631.8167" clip-path="url(#clipPath2)" stroke="none"/>
    </g>
    <g text-rendering="geometricPrecision" stroke-miterlimit="1.45" shape-rendering="geometricPrecision" transform="matrix(1,0,0,1,-376,-123)" stroke-linecap="butt">
      <rect fill="none" x="700.7143" width="179.873" height="37" y="631.8167" clip-path="url(#clipPath2)"/>
      <text x="707.7142" xml:space="preserve" y="654.4709" clip-path="url(#clipPath2)" font-family="sans-serif" stroke="none">traverse a directory's paths</text>
    </g>
    <g fill="rgb(255,204,0)" text-rendering="geometricPrecision" shape-rendering="geometricPrecision" transform="matrix(1,0,0,1,-376,-123)" stroke="rgb(255,204,0)">
      <path d="M701.615 848.9237 L790.6508 816.4237 L879.6866 848.9237 L790.6508 881.4237 Z" fill-rule="evenodd" clip-path="url(#clipPath2)" stroke="none"/>
    </g>
    <g text-rendering="geometricPrecision" stroke-miterlimit="1.45" shape-rendering="geometricPrecision" transform="matrix(1,0,0,1,-376,-123)" stroke-linecap="butt">
      <path fill="none" d="M701.615 848.9237 L790.6508 816.4237 L879.6866 848.9237 L790.6508 881.4237 Z" fill-rule="evenodd" clip-path="url(#clipPath2)"/>
      <text x="724.1176" xml:space="preserve" y="853.0781" clip-path="url(#clipPath2)" font-family="sans-serif" stroke="none">Should it be included?</text>
      <path fill="none" d="M1000.6382 1401.278 L1031.3207 1487.4158" clip-path="url(#clipPath2)"/>
      <path d="M1034.005 1494.952 L1034.6886 1481.97 L1030.9851 1486.4738 L1025.2683 1485.3254 Z" clip-path="url(#clipPath2)" stroke="none"/>
      <path fill="none" d="M734.6763 1401.278 L716.9066 1482.3375" clip-path="url(#clipPath2)"/>
      <path d="M715.1935 1490.152 L722.6471 1479.501 L717.1207 1481.3607 L712.8791 1477.3596 Z" clip-path="url(#clipPath2)" stroke="none"/>
    </g>
    <g fill="rgb(225,225,225)" text-rendering="geometricPrecision" shape-rendering="geometricPrecision" transform="matrix(1,0,0,1,-376,-123)" stroke="rgb(225,225,225)">
      <rect x="515.4177" y="944.5853" clip-path="url(#clipPath2)" width="550.4662" rx="4" ry="4" height="441.6667" stroke="none"/>
      <rect x="515.4177" y="944.5853" clip-path="url(#clipPath2)" fill="rgb(235,235,235)" width="550.4662" height="21.4609" stroke="none"/>
    </g>
    <g font-size="15px" stroke-linecap="butt" transform="matrix(1,0,0,1,-376,-123)" text-rendering="geometricPrecision" font-family="sans-serif" shape-rendering="geometricPrecision" stroke-miterlimit="1.45">
      <text x="603.5609" xml:space="preserve" y="960.5086" clip-path="url(#clipPath2)" stroke="none">parse the file for headers using its specific format</text>
      <rect x="515.4177" y="944.5853" clip-path="url(#clipPath2)" fill="none" width="550.4662" stroke-dasharray="6,2" rx="4" ry="4" height="441.6667"/>
    </g>
    <g fill="rgb(255,204,0)" text-rendering="geometricPrecision" shape-rendering="geometricPrecision" transform="matrix(1,0,0,1,-376,-123)" stroke="rgb(255,204,0)">
      <rect x="813.3809" width="128.9375" height="37" y="1080.3536" clip-path="url(#clipPath2)" stroke="none"/>
    </g>
    <g text-rendering="geometricPrecision" stroke-miterlimit="1.45" shape-rendering="geometricPrecision" transform="matrix(1,0,0,1,-376,-123)" stroke-linecap="butt">
      <rect fill="none" x="813.3809" width="128.9375" height="37" y="1080.3536" clip-path="url(#clipPath2)"/>
      <text x="820.3809" xml:space="preserve" y="1103.0079" clip-path="url(#clipPath2)" font-family="sans-serif" stroke="none">read file's contents</text>
    </g>
    <g fill="rgb(255,204,0)" text-rendering="geometricPrecision" shape-rendering="geometricPrecision" transform="matrix(1,0,0,1,-376,-123)" stroke="rgb(255,204,0)">
      <rect x="704.8155" width="346.0684" height="37" y="1151.0009" clip-path="url(#clipPath2)" stroke="none"/>
    </g>
    <g text-rendering="geometricPrecision" stroke-miterlimit="1.45" shape-rendering="geometricPrecision" transform="matrix(1,0,0,1,-376,-123)" stroke-linecap="butt">
      <rect fill="none" x="704.8155" width="346.0684" height="37" y="1151.0009" clip-path="url(#clipPath2)"/>
      <text x="728.7344" xml:space="preserve" y="1166.6708" clip-path="url(#clipPath2)" font-family="sans-serif" stroke="none">Use parser to determine what headers are before</text>
      <text x="711.8155" xml:space="preserve" y="1180.6395" clip-path="url(#clipPath2)" font-family="sans-serif" stroke="none">turning them into a Tree of `GenHeaderLink` instances</text>
    </g>
    <g fill="rgb(255,204,0)" text-rendering="geometricPrecision" shape-rendering="geometricPrecision" transform="matrix(1,0,0,1,-376,-123)" stroke="rgb(255,204,0)">
      <rect x="671.489" width="128.4453" height="37" y="1318.2519" clip-path="url(#clipPath2)" stroke="none"/>
    </g>
    <g text-rendering="geometricPrecision" stroke-miterlimit="1.45" shape-rendering="geometricPrecision" transform="matrix(1,0,0,1,-376,-123)" stroke-linecap="butt">
      <rect fill="none" x="671.489" width="128.4453" height="37" y="1318.2519" clip-path="url(#clipPath2)"/>
      <text x="678.489" xml:space="preserve" y="1340.9062" clip-path="url(#clipPath2)" font-family="sans-serif" stroke="none">return back the list</text>
    </g>
    <g fill="rgb(255,204,0)" text-rendering="geometricPrecision" shape-rendering="geometricPrecision" transform="matrix(1,0,0,1,-376,-123)" stroke="rgb(255,204,0)">
      <rect x="530.4177" width="168.5879" height="37" y="985.4159" clip-path="url(#clipPath2)" stroke="none"/>
    </g>
    <g text-rendering="geometricPrecision" stroke-miterlimit="1.45" shape-rendering="geometricPrecision" transform="matrix(1,0,0,1,-376,-123)" stroke-linecap="butt">
      <rect fill="none" x="530.4177" width="168.5879" height="37" y="985.4159" clip-path="url(#clipPath2)"/>
      <text x="537.4177" xml:space="preserve" y="1008.0702" clip-path="url(#clipPath2)" font-family="sans-serif" stroke="none">Check the file's extension</text>
    </g>
    <g fill="rgb(255,204,0)" text-rendering="geometricPrecision" shape-rendering="geometricPrecision" transform="matrix(1,0,0,1,-376,-123)" stroke="rgb(255,204,0)">
      <path d="M565.5665 1098.8536 L614.7117 1058.5597 L663.8569 1098.8536 L614.7117 1139.1475 Z" fill-rule="evenodd" clip-path="url(#clipPath2)" stroke="none"/>
    </g>
    <g text-rendering="geometricPrecision" stroke-miterlimit="1.45" shape-rendering="geometricPrecision" transform="matrix(1,0,0,1,-376,-123)" stroke-linecap="butt">
      <path fill="none" d="M565.5665 1098.8536 L614.7117 1058.5597 L663.8569 1098.8536 L614.7117 1139.1475 Z" fill-rule="evenodd" clip-path="url(#clipPath2)"/>
      <text x="586.3171" xml:space="preserve" y="1096.0236" clip-path="url(#clipPath2)" font-family="sans-serif" stroke="none">Should it </text>
      <text x="581.5417" xml:space="preserve" y="1109.9923" clip-path="url(#clipPath2)" font-family="sans-serif" stroke="none">be parsed?</text>
    </g>
    <g fill="rgb(255,204,0)" text-rendering="geometricPrecision" shape-rendering="geometricPrecision" transform="matrix(1,0,0,1,-376,-123)" stroke="rgb(255,204,0)">
      <rect x="701.7019" width="311.8613" height="37" y="1229.4058" clip-path="url(#clipPath2)" stroke="none"/>
    </g>
    <g text-rendering="geometricPrecision" stroke-miterlimit="1.45" shape-rendering="geometricPrecision" transform="matrix(1,0,0,1,-376,-123)" stroke-linecap="butt">
      <rect fill="none" x="701.7019" width="311.8613" height="37" y="1229.4058" clip-path="url(#clipPath2)"/>
      <text x="708.7018" xml:space="preserve" y="1252.0601" clip-path="url(#clipPath2)" font-family="sans-serif" stroke="none">Put all level 2 GenHeaderLink instances into a list</text>
    </g>
    <g fill="rgb(255,204,0)" text-rendering="geometricPrecision" shape-rendering="geometricPrecision" transform="matrix(1,0,0,1,-376,-123)" stroke="rgb(255,204,0)">
      <rect x="546.3816" width="136.6602" height="37" y="1229.4058" clip-path="url(#clipPath2)" stroke="none"/>
    </g>
    <g text-rendering="geometricPrecision" stroke-miterlimit="1.45" shape-rendering="geometricPrecision" transform="matrix(1,0,0,1,-376,-123)" stroke-linecap="butt">
      <rect fill="none" x="546.3816" width="136.6602" height="37" y="1229.4058" clip-path="url(#clipPath2)"/>
      <text x="553.3815" xml:space="preserve" y="1252.0601" clip-path="url(#clipPath2)" font-family="sans-serif" stroke="none">Create an empty list</text>
    </g>
    <g fill="rgb(255,204,0)" text-rendering="geometricPrecision" shape-rendering="geometricPrecision" transform="matrix(1,0,0,1,-376,-123)" stroke="rgb(255,204,0)">
      <rect x="447.8759" width="113.0762" height="37" y="830.4237" clip-path="url(#clipPath2)" stroke="none"/>
    </g>
    <g text-rendering="geometricPrecision" stroke-miterlimit="1.45" shape-rendering="geometricPrecision" transform="matrix(1,0,0,1,-376,-123)" stroke-linecap="butt">
      <rect fill="none" x="447.8759" width="113.0762" height="37" y="830.4237" clip-path="url(#clipPath2)"/>
      <text x="454.8759" xml:space="preserve" y="853.0781" clip-path="url(#clipPath2)" font-family="sans-serif" stroke="none">Ignore/Skip path</text>
    </g>
    <g fill="rgb(255,204,0)" text-rendering="geometricPrecision" shape-rendering="geometricPrecision" transform="matrix(1,0,0,1,-376,-123)" stroke="rgb(255,204,0)">
      <path d="M726.9965 740.0597 L790.6508 718.5597 L854.3051 740.0597 L790.6508 761.5597 Z" fill-rule="evenodd" clip-path="url(#clipPath2)" stroke="none"/>
    </g>
    <g text-rendering="geometricPrecision" stroke-miterlimit="1.45" shape-rendering="geometricPrecision" transform="matrix(1,0,0,1,-376,-123)" stroke-linecap="butt">
      <path fill="none" d="M726.9965 740.0597 L790.6508 718.5597 L854.3051 740.0597 L790.6508 761.5597 Z" fill-rule="evenodd" clip-path="url(#clipPath2)"/>
      <text x="750.4965" xml:space="preserve" y="744.2141" clip-path="url(#clipPath2)" font-family="sans-serif" stroke="none">is path a file?</text>
    </g>
    <g fill="rgb(255,204,0)" text-rendering="geometricPrecision" shape-rendering="geometricPrecision" transform="matrix(1,0,0,1,-376,-123)" stroke="rgb(255,204,0)">
      <path d="M406.03 740.0596 L504.4146 700.6315 L602.7991 740.0596 L504.4146 779.4878 Z" fill-rule="evenodd" clip-path="url(#clipPath2)" stroke="none"/>
    </g>
    <g text-rendering="geometricPrecision" stroke-miterlimit="1.45" shape-rendering="geometricPrecision" transform="matrix(1,0,0,1,-376,-123)" stroke-linecap="butt">
      <path fill="none" d="M406.03 740.0596 L504.4146 700.6315 L602.7991 740.0596 L504.4146 779.4878 Z" fill-rule="evenodd" clip-path="url(#clipPath2)"/>
      <text x="443.2187" xml:space="preserve" y="737.2297" clip-path="url(#clipPath2)" font-family="sans-serif" stroke="none">Should the directory</text>
      <text x="466.2753" xml:space="preserve" y="751.1984" clip-path="url(#clipPath2)" font-family="sans-serif" stroke="none">be included?</text>
    </g>
    <g fill="rgb(255,204,0)" text-rendering="geometricPrecision" shape-rendering="geometricPrecision" transform="matrix(1,0,0,1,-376,-123)" stroke="rgb(255,204,0)">
      <rect x="696.2494" width="188.8027" height="37" y="557.3401" clip-path="url(#clipPath2)" stroke="none"/>
    </g>
    <g text-rendering="geometricPrecision" stroke-miterlimit="1.45" shape-rendering="geometricPrecision" transform="matrix(1,0,0,1,-376,-123)" stroke-linecap="butt">
      <rect fill="none" x="696.2494" width="188.8027" height="37" y="557.3401" clip-path="url(#clipPath2)"/>
      <text x="703.2494" xml:space="preserve" y="579.9944" clip-path="url(#clipPath2)" font-family="sans-serif" stroke="none">for each top-level directory...</text>
    </g>
    <g fill="rgb(255,204,0)" text-rendering="geometricPrecision" shape-rendering="geometricPrecision" transform="matrix(1,0,0,1,-376,-123)" stroke="rgb(255,204,0)">
      <rect x="682.4863" width="307.0273" height="30" y="385.6016" clip-path="url(#clipPath2)" stroke="none"/>
    </g>
    <g text-rendering="geometricPrecision" stroke-miterlimit="1.45" shape-rendering="geometricPrecision" transform="matrix(1,0,0,1,-376,-123)" stroke-linecap="butt">
      <rect fill="none" x="682.4863" width="307.0273" height="30" y="385.6016" clip-path="url(#clipPath2)"/>
      <text x="689.4863" xml:space="preserve" y="404.7559" clip-path="url(#clipPath2)" font-family="sans-serif" stroke="none">Get the top-level directories in the root directory</text>
      <path fill="none" d="M790.6508 881.4155 L790.6508 936.6158" clip-path="url(#clipPath2)"/>
      <path d="M790.6508 944.6158 L795.6508 932.6158 L790.6508 935.6158 L785.6508 932.6158 Z" clip-path="url(#clipPath2)" stroke="none"/>
      <text x="765.6859" xml:space="preserve" y="917.1588" clip-path="url(#clipPath2)" font-family="sans-serif" stroke="none">Yes</text>
      <path fill="none" d="M877.8497 1117.3536 L877.8497 1143.0009" clip-path="url(#clipPath2)"/>
      <path d="M877.8497 1151.0009 L882.8497 1139.0009 L877.8497 1142.0009 L872.8497 1139.0009 Z" clip-path="url(#clipPath2)" stroke="none"/>
      <path fill="none" d="M614.7116 1022.4159 L614.7116 1050.582" clip-path="url(#clipPath2)"/>
      <path d="M614.7116 1058.582 L619.7116 1046.582 L614.7116 1049.582 L609.7116 1046.582 Z" clip-path="url(#clipPath2)" stroke="none"/>
      <path fill="none" d="M663.8252 1098.8536 L805.3809 1098.8536" clip-path="url(#clipPath2)"/>
      <path d="M813.3809 1098.8536 L801.3809 1093.8536 L804.3809 1098.8536 L801.3809 1103.8536 Z" clip-path="url(#clipPath2)" stroke="none"/>
      <text x="728.1365" xml:space="preserve" y="1092.0236" clip-path="url(#clipPath2)" font-family="sans-serif" stroke="none">Yes</text>
      <path fill="none" d="M832.2455 1266.4058 L767.5641 1313.5404" clip-path="url(#clipPath2)"/>
      <path d="M761.0987 1318.252 L773.7415 1315.2256 L768.3723 1312.9515 L767.8521 1307.1438 Z" clip-path="url(#clipPath2)" stroke="none"/>
      <path fill="none" d="M614.7116 1139.137 L614.7116 1221.4058" clip-path="url(#clipPath2)"/>
      <path d="M614.7116 1229.4058 L619.7116 1217.4058 L614.7116 1220.4058 L609.7116 1217.4058 Z" clip-path="url(#clipPath2)" stroke="none"/>
      <path fill="none" d="M639.9069 1266.4058 L704.068 1313.5171" clip-path="url(#clipPath2)"/>
      <path d="M710.5164 1318.252 L703.803 1307.1195 L703.262 1312.9253 L697.8845 1315.1799 Z" clip-path="url(#clipPath2)" stroke="none"/>
      <path fill="none" d="M701.5861 848.9238 L568.9521 848.9238" clip-path="url(#clipPath2)"/>
      <path d="M560.9521 848.9238 L572.9521 853.9238 L569.9521 848.9238 L572.9521 843.9238 Z" clip-path="url(#clipPath2)" stroke="none"/>
      <text x="623.1243" xml:space="preserve" y="842.0937" clip-path="url(#clipPath2)" font-family="sans-serif" stroke="none">No</text>
      <path fill="none" d="M790.6508 668.8167 L790.6508 710.5268" clip-path="url(#clipPath2)"/>
      <path d="M790.6508 718.5268 L795.6508 706.5268 L790.6508 709.5268 L785.6508 706.5268 Z" clip-path="url(#clipPath2)" stroke="none"/>
      <path fill="none" d="M1065.8728 1165.4186 L1112.8773 1165.4186 L1112.8773 740.0598 L862.333 740.0598" clip-path="url(#clipPath2)"/>
      <path d="M854.333 740.0598 L866.333 745.0598 L863.333 740.0598 L866.333 735.0598 Z" clip-path="url(#clipPath2)" stroke="none"/>
      <text x="1116.8773" xml:space="preserve" y="956.8935" clip-path="url(#clipPath2)" font-family="sans-serif" stroke="none">continue on to next path</text>
      <path fill="none" d="M790.6508 761.5615 L790.6508 808.4615" clip-path="url(#clipPath2)"/>
      <path d="M790.6508 816.4615 L795.6508 804.4615 L790.6508 807.4615 L785.6508 804.4615 Z" clip-path="url(#clipPath2)" stroke="none"/>
      <text x="765.6859" xml:space="preserve" y="793.1461" clip-path="url(#clipPath2)" font-family="sans-serif" stroke="none">Yes</text>
      <path fill="none" d="M727.0232 740.0598 L610.8109 740.0598" clip-path="url(#clipPath2)"/>
      <path d="M602.8109 740.0598 L614.8109 745.0598 L611.8109 740.0598 L614.8109 735.0598 Z" clip-path="url(#clipPath2)" stroke="none"/>
      <text x="656.7385" xml:space="preserve" y="733.2297" clip-path="url(#clipPath2)" font-family="sans-serif" stroke="none">No</text>
      <path fill="none" d="M504.414 700.6657 L504.414 650.3167 L692.7142 650.3167" clip-path="url(#clipPath2)"/>
      <path d="M700.7142 650.3167 L688.7142 645.3167 L691.7142 650.3167 L688.7142 655.3167 Z" clip-path="url(#clipPath2)" stroke="none"/>
      <text x="587.5192" xml:space="preserve" y="643.4866" clip-path="url(#clipPath2)" font-family="sans-serif" stroke="none">Yes</text>
      <path fill="none" d="M504.414 779.4751 L504.414 822.4238" clip-path="url(#clipPath2)"/>
      <path d="M504.414 830.4238 L509.414 818.4238 L504.414 821.4238 L499.414 818.4238 Z" clip-path="url(#clipPath2)" stroke="none"/>
      <text x="484.0956" xml:space="preserve" y="809.1101" clip-path="url(#clipPath2)" font-family="sans-serif" stroke="none">No</text>
      <path fill="none" d="M790.6508 594.3401 L790.6508 623.8167" clip-path="url(#clipPath2)"/>
      <path d="M790.6508 631.8167 L795.6508 619.8167 L790.6508 622.8167 L785.6508 619.8167 Z" clip-path="url(#clipPath2)" stroke="none"/>
      <path fill="none" d="M836 318.664 L836 377.6016" clip-path="url(#clipPath2)"/>
      <path d="M836 385.6016 L841 373.6016 L836 376.6016 L831 373.6016 Z" clip-path="url(#clipPath2)" stroke="none"/>
      <path fill="none" d="M836 415.6016 L836 468.914" clip-path="url(#clipPath2)"/>
      <path d="M836 476.914 L841 464.914 L836 467.914 L831 464.914 Z" clip-path="url(#clipPath2)" stroke="none"/>
    </g>
  </g>
</svg>
