<?xml version="1.0" encoding="UTF-8"?><svg xmlns="http://www.w3.org/2000/svg" xmlns:xlink="http://www.w3.org/1999/xlink" fill-opacity="1" color-rendering="auto" color-interpolation="auto" text-rendering="auto" stroke="black" stroke-linecap="square" width="938" stroke-miterlimit="10" shape-rendering="auto" stroke-opacity="1" fill="black" stroke-dasharray="none" font-weight="normal" stroke-width="1" height="1101" font-family="'Dialog'" font-style="normal" stroke-linejoin="miter" font-size="12px" stroke-dashoffset="0" image-rendering="auto">
  <!--Generated by ySVG 2.5-->
  <defs id="genericDefs"/>
  <g>
    <defs id="defs1">
      <clipPath clipPathUnits="userSpaceOnUse" id="clipPath1">
        <path d="M0 0 L938 0 L938 1101 L0 1101 L0 0 Z"/>
      </clipPath>
      <clipPath clipPathUnits="userSpaceOnUse" id="clipPath2">
        <path d="M-5 -35 L933 -35 L933 1066 L-5 1066 L-5 -35 Z"/>
      </clipPath>
    </defs>
    <g fill="white" text-rendering="geometricPrecision" shape-rendering="geometricPrecision" transform="translate(5,35)" stroke="white">
      <rect x="-5" width="938" height="1101" y="-35" clip-path="url(#clipPath2)" stroke="none"/>
    </g>
    <g fill="rgb(245,245,245)" text-rendering="geometricPrecision" shape-rendering="geometricPrecision" transform="matrix(1,0,0,1,5,35)" stroke="rgb(245,245,245)">
      <rect x="15.3005" y="113.3284" clip-path="url(#clipPath2)" width="126.0605" rx="4" ry="4" height="86.7824" stroke="none"/>
      <rect x="15.3005" y="113.3284" clip-path="url(#clipPath2)" fill="rgb(235,235,235)" width="126.0605" height="21.4609" stroke="none"/>
    </g>
    <g font-size="15px" stroke-linecap="butt" transform="matrix(1,0,0,1,5,35)" text-rendering="geometricPrecision" font-family="sans-serif" shape-rendering="geometricPrecision" stroke-miterlimit="1.45">
      <text x="52.3407" xml:space="preserve" y="129.2517" clip-path="url(#clipPath2)" stroke="none">GitHub</text>
      <rect x="15.3005" y="113.3284" clip-path="url(#clipPath2)" fill="none" width="126.0605" stroke-dasharray="6,2" rx="4" ry="4" height="86.7824"/>
    </g>
    <g fill="rgb(255,204,0)" text-rendering="geometricPrecision" shape-rendering="geometricPrecision" transform="matrix(1,0,0,1,5,35)" stroke="rgb(255,204,0)">
      <rect x="30.3005" width="96.0605" height="30" y="150.7581" clip-path="url(#clipPath2)" stroke="none"/>
    </g>
    <g text-rendering="geometricPrecision" stroke-miterlimit="1.45" shape-rendering="geometricPrecision" transform="matrix(1,0,0,1,5,35)" stroke-linecap="butt">
      <rect fill="none" x="30.3005" width="96.0605" height="30" y="150.7581" clip-path="url(#clipPath2)"/>
      <text x="37.3005" xml:space="preserve" y="162.928" clip-path="url(#clipPath2)" font-family="sans-serif" stroke="none">package-set </text>
      <text x="47.859" xml:space="preserve" y="176.8967" clip-path="url(#clipPath2)" font-family="sans-serif" stroke="none">repository</text>
    </g>
    <g fill="rgb(245,245,245)" text-rendering="geometricPrecision" shape-rendering="geometricPrecision" transform="matrix(1,0,0,1,5,35)" stroke="rgb(245,245,245)">
      <rect x="290.2705" y="-19.595" clip-path="url(#clipPath2)" width="627.0092" rx="4" ry="4" height="1070.3841" stroke="none"/>
      <rect x="290.2705" y="-19.595" clip-path="url(#clipPath2)" fill="rgb(235,235,235)" width="627.0092" height="21.4609" stroke="none"/>
    </g>
    <g font-size="15px" stroke-linecap="butt" transform="matrix(1,0,0,1,5,35)" text-rendering="geometricPrecision" font-family="sans-serif" shape-rendering="geometricPrecision" stroke-miterlimit="1.45">
      <text x="566.4911" xml:space="preserve" y="-3.6717" clip-path="url(#clipPath2)" stroke="none">Computer</text>
      <rect x="290.2705" y="-19.595" clip-path="url(#clipPath2)" fill="none" width="627.0092" stroke-dasharray="6,2" rx="4" ry="4" height="1070.3841"/>
    </g>
    <g fill="rgb(225,225,225)" text-rendering="geometricPrecision" shape-rendering="geometricPrecision" transform="matrix(1,0,0,1,5,35)" stroke="rgb(225,225,225)">
      <rect x="305.2705" y="16.8659" clip-path="url(#clipPath2)" width="597.0092" rx="4" ry="4" height="903.4622" stroke="none"/>
      <rect x="305.2705" y="16.8659" clip-path="url(#clipPath2)" fill="rgb(235,235,235)" width="597.0092" height="21.4609" stroke="none"/>
    </g>
    <g font-size="15px" stroke-linecap="butt" transform="matrix(1,0,0,1,5,35)" text-rendering="geometricPrecision" font-family="sans-serif" shape-rendering="geometricPrecision" stroke-miterlimit="1.45">
      <text x="507.5056" xml:space="preserve" y="32.7893" clip-path="url(#clipPath2)" stroke="none">Project A's Root Directory</text>
      <rect x="305.2705" y="16.8659" clip-path="url(#clipPath2)" fill="none" width="597.0092" stroke-dasharray="6,2" rx="4" ry="4" height="903.4622"/>
    </g>
    <g fill="rgb(205,205,205)" text-rendering="geometricPrecision" shape-rendering="geometricPrecision" transform="matrix(1,0,0,1,5,35)" stroke="rgb(205,205,205)">
      <rect x="367.459" y="536.8867" clip-path="url(#clipPath2)" width="178" rx="4" ry="4" height="246.9219" stroke="none"/>
      <rect x="367.459" y="536.8867" clip-path="url(#clipPath2)" fill="rgb(235,235,235)" width="178" height="38.9219" stroke="none"/>
    </g>
    <g font-size="15px" stroke-linecap="butt" transform="matrix(1,0,0,1,5,35)" text-rendering="geometricPrecision" font-family="sans-serif" shape-rendering="geometricPrecision" stroke-miterlimit="1.45">
      <text x="415.48" xml:space="preserve" y="552.8101" clip-path="url(#clipPath2)" stroke="none">Local Copy</text>
      <text x="379.4814" xml:space="preserve" y="570.271" clip-path="url(#clipPath2)" stroke="none">(`.spago/` directory)</text>
      <rect x="367.459" y="536.8867" clip-path="url(#clipPath2)" fill="none" width="178" stroke-dasharray="6,2" rx="4" ry="4" height="246.9219"/>
    </g>
    <g fill="rgb(255,204,0)" text-rendering="geometricPrecision" shape-rendering="geometricPrecision" transform="matrix(1,0,0,1,5,35)" stroke="rgb(255,204,0)">
      <rect x="414.2168" width="74.9434" height="30" y="638.8086" clip-path="url(#clipPath2)" stroke="none"/>
    </g>
    <g text-rendering="geometricPrecision" stroke-miterlimit="1.45" shape-rendering="geometricPrecision" transform="matrix(1,0,0,1,5,35)" stroke-linecap="butt">
      <rect fill="none" x="414.2168" width="74.9434" height="30" y="638.8086" clip-path="url(#clipPath2)"/>
      <text x="421.2168" xml:space="preserve" y="657.9629" clip-path="url(#clipPath2)" font-family="sans-serif" stroke="none">repository</text>
    </g>
    <g fill="rgb(255,204,0)" text-rendering="geometricPrecision" shape-rendering="geometricPrecision" transform="matrix(1,0,0,1,5,35)" stroke="rgb(255,204,0)">
      <rect x="414.2168" width="74.9434" height="30" y="590.8086" clip-path="url(#clipPath2)" stroke="none"/>
    </g>
    <g text-rendering="geometricPrecision" stroke-miterlimit="1.45" shape-rendering="geometricPrecision" transform="matrix(1,0,0,1,5,35)" stroke-linecap="butt">
      <rect fill="none" x="414.2168" width="74.9434" height="30" y="590.8086" clip-path="url(#clipPath2)"/>
      <text x="421.2168" xml:space="preserve" y="609.9629" clip-path="url(#clipPath2)" font-family="sans-serif" stroke="none">repository</text>
    </g>
    <g fill="rgb(255,204,0)" text-rendering="geometricPrecision" shape-rendering="geometricPrecision" transform="matrix(1,0,0,1,5,35)" stroke="rgb(255,204,0)">
      <rect x="414.2168" width="74.9434" height="30" y="688.8086" clip-path="url(#clipPath2)" stroke="none"/>
    </g>
    <g text-rendering="geometricPrecision" stroke-miterlimit="1.45" shape-rendering="geometricPrecision" transform="matrix(1,0,0,1,5,35)" stroke-linecap="butt">
      <rect fill="none" x="414.2168" width="74.9434" height="30" y="688.8086" clip-path="url(#clipPath2)"/>
      <text x="421.2168" xml:space="preserve" y="707.9629" clip-path="url(#clipPath2)" font-family="sans-serif" stroke="none">repository</text>
    </g>
    <g fill="rgb(255,204,0)" text-rendering="geometricPrecision" shape-rendering="geometricPrecision" transform="matrix(1,0,0,1,5,35)" stroke="rgb(255,204,0)">
      <rect x="414.2168" width="74.9434" height="30" y="738.8086" clip-path="url(#clipPath2)" stroke="none"/>
    </g>
    <g text-rendering="geometricPrecision" stroke-miterlimit="1.45" shape-rendering="geometricPrecision" transform="matrix(1,0,0,1,5,35)" stroke-linecap="butt">
      <rect fill="none" x="414.2168" width="74.9434" height="30" y="738.8086" clip-path="url(#clipPath2)"/>
      <text x="421.2168" xml:space="preserve" y="757.9629" clip-path="url(#clipPath2)" font-family="sans-serif" stroke="none">repository</text>
    </g>
    <g fill="rgb(255,204,0)" text-rendering="geometricPrecision" shape-rendering="geometricPrecision" transform="matrix(1,0,0,1,5,35)" stroke="rgb(255,204,0)">
      <rect x="618.7247" width="53.5801" height="30" y="660.4086" clip-path="url(#clipPath2)" stroke="none"/>
    </g>
    <g text-rendering="geometricPrecision" stroke-miterlimit="1.45" shape-rendering="geometricPrecision" transform="matrix(1,0,0,1,5,35)" stroke-linecap="butt">
      <rect fill="none" x="618.7247" width="53.5801" height="30" y="660.4086" clip-path="url(#clipPath2)"/>
      <text x="625.7247" xml:space="preserve" y="679.5629" clip-path="url(#clipPath2)" font-family="sans-serif" stroke="none">output</text>
    </g>
    <g fill="rgb(255,204,0)" text-rendering="geometricPrecision" shape-rendering="geometricPrecision" transform="matrix(1,0,0,1,5,35)" stroke="rgb(255,204,0)">
      <rect x="370.5653" width="83.2402" height="30" y="446.8286" clip-path="url(#clipPath2)" stroke="none"/>
    </g>
    <g text-rendering="geometricPrecision" stroke-miterlimit="1.45" shape-rendering="geometricPrecision" transform="matrix(1,0,0,1,5,35)" stroke-linecap="butt">
      <rect fill="none" x="370.5653" width="83.2402" height="30" y="446.8286" clip-path="url(#clipPath2)"/>
      <text x="377.5653" xml:space="preserve" y="465.9829" clip-path="url(#clipPath2)" font-family="sans-serif" stroke="none">spago.dhall</text>
    </g>
    <g fill="rgb(255,204,0)" text-rendering="geometricPrecision" shape-rendering="geometricPrecision" transform="matrix(1,0,0,1,5,35)" stroke="rgb(255,204,0)">
      <rect x="382.459" width="138.459" height="30" y="814.3594" clip-path="url(#clipPath2)" stroke="none"/>
    </g>
    <g text-rendering="geometricPrecision" stroke-miterlimit="1.45" shape-rendering="geometricPrecision" transform="matrix(1,0,0,1,5,35)" stroke-linecap="butt">
      <rect fill="none" x="382.459" width="138.459" height="30" y="814.3594" clip-path="url(#clipPath2)"/>
      <text x="398.1689" xml:space="preserve" y="826.5293" clip-path="url(#clipPath2)" font-family="sans-serif" stroke="none">Your Source Code</text>
      <text x="389.459" xml:space="preserve" y="840.498" clip-path="url(#clipPath2)" font-family="sans-serif" stroke="none">(the `src/` directory)</text>
    </g>
    <g fill="rgb(255,204,0)" text-rendering="geometricPrecision" shape-rendering="geometricPrecision" transform="matrix(1,0,0,1,5,35)" stroke="rgb(255,204,0)">
      <rect x="382.459" width="160.0742" height="30" y="874.3594" clip-path="url(#clipPath2)" stroke="none"/>
    </g>
    <g text-rendering="geometricPrecision" stroke-miterlimit="1.45" shape-rendering="geometricPrecision" transform="matrix(1,0,0,1,5,35)" stroke-linecap="butt">
      <rect fill="none" x="382.459" width="160.0742" height="30" y="874.3594" clip-path="url(#clipPath2)"/>
      <text x="389.459" xml:space="preserve" y="886.5293" clip-path="url(#clipPath2)" font-family="sans-serif" stroke="none">Your Test's Source Code</text>
      <text x="397.6357" xml:space="preserve" y="900.498" clip-path="url(#clipPath2)" font-family="sans-serif" stroke="none">(the `test/` directory)</text>
    </g>
    <g fill="rgb(255,204,0)" text-rendering="geometricPrecision" shape-rendering="geometricPrecision" transform="matrix(1,0,0,1,5,35)" stroke="rgb(255,204,0)">
      <rect x="597.4121" width="153.9453" height="30" y="727.3846" clip-path="url(#clipPath2)" stroke="none"/>
    </g>
    <g text-rendering="geometricPrecision" stroke-miterlimit="1.45" shape-rendering="geometricPrecision" transform="matrix(1,0,0,1,5,35)" stroke-linecap="butt">
      <rect fill="none" x="597.4121" width="153.9453" height="30" y="727.3846" clip-path="url(#clipPath2)"/>
      <text x="604.4121" xml:space="preserve" y="739.5545" clip-path="url(#clipPath2)" font-family="sans-serif" stroke="none">6a. Run the JS program</text>
      <text x="647.9238" xml:space="preserve" y="753.5233" clip-path="url(#clipPath2)" font-family="sans-serif" stroke="none">via Node</text>
    </g>
    <g fill="rgb(255,204,0)" text-rendering="geometricPrecision" shape-rendering="geometricPrecision" transform="matrix(1,0,0,1,5,35)" stroke="rgb(255,204,0)">
      <rect x="597.4121" width="179.1348" height="30" y="827.3798" clip-path="url(#clipPath2)" stroke="none"/>
    </g>
    <g text-rendering="geometricPrecision" stroke-miterlimit="1.45" shape-rendering="geometricPrecision" transform="matrix(1,0,0,1,5,35)" stroke-linecap="butt">
      <rect fill="none" x="597.4121" width="179.1348" height="30" y="827.3798" clip-path="url(#clipPath2)"/>
      <text x="604.4121" xml:space="preserve" y="839.5497" clip-path="url(#clipPath2)" font-family="sans-serif" stroke="none">6b. Use/Integrate the JS file</text>
      <text x="610.7695" xml:space="preserve" y="853.5185" clip-path="url(#clipPath2)" font-family="sans-serif" stroke="none">into your web application</text>
      <path fill="none" d="M489.1602 660.5503 L571.7456 675.4086 L610.7247 675.4086" clip-path="url(#clipPath2)"/>
      <path d="M618.7247 675.4086 L606.7247 670.4086 L609.7247 675.4086 L606.7247 680.4086 Z" clip-path="url(#clipPath2)" stroke="none"/>
      <path fill="none" d="M477.5629 620.8086 L571.7456 675.4086 L610.7247 675.4086" clip-path="url(#clipPath2)"/>
      <path d="M618.7247 675.4086 L606.7247 670.4086 L609.7247 675.4086 L606.7247 680.4086 Z" clip-path="url(#clipPath2)" stroke="none"/>
      <path fill="none" d="M489.1602 694.9445 L571.7456 675.4086 L610.7247 675.4086" clip-path="url(#clipPath2)"/>
      <path d="M618.7247 675.4086 L606.7247 670.4086 L609.7247 675.4086 L606.7247 680.4086 Z" clip-path="url(#clipPath2)" stroke="none"/>
      <text x="573.9611" xml:space="preserve" y="606.3561" clip-path="url(#clipPath2)" font-family="sans-serif" stroke="none">5. `spago` will use the </text>
      <text x="558.8907" xml:space="preserve" y="620.3249" clip-path="url(#clipPath2)" font-family="sans-serif" stroke="none">PureScript compiler (`purs`)</text>
      <text x="562.9425" xml:space="preserve" y="634.2936" clip-path="url(#clipPath2)" font-family="sans-serif" stroke="none">to compile all source code </text>
      <text x="584.7042" xml:space="preserve" y="648.2624" clip-path="url(#clipPath2)" font-family="sans-serif" stroke="none">into its final output.</text>
      <path fill="none" d="M474.6586 738.8086 L571.7456 675.4086 L610.7247 675.4086" clip-path="url(#clipPath2)"/>
      <path d="M618.7247 675.4086 L606.7247 670.4086 L609.7247 675.4086 L606.7247 680.4086 Z" clip-path="url(#clipPath2)" stroke="none"/>
      <path fill="none" d="M520.918 829.3594 L546.5584 829.3594 L571.7456 675.4086 L610.7247 675.4086" clip-path="url(#clipPath2)"/>
      <path d="M618.7247 675.4086 L606.7247 670.4086 L609.7247 675.4086 L606.7247 680.4086 Z" clip-path="url(#clipPath2)" stroke="none"/>
      <path fill="none" d="M542.5332 889.3594 L569.343 889.3594 L571.7456 675.4086 L610.7247 675.4086" clip-path="url(#clipPath2)"/>
      <path d="M618.7247 675.4086 L606.7247 670.4086 L609.7247 675.4086 L606.7247 680.4086 Z" clip-path="url(#clipPath2)" stroke="none"/>
      <path fill="none" d="M660.8412 690.4086 L674.3848 703.6635 L674.3848 719.3846" clip-path="url(#clipPath2)"/>
      <path d="M674.3848 727.3846 L679.3848 715.3846 L674.3848 718.3846 L669.3848 715.3846 Z" clip-path="url(#clipPath2)" stroke="none"/>
      <path fill="none" d="M672.3047 681.8281 L771.3574 705.5632 L771.3574 781.2 L686.9795 781.2 L686.9795 819.3798" clip-path="url(#clipPath2)"/>
      <path d="M686.9795 827.3798 L691.9795 815.3798 L686.9795 818.3798 L681.9795 815.3798 Z" clip-path="url(#clipPath2)" stroke="none"/>
    </g>
    <g fill="rgb(205,205,205)" text-rendering="geometricPrecision" shape-rendering="geometricPrecision" transform="matrix(1,0,0,1,5,35)" stroke="rgb(205,205,205)">
      <rect x="320.913" y="53.3269" clip-path="url(#clipPath2)" width="566.3667" rx="4" ry="4" height="298.5271" stroke="none"/>
      <rect x="320.913" y="53.3269" clip-path="url(#clipPath2)" fill="rgb(235,235,235)" width="566.3667" height="21.4609" stroke="none"/>
    </g>
    <g font-size="15px" stroke-linecap="butt" transform="matrix(1,0,0,1,5,35)" text-rendering="geometricPrecision" font-family="sans-serif" shape-rendering="geometricPrecision" stroke-miterlimit="1.45">
      <text x="446.3033" xml:space="preserve" y="69.2502" clip-path="url(#clipPath2)" stroke="none">Various states of the `packages.dhall` file</text>
      <rect x="320.913" y="53.3269" clip-path="url(#clipPath2)" fill="none" width="566.3667" stroke-dasharray="6,2" rx="4" ry="4" height="298.5271"/>
    </g>
    <g fill="rgb(255,204,0)" text-rendering="geometricPrecision" shape-rendering="geometricPrecision" transform="matrix(1,0,0,1,5,35)" stroke="rgb(255,204,0)">
      <path d="M340.049 165.7581 L412.1854 124.6753 L484.3218 165.7581 L412.1854 206.8409 Z" fill-rule="evenodd" clip-path="url(#clipPath2)" stroke="none"/>
    </g>
    <g text-rendering="geometricPrecision" stroke-miterlimit="1.45" shape-rendering="geometricPrecision" transform="matrix(1,0,0,1,5,35)" stroke-linecap="butt">
      <path fill="none" d="M340.049 165.7581 L412.1854 124.6753 L484.3218 165.7581 L412.1854 206.8409 Z" fill-rule="evenodd" clip-path="url(#clipPath2)"/>
      <text x="365.5829" xml:space="preserve" y="162.928" clip-path="url(#clipPath2)" font-family="sans-serif" stroke="none">Is configuration</text>
      <text x="386.5067" xml:space="preserve" y="176.8967" clip-path="url(#clipPath2)" font-family="sans-serif" stroke="none">needed?</text>
    </g>
    <g fill="rgb(255,204,0)" text-rendering="geometricPrecision" shape-rendering="geometricPrecision" transform="matrix(1,0,0,1,5,35)" stroke="rgb(255,204,0)">
      <rect x="343.6415" width="137.0879" height="43.2" y="293.654" clip-path="url(#clipPath2)" stroke="none"/>
    </g>
    <g text-rendering="geometricPrecision" stroke-miterlimit="1.45" shape-rendering="geometricPrecision" transform="matrix(1,0,0,1,5,35)" stroke-linecap="butt">
      <rect fill="none" x="343.6415" width="137.0879" height="43.2" y="293.654" clip-path="url(#clipPath2)"/>
      <text x="355.7098" xml:space="preserve" y="312.424" clip-path="url(#clipPath2)" font-family="sans-serif" stroke="none">Local Package Set </text>
      <text x="350.6415" xml:space="preserve" y="326.3927" clip-path="url(#clipPath2)" font-family="sans-serif" stroke="none">has been configured</text>
    </g>
    <g fill="rgb(255,204,0)" text-rendering="geometricPrecision" shape-rendering="geometricPrecision" transform="matrix(1,0,0,1,5,35)" stroke="rgb(255,204,0)">
      <rect x="615.3057" width="60.418" height="30.0305" y="240.6686" clip-path="url(#clipPath2)" stroke="none"/>
    </g>
    <g text-rendering="geometricPrecision" stroke-miterlimit="1.45" shape-rendering="geometricPrecision" transform="matrix(1,0,0,1,5,35)" stroke-linecap="butt">
      <rect fill="none" x="615.3057" width="60.418" height="30.0305" y="240.6686" clip-path="url(#clipPath2)"/>
      <text x="622.3057" xml:space="preserve" y="259.8381" clip-path="url(#clipPath2)" font-family="sans-serif" stroke="none">Verified</text>
    </g>
    <g fill="rgb(255,204,0)" text-rendering="geometricPrecision" shape-rendering="geometricPrecision" transform="matrix(1,0,0,1,5,35)" stroke="rgb(255,204,0)">
      <rect x="604.126" width="82.7773" height="56" y="137.7581" clip-path="url(#clipPath2)" stroke="none"/>
    </g>
    <g text-rendering="geometricPrecision" stroke-miterlimit="1.45" shape-rendering="geometricPrecision" transform="matrix(1,0,0,1,5,35)" stroke-linecap="butt">
      <rect fill="none" x="604.126" width="82.7773" height="56" y="137.7581" clip-path="url(#clipPath2)"/>
      <text x="616.0977" xml:space="preserve" y="162.928" clip-path="url(#clipPath2)" font-family="sans-serif" stroke="none">Modified, </text>
      <text x="611.126" xml:space="preserve" y="176.8967" clip-path="url(#clipPath2)" font-family="sans-serif" stroke="none">not verified</text>
      <path fill="none" d="M126.361 165.7581 L332.0664 165.7581" clip-path="url(#clipPath2)"/>
      <path d="M340.0664 165.7581 L328.0664 160.7581 L331.0664 165.7581 L328.0664 170.7581 Z" clip-path="url(#clipPath2)" stroke="none"/>
      <text x="154.4494" xml:space="preserve" y="191.0842" clip-path="url(#clipPath2)" font-family="sans-serif" stroke="none">1. Spago downloads </text>
      <text x="154.4494" xml:space="preserve" y="205.053" clip-path="url(#clipPath2)" font-family="sans-serif" stroke="none">the official </text>
      <text x="154.4494" xml:space="preserve" y="219.0217" clip-path="url(#clipPath2)" font-family="sans-serif" stroke="none">Dhall-based </text>
      <text x="154.4494" xml:space="preserve" y="232.9905" clip-path="url(#clipPath2)" font-family="sans-serif" stroke="none">package set</text>
      <text x="154.4494" xml:space="preserve" y="246.9592" clip-path="url(#clipPath2)" font-family="sans-serif" stroke="none">as a local copy.</text>
      <text x="154.4494" xml:space="preserve" y="260.928" clip-path="url(#clipPath2)" font-family="sans-serif" stroke="none"> </text>
      <text x="154.4494" xml:space="preserve" y="274.8968" clip-path="url(#clipPath2)" font-family="sans-serif" stroke="none">This is a list of </text>
      <text x="154.4494" xml:space="preserve" y="288.8655" clip-path="url(#clipPath2)" font-family="sans-serif" stroke="none">all the dependencies </text>
      <text x="154.4494" xml:space="preserve" y="302.8343" clip-path="url(#clipPath2)" font-family="sans-serif" stroke="none">that one could </text>
      <text x="154.4494" xml:space="preserve" y="316.803" clip-path="url(#clipPath2)" font-family="sans-serif" stroke="none">immediately install </text>
      <text x="154.4494" xml:space="preserve" y="330.7718" clip-path="url(#clipPath2)" font-family="sans-serif" stroke="none">without additional</text>
      <text x="154.4494" xml:space="preserve" y="344.7405" clip-path="url(#clipPath2)" font-family="sans-serif" stroke="none">configuration</text>
      <path fill="none" d="M412.1854 206.8374 L412.1854 285.6684" clip-path="url(#clipPath2)"/>
      <path d="M412.1854 293.6684 L417.1854 281.6684 L412.1854 284.6684 L407.1854 281.6684 Z" clip-path="url(#clipPath2)" stroke="none"/>
      <text x="374.0262" xml:space="preserve" y="224.9796" clip-path="url(#clipPath2)" font-family="sans-serif" stroke="none">No</text>
      <path fill="none" d="M412.1854 336.854 L412.1854 438.8286" clip-path="url(#clipPath2)"/>
      <path d="M412.1854 446.8286 L417.1854 434.8286 L412.1854 437.8286 L407.1854 434.8286 Z" clip-path="url(#clipPath2)" stroke="none"/>
      <text x="440.1847" xml:space="preserve" y="377.3919" clip-path="url(#clipPath2)" font-family="sans-serif" stroke="none">4a. Install specific dependencies from </text>
      <text x="440.1847" xml:space="preserve" y="391.3607" clip-path="url(#clipPath2)" font-family="sans-serif" stroke="none">the local package set's list of packages</text>
      <text x="440.1847" xml:space="preserve" y="405.3294" clip-path="url(#clipPath2)" font-family="sans-serif" stroke="none"> </text>
      <text x="440.1847" xml:space="preserve" y="419.2982" clip-path="url(#clipPath2)" font-family="sans-serif" stroke="none">This will modify the `spago.dhall` </text>
      <text x="440.1847" xml:space="preserve" y="433.2669" clip-path="url(#clipPath2)" font-family="sans-serif" stroke="none">file's "dependencies" list</text>
      <path fill="none" d="M615.3057 255.6838 L412.1854 255.6838 L412.1854 285.654" clip-path="url(#clipPath2)"/>
      <path d="M412.1854 293.654 L417.1854 281.654 L412.1854 284.654 L407.1854 281.654 Z" clip-path="url(#clipPath2)" stroke="none"/>
      <path fill="none" d="M484.3318 165.7581 L596.126 165.7581" clip-path="url(#clipPath2)"/>
      <path d="M604.126 165.7581 L592.126 160.7581 L595.126 165.7581 L592.126 170.7581 Z" clip-path="url(#clipPath2)" stroke="none"/>
      <text x="547.9102" xml:space="preserve" y="99.4663" clip-path="url(#clipPath2)" font-family="sans-serif" stroke="none">2a. Configure the package set:</text>
      <text x="547.9102" xml:space="preserve" y="113.4351" clip-path="url(#clipPath2)" font-family="sans-serif" stroke="none">- "patch"/"override" a dependency in the package set</text>
      <text x="547.9102" xml:space="preserve" y="127.4038" clip-path="url(#clipPath2)" font-family="sans-serif" stroke="none">- add packages (local or cloud) to the package set</text>
      <path fill="none" d="M484.3318 165.7581 L596.126 165.7581" clip-path="url(#clipPath2)"/>
      <path d="M604.126 165.7581 L592.126 160.7581 L595.126 165.7581 L592.126 170.7581 Z" clip-path="url(#clipPath2)" stroke="none"/>
      <text x="491.3219" xml:space="preserve" y="139.9124" clip-path="url(#clipPath2)" font-family="sans-serif" stroke="none">Yes</text>
      <path fill="none" d="M645.5147 193.7581 L645.5147 232.6685" clip-path="url(#clipPath2)"/>
      <path d="M645.5147 240.6685 L650.5147 228.6685 L645.5147 231.6685 L640.5147 228.6685 Z" clip-path="url(#clipPath2)" stroke="none"/>
      <text x="705.8484" xml:space="preserve" y="209.5782" clip-path="url(#clipPath2)" font-family="sans-serif" stroke="none">2b. Re-verify that the </text>
      <text x="705.8484" xml:space="preserve" y="223.547" clip-path="url(#clipPath2)" font-family="sans-serif" stroke="none">dependencies in the </text>
      <text x="705.8484" xml:space="preserve" y="237.5157" clip-path="url(#clipPath2)" font-family="sans-serif" stroke="none">package set still compile </text>
      <text x="705.8484" xml:space="preserve" y="251.4845" clip-path="url(#clipPath2)" font-family="sans-serif" stroke="none">together</text>
    </g>
    <g fill="rgb(225,225,225)" text-rendering="geometricPrecision" shape-rendering="geometricPrecision" transform="matrix(1,0,0,1,5,35)" stroke="rgb(225,225,225)">
      <rect x="305.2705" y="927.375" clip-path="url(#clipPath2)" width="380.0762" rx="4" ry="4" height="108.4141" stroke="none"/>
      <rect x="305.2705" y="927.375" clip-path="url(#clipPath2)" fill="rgb(235,235,235)" width="380.0762" height="21.4609" stroke="none"/>
    </g>
    <g font-size="15px" stroke-linecap="butt" transform="matrix(1,0,0,1,5,35)" text-rendering="geometricPrecision" font-family="sans-serif" shape-rendering="geometricPrecision" stroke-miterlimit="1.45">
      <text x="399.0244" xml:space="preserve" y="943.2983" clip-path="url(#clipPath2)" stroke="none">Project B's Root Directory</text>
      <rect x="305.2705" y="927.375" clip-path="url(#clipPath2)" fill="none" width="380.0762" stroke-dasharray="6,2" rx="4" ry="4" height="108.4141"/>
    </g>
    <g fill="rgb(255,204,0)" text-rendering="geometricPrecision" shape-rendering="geometricPrecision" transform="matrix(1,0,0,1,5,35)" stroke="rgb(255,204,0)">
      <rect x="320.2705" width="350.0762" height="55" y="965.7891" clip-path="url(#clipPath2)" stroke="none"/>
    </g>
    <g text-rendering="geometricPrecision" stroke-miterlimit="1.45" shape-rendering="geometricPrecision" transform="matrix(1,0,0,1,5,35)" stroke-linecap="butt">
      <rect fill="none" x="320.2705" width="350.0762" height="55" y="965.7891" clip-path="url(#clipPath2)"/>
      <text x="327.2705" xml:space="preserve" y="983.4746" clip-path="url(#clipPath2)" font-family="sans-serif" stroke="none">7. There is no built-in cross-project 'cache' mechanism, </text>
      <text x="327.2705" xml:space="preserve" y="997.4434" clip-path="url(#clipPath2)" font-family="sans-serif" stroke="none">so you will need to do this process for each project,</text>
      <text x="327.2705" xml:space="preserve" y="1011.4121" clip-path="url(#clipPath2)" font-family="sans-serif" stroke="none">which will re `git clone` each project's dependencies</text>
    </g>
    <g fill="rgb(245,245,245)" text-rendering="geometricPrecision" shape-rendering="geometricPrecision" transform="matrix(1,0,0,1,5,35)" stroke="rgb(245,245,245)">
      <rect x="10.6973" y="467.043" clip-path="url(#clipPath2)" width="126" rx="4" ry="4" height="316.7656" stroke="none"/>
      <rect x="10.6973" y="467.043" clip-path="url(#clipPath2)" fill="rgb(235,235,235)" width="126" height="108.7656" stroke="none"/>
    </g>
    <g font-size="15px" stroke-linecap="butt" transform="matrix(1,0,0,1,5,35)" text-rendering="geometricPrecision" font-family="sans-serif" shape-rendering="geometricPrecision" stroke-miterlimit="1.45">
      <text x="23.1162" xml:space="preserve" y="482.9663" clip-path="url(#clipPath2)" stroke="none">Code-Hosting</text>
      <text x="49.1025" xml:space="preserve" y="500.4272" clip-path="url(#clipPath2)" stroke="none">Server</text>
      <text x="71.3132" xml:space="preserve" y="517.8882" clip-path="url(#clipPath2)" stroke="none"> </text>
      <text x="42.3972" xml:space="preserve" y="535.3491" clip-path="url(#clipPath2)" stroke="none">(GitHub,</text>
      <text x="35.2231" xml:space="preserve" y="552.8101" clip-path="url(#clipPath2)" stroke="none">BitBucket,</text>
      <text x="56.7087" xml:space="preserve" y="570.271" clip-path="url(#clipPath2)" stroke="none">etc.)</text>
      <rect x="10.6973" y="467.043" clip-path="url(#clipPath2)" fill="none" width="126" stroke-dasharray="6,2" rx="4" ry="4" height="316.7656"/>
    </g>
    <g fill="rgb(255,204,0)" text-rendering="geometricPrecision" shape-rendering="geometricPrecision" transform="matrix(1,0,0,1,5,35)" stroke="rgb(255,204,0)">
      <rect x="25.6973" width="74.9434" height="30" y="590.8086" clip-path="url(#clipPath2)" stroke="none"/>
    </g>
    <g text-rendering="geometricPrecision" stroke-miterlimit="1.45" shape-rendering="geometricPrecision" transform="matrix(1,0,0,1,5,35)" stroke-linecap="butt">
      <rect fill="none" x="25.6973" width="74.9434" height="30" y="590.8086" clip-path="url(#clipPath2)"/>
      <text x="32.6973" xml:space="preserve" y="609.9629" clip-path="url(#clipPath2)" font-family="sans-serif" stroke="none">repository</text>
    </g>
    <g fill="rgb(255,204,0)" text-rendering="geometricPrecision" shape-rendering="geometricPrecision" transform="matrix(1,0,0,1,5,35)" stroke="rgb(255,204,0)">
      <rect x="25.6973" width="74.9434" height="30" y="638.8086" clip-path="url(#clipPath2)" stroke="none"/>
    </g>
    <g text-rendering="geometricPrecision" stroke-miterlimit="1.45" shape-rendering="geometricPrecision" transform="matrix(1,0,0,1,5,35)" stroke-linecap="butt">
      <rect fill="none" x="25.6973" width="74.9434" height="30" y="638.8086" clip-path="url(#clipPath2)"/>
      <text x="32.6973" xml:space="preserve" y="657.9629" clip-path="url(#clipPath2)" font-family="sans-serif" stroke="none">repository</text>
    </g>
    <g fill="rgb(255,204,0)" text-rendering="geometricPrecision" shape-rendering="geometricPrecision" transform="matrix(1,0,0,1,5,35)" stroke="rgb(255,204,0)">
      <rect x="25.6973" width="74.9434" height="30" y="688.8086" clip-path="url(#clipPath2)" stroke="none"/>
    </g>
    <g text-rendering="geometricPrecision" stroke-miterlimit="1.45" shape-rendering="geometricPrecision" transform="matrix(1,0,0,1,5,35)" stroke-linecap="butt">
      <rect fill="none" x="25.6973" width="74.9434" height="30" y="688.8086" clip-path="url(#clipPath2)"/>
      <text x="32.6973" xml:space="preserve" y="707.9629" clip-path="url(#clipPath2)" font-family="sans-serif" stroke="none">repository</text>
    </g>
    <g fill="rgb(255,204,0)" text-rendering="geometricPrecision" shape-rendering="geometricPrecision" transform="matrix(1,0,0,1,5,35)" stroke="rgb(255,204,0)">
      <rect x="25.6973" width="74.9434" height="30" y="738.8086" clip-path="url(#clipPath2)" stroke="none"/>
    </g>
    <g text-rendering="geometricPrecision" stroke-miterlimit="1.45" shape-rendering="geometricPrecision" transform="matrix(1,0,0,1,5,35)" stroke-linecap="butt">
      <rect fill="none" x="25.6973" width="74.9434" height="30" y="738.8086" clip-path="url(#clipPath2)"/>
      <text x="32.6973" xml:space="preserve" y="757.9629" clip-path="url(#clipPath2)" font-family="sans-serif" stroke="none">repository</text>
      <path fill="none" d="M100.6406 605.8086 L406.2168 605.8086" clip-path="url(#clipPath2)"/>
      <path d="M414.2168 605.8086 L402.2168 600.8086 L405.2168 605.8086 L402.2168 610.8086 Z" clip-path="url(#clipPath2)" stroke="none"/>
      <text x="169.1735" xml:space="preserve" y="449.7435" clip-path="url(#clipPath2)" font-family="sans-serif" stroke="none">4b. To install</text>
      <text x="162.1129" xml:space="preserve" y="463.7123" clip-path="url(#clipPath2)" font-family="sans-serif" stroke="none">dependencies, </text>
      <text x="171.9098" xml:space="preserve" y="477.681" clip-path="url(#clipPath2)" font-family="sans-serif" stroke="none">`spago` will</text>
      <text x="149.6178" xml:space="preserve" y="491.6498" clip-path="url(#clipPath2)" font-family="sans-serif" stroke="none">shallow `git clone` </text>
      <text x="165.5817" xml:space="preserve" y="505.6185" clip-path="url(#clipPath2)" font-family="sans-serif" stroke="none">the direct and</text>
      <text x="177.5553" xml:space="preserve" y="519.5873" clip-path="url(#clipPath2)" font-family="sans-serif" stroke="none">transitive </text>
      <text x="150.8248" xml:space="preserve" y="533.556" clip-path="url(#clipPath2)" font-family="sans-serif" stroke="none">dependencies and </text>
      <text x="169.1295" xml:space="preserve" y="547.5248" clip-path="url(#clipPath2)" font-family="sans-serif" stroke="none">store a local </text>
      <text x="144.8102" xml:space="preserve" y="561.4935" clip-path="url(#clipPath2)" font-family="sans-serif" stroke="none">copy in the project's </text>
      <text x="166.774" xml:space="preserve" y="575.4623" clip-path="url(#clipPath2)" font-family="sans-serif" stroke="none">root directory</text>
      <path fill="none" d="M100.6406 653.8086 L406.2168 653.8086" clip-path="url(#clipPath2)"/>
      <path d="M414.2168 653.8086 L402.2168 648.8086 L405.2168 653.8086 L402.2168 658.8086 Z" clip-path="url(#clipPath2)" stroke="none"/>
      <path fill="none" d="M100.6406 703.8086 L406.2168 703.8086" clip-path="url(#clipPath2)"/>
      <path d="M414.2168 703.8086 L402.2168 698.8086 L405.2168 703.8086 L402.2168 708.8086 Z" clip-path="url(#clipPath2)" stroke="none"/>
      <path fill="none" d="M100.6406 753.8086 L406.2168 753.8086" clip-path="url(#clipPath2)"/>
      <path d="M414.2168 753.8086 L402.2168 748.8086 L405.2168 753.8086 L402.2168 758.8086 Z" clip-path="url(#clipPath2)" stroke="none"/>
    </g>
  </g>
</svg>
