<?xml version="1.0" encoding="UTF-8"?><svg xmlns="http://www.w3.org/2000/svg" xmlns:xlink="http://www.w3.org/1999/xlink" fill-opacity="1" color-rendering="auto" color-interpolation="auto" text-rendering="auto" stroke="black" stroke-linecap="square" width="958" stroke-miterlimit="10" shape-rendering="auto" stroke-opacity="1" fill="black" stroke-dasharray="none" font-weight="normal" stroke-width="1" height="1261" font-family="'Dialog'" font-style="normal" stroke-linejoin="miter" font-size="12px" stroke-dashoffset="0" image-rendering="auto">
  <!--Generated by ySVG 2.5-->
  <defs id="genericDefs"/>
  <g>
    <defs id="defs1">
      <clipPath clipPathUnits="userSpaceOnUse" id="clipPath1">
        <path d="M0 0 L958 0 L958 1261 L0 1261 L0 0 Z"/>
      </clipPath>
      <clipPath clipPathUnits="userSpaceOnUse" id="clipPath2">
        <path d="M-5 -195 L953 -195 L953 1066 L-5 1066 L-5 -195 Z"/>
      </clipPath>
    </defs>
    <g fill="white" text-rendering="geometricPrecision" shape-rendering="geometricPrecision" transform="translate(5,195)" stroke="white">
      <rect x="-5" width="958" height="1261" y="-195" clip-path="url(#clipPath2)" stroke="none"/>
    </g>
    <g fill="rgb(245,245,245)" text-rendering="geometricPrecision" shape-rendering="geometricPrecision" transform="matrix(1,0,0,1,5,195)" stroke="rgb(245,245,245)">
      <rect x="18.8973" y="-94.2844" clip-path="url(#clipPath2)" width="126.0605" rx="4" ry="4" height="86.7824" stroke="none"/>
      <rect x="18.8973" y="-94.2844" clip-path="url(#clipPath2)" fill="rgb(235,235,235)" width="126.0605" height="21.4609" stroke="none"/>
    </g>
    <g font-size="15px" stroke-linecap="butt" transform="matrix(1,0,0,1,5,195)" text-rendering="geometricPrecision" font-family="sans-serif" shape-rendering="geometricPrecision" stroke-miterlimit="1.45">
      <text x="55.9375" xml:space="preserve" y="-78.361" clip-path="url(#clipPath2)" stroke="none">GitHub</text>
      <rect x="18.8973" y="-94.2844" clip-path="url(#clipPath2)" fill="none" width="126.0605" stroke-dasharray="6,2" rx="4" ry="4" height="86.7824"/>
    </g>
    <g fill="rgb(255,204,0)" text-rendering="geometricPrecision" shape-rendering="geometricPrecision" transform="matrix(1,0,0,1,5,195)" stroke="rgb(255,204,0)">
      <rect x="33.8973" width="96.0605" height="30" y="-56.8547" clip-path="url(#clipPath2)" stroke="none"/>
    </g>
    <g text-rendering="geometricPrecision" stroke-miterlimit="1.45" shape-rendering="geometricPrecision" transform="matrix(1,0,0,1,5,195)" stroke-linecap="butt">
      <rect fill="none" x="33.8973" width="96.0605" height="30" y="-56.8547" clip-path="url(#clipPath2)"/>
      <text x="40.8973" xml:space="preserve" y="-44.6848" clip-path="url(#clipPath2)" font-family="sans-serif" stroke="none">packaget-set </text>
      <text x="51.4559" xml:space="preserve" y="-30.716" clip-path="url(#clipPath2)" font-family="sans-serif" stroke="none">repository</text>
    </g>
    <g fill="rgb(245,245,245)" text-rendering="geometricPrecision" shape-rendering="geometricPrecision" transform="matrix(1,0,0,1,5,195)" stroke="rgb(245,245,245)">
      <rect x="290.2705" y="-179.2375" clip-path="url(#clipPath2)" width="647.6409" rx="4" ry="4" height="1230.0266" stroke="none"/>
      <rect x="290.2705" y="-179.2375" clip-path="url(#clipPath2)" fill="rgb(235,235,235)" width="647.6409" height="21.4609" stroke="none"/>
    </g>
    <g font-size="15px" stroke-linecap="butt" transform="matrix(1,0,0,1,5,195)" text-rendering="geometricPrecision" font-family="sans-serif" shape-rendering="geometricPrecision" stroke-miterlimit="1.45">
      <text x="576.807" xml:space="preserve" y="-163.3142" clip-path="url(#clipPath2)" stroke="none">Computer</text>
      <rect x="290.2705" y="-179.2375" clip-path="url(#clipPath2)" fill="none" width="647.6409" stroke-dasharray="6,2" rx="4" ry="4" height="1230.0266"/>
    </g>
    <g fill="rgb(225,225,225)" text-rendering="geometricPrecision" shape-rendering="geometricPrecision" transform="matrix(1,0,0,1,5,195)" stroke="rgb(225,225,225)">
      <rect x="305.2705" y="-142.7766" clip-path="url(#clipPath2)" width="617.6409" rx="4" ry="4" height="1063.1047" stroke="none"/>
      <rect x="305.2705" y="-142.7766" clip-path="url(#clipPath2)" fill="rgb(235,235,235)" width="617.6409" height="21.4609" stroke="none"/>
    </g>
    <g font-size="15px" stroke-linecap="butt" transform="matrix(1,0,0,1,5,195)" text-rendering="geometricPrecision" font-family="sans-serif" shape-rendering="geometricPrecision" stroke-miterlimit="1.45">
      <text x="517.8214" xml:space="preserve" y="-126.8532" clip-path="url(#clipPath2)" stroke="none">Project A's Root Directory</text>
      <rect x="305.2705" y="-142.7766" clip-path="url(#clipPath2)" fill="none" width="617.6409" stroke-dasharray="6,2" rx="4" ry="4" height="1063.1047"/>
    </g>
    <g fill="rgb(205,205,205)" text-rendering="geometricPrecision" shape-rendering="geometricPrecision" transform="matrix(1,0,0,1,5,195)" stroke="rgb(205,205,205)">
      <rect x="367.459" y="536.8867" clip-path="url(#clipPath2)" width="178" rx="4" ry="4" height="246.9219" stroke="none"/>
      <rect x="367.459" y="536.8867" clip-path="url(#clipPath2)" fill="rgb(235,235,235)" width="178" height="38.9219" stroke="none"/>
    </g>
    <g font-size="15px" stroke-linecap="butt" transform="matrix(1,0,0,1,5,195)" text-rendering="geometricPrecision" font-family="sans-serif" shape-rendering="geometricPrecision" stroke-miterlimit="1.45">
      <text x="415.48" xml:space="preserve" y="552.8101" clip-path="url(#clipPath2)" stroke="none">Local Copy</text>
      <text x="379.4814" xml:space="preserve" y="570.271" clip-path="url(#clipPath2)" stroke="none">(`.spago/` directory)</text>
      <rect x="367.459" y="536.8867" clip-path="url(#clipPath2)" fill="none" width="178" stroke-dasharray="6,2" rx="4" ry="4" height="246.9219"/>
    </g>
    <g fill="rgb(255,204,0)" text-rendering="geometricPrecision" shape-rendering="geometricPrecision" transform="matrix(1,0,0,1,5,195)" stroke="rgb(255,204,0)">
      <rect x="414.2168" width="74.9434" height="30" y="638.8086" clip-path="url(#clipPath2)" stroke="none"/>
    </g>
    <g text-rendering="geometricPrecision" stroke-miterlimit="1.45" shape-rendering="geometricPrecision" transform="matrix(1,0,0,1,5,195)" stroke-linecap="butt">
      <rect fill="none" x="414.2168" width="74.9434" height="30" y="638.8086" clip-path="url(#clipPath2)"/>
      <text x="421.2168" xml:space="preserve" y="657.9629" clip-path="url(#clipPath2)" font-family="sans-serif" stroke="none">repository</text>
    </g>
    <g fill="rgb(255,204,0)" text-rendering="geometricPrecision" shape-rendering="geometricPrecision" transform="matrix(1,0,0,1,5,195)" stroke="rgb(255,204,0)">
      <rect x="414.2168" width="74.9434" height="30" y="590.8086" clip-path="url(#clipPath2)" stroke="none"/>
    </g>
    <g text-rendering="geometricPrecision" stroke-miterlimit="1.45" shape-rendering="geometricPrecision" transform="matrix(1,0,0,1,5,195)" stroke-linecap="butt">
      <rect fill="none" x="414.2168" width="74.9434" height="30" y="590.8086" clip-path="url(#clipPath2)"/>
      <text x="421.2168" xml:space="preserve" y="609.9629" clip-path="url(#clipPath2)" font-family="sans-serif" stroke="none">repository</text>
    </g>
    <g fill="rgb(255,204,0)" text-rendering="geometricPrecision" shape-rendering="geometricPrecision" transform="matrix(1,0,0,1,5,195)" stroke="rgb(255,204,0)">
      <rect x="414.2168" width="74.9434" height="30" y="688.8086" clip-path="url(#clipPath2)" stroke="none"/>
    </g>
    <g text-rendering="geometricPrecision" stroke-miterlimit="1.45" shape-rendering="geometricPrecision" transform="matrix(1,0,0,1,5,195)" stroke-linecap="butt">
      <rect fill="none" x="414.2168" width="74.9434" height="30" y="688.8086" clip-path="url(#clipPath2)"/>
      <text x="421.2168" xml:space="preserve" y="707.9629" clip-path="url(#clipPath2)" font-family="sans-serif" stroke="none">repository</text>
    </g>
    <g fill="rgb(255,204,0)" text-rendering="geometricPrecision" shape-rendering="geometricPrecision" transform="matrix(1,0,0,1,5,195)" stroke="rgb(255,204,0)">
      <rect x="414.2168" width="74.9434" height="30" y="738.8086" clip-path="url(#clipPath2)" stroke="none"/>
    </g>
    <g text-rendering="geometricPrecision" stroke-miterlimit="1.45" shape-rendering="geometricPrecision" transform="matrix(1,0,0,1,5,195)" stroke-linecap="butt">
      <rect fill="none" x="414.2168" width="74.9434" height="30" y="738.8086" clip-path="url(#clipPath2)"/>
      <text x="421.2168" xml:space="preserve" y="757.9629" clip-path="url(#clipPath2)" font-family="sans-serif" stroke="none">repository</text>
    </g>
    <g fill="rgb(255,204,0)" text-rendering="geometricPrecision" shape-rendering="geometricPrecision" transform="matrix(1,0,0,1,5,195)" stroke="rgb(255,204,0)">
      <rect x="618.7247" width="53.5801" height="30" y="660.4086" clip-path="url(#clipPath2)" stroke="none"/>
    </g>
    <g text-rendering="geometricPrecision" stroke-miterlimit="1.45" shape-rendering="geometricPrecision" transform="matrix(1,0,0,1,5,195)" stroke-linecap="butt">
      <rect fill="none" x="618.7247" width="53.5801" height="30" y="660.4086" clip-path="url(#clipPath2)"/>
      <text x="625.7247" xml:space="preserve" y="679.5629" clip-path="url(#clipPath2)" font-family="sans-serif" stroke="none">output</text>
    </g>
    <g fill="rgb(255,204,0)" text-rendering="geometricPrecision" shape-rendering="geometricPrecision" transform="matrix(1,0,0,1,5,195)" stroke="rgb(255,204,0)">
      <rect x="374.1621" width="83.2402" height="30" y="476.8867" clip-path="url(#clipPath2)" stroke="none"/>
    </g>
    <g text-rendering="geometricPrecision" stroke-miterlimit="1.45" shape-rendering="geometricPrecision" transform="matrix(1,0,0,1,5,195)" stroke-linecap="butt">
      <rect fill="none" x="374.1621" width="83.2402" height="30" y="476.8867" clip-path="url(#clipPath2)"/>
      <text x="381.1621" xml:space="preserve" y="496.041" clip-path="url(#clipPath2)" font-family="sans-serif" stroke="none">spago.dhall</text>
    </g>
    <g fill="rgb(255,204,0)" text-rendering="geometricPrecision" shape-rendering="geometricPrecision" transform="matrix(1,0,0,1,5,195)" stroke="rgb(255,204,0)">
      <rect x="382.459" width="138.459" height="30" y="814.3594" clip-path="url(#clipPath2)" stroke="none"/>
    </g>
    <g text-rendering="geometricPrecision" stroke-miterlimit="1.45" shape-rendering="geometricPrecision" transform="matrix(1,0,0,1,5,195)" stroke-linecap="butt">
      <rect fill="none" x="382.459" width="138.459" height="30" y="814.3594" clip-path="url(#clipPath2)"/>
      <text x="398.1689" xml:space="preserve" y="826.5293" clip-path="url(#clipPath2)" font-family="sans-serif" stroke="none">Your Source Code</text>
      <text x="389.459" xml:space="preserve" y="840.498" clip-path="url(#clipPath2)" font-family="sans-serif" stroke="none">(the `src/` directory)</text>
    </g>
    <g fill="rgb(255,204,0)" text-rendering="geometricPrecision" shape-rendering="geometricPrecision" transform="matrix(1,0,0,1,5,195)" stroke="rgb(255,204,0)">
      <rect x="382.459" width="160.0742" height="30" y="874.3594" clip-path="url(#clipPath2)" stroke="none"/>
    </g>
    <g text-rendering="geometricPrecision" stroke-miterlimit="1.45" shape-rendering="geometricPrecision" transform="matrix(1,0,0,1,5,195)" stroke-linecap="butt">
      <rect fill="none" x="382.459" width="160.0742" height="30" y="874.3594" clip-path="url(#clipPath2)"/>
      <text x="389.459" xml:space="preserve" y="886.5293" clip-path="url(#clipPath2)" font-family="sans-serif" stroke="none">Your Test's Source Code</text>
      <text x="397.6357" xml:space="preserve" y="900.498" clip-path="url(#clipPath2)" font-family="sans-serif" stroke="none">(the `test/` directory)</text>
    </g>
    <g fill="rgb(255,204,0)" text-rendering="geometricPrecision" shape-rendering="geometricPrecision" transform="matrix(1,0,0,1,5,195)" stroke="rgb(255,204,0)">
      <rect x="597.4121" width="153.9453" height="30" y="727.3846" clip-path="url(#clipPath2)" stroke="none"/>
    </g>
    <g text-rendering="geometricPrecision" stroke-miterlimit="1.45" shape-rendering="geometricPrecision" transform="matrix(1,0,0,1,5,195)" stroke-linecap="butt">
      <rect fill="none" x="597.4121" width="153.9453" height="30" y="727.3846" clip-path="url(#clipPath2)"/>
      <text x="604.4121" xml:space="preserve" y="739.5545" clip-path="url(#clipPath2)" font-family="sans-serif" stroke="none">6a. Run the JS program</text>
      <text x="647.9238" xml:space="preserve" y="753.5233" clip-path="url(#clipPath2)" font-family="sans-serif" stroke="none">via Node</text>
    </g>
    <g fill="rgb(255,204,0)" text-rendering="geometricPrecision" shape-rendering="geometricPrecision" transform="matrix(1,0,0,1,5,195)" stroke="rgb(255,204,0)">
      <rect x="597.4121" width="179.1348" height="30" y="827.3798" clip-path="url(#clipPath2)" stroke="none"/>
    </g>
    <g text-rendering="geometricPrecision" stroke-miterlimit="1.45" shape-rendering="geometricPrecision" transform="matrix(1,0,0,1,5,195)" stroke-linecap="butt">
      <rect fill="none" x="597.4121" width="179.1348" height="30" y="827.3798" clip-path="url(#clipPath2)"/>
      <text x="604.4121" xml:space="preserve" y="839.5497" clip-path="url(#clipPath2)" font-family="sans-serif" stroke="none">6b. Use/Integrate the JS file</text>
      <text x="610.7695" xml:space="preserve" y="853.5185" clip-path="url(#clipPath2)" font-family="sans-serif" stroke="none">into your web application</text>
      <path fill="none" d="M474.6586 738.8086 L571.7456 675.4086 L610.7247 675.4086" clip-path="url(#clipPath2)"/>
      <path d="M618.7247 675.4086 L606.7247 670.4086 L609.7247 675.4086 L606.7247 680.4086 Z" clip-path="url(#clipPath2)" stroke="none"/>
      <path fill="none" d="M489.1602 694.9445 L571.7456 675.4086 L610.7247 675.4086" clip-path="url(#clipPath2)"/>
      <path d="M618.7247 675.4086 L606.7247 670.4086 L609.7247 675.4086 L606.7247 680.4086 Z" clip-path="url(#clipPath2)" stroke="none"/>
      <text x="573.9611" xml:space="preserve" y="606.3561" clip-path="url(#clipPath2)" font-family="sans-serif" stroke="none">5. `spago` will use the </text>
      <text x="558.8907" xml:space="preserve" y="620.3249" clip-path="url(#clipPath2)" font-family="sans-serif" stroke="none">PureScript compiler (`purs`)</text>
      <text x="562.9425" xml:space="preserve" y="634.2936" clip-path="url(#clipPath2)" font-family="sans-serif" stroke="none">to compile all source code </text>
      <text x="584.7042" xml:space="preserve" y="648.2624" clip-path="url(#clipPath2)" font-family="sans-serif" stroke="none">into its final output.</text>
      <path fill="none" d="M477.5629 620.8086 L571.7456 675.4086 L610.7247 675.4086" clip-path="url(#clipPath2)"/>
      <path d="M618.7247 675.4086 L606.7247 670.4086 L609.7247 675.4086 L606.7247 680.4086 Z" clip-path="url(#clipPath2)" stroke="none"/>
      <path fill="none" d="M489.1602 660.5503 L571.7456 675.4086 L610.7247 675.4086" clip-path="url(#clipPath2)"/>
      <path d="M618.7247 675.4086 L606.7247 670.4086 L609.7247 675.4086 L606.7247 680.4086 Z" clip-path="url(#clipPath2)" stroke="none"/>
      <path fill="none" d="M520.918 829.3594 L546.5584 829.3594 L571.7456 675.4086 L610.7247 675.4086" clip-path="url(#clipPath2)"/>
      <path d="M618.7247 675.4086 L606.7247 670.4086 L609.7247 675.4086 L606.7247 680.4086 Z" clip-path="url(#clipPath2)" stroke="none"/>
      <path fill="none" d="M542.5332 889.3594 L569.343 889.3594 L571.7456 675.4086 L610.7247 675.4086" clip-path="url(#clipPath2)"/>
      <path d="M618.7247 675.4086 L606.7247 670.4086 L609.7247 675.4086 L606.7247 680.4086 Z" clip-path="url(#clipPath2)" stroke="none"/>
      <path fill="none" d="M660.8412 690.4086 L674.3848 703.6635 L674.3848 719.3846" clip-path="url(#clipPath2)"/>
      <path d="M674.3848 727.3846 L679.3848 715.3846 L674.3848 718.3846 L669.3848 715.3846 Z" clip-path="url(#clipPath2)" stroke="none"/>
      <path fill="none" d="M672.3047 681.8281 L771.3574 705.5632 L771.3574 781.2 L686.9795 781.2 L686.9795 819.3798" clip-path="url(#clipPath2)"/>
      <path d="M686.9795 827.3798 L691.9795 815.3798 L686.9795 818.3798 L681.9795 815.3798 Z" clip-path="url(#clipPath2)" stroke="none"/>
    </g>
    <g fill="rgb(205,205,205)" text-rendering="geometricPrecision" shape-rendering="geometricPrecision" transform="matrix(1,0,0,1,5,195)" stroke="rgb(205,205,205)">
      <rect x="324.5098" y="-106.3156" clip-path="url(#clipPath2)" width="583.4016" rx="4" ry="4" height="484.8156" stroke="none"/>
      <rect x="324.5098" y="-106.3156" clip-path="url(#clipPath2)" fill="rgb(235,235,235)" width="583.4016" height="21.4609" stroke="none"/>
    </g>
    <g font-size="15px" stroke-linecap="butt" transform="matrix(1,0,0,1,5,195)" text-rendering="geometricPrecision" font-family="sans-serif" shape-rendering="geometricPrecision" stroke-miterlimit="1.45">
      <text x="458.4176" xml:space="preserve" y="-90.3923" clip-path="url(#clipPath2)" stroke="none">Various states of the `packages.dhall` file</text>
      <rect x="324.5098" y="-106.3156" clip-path="url(#clipPath2)" fill="none" width="583.4016" stroke-dasharray="6,2" rx="4" ry="4" height="484.8156"/>
    </g>
    <g fill="rgb(255,204,0)" text-rendering="geometricPrecision" shape-rendering="geometricPrecision" transform="matrix(1,0,0,1,5,195)" stroke="rgb(255,204,0)">
      <rect x="341.2969" width="148.9707" height="56" y="-69.8547" clip-path="url(#clipPath2)" stroke="none"/>
    </g>
    <g text-rendering="geometricPrecision" stroke-miterlimit="1.45" shape-rendering="geometricPrecision" transform="matrix(1,0,0,1,5,195)" stroke-linecap="butt">
      <rect fill="none" x="341.2969" width="148.9707" height="56" y="-69.8547" clip-path="url(#clipPath2)"/>
      <text x="348.2969" xml:space="preserve" y="-44.6848" clip-path="url(#clipPath2)" font-family="sans-serif" stroke="none">Verified &amp; unmodified,</text>
      <text x="373.6533" xml:space="preserve" y="-30.716" clip-path="url(#clipPath2)" font-family="sans-serif" stroke="none">not yet frozen</text>
    </g>
    <g fill="rgb(255,204,0)" text-rendering="geometricPrecision" shape-rendering="geometricPrecision" transform="matrix(1,0,0,1,5,195)" stroke="rgb(255,204,0)">
      <rect x="385.5732" width="60.418" height="43.2" y="313.9" clip-path="url(#clipPath2)" stroke="none"/>
    </g>
    <g text-rendering="geometricPrecision" stroke-miterlimit="1.45" shape-rendering="geometricPrecision" transform="matrix(1,0,0,1,5,195)" stroke-linecap="butt">
      <rect fill="none" x="385.5732" width="60.418" height="43.2" y="313.9" clip-path="url(#clipPath2)"/>
      <text x="392.5732" xml:space="preserve" y="332.6699" clip-path="url(#clipPath2)" font-family="sans-serif" stroke="none">Verified</text>
      <text x="395.5498" xml:space="preserve" y="346.6387" clip-path="url(#clipPath2)" font-family="sans-serif" stroke="none">Frozen</text>
    </g>
    <g fill="rgb(255,204,0)" text-rendering="geometricPrecision" shape-rendering="geometricPrecision" transform="matrix(1,0,0,1,5,195)" stroke="rgb(255,204,0)">
      <rect x="599.9826" width="98.2578" height="46.384" y="158.9777" clip-path="url(#clipPath2)" stroke="none"/>
    </g>
    <g text-rendering="geometricPrecision" stroke-miterlimit="1.45" shape-rendering="geometricPrecision" transform="matrix(1,0,0,1,5,195)" stroke-linecap="butt">
      <rect fill="none" x="599.9826" width="98.2578" height="46.384" y="158.9777" clip-path="url(#clipPath2)"/>
      <text x="622.0881" xml:space="preserve" y="179.3396" clip-path="url(#clipPath2)" font-family="sans-serif" stroke="none">Verified, </text>
      <text x="606.9826" xml:space="preserve" y="193.3084" clip-path="url(#clipPath2)" font-family="sans-serif" stroke="none">not yet frozen</text>
    </g>
    <g fill="rgb(255,204,0)" text-rendering="geometricPrecision" shape-rendering="geometricPrecision" transform="matrix(1,0,0,1,5,195)" stroke="rgb(255,204,0)">
      <rect x="574.4914" width="149.2402" height="56" y="31.5365" clip-path="url(#clipPath2)" stroke="none"/>
    </g>
    <g text-rendering="geometricPrecision" stroke-miterlimit="1.45" shape-rendering="geometricPrecision" transform="matrix(1,0,0,1,5,195)" stroke-linecap="butt">
      <rect fill="none" x="574.4914" width="149.2402" height="56" y="31.5365" clip-path="url(#clipPath2)"/>
      <text x="581.4914" xml:space="preserve" y="56.7065" clip-path="url(#clipPath2)" font-family="sans-serif" stroke="none">Modified, not verified, </text>
      <text x="606.9826" xml:space="preserve" y="70.6752" clip-path="url(#clipPath2)" font-family="sans-serif" stroke="none">not yet frozen</text>
    </g>
    <g fill="rgb(255,204,0)" text-rendering="geometricPrecision" shape-rendering="geometricPrecision" transform="matrix(1,0,0,1,5,195)" stroke="rgb(255,204,0)">
      <path d="M347.0756 59.5365 L415.7823 16.1453 L484.4888 59.5365 L415.7823 102.9277 Z" fill-rule="evenodd" clip-path="url(#clipPath2)" stroke="none"/>
    </g>
    <g text-rendering="geometricPrecision" stroke-miterlimit="1.45" shape-rendering="geometricPrecision" transform="matrix(1,0,0,1,5,195)" stroke-linecap="butt">
      <path fill="none" d="M347.0756 59.5365 L415.7823 16.1453 L484.4888 59.5365 L415.7823 102.9277 Z" fill-rule="evenodd" clip-path="url(#clipPath2)"/>
      <text x="369.1797" xml:space="preserve" y="56.7065" clip-path="url(#clipPath2)" font-family="sans-serif" stroke="none">Is configuration</text>
      <text x="390.1035" xml:space="preserve" y="70.6752" clip-path="url(#clipPath2)" font-family="sans-serif" stroke="none">needed?</text>
      <path fill="none" d="M129.9578 -41.8547 L333.2969 -41.8547" clip-path="url(#clipPath2)"/>
      <path d="M341.2969 -41.8547 L329.2969 -46.8547 L332.2969 -41.8547 L329.2969 -36.8547 Z" clip-path="url(#clipPath2)" stroke="none"/>
      <text x="157.3462" xml:space="preserve" y="-16.5285" clip-path="url(#clipPath2)" font-family="sans-serif" stroke="none">1. Spago downloads </text>
      <text x="157.3462" xml:space="preserve" y="-2.5598" clip-path="url(#clipPath2)" font-family="sans-serif" stroke="none">the official </text>
      <text x="157.3462" xml:space="preserve" y="11.409" clip-path="url(#clipPath2)" font-family="sans-serif" stroke="none">Dhall-based </text>
      <text x="157.3462" xml:space="preserve" y="25.3777" clip-path="url(#clipPath2)" font-family="sans-serif" stroke="none">package set</text>
      <text x="157.3462" xml:space="preserve" y="39.3465" clip-path="url(#clipPath2)" font-family="sans-serif" stroke="none">as a local copy.</text>
      <text x="157.3462" xml:space="preserve" y="53.3152" clip-path="url(#clipPath2)" font-family="sans-serif" stroke="none"> </text>
      <text x="157.3462" xml:space="preserve" y="67.284" clip-path="url(#clipPath2)" font-family="sans-serif" stroke="none">This is a list of </text>
      <text x="157.3462" xml:space="preserve" y="81.2527" clip-path="url(#clipPath2)" font-family="sans-serif" stroke="none">all the dependencies </text>
      <text x="157.3462" xml:space="preserve" y="95.2215" clip-path="url(#clipPath2)" font-family="sans-serif" stroke="none">that one could </text>
      <text x="157.3462" xml:space="preserve" y="109.1902" clip-path="url(#clipPath2)" font-family="sans-serif" stroke="none">immediately install </text>
      <text x="157.3462" xml:space="preserve" y="123.159" clip-path="url(#clipPath2)" font-family="sans-serif" stroke="none">without additional</text>
      <text x="157.3462" xml:space="preserve" y="137.1277" clip-path="url(#clipPath2)" font-family="sans-serif" stroke="none">configuration</text>
      <path fill="none" d="M415.7822 357.1 L415.7822 468.8867" clip-path="url(#clipPath2)"/>
      <path d="M415.7822 476.8867 L420.7822 464.8867 L415.7822 467.8867 L410.7822 464.8867 Z" clip-path="url(#clipPath2)" stroke="none"/>
      <text x="444.582" xml:space="preserve" y="411.1816" clip-path="url(#clipPath2)" font-family="sans-serif" stroke="none">4a. Install specific dependencies from </text>
      <text x="444.582" xml:space="preserve" y="425.1504" clip-path="url(#clipPath2)" font-family="sans-serif" stroke="none">the local packaget set's list of packages</text>
      <text x="444.582" xml:space="preserve" y="439.1191" clip-path="url(#clipPath2)" font-family="sans-serif" stroke="none"> </text>
      <text x="444.582" xml:space="preserve" y="453.0879" clip-path="url(#clipPath2)" font-family="sans-serif" stroke="none">This will modify the `spago.dhall` file, which is used </text>
      <text x="444.582" xml:space="preserve" y="467.0566" clip-path="url(#clipPath2)" font-family="sans-serif" stroke="none">to do project-specific configurations</text>
      <path fill="none" d="M599.9826 182.1697 L415.7822 182.1697 L415.7822 305.9" clip-path="url(#clipPath2)"/>
      <path d="M415.7822 313.9 L420.7822 301.9 L415.7822 304.9 L410.7822 301.9 Z" clip-path="url(#clipPath2)" stroke="none"/>
      <text x="433.2042" xml:space="preserve" y="236.9517" clip-path="url(#clipPath2)" font-family="sans-serif" stroke="none">3. "Freeze" the file for security:</text>
      <text x="433.2042" xml:space="preserve" y="250.9204" clip-path="url(#clipPath2)" font-family="sans-serif" stroke="none">- prevent code injection</text>
      <text x="433.2042" xml:space="preserve" y="264.8892" clip-path="url(#clipPath2)" font-family="sans-serif" stroke="none">- prevent Cross-Site Scripting attacks (XSS)</text>
      <text x="433.2042" xml:space="preserve" y="278.8579" clip-path="url(#clipPath2)" font-family="sans-serif" stroke="none">- utilize Dhall's version of "Same Origin Policy"</text>
      <path fill="none" d="M649.1115 87.5365 L649.1115 150.9777" clip-path="url(#clipPath2)"/>
      <path d="M649.1115 158.9777 L654.1115 146.9777 L649.1115 149.9777 L644.1115 146.9777 Z" clip-path="url(#clipPath2)" stroke="none"/>
      <text x="709.4453" xml:space="preserve" y="112.8179" clip-path="url(#clipPath2)" font-family="sans-serif" stroke="none">2b. Re-verify that the </text>
      <text x="709.4453" xml:space="preserve" y="126.7866" clip-path="url(#clipPath2)" font-family="sans-serif" stroke="none">dependencies in the </text>
      <text x="709.4453" xml:space="preserve" y="140.7554" clip-path="url(#clipPath2)" font-family="sans-serif" stroke="none">package set still compile </text>
      <text x="709.4453" xml:space="preserve" y="154.7241" clip-path="url(#clipPath2)" font-family="sans-serif" stroke="none">together</text>
      <path fill="none" d="M415.7822 -13.8547 L415.7822 8.1397" clip-path="url(#clipPath2)"/>
      <path d="M415.7822 16.1397 L420.7822 4.1397 L415.7822 7.1397 L410.7822 4.1397 Z" clip-path="url(#clipPath2)" stroke="none"/>
      <path fill="none" d="M484.5107 59.5365 L566.4914 59.5365" clip-path="url(#clipPath2)"/>
      <path d="M574.4914 59.5365 L562.4914 54.5365 L565.4914 59.5365 L562.4914 64.5365 Z" clip-path="url(#clipPath2)" stroke="none"/>
      <text x="519.9791" xml:space="preserve" y="-2.4155" clip-path="url(#clipPath2)" font-family="sans-serif" stroke="none">2a. Configure the package set:</text>
      <text x="519.9791" xml:space="preserve" y="11.5532" clip-path="url(#clipPath2)" font-family="sans-serif" stroke="none">- "patch"/"override" a dependency in the package set</text>
      <text x="519.9791" xml:space="preserve" y="25.522" clip-path="url(#clipPath2)" font-family="sans-serif" stroke="none">- add packages (local or cloud) to the package set</text>
      <path fill="none" d="M415.7822 102.959 L415.7822 305.9" clip-path="url(#clipPath2)"/>
      <path d="M415.7822 313.9 L420.7822 301.9 L415.7822 304.9 L410.7822 301.9 Z" clip-path="url(#clipPath2)" stroke="none"/>
      <text x="388.4774" xml:space="preserve" y="123.6792" clip-path="url(#clipPath2)" font-family="sans-serif" stroke="none">No</text>
      <path fill="none" d="M484.5107 59.5365 L566.4914 59.5365" clip-path="url(#clipPath2)"/>
      <path d="M574.4914 59.5365 L562.4914 54.5365 L565.4914 59.5365 L562.4914 64.5365 Z" clip-path="url(#clipPath2)" stroke="none"/>
      <text x="487.0589" xml:space="preserve" y="49.454" clip-path="url(#clipPath2)" font-family="sans-serif" stroke="none">Yes</text>
    </g>
    <g fill="rgb(225,225,225)" text-rendering="geometricPrecision" shape-rendering="geometricPrecision" transform="matrix(1,0,0,1,5,195)" stroke="rgb(225,225,225)">
      <rect x="305.2705" y="927.375" clip-path="url(#clipPath2)" width="380.0762" rx="4" ry="4" height="108.4141" stroke="none"/>
      <rect x="305.2705" y="927.375" clip-path="url(#clipPath2)" fill="rgb(235,235,235)" width="380.0762" height="21.4609" stroke="none"/>
    </g>
    <g font-size="15px" stroke-linecap="butt" transform="matrix(1,0,0,1,5,195)" text-rendering="geometricPrecision" font-family="sans-serif" shape-rendering="geometricPrecision" stroke-miterlimit="1.45">
      <text x="399.0244" xml:space="preserve" y="943.2983" clip-path="url(#clipPath2)" stroke="none">Project B's Root Directory</text>
      <rect x="305.2705" y="927.375" clip-path="url(#clipPath2)" fill="none" width="380.0762" stroke-dasharray="6,2" rx="4" ry="4" height="108.4141"/>
    </g>
    <g fill="rgb(255,204,0)" text-rendering="geometricPrecision" shape-rendering="geometricPrecision" transform="matrix(1,0,0,1,5,195)" stroke="rgb(255,204,0)">
      <rect x="320.2705" width="350.0762" height="55" y="965.7891" clip-path="url(#clipPath2)" stroke="none"/>
    </g>
    <g text-rendering="geometricPrecision" stroke-miterlimit="1.45" shape-rendering="geometricPrecision" transform="matrix(1,0,0,1,5,195)" stroke-linecap="butt">
      <rect fill="none" x="320.2705" width="350.0762" height="55" y="965.7891" clip-path="url(#clipPath2)"/>
      <text x="327.2705" xml:space="preserve" y="983.4746" clip-path="url(#clipPath2)" font-family="sans-serif" stroke="none">7. There is no built-in cross-project 'cache' mechanism, </text>
      <text x="340.29" xml:space="preserve" y="997.4434" clip-path="url(#clipPath2)" font-family="sans-serif" stroke="none">so you will need to do this process for each project,</text>
      <text x="336.3643" xml:space="preserve" y="1011.4121" clip-path="url(#clipPath2)" font-family="sans-serif" stroke="none">which will re `git clone` each project's dependencies</text>
    </g>
    <g fill="rgb(245,245,245)" text-rendering="geometricPrecision" shape-rendering="geometricPrecision" transform="matrix(1,0,0,1,5,195)" stroke="rgb(245,245,245)">
      <rect x="10.6973" y="467.043" clip-path="url(#clipPath2)" width="126" rx="4" ry="4" height="316.7656" stroke="none"/>
      <rect x="10.6973" y="467.043" clip-path="url(#clipPath2)" fill="rgb(235,235,235)" width="126" height="108.7656" stroke="none"/>
    </g>
    <g font-size="15px" stroke-linecap="butt" transform="matrix(1,0,0,1,5,195)" text-rendering="geometricPrecision" font-family="sans-serif" shape-rendering="geometricPrecision" stroke-miterlimit="1.45">
      <text x="23.1162" xml:space="preserve" y="482.9663" clip-path="url(#clipPath2)" stroke="none">Code-Hosting</text>
      <text x="49.1025" xml:space="preserve" y="500.4272" clip-path="url(#clipPath2)" stroke="none">Server</text>
      <text x="71.3132" xml:space="preserve" y="517.8882" clip-path="url(#clipPath2)" stroke="none"> </text>
      <text x="42.3972" xml:space="preserve" y="535.3491" clip-path="url(#clipPath2)" stroke="none">(GitHub,</text>
      <text x="35.2231" xml:space="preserve" y="552.8101" clip-path="url(#clipPath2)" stroke="none">BitBucket,</text>
      <text x="56.7087" xml:space="preserve" y="570.271" clip-path="url(#clipPath2)" stroke="none">etc.)</text>
      <rect x="10.6973" y="467.043" clip-path="url(#clipPath2)" fill="none" width="126" stroke-dasharray="6,2" rx="4" ry="4" height="316.7656"/>
    </g>
    <g fill="rgb(255,204,0)" text-rendering="geometricPrecision" shape-rendering="geometricPrecision" transform="matrix(1,0,0,1,5,195)" stroke="rgb(255,204,0)">
      <rect x="25.6973" width="74.9434" height="30" y="590.8086" clip-path="url(#clipPath2)" stroke="none"/>
    </g>
    <g text-rendering="geometricPrecision" stroke-miterlimit="1.45" shape-rendering="geometricPrecision" transform="matrix(1,0,0,1,5,195)" stroke-linecap="butt">
      <rect fill="none" x="25.6973" width="74.9434" height="30" y="590.8086" clip-path="url(#clipPath2)"/>
      <text x="32.6973" xml:space="preserve" y="609.9629" clip-path="url(#clipPath2)" font-family="sans-serif" stroke="none">repository</text>
    </g>
    <g fill="rgb(255,204,0)" text-rendering="geometricPrecision" shape-rendering="geometricPrecision" transform="matrix(1,0,0,1,5,195)" stroke="rgb(255,204,0)">
      <rect x="25.6973" width="74.9434" height="30" y="638.8086" clip-path="url(#clipPath2)" stroke="none"/>
    </g>
    <g text-rendering="geometricPrecision" stroke-miterlimit="1.45" shape-rendering="geometricPrecision" transform="matrix(1,0,0,1,5,195)" stroke-linecap="butt">
      <rect fill="none" x="25.6973" width="74.9434" height="30" y="638.8086" clip-path="url(#clipPath2)"/>
      <text x="32.6973" xml:space="preserve" y="657.9629" clip-path="url(#clipPath2)" font-family="sans-serif" stroke="none">repository</text>
    </g>
    <g fill="rgb(255,204,0)" text-rendering="geometricPrecision" shape-rendering="geometricPrecision" transform="matrix(1,0,0,1,5,195)" stroke="rgb(255,204,0)">
      <rect x="25.6973" width="74.9434" height="30" y="688.8086" clip-path="url(#clipPath2)" stroke="none"/>
    </g>
    <g text-rendering="geometricPrecision" stroke-miterlimit="1.45" shape-rendering="geometricPrecision" transform="matrix(1,0,0,1,5,195)" stroke-linecap="butt">
      <rect fill="none" x="25.6973" width="74.9434" height="30" y="688.8086" clip-path="url(#clipPath2)"/>
      <text x="32.6973" xml:space="preserve" y="707.9629" clip-path="url(#clipPath2)" font-family="sans-serif" stroke="none">repository</text>
    </g>
    <g fill="rgb(255,204,0)" text-rendering="geometricPrecision" shape-rendering="geometricPrecision" transform="matrix(1,0,0,1,5,195)" stroke="rgb(255,204,0)">
      <rect x="25.6973" width="74.9434" height="30" y="738.8086" clip-path="url(#clipPath2)" stroke="none"/>
    </g>
    <g text-rendering="geometricPrecision" stroke-miterlimit="1.45" shape-rendering="geometricPrecision" transform="matrix(1,0,0,1,5,195)" stroke-linecap="butt">
      <rect fill="none" x="25.6973" width="74.9434" height="30" y="738.8086" clip-path="url(#clipPath2)"/>
      <text x="32.6973" xml:space="preserve" y="757.9629" clip-path="url(#clipPath2)" font-family="sans-serif" stroke="none">repository</text>
      <path fill="none" d="M100.6406 605.8086 L406.2168 605.8086" clip-path="url(#clipPath2)"/>
      <path d="M414.2168 605.8086 L402.2168 600.8086 L405.2168 605.8086 L402.2168 610.8086 Z" clip-path="url(#clipPath2)" stroke="none"/>
      <text x="169.1735" xml:space="preserve" y="456.7279" clip-path="url(#clipPath2)" font-family="sans-serif" stroke="none">4b. To install</text>
      <text x="162.1129" xml:space="preserve" y="470.6967" clip-path="url(#clipPath2)" font-family="sans-serif" stroke="none">dependencies, </text>
      <text x="149.6178" xml:space="preserve" y="484.6654" clip-path="url(#clipPath2)" font-family="sans-serif" stroke="none">shallow `git clone` </text>
      <text x="165.5817" xml:space="preserve" y="498.6342" clip-path="url(#clipPath2)" font-family="sans-serif" stroke="none">the direct and</text>
      <text x="177.5553" xml:space="preserve" y="512.6029" clip-path="url(#clipPath2)" font-family="sans-serif" stroke="none">transitive </text>
      <text x="150.8248" xml:space="preserve" y="526.5717" clip-path="url(#clipPath2)" font-family="sans-serif" stroke="none">dependencies and </text>
      <text x="169.1295" xml:space="preserve" y="540.5404" clip-path="url(#clipPath2)" font-family="sans-serif" stroke="none">store a local </text>
      <text x="144.8102" xml:space="preserve" y="554.5092" clip-path="url(#clipPath2)" font-family="sans-serif" stroke="none">copy in the project's </text>
      <text x="166.774" xml:space="preserve" y="568.4779" clip-path="url(#clipPath2)" font-family="sans-serif" stroke="none">root directory</text>
      <path fill="none" d="M100.6406 653.8086 L406.2168 653.8086" clip-path="url(#clipPath2)"/>
      <path d="M414.2168 653.8086 L402.2168 648.8086 L405.2168 653.8086 L402.2168 658.8086 Z" clip-path="url(#clipPath2)" stroke="none"/>
      <path fill="none" d="M100.6406 703.8086 L406.2168 703.8086" clip-path="url(#clipPath2)"/>
      <path d="M414.2168 703.8086 L402.2168 698.8086 L405.2168 703.8086 L402.2168 708.8086 Z" clip-path="url(#clipPath2)" stroke="none"/>
      <path fill="none" d="M100.6406 753.8086 L406.2168 753.8086" clip-path="url(#clipPath2)"/>
      <path d="M414.2168 753.8086 L402.2168 748.8086 L405.2168 753.8086 L402.2168 758.8086 Z" clip-path="url(#clipPath2)" stroke="none"/>
    </g>
  </g>
</svg>
