<svg xmlns="http://www.w3.org/2000/svg" width="960" height="500"><defs><style type="text/css">
.background {
  fill: white;
}

text {
  font-size: 14px;
  font-family: sans-serif;
}

.axis-path,
.axis-line {
  fill: none;
  stroke: #000;
  stroke-width: 1px;
  shape-rendering: crispEdges;
}

.line {
  fill: none;
  stroke-width: 1.5px;
}

.data-series-0 {
  stroke: steelblue;
  fill: steelblue;
}

.data-series-1 {
  stroke: crimson;
  fill: crimson;
}

.data-series-2 {
  stroke: mediumseagreen;
  fill: mediumseagreen;
}

.data-series-3 {
  stroke: mediumslateblue;
  fill: mediumslateblue;
}

.data-series-4 {
  stroke: goldenrod;
  fill: goldenrod;
}

.error-bar {
  fill: none;
}
</style></defs><rect width="960" height="500" class="background"/><g transform="translate(80,40)"><g transform="translate(420, 0)"><text style="text-anchor: middle; font-size: 28px;">Title of the benchmark</text></g><g class="x axis" transform="translate(0,400)"><g class="tick" style="opacity: 1;" transform="translate(0,0)"><line y2="6" x2="0" class="axis-line"/><text dy=".71em" style="text-anchor: middle;" y="9" x="0">1,000</text></g><g class="tick" style="opacity: 1;" transform="translate(105,0)"><line y2="6" x2="0" class="axis-line"/><text dy=".71em" style="text-anchor: middle;" y="9" x="0">1,500</text></g><g class="tick" style="opacity: 1;" transform="translate(210,0)"><line y2="6" x2="0" class="axis-line"/><text dy=".71em" style="text-anchor: middle;" y="9" x="0">2,000</text></g><g class="tick" style="opacity: 1;" transform="translate(315,0)"><line y2="6" x2="0" class="axis-line"/><text dy=".71em" style="text-anchor: middle;" y="9" x="0">2,500</text></g><g class="tick" style="opacity: 1;" transform="translate(420,0)"><line y2="6" x2="0" class="axis-line"/><text dy=".71em" style="text-anchor: middle;" y="9" x="0">3,000</text></g><g class="tick" style="opacity: 1;" transform="translate(525,0)"><line y2="6" x2="0" class="axis-line"/><text dy=".71em" style="text-anchor: middle;" y="9" x="0">3,500</text></g><g class="tick" style="opacity: 1;" transform="translate(630,0)"><line y2="6" x2="0" class="axis-line"/><text dy=".71em" style="text-anchor: middle;" y="9" x="0">4,000</text></g><g class="tick" style="opacity: 1;" transform="translate(735,0)"><line y2="6" x2="0" class="axis-line"/><text dy=".71em" style="text-anchor: middle;" y="9" x="0">4,500</text></g><g class="tick" style="opacity: 1;" transform="translate(840,0)"><line y2="6" x2="0" class="axis-line"/><text dy=".71em" style="text-anchor: middle;" y="9" x="0">5,000</text></g><path class="axis-path" d="M0,6V0H840V6"/><text x="420" y="40" style="text-anchor: middle;">Human-readable explanation of 'sizes': the number of elements in an array</text></g><g class="y axis"><g class="tick" style="opacity: 1;" transform="translate(0,367.4997793131574)"><line x2="-6" y2="0" class="axis-line"/><text dy=".32em" style="text-anchor: end;" x="-9" y="0">2.00e-5</text></g><g class="tick" style="opacity: 1;" transform="translate(0,332.74272844429163)"><line x2="-6" y2="0" class="axis-line"/><text dy=".32em" style="text-anchor: end;" x="-9" y="0">4.00e-5</text></g><g class="tick" style="opacity: 1;" transform="translate(0,297.9856775754259)"><line x2="-6" y2="0" class="axis-line"/><text dy=".32em" style="text-anchor: end;" x="-9" y="0">6.00e-5</text></g><g class="tick" style="opacity: 1;" transform="translate(0,263.22862670656014)"><line x2="-6" y2="0" class="axis-line"/><text dy=".32em" style="text-anchor: end;" x="-9" y="0">8.00e-5</text></g><g class="tick" style="opacity: 1;" transform="translate(0,228.47157583769442)"><line x2="-6" y2="0" class="axis-line"/><text dy=".32em" style="text-anchor: end;" x="-9" y="0">1.00e-4</text></g><g class="tick" style="opacity: 1;" transform="translate(0,193.7145249688287)"><line x2="-6" y2="0" class="axis-line"/><text dy=".32em" style="text-anchor: end;" x="-9" y="0">1.20e-4</text></g><g class="tick" style="opacity: 1;" transform="translate(0,158.95747409996295)"><line x2="-6" y2="0" class="axis-line"/><text dy=".32em" style="text-anchor: end;" x="-9" y="0">1.40e-4</text></g><g class="tick" style="opacity: 1;" transform="translate(0,124.20042323109719)"><line x2="-6" y2="0" class="axis-line"/><text dy=".32em" style="text-anchor: end;" x="-9" y="0">1.60e-4</text></g><g class="tick" style="opacity: 1;" transform="translate(0,89.44337236223147)"><line x2="-6" y2="0" class="axis-line"/><text dy=".32em" style="text-anchor: end;" x="-9" y="0">1.80e-4</text></g><g class="tick" style="opacity: 1;" transform="translate(0,54.68632149336572)"><line x2="-6" y2="0" class="axis-line"/><text dy=".32em" style="text-anchor: end;" x="-9" y="0">2.00e-4</text></g><g class="tick" style="opacity: 1;" transform="translate(0,19.929270624500006)"><line x2="-6" y2="0" class="axis-line"/><text dy=".32em" style="text-anchor: end;" x="-9" y="0">2.20e-4</text></g><path class="axis-path" d="M-6,0H0V400H-6"/><text transform="rotate(-90)" y="6" dy=".71em" style="text-anchor: end;">Mean running time (seconds)</text></g><g class="data-series-0"><circle cx="0" cy="400" r="3"/><circle cx="210" cy="316.20290344003183" r="3"/><circle cx="420" cy="279.7238011178349" r="3"/><circle cx="630" cy="238.1972396315609" r="3"/><circle cx="840" cy="199.1312652287965" r="3"/><path class="error-bar" x="0" y="400" d="M 0 400 V 399.9734445350822 h -3 h 6 h -3 V 400.02655546491786 h -3 h 6"/><path class="error-bar" x="210" y="316.20290344003183" d="M 210 316.20290344003183 V 312.79694676850977 h -3 h 6 h -3 V 319.6088601115539 h -3 h 6"/><path class="error-bar" x="420" y="279.7238011178349" d="M 420 279.7238011178349 V 277.747799423353 h -3 h 6 h -3 V 281.6998028123169 h -3 h 6"/><path class="error-bar" x="630" y="238.1972396315609" d="M 630 238.1972396315609 V 232.84905918638276 h -3 h 6 h -3 V 243.54542007673894 h -3 h 6"/><path class="error-bar" x="840" y="199.1312652287965" d="M 840 199.1312652287965 V 192.9568594948143 h -3 h 6 h -3 V 205.3056709627787 h -3 h 6"/><path class="line" d="M0,400L210,316.20290344003183L420,279.7238011178349L630,238.1972396315609L840,199.1312652287965"/></g><g class="data-series-1"><circle cx="0" cy="311.40514203051487" r="3"/><circle cx="210" cy="230.614412828234" r="3"/><circle cx="420" cy="158.23144487871738" r="3"/><circle cx="630" cy="62.391181107556505" r="3"/><circle cx="840" cy="0" r="3"/><path class="error-bar" x="0" y="311.40514203051487" d="M 0 311.40514203051487 V 297.62728643136046 h -3 h 6 h -3 V 325.18299762966933 h -3 h 6"/><path class="error-bar" x="210" y="230.614412828234" d="M 210 230.614412828234 V 227.9191997798454 h -3 h 6 h -3 V 233.30962587662256 h -3 h 6"/><path class="error-bar" x="420" y="158.23144487871738" d="M 420 158.23144487871738 V 149.2952266209603 h -3 h 6 h -3 V 167.16766313647446 h -3 h 6"/><path class="error-bar" x="630" y="62.391181107556505" d="M 630 62.391181107556505 V 50.4835280114805 h -3 h 6 h -3 V 74.29883420363251 h -3 h 6"/><path class="error-bar" x="840" y="0" d="M 840 0 V -3.772777726201504 h -3 h 6 h -3 V 3.7727777262015483 h -3 h 6"/><path class="line" d="M0,311.40514203051487L210,230.614412828234L420,158.23144487871738L630,62.391181107556505L840,0"/></g><g class="legend" transform="translate(50, 50)"><rect x="0" y="0" width="15" height="15" class="data-series-0"/><rect x="0" y="20" width="15" height="15" class="data-series-1"/><text x="24" y="13">function name: foldr</text><text x="24" y="33">function name: foldmap</text></g></g></svg>