<?xml version="1.0" encoding="UTF-8"?><svg xmlns="http://www.w3.org/2000/svg" xmlns:xlink="http://www.w3.org/1999/xlink" fill-opacity="1" color-rendering="auto" color-interpolation="auto" text-rendering="auto" stroke="black" stroke-linecap="square" width="745" stroke-miterlimit="10" shape-rendering="auto" stroke-opacity="1" fill="black" stroke-dasharray="none" font-weight="normal" stroke-width="1" height="541" font-family="'Dialog'" font-style="normal" stroke-linejoin="miter" font-size="12px" stroke-dashoffset="0" image-rendering="auto">
  <!--Generated by ySVG 2.5-->
  <defs id="genericDefs"/>
  <g>
    <defs id="defs1">
      <clipPath clipPathUnits="userSpaceOnUse" id="clipPath1">
        <path d="M0 0 L745 0 L745 541 L0 541 L0 0 Z"/>
      </clipPath>
      <clipPath clipPathUnits="userSpaceOnUse" id="clipPath2">
        <path d="M-31 138 L714 138 L714 679 L-31 679 L-31 138 Z"/>
      </clipPath>
    </defs>
    <g fill="white" text-rendering="geometricPrecision" shape-rendering="geometricPrecision" transform="translate(31,-138)" stroke="white">
      <rect x="-31" width="745" height="541" y="138" clip-path="url(#clipPath2)" stroke="none"/>
    </g>
    <g fill="rgb(245,245,245)" text-rendering="geometricPrecision" shape-rendering="geometricPrecision" transform="matrix(1,0,0,1,31,-138)" stroke="rgb(245,245,245)">
      <rect x="321.4004" y="278.5703" clip-path="url(#clipPath2)" width="376.8965" rx="4" ry="4" height="299.4297" stroke="none"/>
      <rect x="321.4004" y="278.5703" clip-path="url(#clipPath2)" fill="rgb(235,235,235)" width="376.8965" height="21.4609" stroke="none"/>
    </g>
    <g font-size="15px" stroke-linecap="butt" transform="matrix(1,0,0,1,31,-138)" text-rendering="geometricPrecision" font-family="sans-serif" shape-rendering="geometricPrecision" stroke-miterlimit="1.45">
      <text x="472.5647" xml:space="preserve" y="294.4937" clip-path="url(#clipPath2)" stroke="none">Computer</text>
      <rect x="321.4004" y="278.5703" clip-path="url(#clipPath2)" fill="none" width="376.8965" stroke-dasharray="6,2" rx="4" ry="4" height="299.4297"/>
    </g>
    <g fill="rgb(255,204,0)" text-rendering="geometricPrecision" shape-rendering="geometricPrecision" transform="matrix(1,0,0,1,31,-138)" stroke="rgb(255,204,0)">
      <rect x="412.4717" width="91.0566" height="30" y="402" clip-path="url(#clipPath2)" stroke="none"/>
    </g>
    <g text-rendering="geometricPrecision" stroke-miterlimit="1.45" shape-rendering="geometricPrecision" transform="matrix(1,0,0,1,31,-138)" stroke-linecap="butt">
      <rect fill="none" x="412.4717" width="91.0566" height="30" y="402" clip-path="url(#clipPath2)"/>
      <text x="419.4717" xml:space="preserve" y="421.1543" clip-path="url(#clipPath2)" font-family="sans-serif" stroke="none">Bower cache</text>
    </g>
    <g fill="rgb(255,204,0)" text-rendering="geometricPrecision" shape-rendering="geometricPrecision" transform="matrix(1,0,0,1,31,-138)" stroke="rgb(255,204,0)">
      <rect x="356.9375" width="55.5312" height="30" y="533" clip-path="url(#clipPath2)" stroke="none"/>
    </g>
    <g text-rendering="geometricPrecision" stroke-miterlimit="1.45" shape-rendering="geometricPrecision" transform="matrix(1,0,0,1,31,-138)" stroke-linecap="butt">
      <rect fill="none" x="356.9375" width="55.5312" height="30" y="533" clip-path="url(#clipPath2)"/>
      <text x="363.9375" xml:space="preserve" y="552.1543" clip-path="url(#clipPath2)" font-family="sans-serif" stroke="none">Project</text>
    </g>
    <g fill="rgb(255,204,0)" text-rendering="geometricPrecision" shape-rendering="geometricPrecision" transform="matrix(1,0,0,1,31,-138)" stroke="rgb(255,204,0)">
      <rect x="586.7656" width="55.5312" height="30" y="402" clip-path="url(#clipPath2)" stroke="none"/>
    </g>
    <g text-rendering="geometricPrecision" stroke-miterlimit="1.45" shape-rendering="geometricPrecision" transform="matrix(1,0,0,1,31,-138)" stroke-linecap="butt">
      <rect fill="none" x="586.7656" width="55.5312" height="30" y="402" clip-path="url(#clipPath2)"/>
      <text x="593.7656" xml:space="preserve" y="421.1543" clip-path="url(#clipPath2)" font-family="sans-serif" stroke="none">Project</text>
    </g>
    <g fill="rgb(255,204,0)" text-rendering="geometricPrecision" shape-rendering="geometricPrecision" transform="matrix(1,0,0,1,31,-138)" stroke="rgb(255,204,0)">
      <rect x="430.2344" width="55.5312" height="30" y="533" clip-path="url(#clipPath2)" stroke="none"/>
    </g>
    <g text-rendering="geometricPrecision" stroke-miterlimit="1.45" shape-rendering="geometricPrecision" transform="matrix(1,0,0,1,31,-138)" stroke-linecap="butt">
      <rect fill="none" x="430.2344" width="55.5312" height="30" y="533" clip-path="url(#clipPath2)"/>
      <text x="437.2344" xml:space="preserve" y="552.1543" clip-path="url(#clipPath2)" font-family="sans-serif" stroke="none">Project</text>
    </g>
    <g fill="rgb(255,204,0)" text-rendering="geometricPrecision" shape-rendering="geometricPrecision" transform="matrix(1,0,0,1,31,-138)" stroke="rgb(255,204,0)">
      <rect x="520.4688" width="55.5312" height="30" y="533" clip-path="url(#clipPath2)" stroke="none"/>
    </g>
    <g text-rendering="geometricPrecision" stroke-miterlimit="1.45" shape-rendering="geometricPrecision" transform="matrix(1,0,0,1,31,-138)" stroke-linecap="butt">
      <rect fill="none" x="520.4688" width="55.5312" height="30" y="533" clip-path="url(#clipPath2)"/>
      <text x="527.4688" xml:space="preserve" y="552.1543" clip-path="url(#clipPath2)" font-family="sans-serif" stroke="none">Project</text>
    </g>
    <g fill="rgb(255,204,0)" text-rendering="geometricPrecision" shape-rendering="geometricPrecision" transform="matrix(1,0,0,1,31,-138)" stroke="rgb(255,204,0)">
      <rect x="418.2812" width="79.4375" height="30" y="359" clip-path="url(#clipPath2)" stroke="none"/>
    </g>
    <g text-rendering="geometricPrecision" stroke-miterlimit="1.45" shape-rendering="geometricPrecision" transform="matrix(1,0,0,1,31,-138)" stroke-linecap="butt">
      <rect fill="none" x="418.2812" width="79.4375" height="30" y="359" clip-path="url(#clipPath2)"/>
      <text x="425.2812" xml:space="preserve" y="378.1543" clip-path="url(#clipPath2)" font-family="sans-serif" stroke="none">bower.json</text>
      <text x="351.7373" y="328.1699" clip-path="url(#clipPath2)" font-family="sans-serif" stroke="none" font-weight="bold" xml:space="preserve">1. Bower config file determines</text>
      <text x="351.9658" y="342.1387" clip-path="url(#clipPath2)" font-family="sans-serif" stroke="none" font-weight="bold" xml:space="preserve">what dependencies are needed</text>
      <path fill="none" d="M449.6072 432 L397.0022 526.0185" clip-path="url(#clipPath2)"/>
      <path d="M393.0959 533 L403.3187 524.9692 L397.4904 525.1458 L394.5919 520.0864 Z" clip-path="url(#clipPath2)" stroke="none"/>
      <path fill="none" d="M503.5283 417 L578.7656 417" clip-path="url(#clipPath2)"/>
      <path d="M586.7656 417 L574.7656 412 L577.7656 417 L574.7656 422 Z" clip-path="url(#clipPath2)" stroke="none"/>
      <path fill="none" d="M458 432 L458 525" clip-path="url(#clipPath2)"/>
      <path d="M458 533 L463 521 L458 524 L453 521 Z" clip-path="url(#clipPath2)" stroke="none"/>
      <path fill="none" d="M468.3322 432 L533.3641 526.4117" clip-path="url(#clipPath2)"/>
      <path d="M537.9022 532.9999 L535.2127 520.2812 L532.7968 525.5881 L526.9774 525.9539 Z" clip-path="url(#clipPath2)" stroke="none"/>
      <text x="518.2104" y="467.1867" clip-path="url(#clipPath2)" font-family="sans-serif" stroke="none" font-weight="bold" xml:space="preserve">3. The same version of </text>
      <text x="536.7231" y="481.1554" clip-path="url(#clipPath2)" font-family="sans-serif" stroke="none" font-weight="bold" xml:space="preserve">a package is used</text>
      <text x="545.3013" y="495.1242" clip-path="url(#clipPath2)" font-family="sans-serif" stroke="none" font-weight="bold" xml:space="preserve">across multipe </text>
      <text x="532.8647" y="509.0929" clip-path="url(#clipPath2)" font-family="sans-serif" stroke="none" font-weight="bold" xml:space="preserve">projects on system</text>
    </g>
    <g fill="rgb(245,245,245)" text-rendering="geometricPrecision" shape-rendering="geometricPrecision" transform="matrix(1,0,0,1,31,-138)" stroke="rgb(245,245,245)">
      <rect x="-5.125" y="365.5391" clip-path="url(#clipPath2)" width="163.25" rx="4" ry="4" height="136.2305" stroke="none"/>
      <rect x="-5.125" y="365.5391" clip-path="url(#clipPath2)" fill="rgb(235,235,235)" width="163.25" height="21.4609" stroke="none"/>
    </g>
    <g font-size="15px" stroke-linecap="butt" transform="matrix(1,0,0,1,31,-138)" text-rendering="geometricPrecision" font-family="sans-serif" shape-rendering="geometricPrecision" stroke-miterlimit="1.45">
      <text x="19.5103" xml:space="preserve" y="381.4624" clip-path="url(#clipPath2)" stroke="none">Bower Registry</text>
      <rect x="-5.125" y="365.5391" clip-path="url(#clipPath2)" fill="none" width="163.25" stroke-dasharray="6,2" rx="4" ry="4" height="136.2305"/>
    </g>
    <g fill="rgb(255,204,0)" text-rendering="geometricPrecision" shape-rendering="geometricPrecision" transform="matrix(1,0,0,1,31,-138)" stroke="rgb(255,204,0)">
      <rect x="9.875" width="133.25" height="30" y="402" clip-path="url(#clipPath2)" stroke="none"/>
    </g>
    <g text-rendering="geometricPrecision" stroke-miterlimit="1.45" shape-rendering="geometricPrecision" transform="matrix(1,0,0,1,31,-138)" stroke-linecap="butt">
      <rect fill="none" x="9.875" width="133.25" height="30" y="402" clip-path="url(#clipPath2)"/>
      <text x="16.875" xml:space="preserve" y="421.1543" clip-path="url(#clipPath2)" font-family="sans-serif" stroke="none">Registered Package</text>
    </g>
    <g fill="rgb(255,204,0)" text-rendering="geometricPrecision" shape-rendering="geometricPrecision" transform="matrix(1,0,0,1,31,-138)" stroke="rgb(255,204,0)">
      <rect x="9.875" width="133.25" height="30" y="451" clip-path="url(#clipPath2)" stroke="none"/>
    </g>
    <g text-rendering="geometricPrecision" stroke-miterlimit="1.45" shape-rendering="geometricPrecision" transform="matrix(1,0,0,1,31,-138)" stroke-linecap="butt">
      <rect fill="none" x="9.875" width="133.25" height="30" y="451" clip-path="url(#clipPath2)"/>
      <text x="16.875" xml:space="preserve" y="470.1543" clip-path="url(#clipPath2)" font-family="sans-serif" stroke="none">Registered Package</text>
      <path fill="none" d="M614.5312 402 L614.5312 192 L76.5 192 L76.5 357.5415" clip-path="url(#clipPath2)"/>
      <path d="M76.5 365.5415 L81.5 353.5415 L76.5 356.5415 L71.5 353.5415 Z" clip-path="url(#clipPath2)" stroke="none"/>
      <text x="376.2919" y="166.1543" clip-path="url(#clipPath2)" font-family="sans-serif" stroke="none" font-weight="bold" xml:space="preserve">4. Publish package to Bower registry</text>
      <path fill="none" d="M143.125 417 L404.4717 417" clip-path="url(#clipPath2)"/>
      <path d="M412.4717 417 L400.4717 412 L403.4717 417 L400.4717 422 Z" clip-path="url(#clipPath2)" stroke="none"/>
      <text x="172.207" y="443.2012" clip-path="url(#clipPath2)" font-family="sans-serif" stroke="none" font-weight="bold" xml:space="preserve">2. Bower finds where </text>
      <text x="188.9531" y="457.1699" clip-path="url(#clipPath2)" font-family="sans-serif" stroke="none" font-weight="bold" xml:space="preserve">a dependency is </text>
      <text x="185.8682" y="471.1387" clip-path="url(#clipPath2)" font-family="sans-serif" stroke="none" font-weight="bold" xml:space="preserve">and downloads it </text>
      <text x="213.5303" y="485.1074" clip-path="url(#clipPath2)" font-family="sans-serif" stroke="none" font-weight="bold" xml:space="preserve">only once</text>
    </g>
    <g fill="rgb(245,245,245)" text-rendering="geometricPrecision" shape-rendering="geometricPrecision" transform="matrix(1,0,0,1,31,-138)" stroke="rgb(245,245,245)">
      <rect x="-15.8555" y="535.3086" clip-path="url(#clipPath2)" width="231" rx="4" ry="4" height="128.4609" stroke="none"/>
      <rect x="-15.8555" y="535.3086" clip-path="url(#clipPath2)" fill="rgb(235,235,235)" width="231" height="21.4609" stroke="none"/>
    </g>
    <g font-size="15px" stroke-linecap="butt" transform="matrix(1,0,0,1,31,-138)" text-rendering="geometricPrecision" font-family="sans-serif" shape-rendering="geometricPrecision" stroke-miterlimit="1.45">
      <text x="-3.5391" xml:space="preserve" y="551.2319" clip-path="url(#clipPath2)" stroke="none">Somewhere on the Internet</text>
      <rect x="-15.8555" y="535.3086" clip-path="url(#clipPath2)" fill="none" width="231" stroke-dasharray="6,2" rx="4" ry="4" height="128.4609"/>
    </g>
    <g fill="rgb(255,204,0)" text-rendering="geometricPrecision" shape-rendering="geometricPrecision" transform="matrix(1,0,0,1,31,-138)" stroke="rgb(255,204,0)">
      <rect x="135.6348" width="64.4902" height="30" y="571.7695" clip-path="url(#clipPath2)" stroke="none"/>
    </g>
    <g text-rendering="geometricPrecision" stroke-miterlimit="1.45" shape-rendering="geometricPrecision" transform="matrix(1,0,0,1,31,-138)" stroke-linecap="butt">
      <rect fill="none" x="135.6348" width="64.4902" height="30" y="571.7695" clip-path="url(#clipPath2)"/>
      <text x="142.6348" xml:space="preserve" y="590.9238" clip-path="url(#clipPath2)" font-family="sans-serif" stroke="none">Package</text>
    </g>
    <g fill="rgb(255,204,0)" text-rendering="geometricPrecision" shape-rendering="geometricPrecision" transform="matrix(1,0,0,1,31,-138)" stroke="rgb(255,204,0)">
      <rect x="-0.8555" width="64.4902" height="30" y="577" clip-path="url(#clipPath2)" stroke="none"/>
    </g>
    <g text-rendering="geometricPrecision" stroke-miterlimit="1.45" shape-rendering="geometricPrecision" transform="matrix(1,0,0,1,31,-138)" stroke-linecap="butt">
      <rect fill="none" x="-0.8555" width="64.4902" height="30" y="577" clip-path="url(#clipPath2)"/>
      <text x="6.1445" xml:space="preserve" y="596.1543" clip-path="url(#clipPath2)" font-family="sans-serif" stroke="none">Package</text>
    </g>
    <g fill="rgb(255,204,0)" text-rendering="geometricPrecision" shape-rendering="geometricPrecision" transform="matrix(1,0,0,1,31,-138)" stroke="rgb(255,204,0)">
      <rect x="78.3896" width="64.4902" height="30" y="618.7695" clip-path="url(#clipPath2)" stroke="none"/>
    </g>
    <g text-rendering="geometricPrecision" stroke-miterlimit="1.45" shape-rendering="geometricPrecision" transform="matrix(1,0,0,1,31,-138)" stroke-linecap="butt">
      <rect fill="none" x="78.3896" width="64.4902" height="30" y="618.7695" clip-path="url(#clipPath2)"/>
      <text x="85.3896" xml:space="preserve" y="637.9238" clip-path="url(#clipPath2)" font-family="sans-serif" stroke="none">Package</text>
      <path fill="none" d="M193.5135 571.7695 L425.4617 436.0404" clip-path="url(#clipPath2)"/>
      <path d="M432.3664 432 L419.4841 433.7452 L424.5986 436.5455 L424.5346 442.3761 Z" clip-path="url(#clipPath2)" stroke="none"/>
    </g>
  </g>
</svg>
