<?xml version="1.0" encoding="UTF-8"?><svg xmlns="http://www.w3.org/2000/svg" xmlns:xlink="http://www.w3.org/1999/xlink" fill-opacity="1" color-rendering="auto" color-interpolation="auto" text-rendering="auto" stroke="black" stroke-linecap="square" width="831" stroke-miterlimit="10" shape-rendering="auto" stroke-opacity="1" fill="black" stroke-dasharray="none" font-weight="normal" stroke-width="1" height="744" font-family="'Dialog'" font-style="normal" stroke-linejoin="miter" font-size="12px" stroke-dashoffset="0" image-rendering="auto">
  <!--Generated by ySVG 2.5-->
  <defs id="genericDefs"/>
  <g>
    <defs id="defs1">
      <clipPath clipPathUnits="userSpaceOnUse" id="clipPath1">
        <path d="M0 0 L831 0 L831 744 L0 744 L0 0 Z"/>
      </clipPath>
      <clipPath clipPathUnits="userSpaceOnUse" id="clipPath2">
        <path d="M25 224 L856 224 L856 968 L25 968 L25 224 Z"/>
      </clipPath>
    </defs>
    <g fill="white" text-rendering="geometricPrecision" shape-rendering="geometricPrecision" transform="translate(-25,-224)" stroke="white">
      <rect x="25" width="831" height="744" y="224" clip-path="url(#clipPath2)" stroke="none"/>
    </g>
    <g fill="rgb(245,245,245)" text-rendering="geometricPrecision" shape-rendering="geometricPrecision" transform="matrix(1,0,0,1,-25,-224)" stroke="rgb(245,245,245)">
      <rect x="40.5283" y="508.5391" clip-path="url(#clipPath2)" width="104.9434" rx="4" ry="4" height="229.4609" stroke="none"/>
      <rect x="40.5283" y="508.5391" clip-path="url(#clipPath2)" fill="rgb(235,235,235)" width="104.9434" height="21.4609" stroke="none"/>
    </g>
    <g font-size="15px" stroke-linecap="butt" transform="matrix(1,0,0,1,-25,-224)" text-rendering="geometricPrecision" font-family="sans-serif" shape-rendering="geometricPrecision" stroke-miterlimit="1.45">
      <text x="67.01" xml:space="preserve" y="524.4624" clip-path="url(#clipPath2)" stroke="none">GitHub</text>
      <rect x="40.5283" y="508.5391" clip-path="url(#clipPath2)" fill="none" width="104.9434" stroke-dasharray="6,2" rx="4" ry="4" height="229.4609"/>
    </g>
    <g fill="rgb(255,204,0)" text-rendering="geometricPrecision" shape-rendering="geometricPrecision" transform="matrix(1,0,0,1,-25,-224)" stroke="rgb(255,204,0)">
      <rect x="55.5283" width="74.9434" height="30" y="593" clip-path="url(#clipPath2)" stroke="none"/>
    </g>
    <g text-rendering="geometricPrecision" stroke-miterlimit="1.45" shape-rendering="geometricPrecision" transform="matrix(1,0,0,1,-25,-224)" stroke-linecap="butt">
      <rect fill="none" x="55.5283" width="74.9434" height="30" y="593" clip-path="url(#clipPath2)"/>
      <text x="62.5283" xml:space="preserve" y="612.1543" clip-path="url(#clipPath2)" font-family="sans-serif" stroke="none">repository</text>
    </g>
    <g fill="rgb(255,204,0)" text-rendering="geometricPrecision" shape-rendering="geometricPrecision" transform="matrix(1,0,0,1,-25,-224)" stroke="rgb(255,204,0)">
      <rect x="55.5283" width="74.9434" height="30" y="545" clip-path="url(#clipPath2)" stroke="none"/>
    </g>
    <g text-rendering="geometricPrecision" stroke-miterlimit="1.45" shape-rendering="geometricPrecision" transform="matrix(1,0,0,1,-25,-224)" stroke-linecap="butt">
      <rect fill="none" x="55.5283" width="74.9434" height="30" y="545" clip-path="url(#clipPath2)"/>
      <text x="62.5283" xml:space="preserve" y="564.1543" clip-path="url(#clipPath2)" font-family="sans-serif" stroke="none">repository</text>
    </g>
    <g fill="rgb(255,204,0)" text-rendering="geometricPrecision" shape-rendering="geometricPrecision" transform="matrix(1,0,0,1,-25,-224)" stroke="rgb(255,204,0)">
      <rect x="55.5283" width="74.9434" height="30" y="643" clip-path="url(#clipPath2)" stroke="none"/>
    </g>
    <g text-rendering="geometricPrecision" stroke-miterlimit="1.45" shape-rendering="geometricPrecision" transform="matrix(1,0,0,1,-25,-224)" stroke-linecap="butt">
      <rect fill="none" x="55.5283" width="74.9434" height="30" y="643" clip-path="url(#clipPath2)"/>
      <text x="62.5283" xml:space="preserve" y="662.1543" clip-path="url(#clipPath2)" font-family="sans-serif" stroke="none">repository</text>
    </g>
    <g fill="rgb(255,204,0)" text-rendering="geometricPrecision" shape-rendering="geometricPrecision" transform="matrix(1,0,0,1,-25,-224)" stroke="rgb(255,204,0)">
      <rect x="55.5283" width="74.9434" height="30" y="693" clip-path="url(#clipPath2)" stroke="none"/>
    </g>
    <g text-rendering="geometricPrecision" stroke-miterlimit="1.45" shape-rendering="geometricPrecision" transform="matrix(1,0,0,1,-25,-224)" stroke-linecap="butt">
      <rect fill="none" x="55.5283" width="74.9434" height="30" y="693" clip-path="url(#clipPath2)"/>
      <text x="62.5283" xml:space="preserve" y="712.1543" clip-path="url(#clipPath2)" font-family="sans-serif" stroke="none">repository</text>
    </g>
    <g fill="rgb(245,245,245)" text-rendering="geometricPrecision" shape-rendering="geometricPrecision" transform="matrix(1,0,0,1,-25,-224)" stroke="rgb(245,245,245)">
      <rect x="377.4014" y="239.6562" clip-path="url(#clipPath2)" width="462.8799" rx="4" ry="4" height="712.8047" stroke="none"/>
      <rect x="377.4014" y="239.6562" clip-path="url(#clipPath2)" fill="rgb(235,235,235)" width="462.8799" height="21.4609" stroke="none"/>
    </g>
    <g font-size="15px" stroke-linecap="butt" transform="matrix(1,0,0,1,-25,-224)" text-rendering="geometricPrecision" font-family="sans-serif" shape-rendering="geometricPrecision" stroke-miterlimit="1.45">
      <text x="571.5574" xml:space="preserve" y="255.5796" clip-path="url(#clipPath2)" stroke="none">Computer</text>
      <rect x="377.4014" y="239.6562" clip-path="url(#clipPath2)" fill="none" width="462.8799" stroke-dasharray="6,2" rx="4" ry="4" height="712.8047"/>
    </g>
    <g fill="rgb(225,225,225)" text-rendering="geometricPrecision" shape-rendering="geometricPrecision" transform="matrix(1,0,0,1,-25,-224)" stroke="rgb(225,225,225)">
      <rect x="392.9297" y="276.1172" clip-path="url(#clipPath2)" width="432.3516" rx="4" ry="4" height="359.8828" stroke="none"/>
      <rect x="392.9297" y="276.1172" clip-path="url(#clipPath2)" fill="rgb(235,235,235)" width="432.3516" height="21.4609" stroke="none"/>
    </g>
    <g font-size="15px" stroke-linecap="butt" transform="matrix(1,0,0,1,-25,-224)" text-rendering="geometricPrecision" font-family="sans-serif" shape-rendering="geometricPrecision" stroke-miterlimit="1.45">
      <text x="583.1484" xml:space="preserve" y="292.0405" clip-path="url(#clipPath2)" stroke="none">Project</text>
      <rect x="392.9297" y="276.1172" clip-path="url(#clipPath2)" fill="none" width="432.3516" stroke-dasharray="6,2" rx="4" ry="4" height="359.8828"/>
      <text x="542.418" font-size="12px" y="325.7168" clip-path="url(#clipPath2)" stroke="none" font-weight="bold" xml:space="preserve">1. Specifies the version of </text>
      <text x="542.418" font-size="12px" y="339.6855" clip-path="url(#clipPath2)" stroke="none" font-weight="bold" xml:space="preserve">a package set, which </text>
      <text x="542.418" font-size="12px" y="353.6543" clip-path="url(#clipPath2)" stroke="none" font-weight="bold" xml:space="preserve">defines a set of packages </text>
      <text x="542.418" font-size="12px" y="367.623" clip-path="url(#clipPath2)" stroke="none" font-weight="bold" xml:space="preserve">and their versions that compile </text>
      <text x="542.418" font-size="12px" y="381.5918" clip-path="url(#clipPath2)" stroke="none" font-weight="bold" xml:space="preserve">when used together</text>
    </g>
    <g fill="rgb(255,204,0)" text-rendering="geometricPrecision" shape-rendering="geometricPrecision" transform="matrix(1,0,0,1,-25,-224)" stroke="rgb(255,204,0)">
      <rect x="543.9297" width="89.5449" height="30" y="465" clip-path="url(#clipPath2)" stroke="none"/>
    </g>
    <g text-rendering="geometricPrecision" stroke-miterlimit="1.45" shape-rendering="geometricPrecision" transform="matrix(1,0,0,1,-25,-224)" stroke-linecap="butt">
      <rect fill="none" x="543.9297" width="89.5449" height="30" y="465" clip-path="url(#clipPath2)"/>
      <text x="550.9297" xml:space="preserve" y="484.1543" clip-path="url(#clipPath2)" font-family="sans-serif" stroke="none">src directory</text>
    </g>
    <g fill="rgb(205,205,205)" text-rendering="geometricPrecision" shape-rendering="geometricPrecision" transform="matrix(1,0,0,1,-25,-224)" stroke="rgb(205,205,205)">
      <rect x="407.9297" y="360.5391" clip-path="url(#clipPath2)" width="106" rx="4" ry="4" height="229.4609" stroke="none"/>
      <rect x="407.9297" y="360.5391" clip-path="url(#clipPath2)" fill="rgb(235,235,235)" width="106" height="21.4609" stroke="none"/>
    </g>
    <g font-size="15px" stroke-linecap="butt" transform="matrix(1,0,0,1,-25,-224)" text-rendering="geometricPrecision" font-family="sans-serif" shape-rendering="geometricPrecision" stroke-miterlimit="1.45">
      <text x="429.9717" xml:space="preserve" y="376.4624" clip-path="url(#clipPath2)" stroke="none">Local Copy</text>
      <rect x="407.9297" y="360.5391" clip-path="url(#clipPath2)" fill="none" width="106" stroke-dasharray="6,2" rx="4" ry="4" height="229.4609"/>
    </g>
    <g fill="rgb(255,204,0)" text-rendering="geometricPrecision" shape-rendering="geometricPrecision" transform="matrix(1,0,0,1,-25,-224)" stroke="rgb(255,204,0)">
      <rect x="422.9297" width="74.9434" height="30" y="445" clip-path="url(#clipPath2)" stroke="none"/>
    </g>
    <g text-rendering="geometricPrecision" stroke-miterlimit="1.45" shape-rendering="geometricPrecision" transform="matrix(1,0,0,1,-25,-224)" stroke-linecap="butt">
      <rect fill="none" x="422.9297" width="74.9434" height="30" y="445" clip-path="url(#clipPath2)"/>
      <text x="429.9297" xml:space="preserve" y="464.1543" clip-path="url(#clipPath2)" font-family="sans-serif" stroke="none">repository</text>
    </g>
    <g fill="rgb(255,204,0)" text-rendering="geometricPrecision" shape-rendering="geometricPrecision" transform="matrix(1,0,0,1,-25,-224)" stroke="rgb(255,204,0)">
      <rect x="422.9297" width="74.9434" height="30" y="397" clip-path="url(#clipPath2)" stroke="none"/>
    </g>
    <g text-rendering="geometricPrecision" stroke-miterlimit="1.45" shape-rendering="geometricPrecision" transform="matrix(1,0,0,1,-25,-224)" stroke-linecap="butt">
      <rect fill="none" x="422.9297" width="74.9434" height="30" y="397" clip-path="url(#clipPath2)"/>
      <text x="429.9297" xml:space="preserve" y="416.1543" clip-path="url(#clipPath2)" font-family="sans-serif" stroke="none">repository</text>
    </g>
    <g fill="rgb(255,204,0)" text-rendering="geometricPrecision" shape-rendering="geometricPrecision" transform="matrix(1,0,0,1,-25,-224)" stroke="rgb(255,204,0)">
      <rect x="422.9297" width="74.9434" height="30" y="495" clip-path="url(#clipPath2)" stroke="none"/>
    </g>
    <g text-rendering="geometricPrecision" stroke-miterlimit="1.45" shape-rendering="geometricPrecision" transform="matrix(1,0,0,1,-25,-224)" stroke-linecap="butt">
      <rect fill="none" x="422.9297" width="74.9434" height="30" y="495" clip-path="url(#clipPath2)"/>
      <text x="429.9297" xml:space="preserve" y="514.1543" clip-path="url(#clipPath2)" font-family="sans-serif" stroke="none">repository</text>
    </g>
    <g fill="rgb(255,204,0)" text-rendering="geometricPrecision" shape-rendering="geometricPrecision" transform="matrix(1,0,0,1,-25,-224)" stroke="rgb(255,204,0)">
      <rect x="422.9297" width="74.9434" height="30" y="545" clip-path="url(#clipPath2)" stroke="none"/>
    </g>
    <g text-rendering="geometricPrecision" stroke-miterlimit="1.45" shape-rendering="geometricPrecision" transform="matrix(1,0,0,1,-25,-224)" stroke-linecap="butt">
      <rect fill="none" x="422.9297" width="74.9434" height="30" y="545" clip-path="url(#clipPath2)"/>
      <text x="429.9297" xml:space="preserve" y="564.1543" clip-path="url(#clipPath2)" font-family="sans-serif" stroke="none">repository</text>
    </g>
    <g fill="rgb(255,204,0)" text-rendering="geometricPrecision" shape-rendering="geometricPrecision" transform="matrix(1,0,0,1,-25,-224)" stroke="rgb(255,204,0)">
      <rect x="658.6318" width="94.8066" height="30" y="465" clip-path="url(#clipPath2)" stroke="none"/>
    </g>
    <g text-rendering="geometricPrecision" stroke-miterlimit="1.45" shape-rendering="geometricPrecision" transform="matrix(1,0,0,1,-25,-224)" stroke-linecap="butt">
      <rect fill="none" x="658.6318" width="94.8066" height="30" y="465" clip-path="url(#clipPath2)"/>
      <text x="665.6318" xml:space="preserve" y="484.1543" clip-path="url(#clipPath2)" font-family="sans-serif" stroke="none">test directory</text>
    </g>
    <g fill="rgb(255,204,0)" text-rendering="geometricPrecision" shape-rendering="geometricPrecision" transform="matrix(1,0,0,1,-25,-224)" stroke="rgb(255,204,0)">
      <rect x="561.9121" width="53.5801" height="30" y="537.0391" clip-path="url(#clipPath2)" stroke="none"/>
    </g>
    <g text-rendering="geometricPrecision" stroke-miterlimit="1.45" shape-rendering="geometricPrecision" transform="matrix(1,0,0,1,-25,-224)" stroke-linecap="butt">
      <rect fill="none" x="561.9121" width="53.5801" height="30" y="537.0391" clip-path="url(#clipPath2)"/>
      <text x="568.9121" xml:space="preserve" y="556.1934" clip-path="url(#clipPath2)" font-family="sans-serif" stroke="none">output</text>
    </g>
    <g fill="rgb(255,204,0)" text-rendering="geometricPrecision" shape-rendering="geometricPrecision" transform="matrix(1,0,0,1,-25,-224)" stroke="rgb(255,204,0)">
      <rect x="558.5312" width="144.3418" height="30" y="405" clip-path="url(#clipPath2)" stroke="none"/>
    </g>
    <g text-rendering="geometricPrecision" stroke-miterlimit="1.45" shape-rendering="geometricPrecision" transform="matrix(1,0,0,1,-25,-224)" stroke-linecap="butt">
      <rect fill="none" x="558.5312" width="144.3418" height="30" y="405" clip-path="url(#clipPath2)"/>
      <text x="565.5312" xml:space="preserve" y="424.1543" clip-path="url(#clipPath2)" font-family="sans-serif" stroke="none">package set's version</text>
      <path fill="none" d="M145.5036 602.1499 L400.4874 499.5825" clip-path="url(#clipPath2)"/>
      <path d="M407.9095 496.597 L394.9104 496.4365 L399.5597 499.9557 L398.6424 505.714 Z" clip-path="url(#clipPath2)" stroke="none"/>
      <text x="179.8301" y="602.2168" clip-path="url(#clipPath2)" font-family="sans-serif" stroke="none" font-weight="bold" xml:space="preserve">2. shallow `git clone`s </text>
      <text x="179.8301" y="616.1855" clip-path="url(#clipPath2)" font-family="sans-serif" stroke="none" font-weight="bold" xml:space="preserve">the  required repositories</text>
      <text x="179.8301" y="630.1543" clip-path="url(#clipPath2)" font-family="sans-serif" stroke="none" font-weight="bold" xml:space="preserve">and stores a local </text>
      <text x="179.8301" y="644.123" clip-path="url(#clipPath2)" font-family="sans-serif" stroke="none" font-weight="bold" xml:space="preserve">copy in each project's </text>
      <text x="179.8301" y="658.0918" clip-path="url(#clipPath2)" font-family="sans-serif" stroke="none" font-weight="bold" xml:space="preserve">root directory</text>
      <path fill="none" d="M497.873 557.6749 L553.9275 554.1968" clip-path="url(#clipPath2)"/>
      <path d="M561.9121 553.7014 L549.6255 549.4541 L552.9294 554.2587 L550.2448 559.4349 Z" clip-path="url(#clipPath2)" stroke="none"/>
      <path fill="none" d="M497.873 522.278 L554.3098 540.7701" clip-path="url(#clipPath2)"/>
      <path d="M561.9121 543.261 L552.0655 534.7731 L553.3595 540.4587 L548.9518 544.2761 Z" clip-path="url(#clipPath2)" stroke="none"/>
      <path fill="none" d="M588.7021 495 L588.7021 529.0391" clip-path="url(#clipPath2)"/>
      <path d="M588.7021 537.0391 L593.7021 525.0391 L588.7021 528.0391 L583.7021 525.0391 Z" clip-path="url(#clipPath2)" stroke="none"/>
      <path fill="none" d="M681.604 495 L619.9508 532.8533" clip-path="url(#clipPath2)"/>
      <path d="M613.1332 537.0391 L625.9757 535.0213 L620.803 532.33 L620.7434 526.4994 Z" clip-path="url(#clipPath2)" stroke="none"/>
      <text x="511.4824" y="615.1543" clip-path="url(#clipPath2)" font-family="sans-serif" stroke="none" font-weight="bold" xml:space="preserve">3. Compiles used dependencies + src + test</text>
    </g>
    <g fill="rgb(225,225,225)" text-rendering="geometricPrecision" shape-rendering="geometricPrecision" transform="matrix(1,0,0,1,-25,-224)" stroke="rgb(225,225,225)">
      <rect x="392.4014" y="656.5391" clip-path="url(#clipPath2)" width="432.8799" rx="4" ry="4" height="280.9219" stroke="none"/>
      <rect x="392.4014" y="656.5391" clip-path="url(#clipPath2)" fill="rgb(235,235,235)" width="432.8799" height="21.4609" stroke="none"/>
    </g>
    <g font-size="15px" stroke-linecap="butt" transform="matrix(1,0,0,1,-25,-224)" text-rendering="geometricPrecision" font-family="sans-serif" shape-rendering="geometricPrecision" stroke-miterlimit="1.45">
      <text x="582.8843" xml:space="preserve" y="672.4624" clip-path="url(#clipPath2)" stroke="none">Project</text>
      <rect x="392.4014" y="656.5391" clip-path="url(#clipPath2)" fill="none" width="432.8799" stroke-dasharray="6,2" rx="4" ry="4" height="280.9219"/>
    </g>
    <g fill="rgb(255,204,0)" text-rendering="geometricPrecision" shape-rendering="geometricPrecision" transform="matrix(1,0,0,1,-25,-224)" stroke="rgb(255,204,0)">
      <rect x="543.9297" width="89.5449" height="30" y="777.4609" clip-path="url(#clipPath2)" stroke="none"/>
    </g>
    <g text-rendering="geometricPrecision" stroke-miterlimit="1.45" shape-rendering="geometricPrecision" transform="matrix(1,0,0,1,-25,-224)" stroke-linecap="butt">
      <rect fill="none" x="543.9297" width="89.5449" height="30" y="777.4609" clip-path="url(#clipPath2)"/>
      <text x="550.9297" xml:space="preserve" y="796.6152" clip-path="url(#clipPath2)" font-family="sans-serif" stroke="none">src directory</text>
    </g>
    <g fill="rgb(205,205,205)" text-rendering="geometricPrecision" shape-rendering="geometricPrecision" transform="matrix(1,0,0,1,-25,-224)" stroke="rgb(205,205,205)">
      <rect x="407.4014" y="693" clip-path="url(#clipPath2)" width="106" rx="4" ry="4" height="229.4609" stroke="none"/>
      <rect x="407.4014" y="693" clip-path="url(#clipPath2)" fill="rgb(235,235,235)" width="106" height="21.4609" stroke="none"/>
    </g>
    <g font-size="15px" stroke-linecap="butt" transform="matrix(1,0,0,1,-25,-224)" text-rendering="geometricPrecision" font-family="sans-serif" shape-rendering="geometricPrecision" stroke-miterlimit="1.45">
      <text x="429.4434" xml:space="preserve" y="708.9233" clip-path="url(#clipPath2)" stroke="none">Local Copy</text>
      <rect x="407.4014" y="693" clip-path="url(#clipPath2)" fill="none" width="106" stroke-dasharray="6,2" rx="4" ry="4" height="229.4609"/>
    </g>
    <g fill="rgb(255,204,0)" text-rendering="geometricPrecision" shape-rendering="geometricPrecision" transform="matrix(1,0,0,1,-25,-224)" stroke="rgb(255,204,0)">
      <rect x="422.4014" width="74.9434" height="30" y="777.4609" clip-path="url(#clipPath2)" stroke="none"/>
    </g>
    <g text-rendering="geometricPrecision" stroke-miterlimit="1.45" shape-rendering="geometricPrecision" transform="matrix(1,0,0,1,-25,-224)" stroke-linecap="butt">
      <rect fill="none" x="422.4014" width="74.9434" height="30" y="777.4609" clip-path="url(#clipPath2)"/>
      <text x="429.4014" xml:space="preserve" y="796.6152" clip-path="url(#clipPath2)" font-family="sans-serif" stroke="none">repository</text>
    </g>
    <g fill="rgb(255,204,0)" text-rendering="geometricPrecision" shape-rendering="geometricPrecision" transform="matrix(1,0,0,1,-25,-224)" stroke="rgb(255,204,0)">
      <rect x="422.4014" width="74.9434" height="30" y="729.4609" clip-path="url(#clipPath2)" stroke="none"/>
    </g>
    <g text-rendering="geometricPrecision" stroke-miterlimit="1.45" shape-rendering="geometricPrecision" transform="matrix(1,0,0,1,-25,-224)" stroke-linecap="butt">
      <rect fill="none" x="422.4014" width="74.9434" height="30" y="729.4609" clip-path="url(#clipPath2)"/>
      <text x="429.4014" xml:space="preserve" y="748.6152" clip-path="url(#clipPath2)" font-family="sans-serif" stroke="none">repository</text>
    </g>
    <g fill="rgb(255,204,0)" text-rendering="geometricPrecision" shape-rendering="geometricPrecision" transform="matrix(1,0,0,1,-25,-224)" stroke="rgb(255,204,0)">
      <rect x="422.4014" width="74.9434" height="30" y="827.4609" clip-path="url(#clipPath2)" stroke="none"/>
    </g>
    <g text-rendering="geometricPrecision" stroke-miterlimit="1.45" shape-rendering="geometricPrecision" transform="matrix(1,0,0,1,-25,-224)" stroke-linecap="butt">
      <rect fill="none" x="422.4014" width="74.9434" height="30" y="827.4609" clip-path="url(#clipPath2)"/>
      <text x="429.4014" xml:space="preserve" y="846.6152" clip-path="url(#clipPath2)" font-family="sans-serif" stroke="none">repository</text>
    </g>
    <g fill="rgb(255,204,0)" text-rendering="geometricPrecision" shape-rendering="geometricPrecision" transform="matrix(1,0,0,1,-25,-224)" stroke="rgb(255,204,0)">
      <rect x="422.4014" width="74.9434" height="30" y="877.4609" clip-path="url(#clipPath2)" stroke="none"/>
    </g>
    <g text-rendering="geometricPrecision" stroke-miterlimit="1.45" shape-rendering="geometricPrecision" transform="matrix(1,0,0,1,-25,-224)" stroke-linecap="butt">
      <rect fill="none" x="422.4014" width="74.9434" height="30" y="877.4609" clip-path="url(#clipPath2)"/>
      <text x="429.4014" xml:space="preserve" y="896.6152" clip-path="url(#clipPath2)" font-family="sans-serif" stroke="none">repository</text>
    </g>
    <g fill="rgb(255,204,0)" text-rendering="geometricPrecision" shape-rendering="geometricPrecision" transform="matrix(1,0,0,1,-25,-224)" stroke="rgb(255,204,0)">
      <rect x="658.6318" width="94.8066" height="30" y="777.4609" clip-path="url(#clipPath2)" stroke="none"/>
    </g>
    <g text-rendering="geometricPrecision" stroke-miterlimit="1.45" shape-rendering="geometricPrecision" transform="matrix(1,0,0,1,-25,-224)" stroke-linecap="butt">
      <rect fill="none" x="658.6318" width="94.8066" height="30" y="777.4609" clip-path="url(#clipPath2)"/>
      <text x="665.6318" xml:space="preserve" y="796.6152" clip-path="url(#clipPath2)" font-family="sans-serif" stroke="none">test directory</text>
    </g>
    <g fill="rgb(255,204,0)" text-rendering="geometricPrecision" shape-rendering="geometricPrecision" transform="matrix(1,0,0,1,-25,-224)" stroke="rgb(255,204,0)">
      <rect x="550.6045" width="134.791" height="30" y="722" clip-path="url(#clipPath2)" stroke="none"/>
    </g>
    <g text-rendering="geometricPrecision" stroke-miterlimit="1.45" shape-rendering="geometricPrecision" transform="matrix(1,0,0,1,-25,-224)" stroke-linecap="butt">
      <rect fill="none" x="550.6045" width="134.791" height="30" y="722" clip-path="url(#clipPath2)"/>
      <text x="557.6045" xml:space="preserve" y="741.1543" clip-path="url(#clipPath2)" font-family="sans-serif" stroke="none">package set version</text>
    </g>
    <g fill="rgb(255,204,0)" text-rendering="geometricPrecision" shape-rendering="geometricPrecision" transform="matrix(1,0,0,1,-25,-224)" stroke="rgb(255,204,0)">
      <rect x="561.9121" width="53.5801" height="30" y="857.5391" clip-path="url(#clipPath2)" stroke="none"/>
    </g>
    <g text-rendering="geometricPrecision" stroke-miterlimit="1.45" shape-rendering="geometricPrecision" transform="matrix(1,0,0,1,-25,-224)" stroke-linecap="butt">
      <rect fill="none" x="561.9121" width="53.5801" height="30" y="857.5391" clip-path="url(#clipPath2)"/>
      <text x="568.9121" xml:space="preserve" y="876.6934" clip-path="url(#clipPath2)" font-family="sans-serif" stroke="none">output</text>
      <path fill="none" d="M145.4507 649.6034 L400.2346 777.5226" clip-path="url(#clipPath2)"/>
      <path d="M407.3842 781.1122 L398.9034 771.2595 L399.341 777.074 L394.4164 780.1963 Z" clip-path="url(#clipPath2)" stroke="none"/>
      <path fill="none" d="M497.3447 886.6664 L554.0061 877.9044" clip-path="url(#clipPath2)"/>
      <path d="M561.9121 876.6818 L549.2889 873.5745 L553.0178 878.0573 L550.8172 883.457 Z" clip-path="url(#clipPath2)" stroke="none"/>
      <path fill="none" d="M497.3447 851.2096 L554.1216 864.4655" clip-path="url(#clipPath2)"/>
      <path d="M561.9121 866.2843 L551.3632 858.687 L553.1478 864.2381 L549.0896 868.425 Z" clip-path="url(#clipPath2)" stroke="none"/>
      <path fill="none" d="M588.7021 807.4609 L588.7021 849.5391" clip-path="url(#clipPath2)"/>
      <path d="M588.7021 857.5391 L593.7021 845.5391 L588.7021 848.5391 L583.7021 845.5391 Z" clip-path="url(#clipPath2)" stroke="none"/>
      <path fill="none" d="M684.0567 807.4609 L617.2884 853.0294" clip-path="url(#clipPath2)"/>
      <path d="M610.6806 857.5391 L623.4108 854.9044 L618.1143 852.4656 L617.7737 846.6447 Z" clip-path="url(#clipPath2)" stroke="none"/>
    </g>
  </g>
</svg>
