<?xml version="1.0" encoding="UTF-8"?><svg xmlns="http://www.w3.org/2000/svg" xmlns:xlink="http://www.w3.org/1999/xlink" fill-opacity="1" color-rendering="auto" color-interpolation="auto" text-rendering="auto" stroke="black" stroke-linecap="square" width="752" stroke-miterlimit="10" shape-rendering="auto" stroke-opacity="1" fill="black" stroke-dasharray="none" font-weight="normal" stroke-width="1" height="1041" font-family="'Dialog'" font-style="normal" stroke-linejoin="miter" font-size="12px" stroke-dashoffset="0" image-rendering="auto">
  <!--Generated by ySVG 2.5-->
  <defs id="genericDefs"/>
  <g>
    <defs id="defs1">
      <clipPath clipPathUnits="userSpaceOnUse" id="clipPath1">
        <path d="M0 0 L752 0 L752 1041 L0 1041 L0 0 Z"/>
      </clipPath>
      <clipPath clipPathUnits="userSpaceOnUse" id="clipPath2">
        <path d="M369 194 L1121 194 L1121 1235 L369 1235 L369 194 Z"/>
      </clipPath>
    </defs>
    <g fill="white" text-rendering="geometricPrecision" shape-rendering="geometricPrecision" transform="translate(-369,-194)" stroke="white">
      <rect x="369" width="752" height="1041" y="194" clip-path="url(#clipPath2)" stroke="none"/>
    </g>
    <g fill="rgb(255,204,0)" text-rendering="geometricPrecision" shape-rendering="geometricPrecision" transform="matrix(1,0,0,1,-369,-194)" stroke="rgb(255,204,0)">
      <rect x="510.7871" width="172.4258" height="30" y="209" clip-path="url(#clipPath2)" stroke="none"/>
    </g>
    <g text-rendering="geometricPrecision" stroke-miterlimit="1.45" shape-rendering="geometricPrecision" transform="matrix(1,0,0,1,-369,-194)" stroke-linecap="butt">
      <rect fill="none" x="510.7871" width="172.4258" height="30" y="209" clip-path="url(#clipPath2)"/>
      <text x="517.7871" xml:space="preserve" y="228.1543" clip-path="url(#clipPath2)" font-family="sans-serif" stroke="none">f :: b -&gt; Maybe (Tuple a b)</text>
    </g>
    <g fill="rgb(255,204,0)" text-rendering="geometricPrecision" shape-rendering="geometricPrecision" transform="matrix(1,0,0,1,-369,-194)" stroke="rgb(255,204,0)">
      <rect x="754.043" width="78.1543" height="30" y="209" clip-path="url(#clipPath2)" stroke="none"/>
    </g>
    <g text-rendering="geometricPrecision" stroke-miterlimit="1.45" shape-rendering="geometricPrecision" transform="matrix(1,0,0,1,-369,-194)" stroke-linecap="butt">
      <rect fill="none" x="754.043" width="78.1543" height="30" y="209" clip-path="url(#clipPath2)"/>
      <text x="761.043" xml:space="preserve" y="228.1543" clip-path="url(#clipPath2)" font-family="sans-serif" stroke="none">bInitial :: b</text>
    </g>
    <g fill="rgb(255,204,0)" text-rendering="geometricPrecision" shape-rendering="geometricPrecision" transform="matrix(1,0,0,1,-369,-194)" stroke="rgb(255,204,0)">
      <path d="M686.6895 328 L735.1201 296 L783.5508 328 L735.1201 360 Z" fill-rule="evenodd" clip-path="url(#clipPath2)" stroke="none"/>
    </g>
    <g text-rendering="geometricPrecision" stroke-miterlimit="1.45" shape-rendering="geometricPrecision" transform="matrix(1,0,0,1,-369,-194)" stroke-linecap="butt">
      <path fill="none" d="M686.6895 328 L735.1201 296 L783.5508 328 L735.1201 360 Z" fill-rule="evenodd" clip-path="url(#clipPath2)"/>
      <text x="710.6895" xml:space="preserve" y="332.1543" clip-path="url(#clipPath2)" font-family="sans-serif" stroke="none">f bInitial</text>
      <path fill="none" d="M643.04 239 L735.1201 269 L735.1201 287.9937" clip-path="url(#clipPath2)"/>
      <path d="M735.1201 295.9937 L740.1201 283.9937 L735.1201 286.9937 L730.1201 283.9937 Z" clip-path="url(#clipPath2)" stroke="none"/>
      <path fill="none" d="M773.7868 239 L735.1201 269 L735.1201 287.9937" clip-path="url(#clipPath2)"/>
      <path d="M735.1201 295.9937 L740.1201 283.9937 L735.1201 286.9937 L730.1201 283.9937 Z" clip-path="url(#clipPath2)" stroke="none"/>
    </g>
    <g fill="rgb(245,245,245)" text-rendering="geometricPrecision" shape-rendering="geometricPrecision" transform="matrix(1,0,0,1,-369,-194)" stroke="rgb(245,245,245)">
      <rect x="676" y="425" clip-path="url(#clipPath2)" width="118.2402" rx="4" ry="4" height="81.4609" stroke="none"/>
      <rect x="676" y="425" clip-path="url(#clipPath2)" fill="rgb(235,235,235)" width="118.2402" height="21.4609" stroke="none"/>
    </g>
    <g font-size="15px" stroke-linecap="butt" transform="matrix(1,0,0,1,-369,-194)" text-rendering="geometricPrecision" font-family="sans-serif" shape-rendering="geometricPrecision" stroke-miterlimit="1.45">
      <text x="700.2019" xml:space="preserve" y="440.9233" clip-path="url(#clipPath2)" stroke="none">Tuple a b</text>
      <rect x="676" y="425" clip-path="url(#clipPath2)" fill="none" width="118.2402" stroke-dasharray="6,2" rx="4" ry="4" height="81.4609"/>
    </g>
    <g fill="rgb(255,204,0)" text-rendering="geometricPrecision" shape-rendering="geometricPrecision" transform="matrix(1,0,0,1,-369,-194)" stroke="rgb(255,204,0)">
      <rect x="750.252" width="28.9883" height="30" y="461.4609" clip-path="url(#clipPath2)" stroke="none"/>
    </g>
    <g text-rendering="geometricPrecision" stroke-miterlimit="1.45" shape-rendering="geometricPrecision" transform="matrix(1,0,0,1,-369,-194)" stroke-linecap="butt">
      <rect fill="none" x="750.252" width="28.9883" height="30" y="461.4609" clip-path="url(#clipPath2)"/>
      <text x="757.252" xml:space="preserve" y="480.6152" clip-path="url(#clipPath2)" font-family="sans-serif" stroke="none">a1</text>
    </g>
    <g fill="rgb(255,204,0)" text-rendering="geometricPrecision" shape-rendering="geometricPrecision" transform="matrix(1,0,0,1,-369,-194)" stroke="rgb(255,204,0)">
      <rect x="694.374" width="29.252" height="30" y="461.4609" clip-path="url(#clipPath2)" stroke="none"/>
    </g>
    <g text-rendering="geometricPrecision" stroke-miterlimit="1.45" shape-rendering="geometricPrecision" transform="matrix(1,0,0,1,-369,-194)" stroke-linecap="butt">
      <rect fill="none" x="694.374" width="29.252" height="30" y="461.4609" clip-path="url(#clipPath2)"/>
      <text x="701.374" xml:space="preserve" y="480.6152" clip-path="url(#clipPath2)" font-family="sans-serif" stroke="none">b2</text>
      <path fill="none" d="M735.1201 359.9779 L735.1201 417.0147" clip-path="url(#clipPath2)"/>
      <path d="M735.1201 425.0147 L740.1201 413.0147 L735.1201 416.0147 L730.1201 413.0147 Z" clip-path="url(#clipPath2)" stroke="none"/>
      <text x="791.0693" xml:space="preserve" y="378.1387" clip-path="url(#clipPath2)" font-family="sans-serif" stroke="none">Just</text>
      <text x="743.8633" xml:space="preserve" y="392.1074" clip-path="url(#clipPath2)" font-family="sans-serif" stroke="none">(continue loop and </text>
      <text x="743.6289" xml:space="preserve" y="406.0762" clip-path="url(#clipPath2)" font-family="sans-serif" stroke="none">accumulate a1 in t)</text>
    </g>
    <g fill="rgb(245,245,245)" text-rendering="geometricPrecision" shape-rendering="geometricPrecision" transform="matrix(1,0,0,1,-369,-194)" stroke="rgb(245,245,245)">
      <rect x="1003.8127" y="287.2695" clip-path="url(#clipPath2)" width="102.0547" rx="4" ry="4" height="81.4609" stroke="none"/>
      <rect x="1003.8127" y="287.2695" clip-path="url(#clipPath2)" fill="rgb(235,235,235)" width="102.0547" height="21.4609" stroke="none"/>
    </g>
    <g font-size="15px" stroke-linecap="butt" transform="matrix(1,0,0,1,-369,-194)" text-rendering="geometricPrecision" font-family="sans-serif" shape-rendering="geometricPrecision" stroke-miterlimit="1.45">
      <text x="1051.8993" xml:space="preserve" y="303.1929" clip-path="url(#clipPath2)" stroke="none">t</text>
      <rect x="1003.8127" y="287.2695" clip-path="url(#clipPath2)" fill="none" width="102.0547" stroke-dasharray="6,2" rx="4" ry="4" height="81.4609"/>
      <path fill="none" d="M783.5543 328 L995.8083 328" clip-path="url(#clipPath2)"/>
      <path d="M1003.8083 328 L991.8083 323 L994.8083 328 L991.8083 333 Z" stroke="none" clip-path="url(#clipPath2)"/>
      <text x="859.8672" xml:space="preserve" font-size="12px" y="295.1699" clip-path="url(#clipPath2)" stroke="none">Nothing</text>
      <text x="790.5508" xml:space="preserve" font-size="12px" y="309.1387" clip-path="url(#clipPath2)" stroke="none">(exit loop and return `t` value)</text>
    </g>
    <g fill="rgb(245,245,245)" text-rendering="geometricPrecision" shape-rendering="geometricPrecision" transform="matrix(1,0,0,1,-369,-194)" stroke="rgb(245,245,245)">
      <rect x="899.5585" y="374.5409" clip-path="url(#clipPath2)" width="58.9883" rx="4" ry="4" height="81.4609" stroke="none"/>
      <rect x="899.5585" y="374.5409" clip-path="url(#clipPath2)" fill="rgb(235,235,235)" width="58.9883" height="21.4609" stroke="none"/>
    </g>
    <g font-size="15px" stroke-linecap="butt" transform="matrix(1,0,0,1,-369,-194)" text-rendering="geometricPrecision" font-family="sans-serif" shape-rendering="geometricPrecision" stroke-miterlimit="1.45">
      <text x="926.112" xml:space="preserve" y="390.4643" clip-path="url(#clipPath2)" stroke="none">t</text>
      <rect x="899.5585" y="374.5409" clip-path="url(#clipPath2)" fill="none" width="58.9883" stroke-dasharray="6,2" rx="4" ry="4" height="81.4609"/>
    </g>
    <g fill="rgb(255,204,0)" text-rendering="geometricPrecision" shape-rendering="geometricPrecision" transform="matrix(1,0,0,1,-369,-194)" stroke="rgb(255,204,0)">
      <rect x="914.5585" width="28.9883" height="30" y="411.0019" clip-path="url(#clipPath2)" stroke="none"/>
    </g>
    <g text-rendering="geometricPrecision" stroke-miterlimit="1.45" shape-rendering="geometricPrecision" transform="matrix(1,0,0,1,-369,-194)" stroke-linecap="butt">
      <rect fill="none" x="914.5585" width="28.9883" height="30" y="411.0019" clip-path="url(#clipPath2)"/>
      <text x="921.5585" xml:space="preserve" y="430.1562" clip-path="url(#clipPath2)" font-family="sans-serif" stroke="none">a1</text>
    </g>
    <g fill="rgb(255,204,0)" text-rendering="geometricPrecision" shape-rendering="geometricPrecision" transform="matrix(1,0,0,1,-369,-194)" stroke="rgb(255,204,0)">
      <path d="M614.9405 568.4609 L649.586 536.4609 L684.2315 568.4609 L649.586 600.4609 Z" fill-rule="evenodd" clip-path="url(#clipPath2)" stroke="none"/>
    </g>
    <g text-rendering="geometricPrecision" stroke-miterlimit="1.45" shape-rendering="geometricPrecision" transform="matrix(1,0,0,1,-369,-194)" stroke-linecap="butt">
      <path fill="none" d="M614.9405 568.4609 L649.586 536.4609 L684.2315 568.4609 L649.586 600.4609 Z" fill-rule="evenodd" clip-path="url(#clipPath2)"/>
      <text x="637.9405" xml:space="preserve" y="572.6152" clip-path="url(#clipPath2)" font-family="sans-serif" stroke="none">f b2</text>
      <path fill="none" d="M779.2402 476.4609 L929.0527 476.4609 L929.0527 449.0019" clip-path="url(#clipPath2)"/>
      <path d="M929.0527 441.0019 L924.0527 453.0019 L929.0527 450.0019 L934.0527 453.0019 Z" clip-path="url(#clipPath2)" stroke="none"/>
      <path fill="none" d="M694.374 476.4609 L649.586 476.4609 L649.586 528.4316" clip-path="url(#clipPath2)"/>
      <path d="M649.586 536.4316 L654.586 524.4316 L649.586 527.4316 L644.586 524.4316 Z" clip-path="url(#clipPath2)" stroke="none"/>
      <path fill="none" d="M600.1244 239 L649.586 476.4609 L649.586 528.4316" clip-path="url(#clipPath2)"/>
      <path d="M649.586 536.4316 L654.586 524.4316 L649.586 527.4316 L644.586 524.4316 Z" clip-path="url(#clipPath2)" stroke="none"/>
    </g>
    <g fill="rgb(245,245,245)" text-rendering="geometricPrecision" shape-rendering="geometricPrecision" transform="matrix(1,0,0,1,-369,-194)" stroke="rgb(245,245,245)">
      <rect x="596.9859" y="678.4609" clip-path="url(#clipPath2)" width="105.2001" rx="4" ry="4" height="81.4609" stroke="none"/>
      <rect x="596.9859" y="678.4609" clip-path="url(#clipPath2)" fill="rgb(235,235,235)" width="105.2001" height="21.4609" stroke="none"/>
    </g>
    <g font-size="15px" stroke-linecap="butt" transform="matrix(1,0,0,1,-369,-194)" text-rendering="geometricPrecision" font-family="sans-serif" shape-rendering="geometricPrecision" stroke-miterlimit="1.45">
      <text x="614.6678" xml:space="preserve" y="694.3843" clip-path="url(#clipPath2)" stroke="none">Tuple a b</text>
      <rect x="596.9859" y="678.4609" clip-path="url(#clipPath2)" fill="none" width="105.2001" stroke-dasharray="6,2" rx="4" ry="4" height="81.4609"/>
    </g>
    <g fill="rgb(255,204,0)" text-rendering="geometricPrecision" shape-rendering="geometricPrecision" transform="matrix(1,0,0,1,-369,-194)" stroke="rgb(255,204,0)">
      <rect x="658.1978" width="28.9883" height="30" y="714.9219" clip-path="url(#clipPath2)" stroke="none"/>
    </g>
    <g text-rendering="geometricPrecision" stroke-miterlimit="1.45" shape-rendering="geometricPrecision" transform="matrix(1,0,0,1,-369,-194)" stroke-linecap="butt">
      <rect fill="none" x="658.1978" width="28.9883" height="30" y="714.9219" clip-path="url(#clipPath2)"/>
      <text x="665.1978" xml:space="preserve" y="734.0762" clip-path="url(#clipPath2)" font-family="sans-serif" stroke="none">a2</text>
    </g>
    <g fill="rgb(255,204,0)" text-rendering="geometricPrecision" shape-rendering="geometricPrecision" transform="matrix(1,0,0,1,-369,-194)" stroke="rgb(255,204,0)">
      <rect x="611.9859" width="29.252" height="30" y="714.9219" clip-path="url(#clipPath2)" stroke="none"/>
    </g>
    <g text-rendering="geometricPrecision" stroke-miterlimit="1.45" shape-rendering="geometricPrecision" transform="matrix(1,0,0,1,-369,-194)" stroke-linecap="butt">
      <rect fill="none" x="611.9859" width="29.252" height="30" y="714.9219" clip-path="url(#clipPath2)"/>
      <text x="618.9859" xml:space="preserve" y="734.0762" clip-path="url(#clipPath2)" font-family="sans-serif" stroke="none">b3</text>
      <path fill="none" d="M649.586 600.4396 L649.586 670.4575" clip-path="url(#clipPath2)"/>
      <path d="M649.586 678.4575 L654.586 666.4575 L649.586 669.4575 L644.586 666.4575 Z" clip-path="url(#clipPath2)" stroke="none"/>
      <text x="705.5342" xml:space="preserve" y="629.6465" clip-path="url(#clipPath2)" font-family="sans-serif" stroke="none">Just</text>
      <text x="658.3282" xml:space="preserve" y="643.6152" clip-path="url(#clipPath2)" font-family="sans-serif" stroke="none">(continue loop and </text>
      <text x="658.0938" xml:space="preserve" y="657.584" clip-path="url(#clipPath2)" font-family="sans-serif" stroke="none">accumulate a2 in t)</text>
    </g>
    <g fill="rgb(245,245,245)" text-rendering="geometricPrecision" shape-rendering="geometricPrecision" transform="matrix(1,0,0,1,-369,-194)" stroke="rgb(245,245,245)">
      <rect x="822.9445" y="620.4609" clip-path="url(#clipPath2)" width="107.0966" rx="4" ry="4" height="85.4609" stroke="none"/>
      <rect x="822.9445" y="620.4609" clip-path="url(#clipPath2)" fill="rgb(235,235,235)" width="107.0966" height="21.4609" stroke="none"/>
    </g>
    <g font-size="15px" stroke-linecap="butt" transform="matrix(1,0,0,1,-369,-194)" text-rendering="geometricPrecision" font-family="sans-serif" shape-rendering="geometricPrecision" stroke-miterlimit="1.45">
      <text x="873.5521" xml:space="preserve" y="636.3843" clip-path="url(#clipPath2)" stroke="none">t</text>
      <rect x="822.9445" y="620.4609" clip-path="url(#clipPath2)" fill="none" width="107.0966" stroke-dasharray="6,2" rx="4" ry="4" height="85.4609"/>
    </g>
    <g fill="rgb(255,204,0)" text-rendering="geometricPrecision" shape-rendering="geometricPrecision" transform="matrix(1,0,0,1,-369,-194)" stroke="rgb(255,204,0)">
      <rect x="886.0528" width="28.9883" height="30" y="660.9219" clip-path="url(#clipPath2)" stroke="none"/>
    </g>
    <g text-rendering="geometricPrecision" stroke-miterlimit="1.45" shape-rendering="geometricPrecision" transform="matrix(1,0,0,1,-369,-194)" stroke-linecap="butt">
      <rect fill="none" x="886.0528" width="28.9883" height="30" y="660.9219" clip-path="url(#clipPath2)"/>
      <text x="893.0528" xml:space="preserve" y="680.0762" clip-path="url(#clipPath2)" font-family="sans-serif" stroke="none">a2</text>
    </g>
    <g fill="rgb(255,204,0)" text-rendering="geometricPrecision" shape-rendering="geometricPrecision" transform="matrix(1,0,0,1,-369,-194)" stroke="rgb(255,204,0)">
      <rect x="837.9445" width="28.9883" height="30" y="660.9219" clip-path="url(#clipPath2)" stroke="none"/>
    </g>
    <g text-rendering="geometricPrecision" stroke-miterlimit="1.45" shape-rendering="geometricPrecision" transform="matrix(1,0,0,1,-369,-194)" stroke-linecap="butt">
      <rect fill="none" x="837.9445" width="28.9883" height="30" y="660.9219" clip-path="url(#clipPath2)"/>
      <text x="844.9445" xml:space="preserve" y="680.0762" clip-path="url(#clipPath2)" font-family="sans-serif" stroke="none">a1</text>
      <path fill="none" d="M687.186 729.9219 L900.5469 729.9219 L900.5469 698.9219" clip-path="url(#clipPath2)"/>
      <path d="M900.5469 690.9219 L895.5469 702.9219 L900.5469 699.9219 L905.5469 702.9219 Z" clip-path="url(#clipPath2)" stroke="none"/>
    </g>
    <g fill="rgb(245,245,245)" text-rendering="geometricPrecision" shape-rendering="geometricPrecision" transform="matrix(1,0,0,1,-369,-194)" stroke="rgb(245,245,245)">
      <rect x="988.8127" y="527.7305" clip-path="url(#clipPath2)" width="58.9883" rx="4" ry="4" height="81.4609" stroke="none"/>
      <rect x="988.8127" y="527.7305" clip-path="url(#clipPath2)" fill="rgb(235,235,235)" width="58.9883" height="21.4609" stroke="none"/>
    </g>
    <g font-size="15px" stroke-linecap="butt" transform="matrix(1,0,0,1,-369,-194)" text-rendering="geometricPrecision" font-family="sans-serif" shape-rendering="geometricPrecision" stroke-miterlimit="1.45">
      <text x="1015.3661" xml:space="preserve" y="543.6538" clip-path="url(#clipPath2)" stroke="none">t</text>
      <rect x="988.8127" y="527.7305" clip-path="url(#clipPath2)" fill="none" width="58.9883" stroke-dasharray="6,2" rx="4" ry="4" height="81.4609"/>
    </g>
    <g fill="rgb(255,204,0)" text-rendering="geometricPrecision" shape-rendering="geometricPrecision" transform="matrix(1,0,0,1,-369,-194)" stroke="rgb(255,204,0)">
      <rect x="1003.8127" width="28.9883" height="30" y="564.1914" clip-path="url(#clipPath2)" stroke="none"/>
    </g>
    <g text-rendering="geometricPrecision" stroke-miterlimit="1.45" shape-rendering="geometricPrecision" transform="matrix(1,0,0,1,-369,-194)" stroke-linecap="butt">
      <rect fill="none" x="1003.8127" width="28.9883" height="30" y="564.1914" clip-path="url(#clipPath2)"/>
      <text x="1010.8127" xml:space="preserve" y="583.3457" clip-path="url(#clipPath2)" font-family="sans-serif" stroke="none">a1</text>
    </g>
    <g fill="rgb(255,204,0)" text-rendering="geometricPrecision" shape-rendering="geometricPrecision" transform="matrix(1,0,0,1,-369,-194)" stroke="rgb(255,204,0)">
      <path d="M531.8734 829.9215 L564.5989 797.9215 L597.3244 829.9215 L564.5989 861.9215 Z" fill-rule="evenodd" clip-path="url(#clipPath2)" stroke="none"/>
    </g>
    <g text-rendering="geometricPrecision" stroke-miterlimit="1.45" shape-rendering="geometricPrecision" transform="matrix(1,0,0,1,-369,-194)" stroke-linecap="butt">
      <path fill="none" d="M531.8734 829.9215 L564.5989 797.9215 L597.3244 829.9215 L564.5989 861.9215 Z" fill-rule="evenodd" clip-path="url(#clipPath2)"/>
      <text x="552.9534" xml:space="preserve" y="834.0762" clip-path="url(#clipPath2)" font-family="sans-serif" stroke="none">f b3</text>
      <path fill="none" d="M684.2369 568.4609 L804.0259 568.4609 L804.0259 568.4609 L980.8275 568.4609" clip-path="url(#clipPath2)"/>
      <path d="M988.8275 568.4609 L976.8275 563.4609 L979.8275 568.4609 L976.8275 573.4609 Z" clip-path="url(#clipPath2)" stroke="none"/>
      <text x="780.4332" xml:space="preserve" y="535.6309" clip-path="url(#clipPath2)" font-family="sans-serif" stroke="none">Nothing</text>
      <text x="711.1168" xml:space="preserve" y="549.5996" clip-path="url(#clipPath2)" font-family="sans-serif" stroke="none">(exit loop and return `t` value)</text>
      <path fill="none" d="M611.9859 729.9219 L564.5989 729.9219 L564.5989 789.9395" clip-path="url(#clipPath2)"/>
      <path d="M564.5989 797.9395 L569.5989 785.9395 L564.5989 788.9395 L559.5989 785.9395 Z" clip-path="url(#clipPath2)" stroke="none"/>
      <path fill="none" d="M596.0394 239 L564.5989 729.9219 L564.5989 789.9395" clip-path="url(#clipPath2)"/>
      <path d="M564.5989 797.9395 L569.5989 785.9395 L564.5989 788.9395 L559.5989 785.9395 Z" clip-path="url(#clipPath2)" stroke="none"/>
    </g>
    <g fill="rgb(245,245,245)" text-rendering="geometricPrecision" shape-rendering="geometricPrecision" transform="matrix(1,0,0,1,-369,-194)" stroke="rgb(245,245,245)">
      <rect x="505.4787" y="959.9619" clip-path="url(#clipPath2)" width="118.2402" rx="4" ry="4" height="81.4609" stroke="none"/>
      <rect x="505.4787" y="959.9619" clip-path="url(#clipPath2)" fill="rgb(235,235,235)" width="118.2402" height="21.4609" stroke="none"/>
    </g>
    <g font-size="15px" stroke-linecap="butt" transform="matrix(1,0,0,1,-369,-194)" text-rendering="geometricPrecision" font-family="sans-serif" shape-rendering="geometricPrecision" stroke-miterlimit="1.45">
      <text x="529.6807" xml:space="preserve" y="975.8852" clip-path="url(#clipPath2)" stroke="none">Tuple a b</text>
      <rect x="505.4787" y="959.9619" clip-path="url(#clipPath2)" fill="none" width="118.2402" stroke-dasharray="6,2" rx="4" ry="4" height="81.4609"/>
    </g>
    <g fill="rgb(255,204,0)" text-rendering="geometricPrecision" shape-rendering="geometricPrecision" transform="matrix(1,0,0,1,-369,-194)" stroke="rgb(255,204,0)">
      <rect x="579.7307" width="28.9883" height="30" y="996.4228" clip-path="url(#clipPath2)" stroke="none"/>
    </g>
    <g text-rendering="geometricPrecision" stroke-miterlimit="1.45" shape-rendering="geometricPrecision" transform="matrix(1,0,0,1,-369,-194)" stroke-linecap="butt">
      <rect fill="none" x="579.7307" width="28.9883" height="30" y="996.4228" clip-path="url(#clipPath2)"/>
      <text x="586.7307" xml:space="preserve" y="1015.5771" clip-path="url(#clipPath2)" font-family="sans-serif" stroke="none">a3</text>
    </g>
    <g fill="rgb(255,204,0)" text-rendering="geometricPrecision" shape-rendering="geometricPrecision" transform="matrix(1,0,0,1,-369,-194)" stroke="rgb(255,204,0)">
      <rect x="520.4787" width="29.252" height="30" y="996.4228" clip-path="url(#clipPath2)" stroke="none"/>
    </g>
    <g text-rendering="geometricPrecision" stroke-miterlimit="1.45" shape-rendering="geometricPrecision" transform="matrix(1,0,0,1,-369,-194)" stroke-linecap="butt">
      <rect fill="none" x="520.4787" width="29.252" height="30" y="996.4228" clip-path="url(#clipPath2)"/>
      <text x="527.4788" xml:space="preserve" y="1015.5771" clip-path="url(#clipPath2)" font-family="sans-serif" stroke="none">b4</text>
      <path fill="none" d="M564.5989 861.8997 L564.5989 951.9288" clip-path="url(#clipPath2)"/>
      <path d="M564.5989 959.9288 L569.5989 947.9288 L564.5989 950.9288 L559.5989 947.9288 Z" clip-path="url(#clipPath2)" stroke="none"/>
      <text x="620.5471" xml:space="preserve" y="901.1274" clip-path="url(#clipPath2)" font-family="sans-serif" stroke="none">Just</text>
      <text x="573.3411" xml:space="preserve" y="915.0962" clip-path="url(#clipPath2)" font-family="sans-serif" stroke="none">(continue loop and </text>
      <text x="573.1067" xml:space="preserve" y="929.0649" clip-path="url(#clipPath2)" font-family="sans-serif" stroke="none">accumulate a2 in t)</text>
    </g>
    <g fill="rgb(245,245,245)" text-rendering="geometricPrecision" shape-rendering="geometricPrecision" transform="matrix(1,0,0,1,-369,-194)" stroke="rgb(245,245,245)">
      <rect x="735.252" y="895.459" clip-path="url(#clipPath2)" width="158.8283" rx="4" ry="4" height="81.4609" stroke="none"/>
      <rect x="735.252" y="895.459" clip-path="url(#clipPath2)" fill="rgb(235,235,235)" width="158.8283" height="21.4609" stroke="none"/>
    </g>
    <g font-size="15px" stroke-linecap="butt" transform="matrix(1,0,0,1,-369,-194)" text-rendering="geometricPrecision" font-family="sans-serif" shape-rendering="geometricPrecision" stroke-miterlimit="1.45">
      <text x="811.7254" xml:space="preserve" y="911.3823" clip-path="url(#clipPath2)" stroke="none">t</text>
      <rect x="735.252" y="895.459" clip-path="url(#clipPath2)" fill="none" width="158.8283" stroke-dasharray="6,2" rx="4" ry="4" height="81.4609"/>
    </g>
    <g fill="rgb(255,204,0)" text-rendering="geometricPrecision" shape-rendering="geometricPrecision" transform="matrix(1,0,0,1,-369,-194)" stroke="rgb(255,204,0)">
      <rect x="850.092" width="28.9883" height="30" y="931.9199" clip-path="url(#clipPath2)" stroke="none"/>
    </g>
    <g text-rendering="geometricPrecision" stroke-miterlimit="1.45" shape-rendering="geometricPrecision" transform="matrix(1,0,0,1,-369,-194)" stroke-linecap="butt">
      <rect fill="none" x="850.092" width="28.9883" height="30" y="931.9199" clip-path="url(#clipPath2)"/>
      <text x="857.092" xml:space="preserve" y="951.0742" clip-path="url(#clipPath2)" font-family="sans-serif" stroke="none">a3</text>
    </g>
    <g fill="rgb(255,204,0)" text-rendering="geometricPrecision" shape-rendering="geometricPrecision" transform="matrix(1,0,0,1,-369,-194)" stroke="rgb(255,204,0)">
      <rect x="750.252" width="28.9883" height="30" y="931.9199" clip-path="url(#clipPath2)" stroke="none"/>
    </g>
    <g text-rendering="geometricPrecision" stroke-miterlimit="1.45" shape-rendering="geometricPrecision" transform="matrix(1,0,0,1,-369,-194)" stroke-linecap="butt">
      <rect fill="none" x="750.252" width="28.9883" height="30" y="931.9199" clip-path="url(#clipPath2)"/>
      <text x="757.252" xml:space="preserve" y="951.0742" clip-path="url(#clipPath2)" font-family="sans-serif" stroke="none">a1</text>
    </g>
    <g fill="rgb(255,204,0)" text-rendering="geometricPrecision" shape-rendering="geometricPrecision" transform="matrix(1,0,0,1,-369,-194)" stroke="rgb(255,204,0)">
      <rect x="800.172" width="28.9883" height="30" y="931.9199" clip-path="url(#clipPath2)" stroke="none"/>
    </g>
    <g text-rendering="geometricPrecision" stroke-miterlimit="1.45" shape-rendering="geometricPrecision" transform="matrix(1,0,0,1,-369,-194)" stroke-linecap="butt">
      <rect fill="none" x="800.172" width="28.9883" height="30" y="931.9199" clip-path="url(#clipPath2)"/>
      <text x="807.1719" xml:space="preserve" y="951.0742" clip-path="url(#clipPath2)" font-family="sans-serif" stroke="none">a2</text>
      <path fill="none" d="M608.719 1011.4228 L864.5861 1011.4228 L864.5861 969.9199" clip-path="url(#clipPath2)"/>
      <path d="M864.5861 961.9199 L859.5861 973.9199 L864.5861 970.9199 L869.5861 973.9199 Z" clip-path="url(#clipPath2)" stroke="none"/>
    </g>
    <g fill="rgb(245,245,245)" text-rendering="geometricPrecision" shape-rendering="geometricPrecision" transform="matrix(1,0,0,1,-369,-194)" stroke="rgb(245,245,245)">
      <rect x="828.7586" y="789.1914" clip-path="url(#clipPath2)" width="106.9883" rx="4" ry="4" height="81.4609" stroke="none"/>
      <rect x="828.7586" y="789.1914" clip-path="url(#clipPath2)" fill="rgb(235,235,235)" width="106.9883" height="21.4609" stroke="none"/>
    </g>
    <g font-size="15px" stroke-linecap="butt" transform="matrix(1,0,0,1,-369,-194)" text-rendering="geometricPrecision" font-family="sans-serif" shape-rendering="geometricPrecision" stroke-miterlimit="1.45">
      <text x="879.3121" xml:space="preserve" y="805.1147" clip-path="url(#clipPath2)" stroke="none">t</text>
      <rect x="828.7586" y="789.1914" clip-path="url(#clipPath2)" fill="none" width="106.9883" stroke-dasharray="6,2" rx="4" ry="4" height="81.4609"/>
    </g>
    <g fill="rgb(255,204,0)" text-rendering="geometricPrecision" shape-rendering="geometricPrecision" transform="matrix(1,0,0,1,-369,-194)" stroke="rgb(255,204,0)">
      <rect x="843.7586" width="28.9883" height="30" y="825.6523" clip-path="url(#clipPath2)" stroke="none"/>
    </g>
    <g text-rendering="geometricPrecision" stroke-miterlimit="1.45" shape-rendering="geometricPrecision" transform="matrix(1,0,0,1,-369,-194)" stroke-linecap="butt">
      <rect fill="none" x="843.7586" width="28.9883" height="30" y="825.6523" clip-path="url(#clipPath2)"/>
      <text x="850.7586" xml:space="preserve" y="844.8066" clip-path="url(#clipPath2)" font-family="sans-serif" stroke="none">a1</text>
    </g>
    <g fill="rgb(255,204,0)" text-rendering="geometricPrecision" shape-rendering="geometricPrecision" transform="matrix(1,0,0,1,-369,-194)" stroke="rgb(255,204,0)">
      <rect x="891.7586" width="28.9883" height="30" y="825.6523" clip-path="url(#clipPath2)" stroke="none"/>
    </g>
    <g text-rendering="geometricPrecision" stroke-miterlimit="1.45" shape-rendering="geometricPrecision" transform="matrix(1,0,0,1,-369,-194)" stroke-linecap="butt">
      <rect fill="none" x="891.7586" width="28.9883" height="30" y="825.6523" clip-path="url(#clipPath2)"/>
      <text x="898.7586" xml:space="preserve" y="844.8066" clip-path="url(#clipPath2)" font-family="sans-serif" stroke="none">a2</text>
    </g>
    <g fill="rgb(255,204,0)" text-rendering="geometricPrecision" shape-rendering="geometricPrecision" transform="matrix(1,0,0,1,-369,-194)" stroke="rgb(255,204,0)">
      <path d="M384.5251 1131.8602 L470.9737 1071.4204 L557.4219 1131.8602 L470.9737 1192.2988 Z" fill-rule="evenodd" clip-path="url(#clipPath2)" stroke="none"/>
    </g>
    <g text-rendering="geometricPrecision" stroke-miterlimit="1.45" shape-rendering="geometricPrecision" transform="matrix(1,0,0,1,-369,-194)" stroke-linecap="butt">
      <path fill="none" d="M384.5251 1131.8602 L470.9737 1071.4204 L557.4219 1131.8602 L470.9737 1192.2988 Z" fill-rule="evenodd" clip-path="url(#clipPath2)"/>
      <text x="432.0025" xml:space="preserve" y="1129.0327" clip-path="url(#clipPath2)" font-family="sans-serif" stroke="none">Looping until</text>
      <text x="405.8609" xml:space="preserve" y="1143.0015" clip-path="url(#clipPath2)" font-family="sans-serif" stroke="none">we hit a Nothing case</text>
      <path fill="none" d="M597.2871 829.9219 L820.7869 829.9219" clip-path="url(#clipPath2)"/>
      <path d="M828.7869 829.9219 L816.7869 824.9219 L819.7869 829.9219 L816.7869 834.9219 Z" clip-path="url(#clipPath2)" stroke="none"/>
      <text x="673.6408" xml:space="preserve" y="797.0918" clip-path="url(#clipPath2)" font-family="sans-serif" stroke="none">Nothing</text>
      <text x="604.3244" xml:space="preserve" y="811.0605" clip-path="url(#clipPath2)" font-family="sans-serif" stroke="none">(exit loop and return `t` value)</text>
      <path fill="none" d="M520.4788 1011.4228 L470.9732 1011.4228 L470.9732 1063.437" clip-path="url(#clipPath2)"/>
      <path d="M470.9732 1071.437 L475.9732 1059.437 L470.9732 1062.437 L465.9732 1059.437 Z" clip-path="url(#clipPath2)" stroke="none"/>
      <path fill="none" d="M594.5992 239 L470.9732 1011.4228 L470.9732 1063.437" clip-path="url(#clipPath2)"/>
      <path d="M470.9732 1071.437 L475.9732 1059.437 L470.9732 1062.437 L465.9732 1059.437 Z" clip-path="url(#clipPath2)" stroke="none"/>
      <path fill="none" d="M429.027 1162.9624 L428.0226 1166.8685 L427.3583 1171.2216 L427.132 1175.7041 L427.3583 1180.1866 L428.0226 1184.5397 L429.103 1188.7411 L430.5772 1192.769 L432.4234 1196.6014 L434.6194 1200.2162 L437.1432 1203.5912 L439.9728 1206.7046 L443.0861 1209.5342 L446.4612 1212.058 L450.0759 1214.2539 L453.9082 1216.1001 L457.9362 1217.5743 L462.1377 1218.6547 L466.4907 1219.319 L470.9732 1219.5454 L475.4557 1219.319 L479.8088 1218.6547 L484.0103 1217.5743 L488.0382 1216.1001 L491.8706 1214.2539 L495.4853 1212.058 L498.8604 1209.5342 L501.9737 1206.7046 L504.8033 1203.5912 L507.3271 1200.2162 L509.5231 1196.6014 L511.3693 1192.769 L512.8435 1188.7411 L513.9238 1184.5397 L514.5882 1180.1866 L514.8145 1175.7041 L514.5882 1171.2216 L514.5239 1170.7999 L514.499 1170.7031" clip-path="url(#clipPath2)"/>
      <path d="M512.8995 1162.8646 L510.3996 1175.6219 L514.6989 1171.6829 L520.1977 1173.6227 Z" clip-path="url(#clipPath2)" stroke="none"/>
    </g>
  </g>
</svg>
